<svg version="1.1" id="_x36_3859583-41e0-4431-a350-890301d6874a" xmlns="http://www.w3.org/2000/svg" x="0" y="0" width="265" height="55.4" viewBox="0 0 265 55.4" xml:space="preserve"><style>.st0{fill:#636778}.st1{fill:#53607c}.st3{fill:#fff}.st5{fill:#cdcdcd}</style><path class="st0" d="M0 14.5h1v26.2H0zm89 0h1v29.6h-1zm-86 2h82.4v1H3z"/><path class="st1" d="M6 34.7h253c3.3 0 6 2.7 6 6v1c0 3.3-2.7 6-6 6H6c-3.3 0-6-2.7-6-6v-1c0-3.3 2.7-6 6-6z"/><path d="M6 34.7h78c3.3 0 6 2.7 6 6v1c0 3.3-2.7 6-6 6H6c-3.3 0-6-2.7-6-6v-1c0-3.3 2.7-6 6-6z" fill="#08f"/><path class="st3" d="M80.4 41.4H7.1c-.3 0-.5-.2-.5-.5s.2-.5.5-.5h73.3c.3 0 .5.2.5.5s-.2.5-.5.5z"/><path class="st3" d="M105.6 41.4h-2.5c-.3 0-.5-.2-.5-.5s.2-.5.5-.5h2.5c.3 0 .5.2.5.5s-.2.5-.5.5zm52.1 0h-5.2c-.3 0-.5-.2-.5-.5s.2-.5.5-.5h5.2c.3 0 .5.2.5.5s-.2.5-.5.5zm-10.4 0h-5.2c-.3 0-.5-.2-.5-.5s.2-.5.5-.5h5.2c.3 0 .5.2.5.5s-.2.5-.5.5zm-10.4 0h-5.2c-.3 0-.5-.2-.5-.5s.2-.5.5-.5h5.2c.3 0 .5.2.5.4v.1c0 .3-.2.5-.5.5zm-10.5 0h-5.2c-.3 0-.5-.2-.5-.5s.2-.5.5-.5h5.2c.3 0 .5.2.5.5s-.2.5-.5.5zm-10.4 0h-5.2c-.3 0-.5-.2-.5-.5s.2-.5.5-.5h5.2c.3 0 .5.2.5.5s-.2.5-.5.5zm49.4 0h-2.5c-.3 0-.5-.2-.5-.5s.2-.5.5-.5h2.5c.3 0 .5.2.5.5s-.2.5-.5.5z" opacity=".3"/><path class="st1" d="M28.4 9.1h-1.5l-2.8-3.5h-1.3v3.5h-1.2V.4h2.2c.4 0 .9 0 1.3.1s.7.2 1 .4c.3.2.5.5.7.8.2.3.3.7.3 1.1 0 .6-.2 1.1-.5 1.6s-.8.8-1.3 1l3.1 3.7zm-2.5-6.3c0-.2 0-.5-.1-.7-.1-.2-.2-.4-.4-.5-.2-.1-.4-.2-.6-.2-.3 0-.5-.1-.8-.1h-1.2v3.3h1c.3 0 .6 0 .9-.1.3-.1.5-.2.7-.4.2-.2.3-.4.4-.6 0-.2.1-.5.1-.7zm5.7 6.5c-.9.1-1.8-.3-2.4-.9-.6-.7-.9-1.6-.9-2.5 0-.9.3-1.8.8-2.5.6-.6 1.4-1 2.2-1 .4 0 .7.1 1.1.2.3.1.6.3.8.5.2.3.4.6.5.9.2.4.3.9.3 1.4V6h-4.5c0 .6.2 1.2.5 1.7.4.4 1 .6 1.6.6.2 0 .5 0 .7-.1.2 0 .5-.1.7-.2.2-.1.3-.2.5-.3s.2-.2.3-.2h.1v1.2l-.5.2-.5.2-.6.1c-.2 0-.4.1-.7.1zm1.3-4.2c0-.3 0-.5-.1-.8-.1-.2-.1-.4-.3-.5-.1-.2-.3-.3-.5-.4-.5-.2-1-.2-1.5 0-.2.1-.4.2-.6.4-.2.2-.3.4-.4.6-.1.2-.1.5-.2.7h3.6zm4 4.2c-.4 0-.8-.1-1.2-.2-.3-.1-.7-.2-1-.4V7.5h.1l.3.2c.2.1.3.2.5.3.2.1.4.2.6.2.2.1.5.1.7.1.2 0 .4 0 .6-.1.2 0 .3-.1.5-.2 0 .1.1 0 .2-.2.1-.1.1-.3.1-.5s-.1-.4-.2-.6c-.2-.2-.5-.3-.8-.3l-.5-.1-.6-.2c-.4-.1-.8-.3-1.1-.7-.2-.3-.4-.7-.3-1.1 0-.6.2-1.1.7-1.4.5-.4 1.1-.6 1.8-.6.4 0 .7 0 1.1.1l.9.3v1.2h-.1c-.3-.2-.6-.4-.9-.5-.3-.1-.7-.2-1-.2-.3 0-.6.1-.9.2-.3.2-.5.5-.5.9 0 .2.1.4.2.6.2.2.4.3.7.3l.5.1.7.2c.4.1.8.3 1.1.6.3.3.4.8.4 1.2 0 .3-.1.5-.2.8-.1.3-.3.5-.5.6-.2.2-.5.3-.8.4-.4.1-.7.2-1.1.2zm6.4 0c-.9.1-1.8-.3-2.4-.9-.6-.7-.9-1.6-.9-2.5 0-.9.3-1.8.8-2.6.5-.7 1.4-1 2.2-.9.4 0 .7.1 1.1.2.3.1.6.3.8.5.2.3.4.6.5.9.1.4.2.9.2 1.3V6h-4.5c0 .6.2 1.3.6 1.8.4.4 1 .6 1.6.6.2 0 .5-.1.7-.1s.4-.1.6-.2.3-.2.5-.3.2-.2.3-.2h.1v1.2L45 9l-.5.2H44c-.2.1-.5.1-.7.1zm1.3-4.2c0-.3 0-.5-.1-.8-.1-.2-.1-.4-.3-.5-.1-.2-.3-.3-.5-.4-.5-.2-1-.2-1.5 0-.2.1-.4.2-.6.4-.2.2-.3.4-.4.6-.1.2-.1.5-.2.7h3.6zm5.6-1.3h-.6c-.3 0-.6.1-.9.2-.3.1-.6.3-.8.6v4.6h-1.1V2.6h1.1v1c.3-.3.7-.5 1-.8.3-.1.6-.2.9-.2h.4v1.2zm6-1.2l-2.5 6.6h-1l-2.4-6.6h1.2l1.8 5.1 1.8-5.1h1.1zm3.6 6.7c-.9 0-1.7-.3-2.4-.9-.6-.7-.9-1.6-.9-2.5 0-.9.3-1.8.8-2.5.6-.6 1.4-1 2.2-1 .4 0 .7.1 1.1.2.3.1.6.3.8.5.3.2.5.6.6.9.1.4.2.9.2 1.3V6h-4.5c0 .6.2 1.3.6 1.8.4.4 1 .6 1.6.6.2 0 .5 0 .7-.1l.6-.3c.2-.1.3-.2.5-.3s.2-.1.3-.2h.1v1.2l-.5.2-.5.2-.6.1c-.2.1-.5.1-.7.1zm1.3-4.2c0-.3 0-.5-.1-.8-.1-.2-.1-.4-.3-.5-.1-.2-.3-.3-.5-.4-.5-.2-1-.2-1.5 0-.2.1-.4.2-.6.4l-.3.6c-.1.2-.1.5-.2.7h3.5zm7.2 4h-1.1v-.7l-.4.4c-.1.1-.3.2-.4.3s-.3.1-.5.2-.4.1-.6.1c-.3 0-.7-.1-1-.2-.3-.2-.6-.4-.8-.6-.2-.3-.4-.7-.5-1.1-.1-.5-.2-1-.2-1.5s.1-1 .2-1.5c.1-.4.3-.8.6-1.1.2-.3.5-.6.9-.7.3-.2.7-.2 1.1-.2.3 0 .6 0 .9.1.3.1.5.2.8.3V0h1.1l-.1 9.1zm-1.1-1.6V3.8c-.2-.1-.5-.2-.7-.3-.2-.1-.5-.1-.7-.1-.5 0-1 .2-1.3.6-.4.6-.5 1.2-.5 1.9 0 .6.1 1.2.4 1.8.3.4.7.6 1.2.6.3 0 .6-.1.9-.2.2-.2.5-.4.7-.6z"/><path class="st0" d="M1.5 17l6 3.5v-7zm87 0l-6-3.5v7z"/><path class="st3" d="M81.8 55.4c-.4 0-.7-.2-.9-.5l-7.8-13.5c-.2-.3-.2-.7 0-1l7.8-13.5c.2-.3.5-.5.9-.5h15.5c.4 0 .7.2.9.5l7.7 13.5c.2.3.2.7 0 1l-7.7 13.5c-.2.3-.5.5-.9.5H81.8z"/><path class="st5" d="M96.5 53.1h-14l-7-12.2 7-12.2h14l7 12.2-7 12.2zM83.1 52h12.8l6.4-11.1-6.4-11.2H83.1l-6.4 11.2L83.1 52z"/><path class="st5" d="M89.5 47.1c-3.4 0-6.2-2.8-6.2-6.2s2.8-6.2 6.2-6.2c3.4 0 6.2 2.8 6.2 6.2 0 3.4-2.8 6.2-6.2 6.2zm0-11.4c-2.9 0-5.2 2.3-5.2 5.2s2.3 5.2 5.2 5.2c2.9 0 5.2-2.3 5.2-5.2-.1-2.8-2.4-5.1-5.2-5.2z"/><path class="st5" d="M94.7 40.1h8.2v1h-8.2zM82.9 51.8l4.1-6.3.9.6-4.2 6.2zm0-22.3l.8-.5 4.2 6.2-.9.5z"/><path class="st3" d="M172.7 52.8c-.3 0-.6-.2-.7-.4l-6.4-11.1c-.2-.3-.2-.6 0-.9l6.4-11c.1-.3.4-.5.7-.5h12.7c.3 0 .6.2.7.4l6.5 11.1c.2.3.2.6 0 .9l-6.4 11c-.1.3-.4.4-.7.4l-12.8.1z" opacity=".1"/><path class="st3" d="M195.5 40.4l-7.8-13.5c-.2-.3-.5-.5-.9-.5h-15.4c-.4 0-.7.2-.9.5l-7.8 13.5c-.2.3-.2.7 0 1l7.7 13.5c.2.3.6.5 1 .5h15.5c.4 0 .7-.2.9-.5l7.7-13.5c.1-.3.1-.7 0-1zm-9.7 12.1h-13.5l-6.7-11.6 6.9-11.8h13.3l6.7 11.5-6.7 11.9z"/><path class="st5" d="M186.1 53.1h-14l-7-12.2 7-12.2h14l7 12.2-7 12.2zM172.7 52h12.8l6.4-11.1-6.4-11.2h-12.8l-6.4 11.2 6.4 11.1z"/><path class="st5" d="M179.1 47.1c-3.4 0-6.2-2.8-6.2-6.2s2.8-6.2 6.2-6.2c3.4 0 6.2 2.8 6.2 6.2 0 3.4-2.7 6.2-6.2 6.2zm0-11.4c-2.9 0-5.2 2.3-5.2 5.2s2.3 5.2 5.2 5.2c2.9 0 5.2-2.3 5.2-5.2 0-2.9-2.3-5.2-5.2-5.2z"/><path class="st5" d="M184.3 40.1h8.2v1h-8.2zm-11.8 11.7l4.1-6.3.9.6-4.2 6.2zm0-22.3l.8-.5 4.2 6.2-.9.5z"/></svg>