<svg data-name="Слой 1" xmlns="http://www.w3.org/2000/svg" width="49" height="49" viewBox="0 0 49 49"><path d="M42 2a5 5 0 015 5v35a5 5 0 01-5 5H7a5 5 0 01-5-5V7a5 5 0 015-5h35m0-2H7a7 7 0 00-7 7v35a7 7 0 007 7h35a7 7 0 007-7V7a7 7 0 00-7-7z" fill="#326ce5"/><path d="M22.86 22.26a.59.59 0 00.62-.56l.2-3.47q-.34 0-.68.11a6.83 6.83 0 00-3.29 1.79l2.85 2a.59.59 0 00.3.13zm-1.52 2.33a.59.59 0 00-.09-.82l-2.6-2.33a6.83 6.83 0 00-1 4.32l3.34-1a.59.59 0 00.35-.17zM25.67 22a.59.59 0 00.82.13l2.81-2a6.88 6.88 0 00-4-1.91l.23 3.47a.59.59 0 00.14.31zm-2.13 3.83l.96.46.95-.46.24-1.03-.66-.83h-1.07l-.66.83.24 1.03zm-1.95.97h-.15l-3.44.57a6.86 6.86 0 002.75 3.44l1.33-3.2a.59.59 0 00-.51-.81zm5.79 0a.59.59 0 00-.51.82l1.34 3.23A6.83 6.83 0 0031 27.38l-3.45-.58zm2.95-5.36l-2.57 2.32a.59.59 0 00.23 1l3.35 1a7 7 0 00-1-4.31zm-5.85 6.77a.59.59 0 00-.53.32l-1.68 3a6.85 6.85 0 003.74.19 7 7 0 00.67-.19l-1.69-3a.59.59 0 00-.51-.32z" fill="#326ce5"/><path d="M40.37 27.85L37.63 16a2.1 2.1 0 00-1.15-1.42L25.41 9.25a2.22 2.22 0 00-1.83 0l-11.07 5.29A2.1 2.1 0 0011.36 16L8.63 27.85a2.09 2.09 0 00.29 1.61l.12.17 7.68 9.52a2.12 2.12 0 001.65.79h12.29a2.12 2.12 0 001.65-.79L40 29.62a2.09 2.09 0 00.37-1.77zm-4.25-.1a.66.66 0 01-.83.44h-.17a5.55 5.55 0 01-.6-.23 6.19 6.19 0 00-1.16-.34.51.51 0 00-.37.14l-.28-.05a8.62 8.62 0 01-3.82 4.81 2.28 2.28 0 00.11.27.51.51 0 00-.05.39 6.17 6.17 0 00.59 1 5.52 5.52 0 01.35.51l.09.18a.67.67 0 11-1.2.57l-.08-.17a5.54 5.54 0 01-.19-.61 6.17 6.17 0 00-.45-1.12.51.51 0 00-.34-.21l-.14-.26a8.57 8.57 0 01-6.12 0l-.15.27a.51.51 0 00-.29.14 4.63 4.63 0 00-.51 1.19 5.53 5.53 0 01-.19.61l-.1.14v.06a.66.66 0 01-1.22-.62l.09-.18a5.54 5.54 0 01.35-.51 6.48 6.48 0 00.6-1.08.66.66 0 00-.06-.38l.12-.29a8.62 8.62 0 01-3.82-4.77l-.28.05a.73.73 0 00-.38-.13 6.17 6.17 0 00-1.15.35 5.54 5.54 0 01-.6.23h-.26a.66.66 0 11-.2-1.31h.17a5.55 5.55 0 01.64-.05 6.17 6.17 0 001.19-.2.92.92 0 00.28-.29l.28-.08a8.57 8.57 0 011.35-6l-.21-.19a.73.73 0 00-.13-.38A6.17 6.17 0 0016 19a5.53 5.53 0 01-.55-.32l-.14-.11a.7.7 0 01-.16-1 .64.64 0 01.51-.23.79.79 0 01.46.17l.15.12a5.52 5.52 0 01.44.46 6.17 6.17 0 00.9.81.51.51 0 00.4 0l.24.17a8.52 8.52 0 014.32-2.48 8.62 8.62 0 011.2-.19v-.28a.72.72 0 00.22-.34 6.17 6.17 0 00-.07-1.2 5.53 5.53 0 01-.09-.63v-.17a.7.7 0 01.66-.73.7.7 0 01.66.73V14a5.53 5.53 0 01-.09.63 6.2 6.2 0 00-.08 1.2.51.51 0 00.22.33v.3a8.68 8.68 0 015.5 2.66L31 19a.74.74 0 00.4 0 6.2 6.2 0 00.89-.81 5.55 5.55 0 01.44-.46l.15-.12a.67.67 0 11.83 1l-.14.12A5.54 5.54 0 0133 19a6.17 6.17 0 00-1 .69.51.51 0 00-.12.38l-.24.21a8.61 8.61 0 011.39 6l.27.08a.75.75 0 00.29.29 6.17 6.17 0 001.19.2 5.55 5.55 0 01.64.05h.28a.66.66 0 01.42.85z" fill="#326ce5"/></svg>