<svg data-name="Слой 1" xmlns="http://www.w3.org/2000/svg" viewBox="0 0 49 49"><path d="M42 2a5 5 0 015 5v35a5 5 0 01-5 5H7a5 5 0 01-5-5V7a5 5 0 015-5h35m0-2H7a7 7 0 00-7 7v35a7 7 0 007 7h35a7 7 0 007-7V7a7 7 0 00-7-7z" fill="#5e8cda"/><path d="M39.67 23.64L31 15a.19.19 0 00-.14-.06.19.19 0 00-.14.07L27 19.68a.19.19 0 000 .25l4 4a.75.75 0 01.22.54.74.74 0 01-.22.53l-1.15 1.15a.19.19 0 000 .24c.29.43.76 1.14.8 1.21a1.22 1.22 0 01-.23 1.35l-9.06 7a.19.19 0 00-.07.15v7.06c0 .06 0 .21.11.27h.09c.08 0 .11 0 .19-.11l.15-.15.57-.57 2-2 6.21-6.21 9-9a1.15 1.15 0 00.06-1.75z" fill="#5e8cda"/><path d="M28.15 5.09A.19.19 0 0028 5a.19.19 0 00-.14.06L9.78 23.13a1.13 1.13 0 000 1.61l8.67 8.67a.19.19 0 00.14.06.19.19 0 00.14-.07l3.7-4.69a.19.19 0 000-.25l-4-4a.75.75 0 010-1.06l1.15-1.16a.19.19 0 000-.25l-.79-1.13a1.05 1.05 0 01.21-1.42l9.06-7a.19.19 0 00.08-.15V5.2a.19.19 0 00.01-.11z" fill="#093071"/><path d="M29.74 27.47L19.71 21l4.43 6.37a.51.51 0 010 .54l-7.96 10.03c-.14.18-.26.38-.16.58a.4.4 0 00.31.2.72.72 0 00.44-.2l12.76-9.8a1.1 1.1 0 00.21-1.25z" fill="#f2c913"/><path d="M33.43 9.85a.38.38 0 00-.33-.21.69.69 0 00-.42.19l-12.77 9.8a1 1 0 00-.2 1.32l10 6.52-4.4-6.47a.51.51 0 010-.53l7.94-10.08c.15-.14.28-.33.18-.54z" fill="#f4d646"/></svg>