<svg data-name="Слой 1" xmlns="http://www.w3.org/2000/svg" width="49" height="49" viewBox="0 0 49 49"><path d="M42 2a5 5 0 015 5v35a5 5 0 01-5 5H7a5 5 0 01-5-5V7a5 5 0 015-5h35m0-2H7a7 7 0 00-7 7v35a7 7 0 007 7h35a7 7 0 007-7V7a7 7 0 00-7-7z" fill="#845af1"/><path d="M12.68 25.5a11.81 11.81 0 006.66 10.63l-5.63-15.44a11.71 11.71 0 00-1.03 4.81zm19.8-.6a6.08 6.08 0 00-1-3.25 5.55 5.55 0 01-1.16-2.78 2 2 0 012-2.09h.15a11.81 11.81 0 00-16.69.73A11 11 0 0014.63 19h.76c1.23 0 3.15-.15 3.15-.15a.49.49 0 01.07 1s-.64.07-1.35.11l4.3 12.8L24.15 25l-1.84-5c-.64 0-1.24-.11-1.24-.11a.49.49 0 01.07-1s1.95.15 3.12.15 3.14-.15 3.14-.15a.49.49 0 01.08 1s-.64.07-1.35.11l4.27 12.7 1.18-3.94a14.2 14.2 0 00.9-3.86z" fill="#845af1"/><path d="M24.71 26.53l-3.55 10.3a11.77 11.77 0 007.26-.19.8.8 0 01-.08-.16zm10.16-6.7a9.87 9.87 0 01.13 1.22 11.24 11.24 0 01-.9 4.23l-3.66 10.43a11.81 11.81 0 004.43-15.88z" fill="#845af1"/><path d="M24.5 11.73A13.77 13.77 0 1038.27 25.5 13.79 13.79 0 0024.5 11.73zm0 26.91A13.14 13.14 0 1137.64 25.5 13.15 13.15 0 0124.5 38.64z" fill="#845af1"/><path d="M3.89 44h-.15l3-3.48-3-3.93h.15c3.22.42 4.62.54 7.84-.4 0 2.47.59 5.32.59 7.79-3.22.93-5.21.42-8.43.02z" fill="#ff8500"/><path fill="#ff8500" d="M9.36 42.64l2.96 1.32v-1.32H9.36zM45.11 44h.15l-3-3.48 3-3.93h-.15c-3.22.42-4.62.54-7.84-.4 0 2.47-.59 5.32-.59 7.79 3.22.93 5.21.42 8.43.02z"/><path fill="#ff8500" d="M36.68 43.96v-1.32h2.48l-2.48 1.32z"/><path fill="#ffa000" d="M9.4 35.33h29.73v7.31H9.4z"/><path d="M13.27 41.12a2 2 0 01-.71-.13 1.49 1.49 0 01-.56-.39 1.83 1.83 0 01-.37-.64 2.69 2.69 0 01-.13-.89 2.47 2.47 0 01.13-.86 1.75 1.75 0 01.36-.64 1.54 1.54 0 01.57-.41 1.81 1.81 0 01.72-.14 2.13 2.13 0 01.37 0l.33.07.26.1.26.14V38l-.18-.15a2 2 0 00-.26-.18 2.33 2.33 0 00-.33-.14 1.73 1.73 0 00-.42-.05 1.1 1.1 0 00-.47.1 1.08 1.08 0 00-.4.31 1.36 1.36 0 00-.26.51 2.38 2.38 0 00-.09.68 2.07 2.07 0 00.1.7 1.48 1.48 0 00.26.5 1 1 0 00.39.29 1.1 1.1 0 00.47.1 1.45 1.45 0 00.43 0 2.18 2.18 0 00.34-.14 1.8 1.8 0 00.25-.17l.17-.15v.63l-.24.11L14 41l-.33.09a1.87 1.87 0 01-.4.03zm1.73-.07v-4h2.47v.47h-1.95v1.08h1.81v.47h-1.81v1.47h1.94v.47zm6.1 0h-.68l-1.25-1.58h-.6v1.58H18v-4h1a4.22 4.22 0 01.57 0 1.09 1.09 0 01.44.17 1 1 0 01.32.35.93.93 0 01.13.52 1.19 1.19 0 01-.22.72 1.35 1.35 0 01-.6.44zM20 38.21a.75.75 0 00-.06-.31.67.67 0 00-.19-.22 1 1 0 00-.26-.11 2 2 0 00-.37 0h-.52V39h.4a2.59 2.59 0 00.41 0 .69.69 0 00.47-.43 1 1 0 00.12-.36zm2.19 2.84v-3.49h-1.32v-.47h3.18v.47h-1.33v3.49zm3.64 0h-1.54v-.41h.51V37.5h-.51v-.41h1.54v.41h-.51v3.14h.51zm3.01-3.49H27v1.12h1.76v.46H27v1.91h-.53v-4h2.37zm1.85 3.49h-1.53v-.41h.5V37.5h-.5v-.41h1.53v.41h-.5v3.14h.5zm.65 0v-4h2.47v.47h-2v1.08h1.82v.47h-1.77v1.47h2v.47zm6.16-1.98a2.24 2.24 0 01-.21 1 1.79 1.79 0 01-.59.68 1.75 1.75 0 01-.61.25 4.2 4.2 0 01-.79.07h-.91v-4h.9a3.31 3.31 0 01.87.09 1.66 1.66 0 01.54.23 1.6 1.6 0 01.59.67 2.19 2.19 0 01.21 1.01zm-.54 0a1.81 1.81 0 00-.15-.78 1.12 1.12 0 00-.45-.51 1.77 1.77 0 00-.45-.18 2.52 2.52 0 00-.6-.06h-.4v3.05h.4a2.88 2.88 0 00.62-.05 1.46 1.46 0 00.48-.21 1.15 1.15 0 00.41-.49 2 2 0 00.18-.77z" fill="#fff"/><path d="M29.79 5.34a1.05 1.05 0 00-1.06 1 1.14 1.14 0 00.05.33l-.85.55A1.33 1.33 0 0126.19 7l-.84-1a1 1 0 00.21-.62 1.06 1.06 0 00-2.12 0 1.08 1.08 0 00.21.62l-.84 1a1.32 1.32 0 01-1.73.28l-.86-.55a1.14 1.14 0 00.05-.33 1.06 1.06 0 00-2.11 0 1.06 1.06 0 001 1.06l.62 3.68a11.85 11.85 0 014.76-.79 12.12 12.12 0 014.77.79l.61-3.68a1.06 1.06 0 00-.09-2.11z" fill="#ffa000"/></svg>