<svg data-name="Слой 1" xmlns="http://www.w3.org/2000/svg" width="49" height="49" viewBox="0 0 49 49"><path d="M42 2a5 5 0 015 5v35a5 5 0 01-5 5H7a5 5 0 01-5-5V7a5 5 0 015-5h35m0-2H7a7 7 0 00-7 7v35a7 7 0 007 7h35a7 7 0 007-7V7a7 7 0 00-7-7z" fill="#a1a0a5"/><path d="M15.87 23.65a1.14 1.14 0 01.41-1 1.36 1.36 0 01.8-.3h1.39a1.69 1.69 0 011.58 1.1 2.48 2.48 0 002.5 1.2l4.1.08q2.06 0 2.06-1.35a1.21 1.21 0 00-.69-1 6.41 6.41 0 00-1.83-.7l-2.5-.61-2.69-.66a12.64 12.64 0 01-2.48-.86 4.7 4.7 0 01-1.79-1.44A3.52 3.52 0 0116 16a4.28 4.28 0 011.68-3.63q1.68-1.27 5.77-1.27l3 .07a7.85 7.85 0 014.33 1.24 3.61 3.61 0 011.93 3.09 1.16 1.16 0 01-.41 1 1.33 1.33 0 01-.79.3h-1.4a1.69 1.69 0 01-1.58-1.11 2.48 2.48 0 00-2.5-1.2l-3.53-.07q-2.06 0-2.06 1.35 0 .74 1.34 1.09l3.16.83 3.7 1a7.64 7.64 0 013.18 1.65 3.69 3.69 0 011.3 2.88 4.28 4.28 0 01-1.68 3.63Q29.77 28 25.69 28h-3.55a7.88 7.88 0 01-4.34-1.24 3.61 3.61 0 01-1.93-3.11zM8.18 37.52a.38.38 0 01.14-.33.45.45 0 01.27-.1H9a.56.56 0 01.53.37.83.83 0 00.83.4h1.37q.69 0 .69-.45a.4.4 0 00-.23-.34 2.12 2.12 0 00-.61-.23l-.83-.2-.91-.22a4.24 4.24 0 01-.84-.27 1.57 1.57 0 01-.59-.48 1.18 1.18 0 01-.18-.67 1.43 1.43 0 01.56-1.21 3.27 3.27 0 011.92-.42h1a2.62 2.62 0 011.44.41 1.2 1.2 0 01.64 1 .39.39 0 01-.14.33.44.44 0 01-.26.1h-.46a.56.56 0 01-.53-.37.83.83 0 00-.83-.4h-1.18q-.69 0-.69.45 0 .25.45.36l1.05.28 1.23.32a2.55 2.55 0 011.06.55 1.23 1.23 0 01.43 1 1.42 1.42 0 01-.56 1.21 3.27 3.27 0 01-1.92.42h-1.18a2.62 2.62 0 01-1.45-.41 1.2 1.2 0 01-.63-1.1zm6.55 1.07v-4.87a.37.37 0 01.37-.37h.73a.37.37 0 01.38.37v4.86a.35.35 0 01-.11.26.37.37 0 01-.26.11h-.74a.37.37 0 01-.26-.1.34.34 0 01-.11-.26zm2.59 0v-4.86a.36.36 0 01.11-.27.36.36 0 01.26-.11h.73a.35.35 0 01.26.11.37.37 0 01.11.27v4.12h3.4a.35.35 0 01.26.11.36.36 0 01.11.26v.37a.37.37 0 01-.37.37h-4.5a.37.37 0 01-.26-.1.34.34 0 01-.11-.27zm5.42-4.91a.19.19 0 010-.22.28.28 0 01.22-.11h.86a.51.51 0 01.46.37l1.51 3.37 1.51-3.37a.52.52 0 01.46-.37h.86a.27.27 0 01.22.11.2.2 0 01.05.13.24.24 0 010 .09l-2.25 4.88a.59.59 0 01-.56.4h-.56a.59.59 0 01-.56-.4zm6.84 4.9v-4.86a.34.34 0 01.11-.26.36.36 0 01.26-.11h4.5a.35.35 0 01.26.11.36.36 0 01.11.26v.37a.37.37 0 01-.37.37h-3.4v1.13H34a.35.35 0 01.26.11.36.36 0 01.11.26v.37a.36.36 0 01-.11.26.35.35 0 01-.26.11h-2.95v1.15h3.39a.34.34 0 01.26.11.35.35 0 01.1.26v.38a.35.35 0 01-.11.26.36.36 0 01-.26.11h-4.48a.37.37 0 01-.37-.37zm5.96.01v-4.87a.36.36 0 01.11-.26.35.35 0 01.26-.11h3.22a2.2 2.2 0 011.47.48 1.6 1.6 0 01.57 1.3q0 1.14-1.47 1.43a1.22 1.22 0 01.43.3 4.07 4.07 0 01.46.61l.71 1.13a.41.41 0 01.07.2.19.19 0 010 .07.18.18 0 01-.19.11h-.94a.64.64 0 01-.33-.11.8.8 0 01-.27-.26l-.66-1a1.17 1.17 0 00-1-.64H37v1.68a.37.37 0 01-.37.37h-.73a.36.36 0 01-.26-.11.35.35 0 01-.1-.32zM37 35.8h1.66a1.51 1.51 0 00.71-.16.58.58 0 000-1 1.51 1.51 0 00-.71-.16H37z" fill="#a1a0a5"/></svg>