<svg data-name="Слой 1" xmlns="http://www.w3.org/2000/svg" width="49" height="49" viewBox="0 0 49 49"><path d="M42 2a5 5 0 015 5v35a5 5 0 01-5 5H7a5 5 0 01-5-5V7a5 5 0 015-5h35m0-2H7a7 7 0 00-7 7v35a7 7 0 007 7h35a7 7 0 007-7V7a7 7 0 00-7-7z" fill="#ffa227"/><path d="M15.28 19.56q0-4.35 2.17-6.43T24 11.06h2.61a9 9 0 014.67 1.24 3.59 3.59 0 012.08 3.09 1.14 1.14 0 01-.41 1 1.36 1.36 0 01-.8.3h-1.41a1.75 1.75 0 01-1.58-1.1q-.62-1.2-3-1.2H24.1q-2.57 0-3.48 1.1t-.91 4.09a7.22 7.22 0 00.82 4 3.4 3.4 0 002.93 1.13h2.4a4.09 4.09 0 002.7-.71 2.62 2.62 0 00.83-2h-2.66a1.05 1.05 0 01-.78-.33 1.08 1.08 0 01-.32-.79V20a1.09 1.09 0 01.32-.79 1.05 1.05 0 01.78-.33h5.88a1.1 1.1 0 011.1 1.1v1.3a6.42 6.42 0 01-2 5.05A8.42 8.42 0 0126 28h-2.67a8 8 0 01-6-2.09q-2.05-2.05-2.05-6.35zM12 36.16a2.84 2.84 0 01.77-2.16 3 3 0 012.17-.69h.87a3 3 0 011.56.41 1.2 1.2 0 01.69 1 .38.38 0 01-.14.33.45.45 0 01-.27.1h-.46a.58.58 0 01-.53-.37q-.21-.4-1-.4H15a1.46 1.46 0 00-1.16.37 2.22 2.22 0 00-.3 1.36 2.4 2.4 0 00.27 1.35 1.13 1.13 0 001 .38h.8a1.36 1.36 0 00.9-.24.87.87 0 00.28-.67h-.88a.35.35 0 01-.26-.11.36.36 0 01-.11-.26v-.31a.36.36 0 01.06-.25.35.35 0 01.26-.11h2a.37.37 0 01.37.37v.43a2.14 2.14 0 01-.66 1.68 2.81 2.81 0 01-1.97.63h-.88a2.68 2.68 0 01-2-.7 2.91 2.91 0 01-.72-2.14zm7.46 2.22a2.8 2.8 0 01-.8-2.22 2.8 2.8 0 01.8-2.22 3.47 3.47 0 012.35-.7 3.46 3.46 0 012.34.7 2.81 2.81 0 01.8 2.22 2.81 2.81 0 01-.8 2.22 3.46 3.46 0 01-2.34.7 3.47 3.47 0 01-2.35-.7zm1.07-3.62a2.66 2.66 0 000 2.79 1.59 1.59 0 001.28.47 1.58 1.58 0 001.28-.47 2.67 2.67 0 000-2.79 1.58 1.58 0 00-1.28-.47 1.58 1.58 0 00-1.28.47zm5.22 3.83v-4.86a.36.36 0 01.11-.27.36.36 0 01.26-.11h.73a.35.35 0 01.26.11.37.37 0 01.11.27v4.12h3.4a.35.35 0 01.26.11.36.36 0 01.11.26v.37a.37.37 0 01-.37.37h-4.5a.37.37 0 01-.26-.1.34.34 0 01-.11-.27zm5.88 0v-4.86a.36.36 0 01.11-.27.36.36 0 01.26-.11h2.18a3.69 3.69 0 012.47.68 2.68 2.68 0 01.77 2.13 2.68 2.68 0 01-.77 2.12 3.7 3.7 0 01-2.47.68H32a.37.37 0 01-.26-.1.34.34 0 01-.11-.27zm1.47-.75h1a2 2 0 001.43-.38 1.82 1.82 0 00.38-1.31 1.84 1.84 0 00-.38-1.31 2 2 0 00-1.43-.38h-1z" fill="#ffa227"/></svg>