<svg data-name="Слой 1" xmlns="http://www.w3.org/2000/svg" width="49" height="49" viewBox="0 0 49 49"><path d="M25 15.65a1.39 1.39 0 10-.93 0l-.84 2.45h2.62z" fill="#50ba8a"/><path d="M42 2a5 5 0 015 5v35a5 5 0 01-5 5H7a5 5 0 01-5-5V7a5 5 0 015-5h35m0-2H7a7 7 0 00-7 7v35a7 7 0 007 7h35a7 7 0 007-7V7a7 7 0 00-7-7z" fill="#50ba8a"/><path d="M5.21 26.32a.41.41 0 010-.18.4.4 0 01.11-.27.57.57 0 01.45-.21h1.68a1 1 0 01.94.75l3 6.79 3-6.79a1 1 0 01.94-.75h1.72a.55.55 0 01.45.21.4.4 0 01.11.27.48.48 0 010 .18l-4.54 9.83A1.2 1.2 0 0112 37h-1.13a1.2 1.2 0 01-1.13-.8zM19 36.21v-9.8a.73.73 0 01.21-.53.7.7 0 01.52-.22h6q4.76 0 4.76 4.39t-4.76 4.39H22v1.77a.74.74 0 01-.74.74h-1.51a.73.73 0 01-.53-.22.71.71 0 01-.22-.52zm3-4h2.88a3.71 3.71 0 002-.44 1.9 1.9 0 00.66-1.77 1.9 1.9 0 00-.68-1.72 3.71 3.71 0 00-2-.45H22zm10.76 3.41a5.72 5.72 0 01-1.46-4.31A5.69 5.69 0 0132.77 27a6.2 6.2 0 014.42-1.4H39a5.58 5.58 0 013.19.93 2.91 2.91 0 011.39 2.54.76.76 0 01-.29.67 1 1 0 01-.55.2h-1a1.28 1.28 0 01-1.16-.87 2 2 0 00-1.94-1.24h-1.4a3 3 0 00-2.34.74 4.45 4.45 0 00-.61 2.74 4.47 4.47 0 00.6 2.69 2.94 2.94 0 002.34.74h1.57a2 2 0 001.93-1.24 1.25 1.25 0 011.13-.87h.94a.89.89 0 01.3.06.8.8 0 01.33.27.84.84 0 01.17.54 2.91 2.91 0 01-1.37 2.55 5.5 5.5 0 01-3.16.93h-1.92a6.12 6.12 0 01-4.39-1.36zM19.65 22.1a4.54 4.54 0 01-1.45-8.84 6.31 6.31 0 0112.33 0 4.54 4.54 0 01-1.43 8.84zm4.72-11.8a4.3 4.3 0 00-4.29 3.87l-.08.76-.75.13a2.54 2.54 0 00.4 5h9.43a2.54 2.54 0 00.4-5l-.75-.13-.08-.76a4.3 4.3 0 00-4.28-3.87z" fill="#50ba8a"/></svg>