<svg data-name="Слой 1" xmlns="http://www.w3.org/2000/svg" width="49" height="49" viewBox="0 0 49 49"><path d="M42 2a5 5 0 015 5v35a5 5 0 01-5 5H7a5 5 0 01-5-5V7a5 5 0 015-5h35m0-2H7a7 7 0 00-7 7v35a7 7 0 007 7h35a7 7 0 007-7V7a7 7 0 00-7-7z" fill="#9080cf"/><path d="M16.54 26.85V12.26a1.09 1.09 0 01.32-.79 1 1 0 01.77-.33h8.94q7.08 0 7.08 6.53t-7.08 6.53H21v2.64a1.1 1.1 0 01-1.1 1.1h-2.2a1.08 1.08 0 01-.79-.32 1.05 1.05 0 01-.37-.77zm4.42-6h4.28a5.52 5.52 0 003-.66 2.83 2.83 0 001-2.55 2.83 2.83 0 00-1-2.55 5.52 5.52 0 00-3-.66H21zM3.53 38.63v-4.25a.32.32 0 01.09-.23.3.3 0 01.23-.1h2.61q2.07 0 2.07 1.91t-2.07 1.9H4.82v.77a.32.32 0 01-.32.37h-.64a.32.32 0 01-.23-.09.31.31 0 01-.1-.28zm1.29-1.73h1.25a1.61 1.61 0 00.87-.19 1.08 1.08 0 000-1.49 1.61 1.61 0 00-.87-.22H4.82zm4.33 1.74v-4.26a.32.32 0 01.1-.24.31.31 0 01.23-.1h.64a.31.31 0 01.23.1.32.32 0 01.09.24V38h3a.31.31 0 01.23.1.32.32 0 01.09.23v.32a.31.31 0 01-.09.23.31.31 0 01-.23.09H9.48a.32.32 0 01-.23-.09.3.3 0 01-.1-.24zm4.75 0l.86-3.25q.35-1.33 2.27-1.33h1.84a.27.27 0 01.21.1.33.33 0 01.08.22v4.27a.3.3 0 01-.1.22.32.32 0 01-.23.09h-.64a.31.31 0 01-.32-.32v-.86h-2.42l-.23.86a.4.4 0 01-.16.23.42.42 0 01-.25.09h-.68a.24.24 0 01-.2-.09.22.22 0 010-.14.46.46 0 01-.03-.09zm1.81-1.84h2.16V35h-1a.91.91 0 00-.9.69zm4.01-2.1v-.32a.31.31 0 01.32-.32h4.34a.31.31 0 01.32.32v.32a.31.31 0 01-.09.23.32.32 0 01-.23.09h-1.53v3.62a.3.3 0 01-.09.22.32.32 0 01-.23.09h-.65a.31.31 0 01-.23-.09.3.3 0 01-.09-.22V35H20a.32.32 0 01-.23-.09.31.31 0 01-.05-.21zm5.54 3.94v-4.26a.33.33 0 01.33-.32h.64a.32.32 0 01.33.32v4.26a.3.3 0 01-.1.23.32.32 0 01-.23.09h-.64a.32.32 0 01-.23-.09.3.3 0 01-.1-.23zm2.26-.01v-4.25a.32.32 0 01.09-.23.31.31 0 01.23-.1h1a.45.45 0 01.26.1.84.84 0 01.22.23l2.08 3.18v-3.19a.31.31 0 01.09-.23.29.29 0 01.22-.09h.56a.29.29 0 01.22.09.32.32 0 01.09.23v4.26a.31.31 0 01-.09.23.31.31 0 01-.22.09h-1.1a.48.48 0 01-.27-.09.74.74 0 01-.22-.23l-1.87-2.93v2.93a.31.31 0 01-.1.23.33.33 0 01-.24.09h-.62a.33.33 0 01-.24-.09.3.3 0 01-.09-.23zm6-1.63v-2.62a.32.32 0 01.09-.23.31.31 0 01.23-.1h.64a.31.31 0 01.23.1.31.31 0 01.09.23V37a1.09 1.09 0 00.22.75.87.87 0 00.68.25h.55a.87.87 0 00.68-.25 1.09 1.09 0 00.22-.75v-2.62a.31.31 0 01.09-.23.31.31 0 01.23-.1h.64a.32.32 0 01.24.1.31.31 0 01.1.23V37a1.89 1.89 0 01-.55 1.45 2.27 2.27 0 01-1.6.55h-.62a2.27 2.27 0 01-1.61-.51 1.89 1.89 0 01-.55-1.49zm5.84 1.63v-4.25a.32.32 0 01.09-.24.3.3 0 01.23-.1h1.4a.4.4 0 01.25.1.47.47 0 01.16.23l1 2.92 1-2.92a.46.46 0 01.16-.23.4.4 0 01.25-.1h1.4a.3.3 0 01.23.1.33.33 0 01.09.24v4.24a.31.31 0 01-.1.23.32.32 0 01-.23.09h-.63a.32.32 0 01-.23-.09.31.31 0 01-.1-.23v-3.33l-1.21 3.36a.49.49 0 01-.17.22.41.41 0 01-.25.09h-.49a.4.4 0 01-.25-.09.52.52 0 01-.17-.22l-1.2-3.36v3.34a.32.32 0 01-.1.23.32.32 0 01-.23.09h-.63a.32.32 0 01-.23-.09.31.31 0 01-.04-.23z" fill="#9080cf"/></svg>