<svg data-name="Слой 1" xmlns="http://www.w3.org/2000/svg" width="49" height="49" viewBox="0 0 49 49"><path d="M42 2a5 5 0 015 5v35a5 5 0 01-5 5H7a5 5 0 01-5-5V7a5 5 0 015-5h35m0-2H7a7 7 0 00-7 7v35a7 7 0 007 7h35a7 7 0 007-7V7a7 7 0 00-7-7z" fill="#00acff"/><path d="M36.32 31.13a3.69 3.69 0 00-3.57 2.77H32a.71.71 0 01-.71-.71v-4.43h2.8a5.87 5.87 0 10-.87-11.68 9.13 9.13 0 00-17.52 0 5.87 5.87 0 10-.87 11.68h2.8v4.43a.71.71 0 01-.71.71h-.72a3.68 3.68 0 100 1.83h.8a2.54 2.54 0 002.54-2.54v-4.43h4.08v2.49a3.68 3.68 0 101.83 0v-2.49h4.05v4.43a2.54 2.54 0 002.5 2.54h.72a3.68 3.68 0 103.57-4.59zm-23.64 5.54a1.85 1.85 0 111.85-1.85 1.86 1.86 0 01-1.85 1.85zm13.67-1.85A1.85 1.85 0 1124.5 33a1.86 1.86 0 011.85 1.81zM10.83 22.88a4 4 0 015.3-3.88.91.91 0 001.18-.71 7.3 7.3 0 0114.37 0 .91.91 0 001.18.71 4 4 0 111.26 7.89H14.87a4.05 4.05 0 01-4.04-4.01zm25.49 13.79a1.85 1.85 0 111.85-1.85 1.86 1.86 0 01-1.85 1.85z" fill="#00acff"/></svg>