<svg data-name="Слой 1" xmlns="http://www.w3.org/2000/svg" width="49" height="49" viewBox="0 0 49 49"><path d="M42 2a5 5 0 015 5v35a5 5 0 01-5 5H7a5 5 0 01-5-5V7a5 5 0 015-5h35m0-2H7a7 7 0 00-7 7v35a7 7 0 007 7h35a7 7 0 007-7V7a7 7 0 00-7-7z" fill="#039bc6"/><path d="M14.73 32.42a2 2 0 01-2-1.86 2 2 0 013.91 0 2 2 0 01-1.91 1.86zm24-10.15a5.55 5.55 0 00-2.33-3.63l-.4-.38-.37.47a5 5 0 00-.09 5.77c-.37.19-.84.37-1.21.56a7.89 7.89 0 01-2.51.37H7.65l-.09.57a10.51 10.51 0 00.84 5.31l.37.65V32c2.24 3.72 6.24 5.4 10.62 5.4 8.38 0 15.28-3.63 18.53-11.46 2.14.09 4.29-.47 5.31-2.51l.27-.43-.5-.27a5.67 5.67 0 00-4.28-.46zm-12-1.49h-3.62v3.63h3.63zm0-4.56h-3.62v3.63h3.63zm0-4.66h-3.62v3.63h3.63zm4.47 9.22h-3.62v3.63h3.63zm-13.5 0h-3.63v3.63h3.63zm4.56 0h-3.62v3.63h3.63zm-9 0H9.6v3.63h3.63zm9-4.56h-3.62v3.63h3.63zm-4.56 0h-3.63v3.63h3.63z" fill="#039bc6" data-name="SVGID"/></svg>