<svg data-name="Слой 1" xmlns="http://www.w3.org/2000/svg" width="49" height="49" viewBox="0 0 49 49"><path d="M42 2a5 5 0 015 5v35a5 5 0 01-5 5H7a5 5 0 01-5-5V7a5 5 0 015-5h35m0-2H7a7 7 0 00-7 7v35a7 7 0 007 7h35a7 7 0 007-7V7a7 7 0 00-7-7z" fill="#0092ff"/><path d="M35.85 19.86h-.06a.55.55 0 01-.52-.37 5.23 5.23 0 00-5-3.51h-.16a.56.56 0 01-.56-.35 7.2 7.2 0 00-13.45 0 .55.55 0 01-.57.36h-.45A6.09 6.09 0 0013.8 28v-6a.62.62 0 01.62-.62h20.16a.62.62 0 01.62.62v6.17h.65a4.15 4.15 0 000-8.3z" fill="#0092ff"/><path data-name="Shape" d="M14.91 31.91a.55.55 0 00.55.55h18.08a.55.55 0 00.55-.55v-3.32a.55.55 0 00-.55-.55H15.46a.55.55 0 00-.55.55zm4.43-2.21h13.09a.55.55 0 010 1.11H19.34a.55.55 0 010-1.11zm-2.77 0h.55a.55.55 0 010 1.11h-.55a.55.55 0 010-1.11zm-1.66 7.75a.55.55 0 00.55.55h18.08a.55.55 0 00.55-.55v-3.33a.55.55 0 00-.55-.55H15.46a.55.55 0 00-.55.55zm4.43-2.21h13.09a.55.55 0 010 1.11H19.34a.55.55 0 010-1.11zm-2.77 0h.55a.55.55 0 010 1.11h-.55a.55.55 0 010-1.11zm-1.11-8.31h18.08a.55.55 0 00.55-.55v-3.33a.55.55 0 00-.55-.55H15.46a.55.55 0 00-.55.55v3.32a.55.55 0 00.55.56zm3.87-2.77h13.1a.55.55 0 010 1.11H19.34a.55.55 0 010-1.11zm-2.77 0h.55a.55.55 0 010 1.11h-.55a.55.55 0 010-1.11z" fill="#0092ff"/></svg>