<?xml version="1.0" encoding="utf-8"?>
<!-- Generator: Adobe Illustrator 21.1.0, SVG Export Plug-In . SVG Version: 6.00 Build 0)  -->
<svg version="1.1" id="_x38_f2323c9-ff9e-4799-9056-10403a5b5e4d"
	 xmlns="http://www.w3.org/2000/svg" xmlns:xlink="http://www.w3.org/1999/xlink" x="0px" y="0px" width="84px" height="31px"
	 viewBox="0 0 84 31" style="enable-background:new 0 0 84 31;" xml:space="preserve">
<style type="text/css">
	.st0{fill:#9DB9C4;}
</style>
<title>go</title>
<path class="st0" d="M6.3,9.4c-0.2,0-0.2,0,0-0.2l0.9-1.1c0.1-0.1,0.3-0.2,0.4-0.2h14.5c0.2,0,0.2,0,0,0.2l-0.7,1.1
	c-0.1,0.1-0.3,0.2-0.4,0.2H6.2L6.3,9.4z M0.2,13C0,13,0,12.9,0,12.9l0.9-1.1c0.1-0.1,0.3-0.2,0.4-0.2h18.6c0.1,0,0.2,0,0.2,0.1
	c0,0,0,0,0,0c0,0,0,0.1,0,0.1l-0.3,1.1c-0.1,0.1-0.2,0.2-0.4,0.2L0.2,13z M10,16.7c-0.2,0-0.2,0,0-0.2l0.4-1.1
	c0.1-0.1,0.3-0.2,0.4-0.2h8.2c0.2,0,0.2,0,0.2,0.3v1c0,0.2-0.1,0.3-0.3,0.3L10,16.7L10,16.7z M52.4,8.6l-6.8,1.7
	c-0.6,0.1-0.7,0.2-1.2-0.4c-0.5-0.6-1.2-1.2-1.9-1.5c-2.4-1.2-5.2-1-7.4,0.6c-2.7,1.6-4.3,4.6-4.1,7.7c-0.1,3.3,2.3,6,5.5,6.5
	c2.6,0.4,5.3-0.5,7-2.6c0.4-0.4,0.7-0.9,1.1-1.5h-7.9c-0.9,0-1-0.5-0.8-1.2c0.5-1.2,1.5-3.3,2.1-4.4c0.2-0.4,0.6-0.6,1-0.6h14.9
	c0,1.1,0,2.2-0.2,3.3c-0.4,2.9-1.6,5.6-3.4,7.9c-2.8,3.8-7,6.2-11.7,6.8c-3.9,0.6-7.8-0.3-11-2.6c-2.9-2.1-4.9-5.3-5.2-8.9
	c-0.6-4.3,0.6-8.7,3.5-12.1c2.8-3.7,6.9-6.2,11.4-6.9c3.7-0.8,7.6-0.1,10.8,2c2.1,1.4,3.8,3.3,4.7,5.7C53.1,8.4,52.9,8.6,52.4,8.6
	L52.4,8.6z"/>
<path class="st0" d="M66,30.8c-3.6,0-7.2-1.2-10-3.5c-2.4-1.9-3.9-4.7-4.4-7.7c-0.7-4.3,0.5-8.7,3.3-12.1c2.8-3.7,6.9-6.1,11.5-6.7
	c4-0.9,8.2-0.1,11.6,2c3.2,2,5.3,5.2,5.8,8.9c0.8,5-1,10.1-4.7,13.6c-2.7,2.7-6.1,4.4-9.8,5.1C68.2,30.6,67.1,30.7,66,30.8z
	 M75.7,14.6c0-0.4,0-0.9,0-1.3c-0.6-3.6-4.1-6.1-7.7-5.5l-0.6,0.1c-3.6,0.6-6.4,3.4-7.2,7c-0.8,3.1,0.8,6.4,3.8,7.7
	c2.1,0.9,4.6,0.9,6.7-0.2c3.1-1.3,5.1-4.3,5.2-7.7L75.7,14.6z"/>
</svg>
