<svg id="82d401cb-1007-42ae-b816-e910b0efff7c" data-name="Слой 1" xmlns="http://www.w3.org/2000/svg" width="32" height="12" viewBox="0 0 32 12"><title>go</title><path d="M2.41,3.63c-.06,0-.08,0,0-.08l.33-.42a.22.22,0,0,1,.17-.08H8.43c.06,0,.08,0,0,.09l-.26.41a.24.24,0,0,1-.16.09l-5.64,0ZM.06,5.07C0,5.07,0,5,0,5l.33-.42a.22.22,0,0,1,.17-.08h7.1a.07.07,0,0,1,.08.09L7.57,5a.14.14,0,0,1-.14.09ZM3.83,6.51c-.06,0-.08,0,0-.09L4,6a.21.21,0,0,1,.16-.09H7.28c.06,0,.09,0,.09.11l0,.38a.12.12,0,0,1-.11.11l-3.4,0ZM20,3.35,17.39,4c-.23.06-.25.08-.45-.16a2.07,2.07,0,0,0-.73-.59,2.7,2.7,0,0,0-2.82.23,3.33,3.33,0,0,0-1.59,3A2.45,2.45,0,0,0,13.9,9a2.87,2.87,0,0,0,2.65-1c.14-.17.26-.36.42-.58H14c-.33,0-.4-.2-.3-.47.2-.48.58-1.3.79-1.7a.42.42,0,0,1,.39-.25h5.67c0,.42,0,.84-.09,1.27a6.68,6.68,0,0,1-1.28,3.07,6.49,6.49,0,0,1-4.44,2.66,5.5,5.5,0,0,1-4.19-1,4.91,4.91,0,0,1-2-3.47A6.15,6.15,0,0,1,9.86,2.82,6.91,6.91,0,0,1,14.22.11a5.35,5.35,0,0,1,4.13.77,4.9,4.9,0,0,1,1.81,2.21c.09.14,0,.22-.16.27Z" fill="#2dbcaf"/><path d="M25.16,12a5.84,5.84,0,0,1-3.8-1.38,4.91,4.91,0,0,1-1.68-3,6,6,0,0,1,1.26-4.72A6.53,6.53,0,0,1,25.3.27a5.76,5.76,0,0,1,4.44.8,4.87,4.87,0,0,1,2.2,3.49,6,6,0,0,1-1.79,5.3,7.13,7.13,0,0,1-3.74,2c-.42.08-.84.09-1.25.14Zm3.71-6.32a4.53,4.53,0,0,0,0-.52,2.57,2.57,0,0,0-3.18-2.08,3.41,3.41,0,0,0-2.73,2.72,2.58,2.58,0,0,0,1.43,3,2.85,2.85,0,0,0,2.54-.09,3.42,3.42,0,0,0,2-3Z" fill="#2dbcaf"/></svg>