<svg id="8f2323c9-ff9e-4799-9056-10403a5b5e4d" data-name="82d401cb-1007-42ae-b816-e910b0efff7c" xmlns="http://www.w3.org/2000/svg" width="84" height="31" viewBox="0 0 84 31"><title>go</title><path d="M6.32,9.35c-.16,0-.21,0,0-.21l.87-1.08a.58.58,0,0,1,.45-.21H22.12c.16,0,.21,0,0,.23l-.68,1.05a.63.63,0,0,1-.42.23H6.22ZM.16,13C0,13,0,12.86,0,12.86l.87-1.08a.58.58,0,0,1,.45-.21H19.94a.18.18,0,0,1,.22.14.18.18,0,0,1,0,.09l-.29,1.05a.37.37,0,0,1-.37.23ZM10,16.73c-.16,0-.21,0,0-.23l.45-1.08a.55.55,0,0,1,.42-.23H19.1c.16,0,.24,0,.24.28v1a.31.31,0,0,1-.29.28H10Zm42.43-8.1L45.63,10.3c-.6.15-.66.21-1.18-.41a5.41,5.41,0,0,0-1.92-1.51,7.22,7.22,0,0,0-7.4.59A8.48,8.48,0,0,0,31,16.65a6.32,6.32,0,0,0,5.51,6.46,7.63,7.63,0,0,0,7-2.56c.37-.44.68-.92,1.1-1.49H36.73c-.87,0-1-.51-.79-1.2.52-1.23,1.52-3.33,2.07-4.36a1.1,1.1,0,0,1,1-.64H53.92a15.24,15.24,0,0,1-.24,3.25A16.91,16.91,0,0,1,50.32,24,17.1,17.1,0,0,1,38.67,30.8a14.69,14.69,0,0,1-11-2.56,12.53,12.53,0,0,1-5.25-8.89A15.5,15.5,0,0,1,25.87,7.27,18.19,18.19,0,0,1,37.31.33a14.31,14.31,0,0,1,10.84,2A12.63,12.63,0,0,1,52.89,8c.24.36,0,.56-.42.69Z" fill="#2dbcaf"/><path d="M66,30.8a15.54,15.54,0,0,1-10-3.54,12.51,12.51,0,0,1-4.41-7.69,15.12,15.12,0,0,1,3.31-12.1A17.2,17.2,0,0,1,66.38.74,15.41,15.41,0,0,1,78,2.79a12.45,12.45,0,0,1,5.77,8.94,15.17,15.17,0,0,1-4.7,13.58,18.85,18.85,0,0,1-9.81,5.13C68.19,30.65,67.09,30.67,66,30.8Zm9.73-16.2a11.34,11.34,0,0,0,0-1.33A6.73,6.73,0,0,0,68,7.81l-.61.13a8.85,8.85,0,0,0-7.16,7A6.57,6.57,0,0,0,64,22.6a7.64,7.64,0,0,0,6.66-.23,8.76,8.76,0,0,0,5.25-7.69Z" fill="#2dbcaf"/></svg>