<?xml version="1.0" encoding="utf-8"?>
<!-- Generator: Adobe Illustrator 21.1.0, SVG Export Plug-In . SVG Version: 6.00 Build 0)  -->
<svg version="1.1" id="_x30_33b0517-846f-49ca-ba1c-160f435cbf80"
	 xmlns="http://www.w3.org/2000/svg" xmlns:xlink="http://www.w3.org/1999/xlink" x="0px" y="0px" width="49px" height="62px"
	 viewBox="0 0 49 62" style="enable-background:new 0 0 49 62;" xml:space="preserve">
<style type="text/css">
	.st0{fill:#9DB9C4;}
</style>
<title>java</title>
<path class="st0" d="M15.8,48.2c0,0-2.5,1.5,1.8,1.8c4.6,0.7,9.3,0.5,13.8-0.6c1.1,0.7,2.2,1.2,3.4,1.6C21.9,56.3,5.7,51,15.8,48.2
	L15.8,48.2z M14.3,41.3c0,0-2.8,1.9,1.5,2.5c5.9,0.6,12,0.3,17.8-0.9c0.8,0.8,1.7,1.3,2.8,1.5C20.4,48.8,2.9,45,14.3,41.3L14.3,41.3
	z M45,53.1c0,0,1.8,1.5-2.2,2.5c-7.4,2.2-31.3,2.8-37.8,0c-2.5-0.9,2.2-2.2,3.4-2.5c0.6,0,1.2-0.3,2.2-0.3c-2.5-1.5-16.9,3.1-7.4,5
	C29.7,61.8,51.4,56,45,53.1L45,53.1z M17,34.2c0,0-12,2.8-4.3,3.7c5.3,0.3,10.7,0.3,16,0c3.3-0.2,6.6-0.6,9.8-1.2
	c-1.1,0.4-2.1,0.9-3.1,1.5c-12.3,3.1-35.9,1.6-29.2-1.6C9.6,35.1,13.3,34.2,17,34.2z M38.5,45.4c12.3-5.9,6.8-11.8,2.8-11.2
	c-0.6,0-0.9,0.3-1.5,0.3c0.4-0.4,0.8-0.7,1.3-0.9C49,31.1,55.1,41.3,38.5,45.4L38.5,45.4z M18.2,61.8c12,0.6,30.4-0.3,30.7-5.6
	c0,0-0.9,2.2-9.8,3.7c-10.1,1.7-20.3,1.8-30.4,0.3C8.7,60.3,10.3,61.5,18.2,61.8L18.2,61.8z"/>
<path class="st0" d="M31.1,0c0,0,7.1,6.5-6.8,16.5c-10.4,8.1-2.5,12.4,0,17.7c-6.1-5.3-10.7-9.9-7.7-14.3
	C21.3,13.4,33.9,10.2,31.1,0z M27.5,29.8c1.4,1.7,1.3,4.3-0.3,5.9L26.8,36l-0.3,0.3c0,0,8.3-4,4.3-8.7s-6.1-6.8,8.3-14.7
	C39.4,12.7,16.7,18,27.5,29.8L27.5,29.8z"/>
</svg>
