<svg id="57a6192a-ea90-4b27-b2f1-67d6d8486d36" data-name="Ğ¡Ğ»Ğ¾Ğ¹ 1" xmlns="http://www.w3.org/2000/svg" width="16" height="20" viewBox="0 0 16 20"><title>java</title><path d="M5.2,15.47s-.83.46.58.6a12.8,12.8,0,0,0,4.51-.16,7.06,7.06,0,0,0,1.14.54c-4.23,1.67-9.57-.09-6.25-1ZM4.66,13.3s-.9.63.5.77a18.46,18.46,0,0,0,5.78-.26,2.23,2.23,0,0,0,.87.51c-5.1,1.4-10.81.14-7.16-1.05Zm10,3.81s.62.46-.68.83c-2.42.66-10.16.86-12.32,0-.76-.3.68-.74,1.14-.8A3.89,3.89,0,0,1,3.45,17c-.83-.54-5.53,1.05-2.38,1.57C9.71,19.92,16.83,18,14.59,17.1ZM5.59,11s-3.94.86-1.41,1.17a34,34,0,0,0,5.21,0c1.63-.14,3.25-.4,3.25-.4a9,9,0,0,0-1,.46c-4,1-11.71.54-9.51-.46a8,8,0,0,1,3.42-.74Zm7,3.64c4-1.94,2.17-3.81.87-3.57a2.42,2.42,0,0,0-.47.14.61.61,0,0,1,.36-.26c2.6-.84,4.58,2.5-.82,3.8l.07-.09ZM6,19.94c3.9.23,9.86-.14,10-1.83,0,0-.28.66-3.21,1.17a35.2,35.2,0,0,1-9.86.14s.5.4,3.07.54Z" fill="#fff"/><path d="M10.18,0S12.46,2.11,8,5.27c-3.45,2.58-.8,4,0,5.73C6,9.29,4.47,7.83,5.48,6.39,7,4.31,11.08,3.31,10.18,0ZM9,9.59a1.38,1.38,0,0,1-.2,2l-.08.06s2.68-1.28,1.44-2.85-2-2.25,2.7-4.74c0,0-7.4,1.7-3.86,5.48Z" fill="#fb670c"/></svg>