<svg id="033b0517-846f-49ca-ba1c-160f435cbf80" data-name="57a6192a-ea90-4b27-b2f1-67d6d8486d36" xmlns="http://www.w3.org/2000/svg" width="49" height="62" viewBox="0 0 49 62"><title>java</title><path d="M15.8,48.16S13.34,49.71,17.64,50a34.57,34.57,0,0,0,13.81-.62A16.36,16.36,0,0,0,34.83,51c-12.89,5.28-29.16,0-19-2.8Zm-1.53-6.84s-2.76,1.86,1.53,2.49a57.26,57.26,0,0,0,17.8-.93,5.92,5.92,0,0,0,2.76,1.55c-16,4.35-33.46.62-22.1-3.11ZM45,53.13s1.84,1.55-2.15,2.49c-7.37,2.17-31.31,2.8-37.76,0-2.46-.93,2.15-2.17,3.38-2.49.61,0,1.23-.31,2.15-.31-2.46-1.55-16.88,3.11-7.37,5,26.4,4,48.19-1.86,41.75-4.66ZM17,34.18s-12,2.8-4.3,3.73a136.79,136.79,0,0,0,16,0,91.41,91.41,0,0,0,9.82-1.24,14.27,14.27,0,0,0-3.07,1.55C23.16,41.32-.47,39.77,6.28,36.66A25.91,25.91,0,0,1,17,34.18ZM38.51,45.36c12.28-5.9,6.75-11.81,2.76-11.19-.61,0-.92.31-1.53.31A4.24,4.24,0,0,1,41,33.56c8-2.49,14.12,7.77-2.46,11.81ZM18.25,61.83c12,.62,30.39-.31,30.7-5.59,0,0-.92,2.17-9.82,3.73a99.68,99.68,0,0,1-30.39.31s1.53,1.24,9.52,1.55Z" fill="#0987f7"/><path d="M31.15,0s7.06,6.52-6.75,16.47c-10.44,8.08-2.46,12.43,0,17.71-6.14-5.28-10.74-9.94-7.67-14.29C21.32,13.36,33.91,10.25,31.15,0ZM27.46,29.83a4.36,4.36,0,0,1-.31,5.9l-.31.31-.31.31s8.29-4,4.3-8.7S24.7,20.82,39.13,13c.31-.31-22.41,5-11.66,16.78Z" fill="#fb670c"/></svg>