<svg id="933cf156-e94e-4575-8dd9-e87570af0149" data-name="70b39722-0435-41a8-82fd-15092a62ec2d" xmlns="http://www.w3.org/2000/svg" width="43" height="49" viewBox="0 0 43 49"><title>node</title><path d="M19.54.52a3.83,3.83,0,0,1,3.87,0L41.15,10.89A3.79,3.79,0,0,1,43,14.1V34.84a3.82,3.82,0,0,1-2,3.27L23.38,48.45a3.75,3.75,0,0,1-3.92,0l-5.37-3.16a3.18,3.18,0,0,1-.94-.84c.21-.3.62-.35.94-.49a11.15,11.15,0,0,0,2-1,.48.48,0,0,1,.54,0l4.51,2.72c.32.19.64,0,.91-.22l17.33-10a.6.6,0,0,0,.32-.57V14.19a.65.65,0,0,0-.38-.57L21.82,3.3a.61.61,0,0,0-.7,0L3.55,13.61a.65.65,0,0,0-.38.63V34.76a.6.6,0,0,0,.32.63l4.7,2.72a3.59,3.59,0,0,0,2.93.41,2.31,2.31,0,0,0,1.45-2.18V15.9a.49.49,0,0,1,.46-.52h2.34a.54.54,0,0,1,.48.59h0V36.5a5.27,5.27,0,0,1-2.42,4.73A7,7,0,0,1,7,41L1.91,38.32A3.77,3.77,0,0,1,0,34.87V14.1a3.79,3.79,0,0,1,1.91-3.21Zm5.11,14.37a13.69,13.69,0,0,1,7.6,1.22,6,6,0,0,1,2.69,5.17.54.54,0,0,1-.59.41h-2.1a.57.57,0,0,1-.54-.57,3.54,3.54,0,0,0-1.64-2.42A9.33,9.33,0,0,0,25.61,18a5.91,5.91,0,0,0-3.2.84,2.11,2.11,0,0,0-.67,2.34,2,2,0,0,0,1.42,1c3.09.84,6.37.79,9.41,1.85a4.48,4.48,0,0,1,2.9,2.72,5.88,5.88,0,0,1-.94,5.44,7.42,7.42,0,0,1-4,2.23,18.58,18.58,0,0,1-6,.24,9.28,9.28,0,0,1-5.37-2.07,5.81,5.81,0,0,1-1.77-4.52.51.51,0,0,1,.54-.44h2.23a.51.51,0,0,1,.54.49h0A3.5,3.5,0,0,0,22,30.59a9.36,9.36,0,0,0,5.19,1,6.87,6.87,0,0,0,4.41-1.17,2.47,2.47,0,0,0,.64-2.31c-.19-.71-.89-1-1.48-1.22-3.06-1.14-6.37-.76-9.41-2a4.62,4.62,0,0,1-2.88-2.72,5.5,5.5,0,0,1,1-5.44,8,8,0,0,1,5.16-2Z" fill="#8cc84b"/></svg>