<svg id="70b39722-0435-41a8-82fd-15092a62ec2d" data-name="Слой 1" xmlns="http://www.w3.org/2000/svg" width="16" height="18" viewBox="0 0 16 18"><title>node</title><path d="M7.27.19a1.44,1.44,0,0,1,1.44,0L15.31,4A1.39,1.39,0,0,1,16,5.18V12.8A1.4,1.4,0,0,1,15.26,14L8.7,17.8a1.41,1.41,0,0,1-1.46,0l-2-1.16a1.18,1.18,0,0,1-.35-.31c.08-.11.23-.13.35-.18A4.17,4.17,0,0,0,6,15.77a.18.18,0,0,1,.2,0l1.68,1c.12.07.24,0,.34-.08L14.67,13a.22.22,0,0,0,.12-.21V5.21A.24.24,0,0,0,14.65,5L8.12,1.21a.23.23,0,0,0-.26,0L1.32,5a.24.24,0,0,0-.14.23v7.54A.22.22,0,0,0,1.3,13l1.75,1a1.35,1.35,0,0,0,1.09.15.85.85,0,0,0,.54-.8V5.84a.18.18,0,0,1,.17-.19h.87a.2.2,0,0,1,.18.22h0v7.54A1.93,1.93,0,0,1,5,15.15a2.65,2.65,0,0,1-2.41-.07l-1.88-1A1.38,1.38,0,0,1,0,12.81V5.18A1.39,1.39,0,0,1,.71,4Zm1.9,5.28A5.15,5.15,0,0,1,12,5.92a2.21,2.21,0,0,1,1,1.9.2.2,0,0,1-.22.15H12a.21.21,0,0,1-.2-.21,1.3,1.3,0,0,0-.61-.89,3.51,3.51,0,0,0-1.66-.24,2.22,2.22,0,0,0-1.19.31.77.77,0,0,0-.25.86c.09.21.33.29.53.35,1.15.31,2.37.29,3.5.68a1.66,1.66,0,0,1,1.08,1,2.14,2.14,0,0,1-.35,2,2.77,2.77,0,0,1-1.48.82,7,7,0,0,1-2.23.09,3.48,3.48,0,0,1-2-.76,2.12,2.12,0,0,1-.66-1.66.19.19,0,0,1,.2-.16h.83a.19.19,0,0,1,.2.18h0a1.28,1.28,0,0,0,.47.9,3.52,3.52,0,0,0,1.93.36,2.58,2.58,0,0,0,1.64-.43.9.9,0,0,0,.24-.85c-.07-.26-.33-.37-.55-.45-1.14-.42-2.37-.28-3.5-.75a1.71,1.71,0,0,1-1.07-1,2,2,0,0,1,.38-2A3,3,0,0,1,9.17,5.4Z" fill="#8cc84b"/></svg>