<?xml version="1.0" encoding="utf-8"?>
<!-- Generator: Adobe Illustrator 21.1.0, SVG Export Plug-In . SVG Version: 6.00 Build 0)  -->
<svg version="1.1" id="_x39_33cf156-e94e-4575-8dd9-e87570af0149"
	 xmlns="http://www.w3.org/2000/svg" xmlns:xlink="http://www.w3.org/1999/xlink" x="0px" y="0px" width="43px" height="49px"
	 viewBox="0 0 43 49" style="enable-background:new 0 0 43 49;" xml:space="preserve">
<style type="text/css">
	.st0{fill:#9DB9C4;}
</style>
<title>node</title>
<path class="st0" d="M19.5,0.5c1.2-0.7,2.7-0.7,3.9,0l17.7,10.4c1.1,0.7,1.8,1.9,1.8,3.2v20.7c0,1.4-0.8,2.6-2,3.3L23.4,48.5
	c-1.2,0.7-2.7,0.7-3.9,0l-5.4-3.2c-0.4-0.2-0.7-0.5-0.9-0.8c0.2-0.3,0.6-0.3,0.9-0.5c0.7-0.3,1.4-0.6,2-1c0.2-0.1,0.4-0.1,0.5,0
	l4.5,2.7c0.3,0.2,0.6,0,0.9-0.2l17.3-10c0.2-0.1,0.3-0.3,0.3-0.6V14.2c0-0.2-0.2-0.5-0.4-0.6L21.8,3.3c-0.2-0.1-0.5-0.1-0.7,0
	L3.5,13.6c-0.2,0.1-0.4,0.4-0.4,0.6v20.5c0,0.3,0.1,0.5,0.3,0.6l4.7,2.7c0.9,0.6,1.9,0.7,2.9,0.4c0.9-0.4,1.5-1.2,1.4-2.2V15.9
	c0-0.3,0.2-0.5,0.5-0.5c0,0,0,0,0,0h2.3c0.3,0,0.5,0.3,0.5,0.6l0,0v20.5c0.1,1.9-0.8,3.7-2.4,4.7C11.4,42.2,9,42.1,7,41l-5.1-2.7
	c-1.2-0.7-2-2-1.9-3.5V14.1c0-1.3,0.8-2.5,1.9-3.2L19.5,0.5z M24.7,14.9c2.6-0.3,5.2,0.1,7.6,1.2c1.7,1.1,2.7,3.1,2.7,5.2
	c-0.1,0.3-0.3,0.4-0.6,0.4h-2.1c-0.3,0-0.5-0.3-0.5-0.6c-0.2-1-0.8-1.9-1.6-2.4c-1.4-0.6-2.9-0.8-4.5-0.7c-1.1,0-2.2,0.3-3.2,0.8
	c-0.7,0.6-1,1.5-0.7,2.3c0.3,0.5,0.8,0.9,1.4,1c3.1,0.8,6.4,0.8,9.4,1.9c1.3,0.4,2.4,1.4,2.9,2.7c0.6,1.9,0.3,3.9-0.9,5.4
	c-1.1,1.1-2.5,1.9-4,2.2c-2,0.4-4,0.5-6,0.2c-2-0.1-3.8-0.8-5.4-2.1c-1.2-1.2-1.9-2.8-1.8-4.5c0-0.3,0.3-0.5,0.5-0.4h2.2
	c0.3,0,0.5,0.2,0.5,0.5c0,0,0,0,0,0l0,0c0.1,1,0.5,1.9,1.3,2.5c1.6,0.8,3.4,1.2,5.2,1c1.6,0.1,3.1-0.3,4.4-1.2
	c0.6-0.6,0.8-1.5,0.6-2.3c-0.2-0.7-0.9-1-1.5-1.2c-3.1-1.1-6.4-0.8-9.4-2c-1.3-0.4-2.4-1.4-2.9-2.7c-0.7-1.9-0.3-3.9,1-5.4
	c1.4-1.3,3.3-2,5.2-2L24.7,14.9z"/>
</svg>
