<svg id="93f66dd0-8ee1-45ba-a78b-b76141b895c2" data-name="facbef17-e70d-47bd-ad74-79cdb30b9b01" xmlns="http://www.w3.org/2000/svg" width="60" height="43" viewBox="0 0 60 43"><title>php</title><polygon points="57.79 9.82 57.79 11.1 57.08 11.69 55.83 11.37 54.9 11.1 54.06 10.41 54.06 10.01 54 9.69 54.93 9.69 56.62 9.82 57.79 9.82" fill="#00c1ff"/><polygon points="56.54 7.71 53.51 8.22 53.13 8.75 53.59 9.18 55.91 9.69 58.31 9.69 58.94 9.34 59.35 8.7 59.16 8.03 58.47 7.84 57.55 7.66 56.54 7.71" fill="#00c1ff"/><polygon points="56.92 6.03 54.82 6.83 54.71 7.44 55.97 7.44 57.14 7.44 57.55 7.23 57.47 6.59 56.92 6.03" fill="#00c1ff"/><path d="M60,8.65c0-1.07-1.17-1.44-1.94-1.55a1.57,1.57,0,0,0,0-1,1.32,1.32,0,0,0-1.25-.53h0a5.48,5.48,0,0,0-3.65,2.08h-5a13.87,13.87,0,0,0-3.84-2.89A18.35,18.35,0,0,0,35.9,2.87H25.46A5.16,5.16,0,0,0,20,.2a6.63,6.63,0,0,0-1.8.64A3.76,3.76,0,0,0,15.48,0C13.25,0,10.61,2.87,10,3.54A12,12,0,0,0,1.86,7.6,10.53,10.53,0,0,0,0,14.34v.61H0V37.87a3.32,3.32,0,0,0,.68,2.48,4,4,0,0,0,3,.91,3.87,3.87,0,0,0,3.13-1,2.37,2.37,0,0,0,.55-1.63l.85-10.07a4.13,4.13,0,0,1,1.55-3.34,4.18,4.18,0,0,1,2.54-.56v10a6.43,6.43,0,0,0,.52,2.67,5.44,5.44,0,0,0,4.44,3.18l.38.45a8.29,8.29,0,0,0,6.27,2A7.42,7.42,0,0,0,30,40.86a4.32,4.32,0,0,0,1-3.13V31a12.37,12.37,0,0,0,2,.21V36a4.55,4.55,0,0,0,.65,2.27,5.65,5.65,0,0,0,4.74,2.48,8.49,8.49,0,0,0,6,1.82,7.65,7.65,0,0,0,6.08-2,3.8,3.8,0,0,0,.9-2.67V23.15a.5.5,0,0,0,0-.29A15.59,15.59,0,0,0,50.24,10h2.94a4.46,4.46,0,0,0,3.38,2h0c.38,0,1.53,0,1.83-.8a1.23,1.23,0,0,0,0-1C59,10,60,9.61,60,8.65Z" fill="#00c1ff"/><path d="M57.11,6.56a.76.76,0,0,1,0,.48,12.43,12.43,0,0,0-2.29.19,3.33,3.33,0,0,1,1.94-.8S57.06,6.45,57.11,6.56Z" fill="#00c1ff"/><path d="M52.23,8.51a.5.5,0,0,0,0,.37V9H49.4l-.3-.51Z" fill="#00c1ff"/><path d="M12.35,24.25a.33.33,0,0,1-.3,0,.32.32,0,0,1,.22-.4h0a3.84,3.84,0,0,0,1.61-1.15,7.9,7.9,0,0,0,1.61-5.34.32.32,0,0,1,.22-.4.33.33,0,0,1,.41.22.31.31,0,0,1,0,.18,8.3,8.3,0,0,1-1.8,5.74,4.38,4.38,0,0,1-1.88,1.15Z" fill="#3a3654"/><path d="M15.62,17.51a2.74,2.74,0,0,1-1.77-.91.34.34,0,0,1,0-.45.3.3,0,0,1,.42,0h0a2,2,0,0,0,1.42.67c.46,0,.87-.4,1.25-1.07a.3.3,0,0,1,.42,0h0a.34.34,0,0,1,0,.45,2.36,2.36,0,0,1-1.74,1.39Z" fill="#3a3654"/><path d="M10.17,9.53a.24.24,0,0,0,.35-.13c.14-.27-.25-.32-.25-.32A5.31,5.31,0,0,0,4.69,10.3c-.27.45.3.77.3.77s.33.24.71-.27A4.42,4.42,0,0,1,10.17,9.53Z" fill="#3a3654"/><path d="M8.21,13.16s2-1,2.73,1S7.74,17.7,7.14,15.54c-1.53-1.71.35-3.93,2.73-3.9C10.14,12.09,8.21,13.16,8.21,13.16Z" fill="#3a3654"/><path d="M10.52,14.84a1.59,1.59,0,0,1-1.44,1.39c-.85,0-1.77-.16-1.77-1.26a1.89,1.89,0,0,1,1.77-1.87,1.41,1.41,0,0,1,1.49,1.32A1.36,1.36,0,0,1,10.52,14.84Z" fill="#00c1ff"/><path d="M10.52,14.84a1.43,1.43,0,0,1-1.44,1.39c-.82,0-1.47-.37-1.47-1.15a1.64,1.64,0,0,1,1.47-1.52,1.28,1.28,0,0,1,1.43,1.08A1.23,1.23,0,0,1,10.52,14.84Z" fill="#fcfcfc"/><path d="M10.52,15.06s0-1.31-1.09-1.31-.85.53-.85.53l.63.4-.6.4a1.18,1.18,0,0,0,1.53.62h0A1.38,1.38,0,0,0,10.52,15.06Z" fill="#3a3654"/><ellipse cx="9.96" cy="14.62" rx="0.27" ry="0.4" transform="translate(-4.31 4.17) rotate(-19.53)" fill="#fcfcfc"/><path d="M60,8.65c0-1.07-1.17-1.44-1.94-1.55a1.57,1.57,0,0,0,0-1,1.32,1.32,0,0,0-1.25-.53h0a5.48,5.48,0,0,0-3.65,2.08h-5a13.87,13.87,0,0,0-3.84-2.89A18.35,18.35,0,0,0,35.9,2.87H25.46A5.16,5.16,0,0,0,20,.2a6.63,6.63,0,0,0-1.8.64A3.76,3.76,0,0,0,15.48,0C13.25,0,10.61,2.87,10,3.54A12,12,0,0,0,1.86,7.6,10.53,10.53,0,0,0,0,14.34v.61H0V37.87a3.32,3.32,0,0,0,.68,2.48,4,4,0,0,0,3,.91,3.87,3.87,0,0,0,3.13-1,2.37,2.37,0,0,0,.55-1.63l.85-10.07a4.13,4.13,0,0,1,1.55-3.34,4.18,4.18,0,0,1,2.54-.56v10a6.43,6.43,0,0,0,.52,2.67,5.44,5.44,0,0,0,4.44,3.18l.38.45a8.29,8.29,0,0,0,6.27,2A7.42,7.42,0,0,0,30,40.86a4.32,4.32,0,0,0,1-3.13V31a12.37,12.37,0,0,0,2,.21V36a4.55,4.55,0,0,0,.65,2.27,5.65,5.65,0,0,0,4.74,2.48,8.49,8.49,0,0,0,6,1.82,7.65,7.65,0,0,0,6.08-2,3.8,3.8,0,0,0,.9-2.67V23.15a.5.5,0,0,0,0-.29A15.59,15.59,0,0,0,50.24,10h2.94a4.46,4.46,0,0,0,3.38,2h0c.38,0,1.53,0,1.83-.8a1.23,1.23,0,0,0,0-1C59,10,60,9.61,60,8.65ZM57.11,6.56a.76.76,0,0,1,0,.48,12.43,12.43,0,0,0-2.29.19,3.33,3.33,0,0,1,1.94-.8S57.06,6.45,57.11,6.56ZM15.48,1.19a3.86,3.86,0,0,1,1.8.32c-1.14.61-2.34,1.34-3.19,1.9H11.56A7.29,7.29,0,0,1,15.48,1.19ZM13.3,34.77h0v-10a17.77,17.77,0,0,1,3.24.94V37.82h0a5,5,0,0,0,.19,1.58A4.55,4.55,0,0,1,13.3,34.77ZM33.75,36h0V31.25A21,21,0,0,0,36.91,31v6.92a3.81,3.81,0,0,0,.46,1.79A3.86,3.86,0,0,1,33.75,36ZM50.1,23a.5.5,0,0,0,.19.61V38a2.64,2.64,0,0,1-.68,2,6.93,6.93,0,0,1-5.45,1.68,7.46,7.46,0,0,1-5.45-1.71,3,3,0,0,1-.85-2h0V29.3a.48.48,0,0,0-.36-.58.49.49,0,0,0-.59.35.47.47,0,0,0,0,.23V30a15.77,15.77,0,0,1-6.08,0v-.75a.48.48,0,0,0-.36-.58.49.49,0,0,0-.59.35.47.47,0,0,0,0,.23v8.6a3.29,3.29,0,0,1-.74,2.38,6.57,6.57,0,0,1-5.26,1.74,7.57,7.57,0,0,1-5.45-1.6,3.3,3.3,0,0,1-.85-2.46h0V24.51h-1a8.69,8.69,0,0,0-7.28-.27,5.06,5.06,0,0,0-2,4.09L6.41,38.41h0a1.32,1.32,0,0,1-.33.94,3.07,3.07,0,0,1-2.34.75,3.18,3.18,0,0,1-2.29-.61A2.47,2.47,0,0,1,1,37.68V14.09c0-2.4,0-8.34,9.27-9.67h0c.74,0,1.53-.19,2.37-.21a.5.5,0,0,0,0,.43.47.47,0,0,0,.64.14h0l.93-.61h0a.49.49,0,0,0,.44-.29,22,22,0,0,1,5.45-2.67,4.41,4.41,0,0,1,4.8,2.51c1.55,2.51,2.56,10.53,0,13.49a5.76,5.76,0,0,1-3.11,1.71c-1.31.29-2.73.61-2.73,2.94a.48.48,0,0,0,.36.58.49.49,0,0,0,.59-.35.47.47,0,0,0,0-.23c0-1.52.6-1.66,1.91-2a6.62,6.62,0,0,0,3.54-1.79h0a11.85,11.85,0,0,0,1.74-7.53,18.38,18.38,0,0,0-1.39-6.63l9.84-.16a14.74,14.74,0,0,1,13,6.2,14.49,14.49,0,0,1,1.39,13Zm6.49-12.08a3.33,3.33,0,0,1-2.18-1h.79c.76,0,1.53.13,2,.16a1.28,1.28,0,0,1,.33.56A1.11,1.11,0,0,1,56.59,10.89Zm1-1.68A15.57,15.57,0,0,1,55.45,9a8.32,8.32,0,0,1-2-.43,8.88,8.88,0,0,1,4.17-.69h0c.65,0,1.42.29,1.42.61s-.74.69-1.39.77Z" fill="#3a3654"/><path d="M52.23,8.51a.5.5,0,0,0,0,.37V9H49.4l-.3-.51Z" fill="#00c1ff"/></svg>