<?xml version="1.0" encoding="utf-8"?>
<!-- Generator: Adobe Illustrator 21.1.0, SVG Export Plug-In . SVG Version: 6.00 Build 0)  -->
<svg version="1.1" id="_x39_3f66dd0-8ee1-45ba-a78b-b76141b895c2"
	 xmlns="http://www.w3.org/2000/svg" xmlns:xlink="http://www.w3.org/1999/xlink" x="0px" y="0px" width="60px" height="43px"
	 viewBox="0 0 60 43" style="enable-background:new 0 0 60 43;" xml:space="preserve">
<style type="text/css">
	.st0{fill:#00C1FF;}
	.st1{fill:#A7C0CA;}
	.st2{fill:#98B5C1;}
	.st3{fill:#FCFCFC;}
</style>
<title>php</title>
<polygon class="st0" points="57.8,9.8 57.8,11.1 57.1,11.7 55.8,11.4 54.9,11.1 54.1,10.4 54.1,10 54,9.7 54.9,9.7 56.6,9.8 "/>
<polygon class="st0" points="56.5,7.7 53.5,8.2 53.1,8.8 53.6,9.2 55.9,9.7 58.3,9.7 58.9,9.3 59.3,8.7 59.2,8 58.5,7.8 57.5,7.7 
	"/>
<polygon class="st0" points="56.9,6 54.8,6.8 54.7,7.4 56,7.4 57.1,7.4 57.5,7.2 57.5,6.6 "/>
<path class="st1" d="M60,8.6c0-1.1-1.2-1.4-1.9-1.6c0.1-0.3,0.1-0.7,0-1c-0.3-0.4-0.8-0.6-1.2-0.5l0,0c-1.4,0.2-2.8,0.9-3.7,2.1h-5
	c-1.1-1.2-2.4-2.2-3.8-2.9c-2.6-1.3-5.5-1.9-8.4-1.9H25.5c-1-2-3.3-3.1-5.5-2.7c-0.6,0.1-1.2,0.3-1.8,0.6c-0.8-0.6-1.7-0.9-2.7-0.8
	c-2.2,0-4.9,2.9-5.5,3.5C6.9,3.8,3.9,5.2,1.9,7.6c-1.4,2-2,4.3-1.9,6.7v0.6l0,0v22.9c-0.1,0.9,0.1,1.8,0.7,2.5c0.8,0.7,1.9,1,3,0.9
	c1.1,0.1,2.3-0.2,3.1-1c0.4-0.5,0.6-1,0.6-1.6l0.9-10.1c0-1.3,0.5-2.5,1.6-3.3c0.8-0.5,1.7-0.6,2.5-0.6v10c0,0.9,0.2,1.8,0.5,2.7
	c0.8,1.8,2.5,3,4.4,3.2l0.4,0.5c1.7,1.5,4,2.2,6.3,2c2.2,0.3,4.5-0.5,6.1-2.1c0.7-0.9,1.1-2,1-3.1V31c0.7,0.1,1.3,0.2,2,0.2V36
	c0,0.8,0.2,1.6,0.7,2.3c1.1,1.6,2.8,2.5,4.7,2.5c1.7,1.4,3.8,2,6,1.8c2.2,0.3,4.4-0.5,6.1-2c0.6-0.7,1-1.7,0.9-2.7V23.1
	c0-0.1,0-0.2,0-0.3c1.5-4.2,1.1-8.9-1.1-12.9h2.9c0.8,1.2,2,1.9,3.4,2l0,0c0.4,0,1.5,0,1.8-0.8c0.1-0.3,0.1-0.7,0-1
	C59,10,60,9.6,60,8.6z"/>
<path class="st1" d="M57.1,6.6c0.1,0.2,0.1,0.3,0,0.5c-0.8,0-1.5,0.1-2.3,0.2c0.5-0.5,1.2-0.7,1.9-0.8C56.8,6.4,57.1,6.4,57.1,6.6z"
	/>
<path class="st0" d="M52.2,8.5c0,0.1,0,0.3,0,0.4V9h-2.8l-0.3-0.5L52.2,8.5z"/>
<path class="st2" d="M12.4,24.2c-0.1,0-0.2,0-0.3,0c-0.1-0.2,0-0.3,0.2-0.4c0,0,0,0,0,0l0,0c0.6-0.2,1.2-0.6,1.6-1.1
	c1.2-1.5,1.7-3.4,1.6-5.3c-0.1-0.2,0-0.3,0.2-0.4c0,0,0,0,0,0c0.2-0.1,0.4,0,0.4,0.2c0,0.1,0,0.1,0,0.2c0.1,2.1-0.5,4.1-1.8,5.7
	C13.8,23.6,13.2,24,12.4,24.2L12.4,24.2z"/>
<path class="st2" d="M15.6,17.5c-0.7-0.1-1.3-0.4-1.8-0.9c-0.1-0.1-0.1-0.3,0-0.5c0.1-0.1,0.3-0.1,0.4,0l0,0
	c0.4,0.4,0.9,0.6,1.4,0.7c0.5,0,0.9-0.4,1.2-1.1c0.1-0.1,0.3-0.1,0.4,0l0,0c0.1,0.1,0.1,0.3,0,0.5C17,16.9,16.4,17.4,15.6,17.5
	L15.6,17.5z"/>
<path class="st2" d="M10.2,9.5c0.1,0.1,0.3,0,0.3-0.1c0,0,0,0,0,0c0.1-0.3-0.2-0.3-0.2-0.3c-1.9-0.7-4.1-0.2-5.6,1.2
	C4.4,10.8,5,11.1,5,11.1s0.3,0.2,0.7-0.3C6.8,9.6,8.6,9.1,10.2,9.5z"/>
<path class="st2" d="M8.2,13.2c0,0,2-1,2.7,1s-3.2,3.5-3.8,1.4c-1.5-1.7,0.3-3.9,2.7-3.9C10.1,12.1,8.2,13.2,8.2,13.2z"/>
<path class="st1" d="M10.5,14.8c-0.1,0.7-0.7,1.3-1.4,1.4c-0.9,0-1.8-0.2-1.8-1.3c0-1,0.8-1.8,1.8-1.9c0.8,0,1.4,0.5,1.5,1.3
	C10.6,14.6,10.6,14.7,10.5,14.8z"/>
<path class="st3" d="M10.5,14.8c0,0.8-0.7,1.4-1.4,1.4c-0.8,0-1.5-0.4-1.5-1.1c0.1-0.8,0.7-1.4,1.5-1.5c0.7-0.1,1.3,0.4,1.4,1.1
	C10.5,14.7,10.5,14.8,10.5,14.8z"/>
<path class="st2" d="M10.5,15.1c0,0,0-1.3-1.1-1.3s-0.9,0.5-0.9,0.5l0.6,0.4l-0.6,0.4c0.3,0.6,0.9,0.9,1.5,0.6l0,0
	C10.3,15.5,10.5,15.3,10.5,15.1z"/>
<ellipse transform="matrix(0.9425 -0.3343 0.3343 0.9425 -4.3139 4.1722)" class="st3" cx="10" cy="14.6" rx="0.3" ry="0.4"/>
<path class="st2" d="M60,8.6c0-1.1-1.2-1.4-1.9-1.6c0.1-0.3,0.1-0.7,0-1c-0.3-0.4-0.8-0.6-1.2-0.5l0,0c-1.4,0.2-2.8,0.9-3.7,2.1h-5
	c-1.1-1.2-2.4-2.2-3.8-2.9c-2.6-1.3-5.5-1.9-8.4-1.9H25.5c-1-2-3.3-3.1-5.5-2.7c-0.6,0.1-1.2,0.3-1.8,0.6c-0.8-0.6-1.7-0.9-2.7-0.8
	c-2.2,0-4.9,2.9-5.5,3.5C6.9,3.8,3.9,5.2,1.9,7.6c-1.4,2-2,4.3-1.9,6.7v0.6l0,0v22.9c-0.1,0.9,0.1,1.8,0.7,2.5c0.8,0.7,1.9,1,3,0.9
	c1.1,0.1,2.3-0.2,3.1-1c0.4-0.5,0.6-1,0.6-1.6l0.9-10.1c0-1.3,0.5-2.5,1.6-3.3c0.8-0.5,1.7-0.6,2.5-0.6v10c0,0.9,0.2,1.8,0.5,2.7
	c0.8,1.8,2.5,3,4.4,3.2l0.4,0.5c1.7,1.5,4,2.2,6.3,2c2.2,0.3,4.5-0.5,6.1-2.1c0.7-0.9,1.1-2,1-3.1V31c0.7,0.1,1.3,0.2,2,0.2V36
	c0,0.8,0.2,1.6,0.7,2.3c1.1,1.6,2.8,2.5,4.7,2.5c1.7,1.4,3.8,2,6,1.8c2.2,0.3,4.4-0.5,6.1-2c0.6-0.7,1-1.7,0.9-2.7V23.1
	c0-0.1,0-0.2,0-0.3c1.5-4.2,1.1-8.9-1.1-12.9h2.9c0.8,1.2,2,1.9,3.4,2l0,0c0.4,0,1.5,0,1.8-0.8c0.1-0.3,0.1-0.7,0-1
	C59,10,60,9.6,60,8.6z M57.1,6.6c0.1,0.2,0.1,0.3,0,0.5c-0.8,0-1.5,0.1-2.3,0.2c0.5-0.5,1.2-0.7,1.9-0.8C56.8,6.4,57.1,6.4,57.1,6.6
	z M15.5,1.2c0.6,0,1.2,0.1,1.8,0.3c-1.1,0.6-2.3,1.3-3.2,1.9h-2.5C12.6,2.3,14,1.5,15.5,1.2z M13.3,34.8L13.3,34.8v-10
	c1.1,0.2,2.2,0.5,3.2,0.9v12.1l0,0c0,0.5,0,1.1,0.2,1.6C14.6,38.9,13.2,36.9,13.3,34.8z M33.8,36L33.8,36v-4.8
	c1.1,0,2.1-0.1,3.2-0.2v6.9c0,0.6,0.2,1.2,0.5,1.8C35.4,39.6,33.8,38,33.8,36z M50.1,23c-0.1,0.2,0,0.5,0.2,0.6V38
	c0.1,0.7-0.2,1.5-0.7,2c-1.5,1.3-3.5,1.9-5.5,1.7c-2,0.2-3.9-0.4-5.5-1.7c-0.5-0.5-0.8-1.3-0.8-2l0,0v-8.7c0.1-0.3-0.1-0.5-0.4-0.6
	c0,0,0,0,0,0c-0.3-0.1-0.5,0.1-0.6,0.4c0,0.1,0,0.2,0,0.2V30c-2,0.4-4.1,0.4-6.1,0v-0.8c0.1-0.3-0.1-0.5-0.4-0.6c0,0,0,0,0,0
	c-0.3-0.1-0.5,0.1-0.6,0.4c0,0.1,0,0.2,0,0.2v8.6c0.1,0.9-0.2,1.7-0.7,2.4c-1.4,1.3-3.3,2-5.3,1.7c-2,0.2-3.9-0.4-5.4-1.6
	c-0.6-0.7-0.9-1.6-0.9-2.5l0,0V24.5h-1c-2.3-1.2-4.9-1.3-7.3-0.3c-1.3,1-2,2.5-2,4.1L6.4,38.4l0,0c0,0.3-0.1,0.7-0.3,0.9
	c-0.6,0.6-1.5,0.8-2.3,0.8c-0.8,0.1-1.6-0.1-2.3-0.6C1.1,39,0.9,38.3,1,37.7V14.1c0-2.4,0-8.3,9.3-9.7l0,0c0.7,0,1.5-0.2,2.4-0.2
	c-0.1,0.1-0.1,0.3,0,0.4c0.1,0.2,0.4,0.3,0.6,0.1l0,0l0.9-0.6l0,0c0.2,0,0.4-0.1,0.4-0.3c1.7-1.1,3.5-2,5.4-2.7c2-0.4,4,0.7,4.8,2.5
	c1.5,2.5,2.6,10.5,0,13.5c-0.8,0.9-1.9,1.5-3.1,1.7c-1.3,0.3-2.7,0.6-2.7,2.9c-0.1,0.3,0.1,0.5,0.4,0.6c0,0,0,0,0,0
	c0.3,0.1,0.5-0.1,0.6-0.4c0-0.1,0-0.2,0-0.2c0-1.5,0.6-1.7,1.9-2c1.3-0.2,2.6-0.8,3.5-1.8l0,0c1.4-2.2,2-4.9,1.7-7.5
	c0-2.3-0.5-4.5-1.4-6.6l9.8-0.2c5.1-0.3,10,2,13,6.2C51.2,13.8,51.7,18.6,50.1,23L50.1,23z M56.6,10.9c-0.8-0.1-1.6-0.4-2.2-1h0.8
	c0.8,0,1.5,0.1,2,0.2c0.2,0.2,0.3,0.3,0.3,0.6C57.3,10.9,56.9,11,56.6,10.9L56.6,10.9z M57.6,9.2c-0.7,0-1.4-0.1-2.1-0.2
	c-0.7-0.1-1.4-0.2-2-0.4c1.3-0.6,2.7-0.8,4.2-0.7l0,0c0.7,0,1.4,0.3,1.4,0.6S58.3,9.2,57.6,9.2L57.6,9.2z"/>
<path class="st1" d="M52.2,8.5c0,0.1,0,0.3,0,0.4V9h-2.8l-0.3-0.5L52.2,8.5z"/>
</svg>
