<svg id="facbef17-e70d-47bd-ad74-79cdb30b9b01" data-name="Слой 1" xmlns="http://www.w3.org/2000/svg" width="22" height="16" viewBox="0 0 22 16"><title>php</title><polygon points="21.19 3.6 21.19 4.08 20.93 4.3 20.47 4.18 20.13 4.08 19.82 3.82 19.82 3.67 19.8 3.55 20.14 3.55 20.76 3.6 21.19 3.6" fill="#00c1ff"/><polygon points="20.73 2.81 19.62 3 19.48 3.2 19.65 3.36 20.5 3.55 21.38 3.55 21.61 3.42 21.76 3.18 21.69 2.93 21.44 2.86 21.1 2.79 20.73 2.81" fill="#00c1ff"/><polygon points="20.87 2.18 20.1 2.48 20.06 2.71 20.52 2.71 20.95 2.71 21.1 2.63 21.07 2.39 20.87 2.18" fill="#00c1ff"/><path d="M22,3.16c0-.4-.43-.54-.71-.58a.6.6,0,0,0,0-.38A.48.48,0,0,0,20.83,2h0a2,2,0,0,0-1.34.78H17.67a5.1,5.1,0,0,0-1.41-1.08,6.62,6.62,0,0,0-3.1-.7h0L9.33,1a1.88,1.88,0,0,0-2-1,2.4,2.4,0,0,0-.66.24,1.36,1.36,0,0,0-1-.31c-.82,0-1.79,1.07-2,1.32a4.37,4.37,0,0,0-3,1.52A4,4,0,0,0,0,5.29c0,.09,0,.18,0,.23v0c0,.08,0,8,0,8.49,0,0,0,.06,0,.09a1.26,1.26,0,0,0,.25.93,1.43,1.43,0,0,0,1.09.34A1.4,1.4,0,0,0,2.49,15a.9.9,0,0,0,.2-.61L3,10.62a1.56,1.56,0,0,1,.57-1.25,1.51,1.51,0,0,1,.93-.21v3.75a2.45,2.45,0,0,0,.19,1,2,2,0,0,0,1.63,1.19l.14.17A3,3,0,0,0,8.76,16,2.69,2.69,0,0,0,11,15.22a1.64,1.64,0,0,0,.35-1.17V11.53a4.45,4.45,0,0,0,.72.08v1.79a1.73,1.73,0,0,0,.24.85,2.06,2.06,0,0,0,1.74.93,3.07,3.07,0,0,0,2.21.68,2.77,2.77,0,0,0,2.23-.76,1.44,1.44,0,0,0,.33-1V8.59a.19.19,0,0,0,0-.11,5.94,5.94,0,0,0-.4-4.81H19.5a1.63,1.63,0,0,0,1.24.74h0c.14,0,.56,0,.67-.3a.47.47,0,0,0,0-.38C21.65,3.67,22,3.52,22,3.16Z" fill="#00c1ff"/><path d="M20.94,2.38a.29.29,0,0,1,0,.18,4.47,4.47,0,0,0-.84.07,1.21,1.21,0,0,1,.71-.3S20.92,2.34,20.94,2.38Z" fill="#00c1ff"/><path d="M19.15,3.11a.19.19,0,0,0,0,.14l0,.05H18.11L18,3.11Z" fill="#00c1ff"/><path d="M4.52,9A.12.12,0,0,1,4.41,9a.12.12,0,0,1,.08-.15,1.41,1.41,0,0,0,.59-.43,3,3,0,0,0,.59-2,.12.12,0,1,1,.23,0,3.15,3.15,0,0,1-.66,2.15A1.6,1.6,0,0,1,4.55,9Z" fill="#3a3654"/><path d="M5.72,6.48a1,1,0,0,1-.65-.34.13.13,0,0,1,0-.17.11.11,0,0,1,.16,0,.71.71,0,0,0,.52.25c.17,0,.32-.15.46-.4a.11.11,0,0,1,.16,0,.13.13,0,0,1,0,.17.87.87,0,0,1-.64.52Z" fill="#3a3654"/><path d="M3.72,3.49s.08.05.13-.05-.09-.12-.09-.12a1.92,1.92,0,0,0-2.05.46c-.1.17.11.29.11.29s.12.09.26-.1A1.6,1.6,0,0,1,3.72,3.49Z" fill="#3a3654"/><path d="M3,4.85s.75-.36,1,.36-1.17,1.34-1.39.53c-.56-.64.13-1.47,1-1.46C3.71,4.45,3,4.85,3,4.85Z" fill="#3a3654"/><path d="M3.85,5.48A.59.59,0,0,1,3.32,6c-.31,0-.65-.06-.65-.47a.7.7,0,0,1,.65-.7A.52.52,0,0,1,3.85,5.48Z" fill="#00c1ff"/><path d="M3.85,5.48A.53.53,0,0,1,3.32,6c-.3,0-.54-.14-.54-.43A.61.61,0,0,1,3.32,5,.47.47,0,0,1,3.85,5.48Z" fill="#fcfcfc"/><path d="M3.85,5.56s0-.49-.4-.49-.31.2-.31.2l.23.15-.22.15a.43.43,0,0,0,.57.23A.52.52,0,0,0,3.85,5.56Z" fill="#3a3654"/><ellipse cx="3.64" cy="5.4" rx="0.1" ry="0.15" transform="translate(-1.57 1.49) rotate(-19.17)" fill="#fcfcfc"/><path d="M22,3.16c0-.4-.43-.54-.71-.58a.6.6,0,0,0,0-.38A.48.48,0,0,0,20.83,2h0a2,2,0,0,0-1.34.78H17.67a5.1,5.1,0,0,0-1.41-1.08,6.62,6.62,0,0,0-3.1-.7h0L9.33,1a1.88,1.88,0,0,0-2-1,2.4,2.4,0,0,0-.66.24,1.36,1.36,0,0,0-1-.31c-.82,0-1.79,1.07-2,1.32a4.37,4.37,0,0,0-3,1.52A4,4,0,0,0,0,5.29c0,.09,0,.18,0,.23v0c0,.08,0,8,0,8.49,0,0,0,.06,0,.09a1.26,1.26,0,0,0,.25.93,1.43,1.43,0,0,0,1.09.34A1.4,1.4,0,0,0,2.49,15a.9.9,0,0,0,.2-.61L3,10.62a1.56,1.56,0,0,1,.57-1.25,1.51,1.51,0,0,1,.93-.21v3.75a2.45,2.45,0,0,0,.19,1,2,2,0,0,0,1.63,1.19l.14.17A3,3,0,0,0,8.76,16,2.69,2.69,0,0,0,11,15.22a1.64,1.64,0,0,0,.35-1.17V11.53a4.45,4.45,0,0,0,.72.08v1.79a1.73,1.73,0,0,0,.24.85,2.06,2.06,0,0,0,1.74.93,3.07,3.07,0,0,0,2.21.68,2.77,2.77,0,0,0,2.23-.76,1.44,1.44,0,0,0,.33-1V8.59a.19.19,0,0,0,0-.11,5.94,5.94,0,0,0-.4-4.81H19.5a1.63,1.63,0,0,0,1.24.74h0c.14,0,.56,0,.67-.3a.47.47,0,0,0,0-.38C21.65,3.67,22,3.52,22,3.16Zm-1.06-.78a.29.29,0,0,1,0,.18,4.47,4.47,0,0,0-.84.07,1.21,1.21,0,0,1,.71-.3S20.92,2.34,20.94,2.38ZM5.67.37a1.39,1.39,0,0,1,.66.12c-.42.23-.86.5-1.17.71q-.49,0-.93,0A2.66,2.66,0,0,1,5.67.37Zm-.8,12.57h0V9.21a6.42,6.42,0,0,1,1.19.35c0,1.17,0,4.28,0,4.52v0a1.89,1.89,0,0,0,.07.59A1.7,1.7,0,0,1,4.87,12.94Zm7.5.47h0V11.62a7.57,7.57,0,0,0,1.16-.11V14.1a1.45,1.45,0,0,0,.17.67A1.43,1.43,0,0,1,12.37,13.41Zm6-4.89a.19.19,0,0,0,.07.23v5.38a1,1,0,0,1-.25.74,2.51,2.51,0,0,1-2,.63,2.7,2.7,0,0,1-2-.64,1.13,1.13,0,0,1-.31-.74h0V10.89a.18.18,0,1,0-.35,0v.25a5.67,5.67,0,0,1-2.23,0v-.28a.18.18,0,1,0-.35,0v3.22a1.25,1.25,0,0,1-.27.89,2.38,2.38,0,0,1-1.93.65,2.74,2.74,0,0,1-2-.6,1.25,1.25,0,0,1-.31-.92v0c0-.29,0-5,0-5H6.06v0a3.13,3.13,0,0,0-2.67-.1,1.91,1.91,0,0,0-.73,1.53l-.32,3.77a.14.14,0,0,0,0,0,.5.5,0,0,1-.12.35,1.11,1.11,0,0,1-.86.28,1.15,1.15,0,0,1-.84-.23.94.94,0,0,1-.15-.67s0-.07,0-.1c0-.47,0-8.18,0-8.48,0-.07,0-.15,0-.25,0-.9,0-3.12,3.4-3.62h0c.27,0,.56-.07.87-.08a.19.19,0,0,0,0,.16.17.17,0,0,0,.24.05l.34-.23h0a.18.18,0,0,0,.16-.11,8,8,0,0,1,2-1,1.61,1.61,0,0,1,1.76.94c.57.94.94,3.94,0,5.05A2.1,2.1,0,0,1,8,7c-.48.11-1,.23-1,1.1a.18.18,0,1,0,.35,0c0-.57.22-.62.7-.74a2.41,2.41,0,0,0,1.3-.67h0a4.51,4.51,0,0,0,.64-2.82,7,7,0,0,0-.51-2.48l3.61-.06a5.37,5.37,0,0,1,4.76,2.32A5.52,5.52,0,0,1,18.36,8.52ZM20.75,4a1.21,1.21,0,0,1-.8-.38l.29,0c.28,0,.56.05.72.06a.48.48,0,0,1,.12.21S21,4,20.75,4Zm.38-.63c-.05,0-.41,0-.8-.06a3,3,0,0,1-.74-.16,3.2,3.2,0,0,1,1.53-.26h0c.24,0,.52.11.52.23S21.37,3.38,21.13,3.41Z" fill="#3a3654"/><path d="M19.15,3.11a.19.19,0,0,0,0,.14l0,.05H18.11L18,3.11Z" fill="#00c1ff"/></svg>