<svg id="d6533e9a-058f-4818-90be-6ab0bcd206a2" data-name="89ae4354-c3f1-4829-b8f8-769147936e6c" xmlns="http://www.w3.org/2000/svg" xmlns:xlink="http://www.w3.org/1999/xlink" width="47" height="47" viewBox="0 0 47 47"><defs><linearGradient id="951585ff-99a7-4099-ad58-c12df8b4392d" x1="34.89" y1="510.72" x2="-0.11" y2="511.01" gradientTransform="translate(0 -493.5)" gradientUnits="userSpaceOnUse"><stop offset="0" stop-color="#366a96"/><stop offset="1" stop-color="#3679b0"/></linearGradient><linearGradient id="f75eb18b-c39e-4b5d-909d-a6fd3cdcd85a" x1="47" y1="523.01" x2="-21.93" y2="523.01" gradientTransform="translate(0 -493.5)" gradientUnits="userSpaceOnUse"><stop offset="0" stop-color="#ffc836"/><stop offset="1" stop-color="#ffe873"/></linearGradient></defs><title>python</title><path d="M29.14.46A35.46,35.46,0,0,0,17.8.46c-4.75.84-5.67,2.64-5.67,5.87h0v4.36H23.49V12.1H7.82a7.08,7.08,0,0,0-7,5.61,20.88,20.88,0,0,0,0,11.41,6.32,6.32,0,0,0,6,5.61h3.89v-5a7.18,7.18,0,0,1,7.1-7H29.14a5.67,5.67,0,0,0,5.67-5.67v0h0V6.33A6.29,6.29,0,0,0,29.14.46Zm-12,7.39a2.14,2.14,0,1,1,2.12-2.17v0A2.14,2.14,0,0,1,17.09,7.84Z" fill="url(#951585ff-99a7-4099-ad58-c12df8b4392d)"/><path d="M46.14,17.71C45.33,14.45,43.76,12,40.47,12H36.21v5a7.23,7.23,0,0,1-7.08,7H17.8a5.77,5.77,0,0,0-5.67,5.74V40.45c0,3.05,2.61,4.83,5.67,5.69a19.18,19.18,0,0,0,11.34,0c2.85-.84,5.67-2.45,5.67-5.69V36.2H23.49V34.73h17c3.29,0,4.52-2.3,5.67-5.69A19.1,19.1,0,0,0,46.14,17.71ZM29.84,39.17a2.14,2.14,0,1,1-2.12,2.17v0a2.14,2.14,0,0,1,2.12-2.11Z" fill="url(#f75eb18b-c39e-4b5d-909d-a6fd3cdcd85a)"/></svg>