<?xml version="1.0" encoding="utf-8"?>
<!-- Generator: Adobe Illustrator 21.1.0, SVG Export Plug-In . SVG Version: 6.00 Build 0)  -->
<svg version="1.1" id="d6533e9a-058f-4818-90be-6ab0bcd206a2"
	 xmlns="http://www.w3.org/2000/svg" xmlns:xlink="http://www.w3.org/1999/xlink" x="0px" y="0px" width="47px" height="47px"
	 viewBox="0 0 47 47" style="enable-background:new 0 0 47 47;" xml:space="preserve">
<style type="text/css">
	.st0{fill:#97B4C0;}
	.st1{fill:#C1D2D9;}
</style>
<title>python</title>
<path class="st0" d="M29.1,0.5c-3.8-0.6-7.6-0.6-11.3,0c-4.8,0.8-5.7,2.6-5.7,5.9l0,0v4.4h11.4v1.4H7.8c-3.4,0-6.3,2.3-7,5.6
	c-1.1,3.7-1.1,7.7,0,11.4c0.3,3.1,2.9,5.5,6,5.6h3.9v-5c0.1-3.9,3.2-7,7.1-7h11.3c3.1,0,5.7-2.5,5.7-5.7l0,0l0,0V6.3
	C34.6,3.2,32.2,0.8,29.1,0.5z M17.1,7.8C16,7.9,15,6.9,15,5.7c0-1.2,0.9-2.1,2.1-2.2c1.2,0,2.1,0.9,2.2,2.1l0,0
	C19.3,6.9,18.3,7.8,17.1,7.8C17.1,7.8,17.1,7.8,17.1,7.8L17.1,7.8z"/>
<path class="st1" d="M46.1,17.7c-0.8-3.3-2.4-5.7-5.7-5.7h-4.3v5c-0.1,3.8-3.2,6.9-7.1,7H17.8c-3.1,0.1-5.7,2.6-5.7,5.7v10.7
	c0,3,2.6,4.8,5.7,5.7c3.7,1.1,7.6,1.1,11.3,0c2.9-0.8,5.7-2.5,5.7-5.7v-4.2H23.5v-1.5h17c3.3,0,4.5-2.3,5.7-5.7
	C47.3,25.3,47.3,21.4,46.1,17.7z M29.8,39.2c1.2,0,2.1,0.9,2.2,2.1s-0.9,2.1-2.1,2.2c-1.2,0-2.1-0.9-2.2-2.1l0,0
	C27.7,40.2,28.7,39.2,29.8,39.2L29.8,39.2z"/>
</svg>
