<svg id="89ae4354-c3f1-4829-b8f8-769147936e6c" data-name="Слой 1" xmlns="http://www.w3.org/2000/svg" xmlns:xlink="http://www.w3.org/1999/xlink" width="18" height="18" viewBox="0 0 18 18"><defs><linearGradient id="b750f66a-c23e-49d8-aecc-af006b182620" x1="13.36" y1="-0.09" x2="-0.04" y2="-0.2" gradientTransform="matrix(1, 0, 0, -1, 0, 6.5)" gradientUnits="userSpaceOnUse"><stop offset="0" stop-color="#366a96"/><stop offset="1" stop-color="#3679b0"/></linearGradient><linearGradient id="b60d16b7-dbbd-4590-b6d9-6600be510fb2" x1="18" y1="-4.8" x2="-8.39" y2="-4.8" gradientTransform="matrix(1, 0, 0, -1, 0, 6.5)" gradientUnits="userSpaceOnUse"><stop offset="0" stop-color="#ffc836"/><stop offset="1" stop-color="#ffe873"/></linearGradient></defs><title>python</title><path d="M11.16.17a13.57,13.57,0,0,0-4.34,0C5,.49,4.65,1.18,4.65,2.42h0V4.09H9v.54H3A2.71,2.71,0,0,0,.31,6.78a8,8,0,0,0,0,4.37,2.42,2.42,0,0,0,2.3,2.15H4.1V11.37A2.75,2.75,0,0,1,6.82,8.7h4.34a2.17,2.17,0,0,0,2.17-2.18h0V2.42A2.41,2.41,0,0,0,11.16.17ZM6.55,3a.82.82,0,1,1,.81-.82A.82.82,0,0,1,6.55,3Z" fill="url(#b750f66a-c23e-49d8-aecc-af006b182620)"/><path d="M17.67,6.78c-.31-1.25-.91-2.18-2.17-2.18H13.87v1.9a2.77,2.77,0,0,1-2.71,2.7H6.82A2.21,2.21,0,0,0,4.65,11.4v4.09c0,1.17,1,1.85,2.17,2.18a7.34,7.34,0,0,0,4.34,0c1.09-.32,2.17-.94,2.17-2.18V13.86H9V13.3h6.5c1.26,0,1.73-.88,2.17-2.18A7.32,7.32,0,0,0,17.67,6.78ZM11.43,15a.82.82,0,1,1-.81.82.82.82,0,0,1,.81-.81Z" fill="url(#b60d16b7-dbbd-4590-b6d9-6600be510fb2)"/></svg>