<?xml version="1.0" encoding="utf-8"?>
<!-- Generator: Adobe Illustrator 21.1.0, SVG Export Plug-In . SVG Version: 6.00 Build 0)  -->
<svg version="1.1" id="ec587983-0d91-4659-9ab5-5fe508d3b0ae"
	 xmlns="http://www.w3.org/2000/svg" xmlns:xlink="http://www.w3.org/1999/xlink" x="0px" y="0px" width="42px" height="42px"
	 viewBox="0 0 42 42" style="enable-background:new 0 0 42 42;" xml:space="preserve">
<style type="text/css">
	.st0{fill:url(#SVGID_1_);}
	.st1{clip-path:url(#SVGID_3_);}
	.st2{fill:#A7C0CA;}
	.st3{clip-path:url(#SVGID_5_);}
	.st4{fill:#98B5C1;}
	.st5{clip-path:url(#SVGID_7_);}
	.st6{clip-path:url(#SVGID_9_);}
	.st7{fill:#9FBAC5;}
	.st8{clip-path:url(#SVGID_11_);}
	.st9{clip-path:url(#SVGID_13_);}
	.st10{fill:url(#SVGID_14_);}
	.st11{clip-path:url(#SVGID_16_);}
	.st12{fill:#90AFBC;}
	.st13{clip-path:url(#SVGID_18_);}
	.st14{fill:#BACED6;}
	.st15{clip-path:url(#SVGID_20_);}
	.st16{clip-path:url(#SVGID_22_);}
	.st17{fill:#A2BCC7;}
	.st18{clip-path:url(#SVGID_24_);}
	.st19{clip-path:url(#SVGID_26_);}
	.st20{fill:#9DB9C4;}
	.st21{clip-path:url(#SVGID_28_);}
	.st22{fill:#92B1BD;}
	.st23{clip-path:url(#SVGID_30_);}
	.st24{clip-path:url(#SVGID_32_);}
	.st25{clip-path:url(#SVGID_34_);}
	.st26{fill:#A3BDC7;}
</style>
<title>ruby</title>
<linearGradient id="SVGID_1_" gradientUnits="userSpaceOnUse" x1="8.59" y1="1009.205" x2="42" y2="1009.205" gradientTransform="matrix(1 0 0 1 0 -984)">
	<stop  offset="0" style="stop-color:#BD0012"/>
	<stop  offset="7.000000e-02" style="stop-color:#FFFFFF"/>
	<stop  offset="0.27" style="stop-color:#C82F1C"/>
	<stop  offset="0.33" style="stop-color:#820C01"/>
	<stop  offset="0.46" style="stop-color:#A31601"/>
	<stop  offset="0.72" style="stop-color:#B31301"/>
	<stop  offset="0.99" style="stop-color:#E82609"/>
	<stop  offset="1" style="stop-color:#E82609"/>
</linearGradient>
<polygon class="st0" points="8.6,41.9 39.6,39.8 42,8.5 32.6,27.7 8.6,41.9 "/>
<g>
	<defs>
		<polygon id="SVGID_2_" points="8.6,41.9 39.6,39.8 42,8.5 32.6,27.7 8.6,41.9 		"/>
	</defs>
	<use xlink:href="#SVGID_2_"  style="overflow:visible;fill:#A7C0CA;"/>
	<clipPath id="SVGID_3_">
		<use xlink:href="#SVGID_2_"  style="overflow:visible;"/>
	</clipPath>
	<g class="st1">
		<path class="st2" d="M8.6,41.9l31-2.1L42,8.5l-9.4,19.2L8.6,41.9z"/>
	</g>
</g>
<g>
	<defs>
		<polygon id="SVGID_4_" points="29.7,31 39.7,39.8 37,21.4 29.7,31 		"/>
	</defs>
	<use xlink:href="#SVGID_4_"  style="overflow:visible;fill:#98B5C1;"/>
	<clipPath id="SVGID_5_">
		<use xlink:href="#SVGID_4_"  style="overflow:visible;"/>
	</clipPath>
	<g class="st3">
		<path class="st4" d="M29.7,31l9.9,8.8L37,21.4L29.7,31z"/>
	</g>
</g>
<g>
	<defs>
		<polygon id="SVGID_6_" points="8.7,41.9 39.7,39.8 20.1,38.2 8.7,41.9 		"/>
	</defs>
	<use xlink:href="#SVGID_6_"  style="overflow:visible;fill:#98B5C1;"/>
	<clipPath id="SVGID_7_">
		<use xlink:href="#SVGID_6_"  style="overflow:visible;"/>
	</clipPath>
	<g class="st5">
		<path class="st4" d="M8.7,41.9l31-2.1l-19.6-1.5L8.7,41.9z"/>
	</g>
</g>
<g>
	<defs>
		<polygon id="SVGID_8_" points="2.9,28.2 8.7,41.9 13.6,25.9 		"/>
	</defs>
	<use xlink:href="#SVGID_8_"  style="overflow:visible;fill:#9FBAC5;"/>
	<clipPath id="SVGID_9_">
		<use xlink:href="#SVGID_8_"  style="overflow:visible;"/>
	</clipPath>
	<g class="st6">
		<path class="st7" d="M2.9,28.2l5.9,13.8l4.9-16L2.9,28.2z"/>
	</g>
</g>
<g>
	<defs>
		<polygon id="SVGID_10_" points="12.4,25.5 29.7,31 25.2,13.4 		"/>
	</defs>
	<use xlink:href="#SVGID_10_"  style="overflow:visible;fill:#9FBAC5;"/>
	<clipPath id="SVGID_11_">
		<use xlink:href="#SVGID_10_"  style="overflow:visible;"/>
	</clipPath>
	<g class="st8">
		<path class="st7" d="M12.4,25.5L29.7,31l-4.5-17.6L12.4,25.5z"/>
	</g>
</g>
<g>
	<defs>
		<polygon id="SVGID_12_" points="25.5,14.6 41,13.6 28.8,3.7 25.5,14.6 		"/>
	</defs>
	<use xlink:href="#SVGID_12_"  style="overflow:visible;fill:#9FBAC5;"/>
	<clipPath id="SVGID_13_">
		<use xlink:href="#SVGID_12_"  style="overflow:visible;"/>
	</clipPath>
	<g class="st9">
		<path class="st7" d="M25.5,14.6l15.5-1L28.8,3.7L25.5,14.6z"/>
	</g>
</g>
<linearGradient id="SVGID_14_" gradientUnits="userSpaceOnUse" x1="23.66" y1="986.125" x2="35.29" y2="986.125" gradientTransform="matrix(1 0 0 1 0 -984)">
	<stop  offset="0" style="stop-color:#79130D"/>
	<stop  offset="0.99" style="stop-color:#9E120B"/>
	<stop  offset="1" style="stop-color:#9E120B"/>
</linearGradient>
<polygon class="st10" points="23.7,0.1 35.3,0.2 28.2,4.1 23.7,0.1 "/>
<g>
	<defs>
		<polygon id="SVGID_15_" points="23.7,0.1 35.3,0.2 28.2,4.1 23.7,0.1 		"/>
	</defs>
	<use xlink:href="#SVGID_15_"  style="overflow:visible;fill:#90AFBC;"/>
	<clipPath id="SVGID_16_">
		<use xlink:href="#SVGID_15_"  style="overflow:visible;"/>
	</clipPath>
	<g class="st11">
		<path class="st12" d="M23.7,0h11.7l-7.2,4.1L23.7,0z"/>
	</g>
</g>
<g>
	<defs>
		<polygon id="SVGID_17_" points="0.6,21.6 0,33.5 3,28.1 		"/>
	</defs>
	<use xlink:href="#SVGID_17_"  style="overflow:visible;fill:#BACED6;"/>
	<clipPath id="SVGID_18_">
		<use xlink:href="#SVGID_17_"  style="overflow:visible;"/>
	</clipPath>
	<g class="st13">
		<path class="st14" d="M0.6,21.6L0,33.5l3-5.5L0.6,21.6z"/>
	</g>
</g>
<path class="st2" d="M0.5,21.4l2.4,6.9l10.6-2.4l12-11.3L29,3.8L23.6,0l-9,3.4l-8.8,8.1C5.6,11.6,2.1,18.2,0.5,21.4z"/>
<g>
	<defs>
		<path id="SVGID_19_" d="M9,9c6.2-6.3,14.2-9.9,17.3-6.8s-0.2,10.7-6.4,16.9S5.8,29.1,2.7,26S2.8,15,9,9z"/>
	</defs>
	<use xlink:href="#SVGID_19_"  style="overflow:visible;fill:#A7C0CA;"/>
	<clipPath id="SVGID_20_">
		<use xlink:href="#SVGID_19_"  style="overflow:visible;"/>
	</clipPath>
	<g class="st15">
		<path class="st2" d="M9,9c6.2-6.3,14.2-9.9,17.3-6.8s-0.2,10.7-6.4,16.9S5.8,29.1,2.7,26S2.8,15,9,9z"/>
	</g>
</g>
<g>
	<defs>
		<path id="SVGID_21_" d="M8.7,41.9l4.8-16.1L29.6,31c-5.8,5.5-12.3,10.1-21,10.9L8.7,41.9z"/>
	</defs>
	<use xlink:href="#SVGID_21_"  style="overflow:visible;fill:#A2BCC7;"/>
	<clipPath id="SVGID_22_">
		<use xlink:href="#SVGID_21_"  style="overflow:visible;"/>
	</clipPath>
	<g class="st16">
		<path class="st17" d="M8.7,41.9l4.8-16.1L29.6,31c-5.8,5.5-12.3,10.1-21,10.9L8.7,41.9z"/>
	</g>
</g>
<g>
	<defs>
		<path id="SVGID_23_" d="M25.6,14.6L29.7,31c5.1-4.9,9-10.8,11.4-17.4L25.6,14.6L25.6,14.6z"/>
	</defs>
	<use xlink:href="#SVGID_23_"  style="overflow:visible;fill:#98B5C1;"/>
	<clipPath id="SVGID_24_">
		<use xlink:href="#SVGID_23_"  style="overflow:visible;"/>
	</clipPath>
	<g class="st18">
		<path class="st4" d="M25.6,14.6L29.7,31c5.1-4.9,9-10.8,11.4-17.4L25.6,14.6L25.6,14.6z"/>
	</g>
</g>
<g>
	<defs>
		<path id="SVGID_25_" d="M41,13.7c1.7-5,2-12.2-5.8-13.5l-6.4,3.6L41,13.7z"/>
	</defs>
	<use xlink:href="#SVGID_25_"  style="overflow:visible;fill:#90AFBC;"/>
	<clipPath id="SVGID_26_">
		<use xlink:href="#SVGID_25_"  style="overflow:visible;"/>
	</clipPath>
	<g class="st19">
		<path class="st12" d="M41,13.7c1.7-5,2-12.2-5.8-13.5l-6.4,3.6L41,13.7z"/>
	</g>
</g>
<path class="st20" d="M0,33.5c-0.5,4.2,2.6,8,6.8,8.5c0.6,0.1,1.2,0.1,1.9,0L3,28.2L0,33.5z"/>
<g>
	<defs>
		<path id="SVGID_27_" d="M25.6,14.6l11.4,7c1.8-2.4,3.1-5.1,3.9-8L25.6,14.6L25.6,14.6z"/>
	</defs>
	<use xlink:href="#SVGID_27_"  style="overflow:visible;fill:#92B1BD;"/>
	<clipPath id="SVGID_28_">
		<use xlink:href="#SVGID_27_"  style="overflow:visible;"/>
	</clipPath>
	<g class="st21">
		<path class="st22" d="M25.6,14.6l11.4,7c1.8-2.4,3.1-5.1,3.9-8L25.6,14.6L25.6,14.6z"/>
	</g>
</g>
<g>
	<defs>
		<path id="SVGID_29_" d="M13.6,25.8L20,38.3c3.5-2,6.8-4.4,9.6-7.3L13.6,25.8z"/>
	</defs>
	<use xlink:href="#SVGID_29_"  style="overflow:visible;fill:#92B1BD;"/>
	<clipPath id="SVGID_30_">
		<use xlink:href="#SVGID_29_"  style="overflow:visible;"/>
	</clipPath>
	<g class="st23">
		<path class="st22" d="M13.6,25.8L20,38.3c3.5-2,6.8-4.4,9.6-7.3L13.6,25.8z"/>
	</g>
</g>
<g>
	<defs>
		<path id="SVGID_31_" d="M2.9,28.3L2,39.2c1.6,2,4.1,2.9,6.6,2.4C6.8,37.1,3,28.1,2.9,28.3z"/>
	</defs>
	<use xlink:href="#SVGID_31_"  style="overflow:visible;fill:#98B5C1;"/>
	<clipPath id="SVGID_32_">
		<use xlink:href="#SVGID_31_"  style="overflow:visible;"/>
	</clipPath>
	<g class="st24">
		<path class="st4" d="M2.9,28.3L2,39.2c1.6,2,4.1,2.9,6.6,2.4C6.8,37.1,3,28.1,2.9,28.3z"/>
	</g>
</g>
<g>
	<defs>
		<path id="SVGID_33_" d="M28.8,3.7l12.9,1.8c-0.7-3-3.3-5.2-6.4-5.4L28.8,3.7z"/>
	</defs>
	<use xlink:href="#SVGID_33_"  style="overflow:visible;fill:#A3BDC7;"/>
	<clipPath id="SVGID_34_">
		<use xlink:href="#SVGID_33_"  style="overflow:visible;"/>
	</clipPath>
	<g class="st25">
		<path class="st26" d="M28.8,3.7l12.9,1.8c-0.7-3-3.3-5.2-6.4-5.4L28.8,3.7z"/>
	</g>
</g>
</svg>
