<svg id="ec587983-0d91-4659-9ab5-5fe508d3b0ae" data-name="ddb0e6ea-63e8-46fc-9d7e-3f0c15ae7442" xmlns="http://www.w3.org/2000/svg" xmlns:xlink="http://www.w3.org/1999/xlink" width="42" height="42" viewBox="0 0 42 42"><defs><linearGradient id="3d25b3e1-df69-422d-a5ed-cdb9b100a876" x1="8.59" y1="-9.2" x2="42" y2="-9.2" gradientTransform="matrix(1, 0, 0, -1, 0, 16)" gradientUnits="userSpaceOnUse"><stop offset="0" stop-color="#bd0012"/><stop offset="0.07" stop-color="#fff"/><stop offset="0.27" stop-color="#c82f1c"/><stop offset="0.33" stop-color="#820c01"/><stop offset="0.46" stop-color="#a31601"/><stop offset="0.72" stop-color="#b31301"/><stop offset="0.99" stop-color="#e82609"/><stop offset="1" stop-color="#e82609"/></linearGradient><clipPath id="962b2ec8-00c7-477c-adca-64308ea3dc57"><polygon points="8.59 41.93 39.6 39.83 42 8.48 32.56 27.67 8.59 41.93 8.59 41.93" fill="none"/></clipPath><linearGradient id="f4121847-bb0e-4197-accd-501f14310788" x1="-1388.3" y1="-504.89" x2="-1415.67" y2="-553.2" gradientTransform="translate(70096.58 24196.3) scale(51.14 51.11)" xlink:href="#3d25b3e1-df69-422d-a5ed-cdb9b100a876"/><clipPath id="769c1e1d-5ad8-47c6-8e19-a7ce29076da3"><polygon points="29.74 30.97 39.66 39.8 36.99 21.36 29.74 30.97 29.74 30.97" fill="none"/></clipPath><linearGradient id="3b787cef-6c99-43a3-84cd-7b5a12eaa976" x1="-1228.33" y1="-405.05" x2="-1263.54" y2="-428.66" gradientTransform="translate(19897.85 12920.17) scale(15.2 28.17)" gradientUnits="userSpaceOnUse"><stop offset="0" stop-color="#871101"/><stop offset="0.99" stop-color="#911209"/><stop offset="1" stop-color="#911209"/></linearGradient><clipPath id="94180fd5-6057-48f0-a424-b496f3e81984"><polygon points="8.71 41.9 39.69 39.8 20.15 38.25 8.71 41.9 8.71 41.9" fill="none"/></clipPath><linearGradient id="ee5e028a-203f-44d3-9715-0361b505bd03" x1="-1289.89" y1="-265.04" x2="-1325.13" y2="-288.65" gradientTransform="translate(64960.69 1798.97) scale(47.47 5.54)" xlink:href="#3b787cef-6c99-43a3-84cd-7b5a12eaa976"/><clipPath id="61511ad3-284b-4284-a3df-e22545e5fbeb"><polygon points="2.86 28.18 8.73 41.9 13.62 25.88 2.86 28.18" fill="none"/></clipPath><linearGradient id="d2e408d7-df8e-42a7-8619-5b9f96fbd194" x1="-1344.84" y1="-663.75" x2="-1339.36" y2="-628.22" gradientTransform="translate(21581.79 11102.66) scale(16.44 24.47)" gradientUnits="userSpaceOnUse"><stop offset="0" stop-color="#fff"/><stop offset="0.23" stop-color="#e57252"/><stop offset="0.46" stop-color="#de3b20"/><stop offset="0.99" stop-color="#a60003"/><stop offset="1" stop-color="#a60003"/></linearGradient><clipPath id="570c1712-65d0-45a2-8540-6104cee7e28d"><polygon points="12.39 25.46 29.74 31.03 25.25 13.39 12.39 25.46" fill="none"/></clipPath><linearGradient id="70a008d8-ac16-422d-84cb-a5c91e5a5f14" x1="-1359.58" y1="-718.13" x2="-1357.58" y2="-681.89" gradientTransform="translate(35718.54 12291.2) scale(26.54 26.92)" gradientUnits="userSpaceOnUse"><stop offset="0" stop-color="#fff"/><stop offset="0.23" stop-color="#e4714e"/><stop offset="0.56" stop-color="#be1a0d"/><stop offset="0.99" stop-color="#a80d00"/><stop offset="1" stop-color="#a80d00"/></linearGradient><clipPath id="9017d281-bb74-4436-804d-dd8f480ae3b0"><polygon points="25.46 14.65 40.98 13.63 28.84 3.71 25.46 14.65 25.46 14.65" fill="none"/></clipPath><linearGradient id="9a962cf1-841e-4226-99a2-85bf3af6601a" x1="-1395.05" y1="-674.03" x2="-1389.03" y2="-648.06" gradientTransform="translate(31864.98 7261.75) scale(23.77 16.74)" gradientUnits="userSpaceOnUse"><stop offset="0" stop-color="#fff"/><stop offset="0.18" stop-color="#e46342"/><stop offset="0.4" stop-color="#c82410"/><stop offset="0.99" stop-color="#a80d00"/><stop offset="1" stop-color="#a80d00"/></linearGradient><linearGradient id="4838224f-9613-42ec-9ae8-220bff3b4328" x1="23.66" y1="13.87" x2="35.29" y2="13.87" gradientTransform="matrix(1, 0, 0, -1, 0, 16)" gradientUnits="userSpaceOnUse"><stop offset="0" stop-color="#79130d"/><stop offset="0.99" stop-color="#9e120b"/><stop offset="1" stop-color="#9e120b"/></linearGradient><clipPath id="e8c21734-4349-4daf-a8c0-d9183abbf447"><polygon points="23.66 0.12 35.29 0.15 28.16 4.13 23.66 0.12 23.66 0.12" fill="none"/></clipPath><linearGradient id="9e47a7f0-ffa0-4d43-8659-3aaee01f4f2f" x1="-1021.89" y1="-479.37" x2="-995.95" y2="-492.34" gradientTransform="translate(23563.77 2026.49) scale(17.83 6.13)" xlink:href="#4838224f-9613-42ec-9ae8-220bff3b4328"/><clipPath id="e610dc06-d223-4d2a-ac7b-0b0f10565edd"><polygon points="0.61 21.56 0.04 33.54 3.04 28.09 0.61 21.56" fill="none"/></clipPath><linearGradient id="51a5dc4d-bad1-4297-9879-1f0214076bc0" x1="-1116.01" y1="-672.99" x2="-1113.86" y2="-651.58" gradientTransform="translate(5004.72 8059.35) scale(4.58 18.31)" gradientUnits="userSpaceOnUse"><stop offset="0" stop-color="#fff"/><stop offset="0.31" stop-color="#de4024"/><stop offset="0.99" stop-color="#bf190b"/><stop offset="1" stop-color="#bf190b"/></linearGradient><linearGradient id="b290f0aa-b0e3-41be-bd34-57f75079bfe7" x1="0.46" y1="1.86" x2="28.96" y2="1.86" gradientTransform="matrix(1, 0, 0, -1, 0, 16)" gradientUnits="userSpaceOnUse"><stop offset="0" stop-color="#fb7655"/><stop offset="0.41" stop-color="#e42b1e"/><stop offset="0.99" stop-color="#900"/><stop offset="1" stop-color="#900"/></linearGradient><clipPath id="3446d2aa-f45d-4497-a917-b27a0c16b0fa"><path d="M9,9c6.2-6.26,14.23-9.91,17.32-6.8s-.18,10.69-6.41,16.89S5.77,29.11,2.68,26,2.77,15,9,9Z" fill="none"/></clipPath><linearGradient id="d426bdcb-4d20-4800-b8e7-57125c9259bd" x1="-1191.16" y1="-643.35" x2="-1090.73" y2="-746.61" gradientTransform="translate(54312.96 18617.53) scale(39.86 39.8)" xlink:href="#3d25b3e1-df69-422d-a5ed-cdb9b100a876"/><clipPath id="ce3c3a23-ba6b-4a08-9910-a62b44e4f16e"><path d="M8.74,41.93l4.82-16.11L29.62,31c-5.81,5.45-12.29,10.09-21,10.9Z" fill="none"/></clipPath><linearGradient id="9fe183de-f9df-4a7f-95e9-79106b25247d" x1="-1214.43" y1="-417.96" x2="-1244.64" y2="-425.42" gradientTransform="translate(43374.59 11142.77) scale(32.02 24.55)" gradientUnits="userSpaceOnUse"><stop offset="0" stop-color="#8c0c01"/><stop offset="0.54" stop-color="#990c00"/><stop offset="0.99" stop-color="#a80d0e"/><stop offset="1" stop-color="#a80d0e"/></linearGradient><clipPath id="b5bafef3-5032-4810-a716-59203ebef82e"><path d="M25.58,14.62,29.71,31A45.64,45.64,0,0,0,41.07,13.57l-15.46,1Z" fill="none"/></clipPath><linearGradient id="66a6ee8e-c43f-4318-9973-a0343fc882fb" x1="-1322.85" y1="-440.88" x2="-1349.73" y2="-464.97" gradientTransform="translate(31765.99 12140.13) scale(23.7 26.62)" gradientUnits="userSpaceOnUse"><stop offset="0" stop-color="#7e110b"/><stop offset="0.99" stop-color="#9e0c00"/><stop offset="1" stop-color="#9e0c00"/></linearGradient><clipPath id="91a857b1-4ab3-44d7-b943-231117883541"><path d="M41,13.66c1.65-5,2-12.16-5.75-13.51L28.87,3.71Z" fill="none"/></clipPath><linearGradient id="84df9a54-8e40-4ee3-bea0-358b96eb33a9" x1="-1352.25" y1="-469.97" x2="-1365.65" y2="-484.29" gradientTransform="translate(26721.99 9163.45) scale(20.09 20.61)" xlink:href="#4838224f-9613-42ec-9ae8-220bff3b4328"/><clipPath id="e8bb1b17-bdd7-4c27-a380-bd9b906f661f"><path d="M25.61,14.65l11.42,7a26.44,26.44,0,0,0,3.93-8l-15.31,1Z" fill="none"/></clipPath><radialGradient id="0bf4bb0a-70f9-494a-8fef-bad9b8befb4c" cx="-1067.4" cy="-727.15" r="38.48" gradientTransform="translate(26818.28 4307.24) scale(20.06 10.5)" gradientUnits="userSpaceOnUse"><stop offset="0" stop-color="#a80d00"/><stop offset="0.99" stop-color="#7e0e08"/><stop offset="1" stop-color="#7e0e08"/></radialGradient><clipPath id="bc352843-8bb8-4d96-9271-a8671b22553d"><path d="M13.56,25.82,20,38.34A42,42,0,0,0,29.59,31Z" fill="none"/></clipPath><radialGradient id="b5da3f0d-be71-4480-864b-ac97f8fcd5ad" cx="-1123.16" cy="-705.95" r="51.16" gradientTransform="translate(28103.5 7218.12) scale(20.99 16.37)" gradientUnits="userSpaceOnUse"><stop offset="0" stop-color="#a30c00"/><stop offset="0.99" stop-color="#800e08"/><stop offset="1" stop-color="#800e08"/></radialGradient><clipPath id="64c927cf-1cba-4b3a-af8f-5d34212c58d8"><path d="M2.86,28.27,2,39.21a6.69,6.69,0,0,0,6.59,2.4C6.76,37.08,3,28.09,2.86,28.27Z" fill="none"/></clipPath><linearGradient id="24671eb6-33a6-4782-83d8-eba6a68bb1a6" x1="-1300.49" y1="-582.38" x2="-1311.42" y2="-619.43" gradientTransform="translate(12741.07 9125.01) scale(10.11 20.45)" gradientUnits="userSpaceOnUse"><stop offset="0" stop-color="#8b2114"/><stop offset="0.43" stop-color="#9e100a"/><stop offset="0.99" stop-color="#b3100c"/><stop offset="1" stop-color="#b3100c"/></linearGradient><clipPath id="a1572114-fc38-497a-8391-cdd3acbd97db"><path d="M28.81,3.74l12.86,1.8A7,7,0,0,0,35.29.15Z" fill="none"/></clipPath><linearGradient id="087aae95-c41f-4090-9851-ce24750cdad2" x1="-1246.31" y1="-336.13" x2="-1221.89" y2="-325.34" gradientTransform="translate(26155.36 3059.37) scale(19.68 8.22)" gradientUnits="userSpaceOnUse"><stop offset="0" stop-color="#b31000"/><stop offset="0.44" stop-color="#910f08"/><stop offset="0.99" stop-color="#791c12"/><stop offset="1" stop-color="#791c12"/></linearGradient></defs><title>ruby</title><polygon points="8.59 41.93 39.6 39.83 42 8.48 32.56 27.67 8.59 41.93 8.59 41.93" fill="url(#3d25b3e1-df69-422d-a5ed-cdb9b100a876)"/><g clip-path="url(#962b2ec8-00c7-477c-adca-64308ea3dc57)"><path d="M8.59,41.93l31-2.1L42,8.48l-9.44,19.2Z" fill="url(#f4121847-bb0e-4197-accd-501f14310788)"/></g><g clip-path="url(#769c1e1d-5ad8-47c6-8e19-a7ce29076da3)"><path d="M29.74,31l9.92,8.84L37,21.35Z" fill="url(#3b787cef-6c99-43a3-84cd-7b5a12eaa976)"/></g><g clip-path="url(#94180fd5-6057-48f0-a424-b496f3e81984)"><path d="M8.71,41.93l31-2.1L20.15,38.31Z" fill="url(#ee5e028a-203f-44d3-9715-0361b505bd03)"/></g><g clip-path="url(#61511ad3-284b-4284-a3df-e22545e5fbeb)"><path d="M2.86,28.18,8.74,41.93l4.88-16.05Z" fill="url(#d2e408d7-df8e-42a7-8619-5b9f96fbd194)"/></g><g clip-path="url(#570c1712-65d0-45a2-8540-6104cee7e28d)"><path d="M12.39,25.46,29.71,31,25.25,13.39Z" fill="url(#70a008d8-ac16-422d-84cb-a5c91e5a5f14)"/></g><g clip-path="url(#9017d281-bb74-4436-804d-dd8f480ae3b0)"><path d="M25.46,14.65l15.52-1L28.84,3.71Z" fill="url(#9a962cf1-841e-4226-99a2-85bf3af6601a)"/></g><polygon points="23.66 0.12 35.29 0.15 28.16 4.13 23.66 0.12 23.66 0.12" fill="url(#4838224f-9613-42ec-9ae8-220bff3b4328)"/><g clip-path="url(#e8c21734-4349-4daf-a8c0-d9183abbf447)"><path d="M23.66,0H35.32L28.15,4.1Z" fill="url(#9e47a7f0-ffa0-4d43-8659-3aaee01f4f2f)"/></g><g clip-path="url(#e610dc06-d223-4d2a-ac7b-0b0f10565edd)"><path d="M.61,21.56,0,33.54l3-5.45Z" fill="url(#51a5dc4d-bad1-4297-9879-1f0214076bc0)"/></g><path d="M.46,21.35l2.43,6.92,10.58-2.37,12-11.26L29,3.8,23.6,0l-9,3.41L5.8,11.5C5.62,11.62,2.11,18.21.46,21.35Z" fill="url(#b290f0aa-b0e3-41be-bd34-57f75079bfe7)"/><g clip-path="url(#3446d2aa-f45d-4497-a917-b27a0c16b0fa)"><path d="M9,9c6.2-6.26,14.23-9.91,17.32-6.8s-.18,10.69-6.41,16.89S5.77,29.11,2.68,26,2.77,15,9,9Z" fill="url(#d426bdcb-4d20-4800-b8e7-57125c9259bd)"/></g><g clip-path="url(#ce3c3a23-ba6b-4a08-9910-a62b44e4f16e)"><path d="M8.74,41.93l4.82-16.11L29.62,31c-5.81,5.45-12.29,10.09-21,10.9Z" fill="url(#9fe183de-f9df-4a7f-95e9-79106b25247d)"/></g><g clip-path="url(#b5bafef3-5032-4810-a716-59203ebef82e)"><path d="M25.58,14.62,29.71,31A45.64,45.64,0,0,0,41.07,13.57l-15.46,1Z" fill="url(#66a6ee8e-c43f-4318-9973-a0343fc882fb)"/></g><g clip-path="url(#91a857b1-4ab3-44d7-b943-231117883541)"><path d="M41,13.66c1.65-5,2-12.16-5.75-13.51L28.87,3.71Z" fill="url(#84df9a54-8e40-4ee3-bea0-358b96eb33a9)"/></g><path d="M0,33.48a7.7,7.7,0,0,0,8.69,8.45L3,28.24Z" fill="#9e1209"/><g clip-path="url(#e8bb1b17-bdd7-4c27-a380-bd9b906f661f)"><path d="M25.61,14.65l11.42,7a26.44,26.44,0,0,0,3.93-8l-15.31,1Z" fill="url(#0bf4bb0a-70f9-494a-8fef-bad9b8befb4c)"/></g><g clip-path="url(#bc352843-8bb8-4d96-9271-a8671b22553d)"><path d="M13.56,25.82,20,38.34A42,42,0,0,0,29.59,31Z" fill="url(#b5da3f0d-be71-4480-864b-ac97f8fcd5ad)"/></g><g clip-path="url(#64c927cf-1cba-4b3a-af8f-5d34212c58d8)"><path d="M2.86,28.27,2,39.21a6.69,6.69,0,0,0,6.59,2.4C6.76,37.08,3,28.09,2.86,28.27Z" fill="url(#24671eb6-33a6-4782-83d8-eba6a68bb1a6)"/></g><g clip-path="url(#a1572114-fc38-497a-8391-cdd3acbd97db)"><path d="M28.81,3.74l12.86,1.8A7,7,0,0,0,35.29.15Z" fill="url(#087aae95-c41f-4090-9851-ce24750cdad2)"/></g></svg>