<svg id="ddb0e6ea-63e8-46fc-9d7e-3f0c15ae7442" data-name="Ğ¡Ğ»Ğ¾Ğ¹ 1" xmlns="http://www.w3.org/2000/svg" xmlns:xlink="http://www.w3.org/1999/xlink" width="14" height="14" viewBox="0 0 14 14"><defs><linearGradient id="a5f8e4a9-4a26-4fd6-9f6a-4263f17bdf21" x1="2.85" y1="8.42" x2="14" y2="8.42" gradientUnits="userSpaceOnUse"><stop offset="0" stop-color="#bd0012"/><stop offset="0.07" stop-color="#fff"/><stop offset="0.27" stop-color="#c82f1c"/><stop offset="0.33" stop-color="#820c01"/><stop offset="0.46" stop-color="#a31601"/><stop offset="0.72" stop-color="#b31301"/><stop offset="0.99" stop-color="#e82609"/><stop offset="1" stop-color="#e82609"/></linearGradient><linearGradient id="dce42222-fadd-4ce9-bc55-8ec3cd328273" x1="7.88" y1="0.71" x2="11.76" y2="0.71" gradientUnits="userSpaceOnUse"><stop offset="0" stop-color="#79130d"/><stop offset="0.99" stop-color="#9e120b"/><stop offset="1" stop-color="#9e120b"/></linearGradient><clipPath id="45712685-1427-4c19-8903-ba97102824a4"><polygon points="2.85 14 13.2 13.3 14 2.83 10.85 9.24 2.85 14 2.85 14" fill="url(#a5f8e4a9-4a26-4fd6-9f6a-4263f17bdf21)"/></clipPath><linearGradient id="922c9275-e29f-4358-964f-7c2832d79b12" x1="-992.19" y1="746.69" x2="-1001.33" y2="762.82" gradientTransform="matrix(51.14, 0, 0, -51.11, 50442.44, 37624.68)" xlink:href="#a5f8e4a9-4a26-4fd6-9f6a-4263f17bdf21"/><clipPath id="533bb2d6-daaa-46bb-9840-2a43e467a33f"><polygon points="9.91 10.34 13.22 13.29 12.33 7.13 9.91 10.34 9.91 10.34" fill="none"/></clipPath><linearGradient id="81f72ac0-ca19-40b1-bacd-877254342318" x1="-915.87" y1="707.44" x2="-927.62" y2="715.32" gradientTransform="matrix(15.2, 0, 0, -28.17, 14331.66, 20430.03)" gradientUnits="userSpaceOnUse"><stop offset="0" stop-color="#871101"/><stop offset="0.99" stop-color="#911209"/><stop offset="1" stop-color="#911209"/></linearGradient><clipPath id="d77e8c80-4d6f-4e68-a927-8f6689a2fb84"><polygon points="2.89 13.99 13.23 13.29 6.71 12.77 2.89 13.99 2.89 13.99" fill="none"/></clipPath><linearGradient id="96a1db95-5c88-40b1-add7-bcc4195856f4" x1="-958.74" y1="606.14" x2="-970.5" y2="614.02" gradientTransform="matrix(47.47, 0, 0, -5.54, 46745.14, 3470.29)" xlink:href="#81f72ac0-ca19-40b1-bacd-877254342318"/><clipPath id="ad98777a-3c22-488c-a982-26b52cf2d9b4"><polygon points="0.94 9.41 2.9 13.99 4.53 8.64 0.94 9.41" fill="none"/></clipPath><linearGradient id="d3b3bb73-cdca-466c-aedb-4af2ba335115" x1="-955.49" y1="791.71" x2="-953.66" y2="779.85" gradientTransform="matrix(16.44, 0, 0, -24.47, 15529.54, 17657.92)" gradientUnits="userSpaceOnUse"><stop offset="0" stop-color="#fff"/><stop offset="0.23" stop-color="#e57252"/><stop offset="0.46" stop-color="#de3b20"/><stop offset="0.99" stop-color="#a60003"/><stop offset="1" stop-color="#a60003"/></linearGradient><clipPath id="bf278cf2-3ec0-4f5b-a813-17d366ed9f4f"><polygon points="4.12 8.5 9.91 10.36 8.41 4.47 4.12 8.5" fill="none"/></clipPath><linearGradient id="ee299127-9d27-403f-a63d-5cb29a99b0e8" x1="-973.16" y1="810.9" x2="-972.49" y2="798.8" gradientTransform="matrix(26.54, 0, 0, -26.92, 25707.24, 19478.56)" gradientUnits="userSpaceOnUse"><stop offset="0" stop-color="#fff"/><stop offset="0.23" stop-color="#e4714e"/><stop offset="0.56" stop-color="#be1a0d"/><stop offset="0.99" stop-color="#a80d00"/><stop offset="1" stop-color="#a80d00"/></linearGradient><clipPath id="f49610ed-9a21-46db-9ab4-3970262932c7"><polygon points="8.48 4.89 13.66 4.55 9.61 1.24 8.48 4.89 8.48 4.89" fill="none"/></clipPath><linearGradient id="f4cbadbd-f7af-4ced-ad5a-e21db2838186" x1="-983.28" y1="786.45" x2="-981.27" y2="777.78" gradientTransform="matrix(23.77, 0, 0, -16.74, 22939.48, 11822.67)" gradientUnits="userSpaceOnUse"><stop offset="0" stop-color="#fff"/><stop offset="0.18" stop-color="#e46342"/><stop offset="0.4" stop-color="#c82410"/><stop offset="0.99" stop-color="#a80d00"/><stop offset="1" stop-color="#a80d00"/></linearGradient><clipPath id="d7933daa-511c-4b04-a79e-a71a64f831b0"><polygon points="7.88 0.04 11.76 0.05 9.38 1.38 7.88 0.04 7.88 0.04" fill="url(#dce42222-fadd-4ce9-bc55-8ec3cd328273)"/></clipPath><linearGradient id="3ae3dea8-585e-43af-805e-77fac8a395f7" x1="-851.62" y1="677.86" x2="-842.96" y2="682.19" gradientTransform="matrix(17.83, 0, 0, -6.13, 16966.66, 3850.03)" xlink:href="#dce42222-fadd-4ce9-bc55-8ec3cd328273"/><clipPath id="e90ff1cb-4866-47a5-9f47-b4212600ebd4"><polygon points="0.19 7.2 0 11.2 1 9.38 0.19 7.2" fill="none"/></clipPath><linearGradient id="70f43c7a-a90c-4b3d-9c39-16ad4e36aeda" x1="-793.89" y1="789.14" x2="-793.17" y2="781.99" gradientTransform="matrix(4.58, 0, 0, -18.31, 3601.41, 13025.33)" gradientUnits="userSpaceOnUse"><stop offset="0" stop-color="#fff"/><stop offset="0.31" stop-color="#de4024"/><stop offset="0.99" stop-color="#bf190b"/><stop offset="1" stop-color="#bf190b"/></linearGradient><linearGradient id="95feb870-123c-4cb0-a828-cb3579941550" x1="0.14" y1="4.72" x2="9.65" y2="4.72" gradientUnits="userSpaceOnUse"><stop offset="0" stop-color="#fb7655"/><stop offset="0.41" stop-color="#e42b1e"/><stop offset="0.99" stop-color="#900"/><stop offset="1" stop-color="#900"/></linearGradient><clipPath id="80c8d10f-34de-4cc8-b527-def1899fd39a"><path d="M3,3C5.07.91,7.75-.31,8.78.73S8.72,4.3,6.64,6.37,1.91,9.72.88,8.68.91,5,3,3Z" fill="none"/></clipPath><linearGradient id="11b93ab7-dd32-4c5c-b713-c4fed2565a8c" x1="-923.26" y1="790.5" x2="-889.74" y2="824.97" gradientTransform="matrix(39.86, 0, 0, -39.8, 39080.41, 29127.93)" xlink:href="#a5f8e4a9-4a26-4fd6-9f6a-4263f17bdf21"/><clipPath id="567043c8-6ee3-4d60-9bd3-c03ccd0f7342"><path d="M2.9,14,4.51,8.62l5.36,1.73c-1.94,1.82-4.1,3.37-7,3.64Z" fill="none"/></clipPath><linearGradient id="b5ca828a-5361-459d-b142-c14a8dd7bf21" x1="-928.09" y1="709.75" x2="-938.17" y2="712.24" gradientTransform="matrix(32.02, 0, 0, -24.55, 31215.21, 17718.67)" gradientUnits="userSpaceOnUse"><stop offset="0" stop-color="#8c0c01"/><stop offset="0.54" stop-color="#990c00"/><stop offset="0.99" stop-color="#a80d0e"/><stop offset="1" stop-color="#a80d0e"/></linearGradient><clipPath id="fe19480b-b715-436b-af17-05ea31ce6b38"><path d="M8.52,4.88,9.9,10.35a15.24,15.24,0,0,0,3.79-5.82l-5.16.35Z" fill="none"/></clipPath><linearGradient id="13b3f96e-dd50-4d6c-8df5-79f3682e7a6c" x1="-959.03" y1="718.11" x2="-968" y2="726.15" gradientTransform="matrix(23.7, 0, 0, -26.62, 22867.93, 19250.09)" gradientUnits="userSpaceOnUse"><stop offset="0" stop-color="#7e110b"/><stop offset="0.99" stop-color="#9e0c00"/><stop offset="1" stop-color="#9e0c00"/></linearGradient><clipPath id="8ad78ad2-d895-480f-bc4c-35422536b174"><path d="M13.67,4.56c.55-1.67.68-4.06-1.92-4.51L9.62,1.24l4.05,3.32Z" fill="none"/></clipPath><linearGradient id="d476995e-f8d8-477a-98f4-cd50cbcfe8d3" x1="-965.19" y1="722.67" x2="-969.66" y2="727.45" gradientTransform="matrix(20.09, 0, 0, -20.61, 19238.99, 14722.83)" xlink:href="#dce42222-fadd-4ce9-bc55-8ec3cd328273"/><clipPath id="8afe6696-3cea-4346-bd49-88ae1b3eb13f"><path d="M8.53,4.89l3.81,2.34a8.83,8.83,0,0,0,1.31-2.68l-5.11.34Z" fill="none"/></clipPath><radialGradient id="1fb54952-286d-459f-a765-0cecc081c492" cx="-874.53" cy="796.9" r="12.84" gradientTransform="matrix(20.06, 0, 0, -10.51, 19347.04, 7263.41)" gradientUnits="userSpaceOnUse"><stop offset="0" stop-color="#a80d00"/><stop offset="0.99" stop-color="#7e0e08"/><stop offset="1" stop-color="#7e0e08"/></radialGradient><clipPath id="6d24a8ca-9649-4f02-9b09-a5043eba123d"><path d="M4.51,8.62,6.67,12.8a14,14,0,0,0,3.19-2.45Z" fill="none"/></clipPath><radialGradient id="43b5f176-9c7d-4ef2-b622-2eee8f262c1e" cx="-893.6" cy="802.14" r="17.07" gradientTransform="matrix(20.99, 0, 0, -16.38, 20267.71, 11690.5)" gradientUnits="userSpaceOnUse"><stop offset="0" stop-color="#a30c00"/><stop offset="0.99" stop-color="#800e08"/><stop offset="1" stop-color="#800e08"/></radialGradient><clipPath id="5126f978-6a73-41a0-821c-d41cf6782a6b"><path d="M.94,9.44.64,13.09a2.23,2.23,0,0,0,2.2.8C2.24,12.38,1,9.38.94,9.44Z" fill="none"/></clipPath><linearGradient id="e862b347-a434-41ae-844c-c4469df0c061" x1="-920.04" y1="761.63" x2="-923.69" y2="774" gradientTransform="matrix(10.11, 0, 0, -20.45, 9170.08, 14643.11)" gradientUnits="userSpaceOnUse"><stop offset="0" stop-color="#8b2114"/><stop offset="0.43" stop-color="#9e100a"/><stop offset="0.99" stop-color="#b3100c"/><stop offset="1" stop-color="#b3100c"/></linearGradient><clipPath id="b8954041-7509-4051-bccc-54db4501c966"><path d="M9.6,1.25l4.29.6A2.35,2.35,0,0,0,11.76.05L9.6,1.25Z" fill="none"/></clipPath><linearGradient id="e083a258-7316-4848-b7cf-4b393bceb8c8" x1="-929.39" y1="647.53" x2="-921.24" y2="643.93" gradientTransform="matrix(19.68, 0, 0, -8.22, 18833.08, 5422.13)" gradientUnits="userSpaceOnUse"><stop offset="0" stop-color="#b31000"/><stop offset="0.44" stop-color="#910f08"/><stop offset="0.99" stop-color="#791c12"/><stop offset="1" stop-color="#791c12"/></linearGradient></defs><title>ruby</title><polygon points="2.85 14 13.2 13.3 14 2.83 10.85 9.24 2.85 14 2.85 14" fill="url(#a5f8e4a9-4a26-4fd6-9f6a-4263f17bdf21)"/><g clip-path="url(#45712685-1427-4c19-8903-ba97102824a4)"><path d="M2.85,14l10.35-.7L14,2.83,10.85,9.24,2.85,14Z" fill="url(#922c9275-e29f-4358-964f-7c2832d79b12)"/></g><g clip-path="url(#533bb2d6-daaa-46bb-9840-2a43e467a33f)"><path d="M9.91,10.34l3.31,2.95-.89-6.16L9.91,10.34Z" fill="url(#81f72ac0-ca19-40b1-bacd-877254342318)"/></g><g clip-path="url(#d77e8c80-4d6f-4e68-a927-8f6689a2fb84)"><path d="M2.89,14l10.34-.7-6.52-.51L2.89,14Z" fill="url(#96a1db95-5c88-40b1-add7-bcc4195856f4)"/></g><g clip-path="url(#ad98777a-3c22-488c-a982-26b52cf2d9b4)"><path d="M.94,9.41,2.9,14,4.53,8.64Z" fill="url(#d3b3bb73-cdca-466c-aedb-4af2ba335115)"/></g><g clip-path="url(#bf278cf2-3ec0-4f5b-a813-17d366ed9f4f)"><path d="M4.12,8.5l5.78,1.85L8.41,4.47Z" fill="url(#ee299127-9d27-403f-a63d-5cb29a99b0e8)"/></g><g clip-path="url(#f49610ed-9a21-46db-9ab4-3970262932c7)"><path d="M8.48,4.89l5.18-.34L9.61,1.24,8.48,4.89Z" fill="url(#f4cbadbd-f7af-4ced-ad5a-e21db2838186)"/></g><polygon points="7.88 0.04 11.76 0.05 9.38 1.38 7.88 0.04 7.88 0.04" fill="url(#dce42222-fadd-4ce9-bc55-8ec3cd328273)"/><g clip-path="url(#d7933daa-511c-4b04-a79e-a71a64f831b0)"><path d="M7.88,0l3.89,0L9.38,1.37,7.88,0Z" fill="url(#3ae3dea8-585e-43af-805e-77fac8a395f7)"/></g><g clip-path="url(#e90ff1cb-4866-47a5-9f47-b4212600ebd4)"><path d="M.19,7.2,0,11.2,1,9.38Z" fill="url(#70f43c7a-a90c-4b3d-9c39-16ad4e36aeda)"/></g><path d="M.14,7.13.95,9.44l3.53-.79,4-3.76L9.65,1.27,7.86,0l-3,1.14L1.92,3.84C1.86,3.88.69,6.08.14,7.13Z" fill="url(#95feb870-123c-4cb0-a828-cb3579941550)"/><g clip-path="url(#80c8d10f-34de-4cc8-b527-def1899fd39a)"><path d="M3,3C5.07.91,7.75-.31,8.78.73S8.72,4.3,6.64,6.37,1.91,9.72.88,8.68.91,5,3,3Z" fill="url(#11b93ab7-dd32-4c5c-b713-c4fed2565a8c)"/></g><g clip-path="url(#567043c8-6ee3-4d60-9bd3-c03ccd0f7342)"><path d="M2.9,14,4.51,8.62l5.36,1.73c-1.94,1.82-4.1,3.37-7,3.64Z" fill="url(#b5ca828a-5361-459d-b142-c14a8dd7bf21)"/></g><g clip-path="url(#fe19480b-b715-436b-af17-05ea31ce6b38)"><path d="M8.52,4.88,9.9,10.35a15.24,15.24,0,0,0,3.79-5.82l-5.16.35Z" fill="url(#13b3f96e-dd50-4d6c-8df5-79f3682e7a6c)"/></g><g clip-path="url(#8ad78ad2-d895-480f-bc4c-35422536b174)"><path d="M13.67,4.56c.55-1.67.68-4.06-1.92-4.51L9.62,1.24l4.05,3.32Z" fill="url(#d476995e-f8d8-477a-98f4-cd50cbcfe8d3)"/></g><path d="M0,11.18A2.57,2.57,0,0,0,2.9,14L1,9.43,0,11.18Z" fill="#9e1209"/><g clip-path="url(#8afe6696-3cea-4346-bd49-88ae1b3eb13f)"><path d="M8.53,4.89l3.81,2.34a8.83,8.83,0,0,0,1.31-2.68l-5.11.34Z" fill="url(#1fb54952-286d-459f-a765-0cecc081c492)"/></g><g clip-path="url(#6d24a8ca-9649-4f02-9b09-a5043eba123d)"><path d="M4.51,8.62,6.67,12.8a14,14,0,0,0,3.19-2.45Z" fill="url(#43b5f176-9c7d-4ef2-b622-2eee8f262c1e)"/></g><g clip-path="url(#5126f978-6a73-41a0-821c-d41cf6782a6b)"><path d="M.94,9.44.64,13.09a2.23,2.23,0,0,0,2.2.8C2.24,12.38,1,9.38.94,9.44Z" fill="url(#e862b347-a434-41ae-844c-c4469df0c061)"/></g><g clip-path="url(#b8954041-7509-4051-bccc-54db4501c966)"><path d="M9.6,1.25l4.29.6A2.35,2.35,0,0,0,11.76.05L9.6,1.25Z" fill="url(#e083a258-7316-4848-b7cf-4b393bceb8c8)"/></g></svg>