<svg data-name="82d401cb-1007-42ae-b816-e910b0efff7c" xmlns="http://www.w3.org/2000/svg" width="84" height="31" viewBox="0 0 84 31"><path d="M6.32 9.35c-.16 0-.21 0 0-.21l.87-1.08a.58.58 0 01.45-.21h14.48c.16 0 .21 0 0 .23l-.68 1.05a.63.63 0 01-.42.23H6.22zM.16 13C0 13 0 12.86 0 12.86l.87-1.08a.58.58 0 01.45-.21h18.62a.18.18 0 01.22.14.18.18 0 010 .09l-.29 1.05a.37.37 0 01-.37.23zM10 16.73c-.16 0-.21 0 0-.23l.45-1.08a.55.55 0 01.42-.23h8.23c.16 0 .24 0 .24.28v1a.31.31 0 01-.29.28H10zm42.43-8.1l-6.8 1.67c-.6.15-.66.21-1.18-.41a5.41 5.41 0 00-1.92-1.51 7.22 7.22 0 00-7.4.59A8.48 8.48 0 0031 16.65a6.32 6.32 0 005.51 6.46 7.63 7.63 0 007-2.56c.37-.44.68-.92 1.1-1.49h-7.88c-.87 0-1-.51-.79-1.2.52-1.23 1.52-3.33 2.07-4.36a1.1 1.1 0 011-.64h14.91a15.24 15.24 0 01-.24 3.25A16.91 16.91 0 0150.32 24a17.1 17.1 0 01-11.65 6.8 14.69 14.69 0 01-11-2.56 12.53 12.53 0 01-5.25-8.89 15.5 15.5 0 013.45-12.08A18.19 18.19 0 0137.31.33a14.31 14.31 0 0110.84 2A12.63 12.63 0 0152.89 8c.24.36 0 .56-.42.69z" fill="#2dbcaf"/><path d="M66 30.8a15.54 15.54 0 01-10-3.54 12.51 12.51 0 01-4.41-7.69 15.12 15.12 0 013.31-12.1A17.2 17.2 0 0166.38.74 15.41 15.41 0 0178 2.79a12.45 12.45 0 015.77 8.94 15.17 15.17 0 01-4.7 13.58 18.85 18.85 0 01-9.81 5.13c-1.07.21-2.17.23-3.26.36zm9.73-16.2a11.34 11.34 0 000-1.33A6.73 6.73 0 0068 7.81l-.61.13a8.85 8.85 0 00-7.16 7A6.57 6.57 0 0064 22.6a7.64 7.64 0 006.66-.23 8.76 8.76 0 005.25-7.69z" fill="#2dbcaf"/></svg>