<svg version="1.1" id="_x38_f2323c9-ff9e-4799-9056-10403a5b5e4d" xmlns="http://www.w3.org/2000/svg" x="0" y="0" width="84" height="31" viewBox="0 0 84 31" xml:space="preserve"><style>.st0{fill:#9db9c4}</style><path class="st0" d="M6.3 9.4c-.2 0-.2 0 0-.2l.9-1.1c.1-.1.3-.2.4-.2h14.5c.2 0 .2 0 0 .2l-.7 1.1c-.1.1-.3.2-.4.2H6.2h.1zM.2 13c-.2 0-.2-.1-.2-.1l.9-1.1c.1-.1.3-.2.4-.2h18.6c.1 0 .2 0 .2.1v.1l-.3 1.1c-.1.1-.2.2-.4.2L.2 13zm9.8 3.7c-.2 0-.2 0 0-.2l.4-1.1c.1-.1.3-.2.4-.2H19c.2 0 .2 0 .2.3v1c0 .2-.1.3-.3.3l-8.9-.1zm42.4-8.1l-6.8 1.7c-.6.1-.7.2-1.2-.4-.5-.6-1.2-1.2-1.9-1.5-2.4-1.2-5.2-1-7.4.6-2.7 1.6-4.3 4.6-4.1 7.7-.1 3.3 2.3 6 5.5 6.5 2.6.4 5.3-.5 7-2.6.4-.4.7-.9 1.1-1.5h-7.9c-.9 0-1-.5-.8-1.2.5-1.2 1.5-3.3 2.1-4.4.2-.4.6-.6 1-.6h14.9c0 1.1 0 2.2-.2 3.3-.4 2.9-1.6 5.6-3.4 7.9-2.8 3.8-7 6.2-11.7 6.8-3.9.6-7.8-.3-11-2.6-2.9-2.1-4.9-5.3-5.2-8.9-.6-4.3.6-8.7 3.5-12.1 2.8-3.7 6.9-6.2 11.4-6.9 3.7-.8 7.6-.1 10.8 2 2.1 1.4 3.8 3.3 4.7 5.7.3.3.1.5-.4.5z"/><path class="st0" d="M66 30.8c-3.6 0-7.2-1.2-10-3.5-2.4-1.9-3.9-4.7-4.4-7.7-.7-4.3.5-8.7 3.3-12.1 2.8-3.7 6.9-6.1 11.5-6.7 4-.9 8.2-.1 11.6 2 3.2 2 5.3 5.2 5.8 8.9.8 5-1 10.1-4.7 13.6-2.7 2.7-6.1 4.4-9.8 5.1-1.1.2-2.2.3-3.3.4zm9.7-16.2v-1.3c-.6-3.6-4.1-6.1-7.7-5.5l-.6.1c-3.6.6-6.4 3.4-7.2 7-.8 3.1.8 6.4 3.8 7.7 2.1.9 4.6.9 6.7-.2 3.1-1.3 5.1-4.3 5.2-7.7l-.2-.1z"/></svg>