<svg data-name="Слой 1" xmlns="http://www.w3.org/2000/svg" width="32" height="12" viewBox="0 0 32 12"><path d="M2.41 3.63c-.06 0-.08 0 0-.08l.33-.42a.22.22 0 01.17-.08h5.52c.06 0 .08 0 0 .09l-.26.41a.24.24 0 01-.16.09H2.37zM.06 5.07C0 5.07 0 5 0 5l.33-.42A.22.22 0 01.5 4.5h7.1a.07.07 0 01.08.09L7.57 5a.14.14 0 01-.14.09zm3.77 1.44c-.06 0-.08 0 0-.09L4 6a.21.21 0 01.16-.09h3.12c.06 0 .09 0 .09.11v.38a.12.12 0 01-.11.11h-3.4zM20 3.35L17.39 4c-.23.06-.25.08-.45-.16a2.07 2.07 0 00-.73-.59 2.7 2.7 0 00-2.82.23 3.33 3.33 0 00-1.59 3A2.45 2.45 0 0013.9 9a2.87 2.87 0 002.65-1c.14-.17.26-.36.42-.58H14c-.33 0-.4-.2-.3-.47.2-.48.58-1.3.79-1.7a.42.42 0 01.39-.25h5.67c0 .42 0 .84-.09 1.27a6.68 6.68 0 01-1.28 3.07A6.49 6.49 0 0114.74 12a5.5 5.5 0 01-4.19-1 4.91 4.91 0 01-2-3.47 6.15 6.15 0 011.31-4.71A6.91 6.91 0 0114.22.11a5.35 5.35 0 014.13.77 4.9 4.9 0 011.81 2.21c.09.14 0 .22-.16.27z" fill="#2dbcaf"/><path d="M25.16 12a5.84 5.84 0 01-3.8-1.38 4.91 4.91 0 01-1.68-3 6 6 0 011.26-4.72A6.53 6.53 0 0125.3.27a5.76 5.76 0 014.44.8 4.87 4.87 0 012.2 3.49 6 6 0 01-1.79 5.3 7.13 7.13 0 01-3.74 2c-.42.08-.84.09-1.25.14zm3.71-6.32a4.53 4.53 0 000-.52 2.57 2.57 0 00-3.18-2.08 3.41 3.41 0 00-2.73 2.72 2.58 2.58 0 001.43 3 2.85 2.85 0 002.54-.09 3.42 3.42 0 002-3z" fill="#2dbcaf"/></svg>