<svg version="1.1" id="_x30_33b0517-846f-49ca-ba1c-160f435cbf80" xmlns="http://www.w3.org/2000/svg" x="0" y="0" width="49" height="62" viewBox="0 0 49 62" xml:space="preserve"><style>.st0{fill:#9db9c4}</style><path class="st0" d="M15.8 48.2s-2.5 1.5 1.8 1.8c4.6.7 9.3.5 13.8-.6 1.1.7 2.2 1.2 3.4 1.6-12.9 5.3-29.1 0-19-2.8zm-1.5-6.9s-2.8 1.9 1.5 2.5c5.9.6 12 .3 17.8-.9.8.8 1.7 1.3 2.8 1.5-16 4.4-33.5.6-22.1-3.1zM45 53.1s1.8 1.5-2.2 2.5c-7.4 2.2-31.3 2.8-37.8 0-2.5-.9 2.2-2.2 3.4-2.5.6 0 1.2-.3 2.2-.3-2.5-1.5-16.9 3.1-7.4 5 26.5 4 48.2-1.8 41.8-4.7zM17 34.2S5 37 12.7 37.9c5.3.3 10.7.3 16 0 3.3-.2 6.6-.6 9.8-1.2-1.1.4-2.1.9-3.1 1.5-12.3 3.1-35.9 1.6-29.2-1.6 3.4-1.5 7.1-2.4 10.8-2.4zm21.5 11.2c12.3-5.9 6.8-11.8 2.8-11.2-.6 0-.9.3-1.5.3.4-.4.8-.7 1.3-.9 7.9-2.5 14 7.7-2.6 11.8zM18.2 61.8c12 .6 30.4-.3 30.7-5.6 0 0-.9 2.2-9.8 3.7a96.88 96.88 0 01-30.4.3c0 .1 1.6 1.3 9.5 1.6z"/><path class="st0" d="M31.1 0s7.1 6.5-6.8 16.5c-10.4 8.1-2.5 12.4 0 17.7-6.1-5.3-10.7-9.9-7.7-14.3 4.7-6.5 17.3-9.7 14.5-19.9zm-3.6 29.8c1.4 1.7 1.3 4.3-.3 5.9l-.4.3-.3.3s8.3-4 4.3-8.7-6.1-6.8 8.3-14.7c.3-.2-22.4 5.1-11.6 16.9z"/></svg>