<svg data-name="Слой 1" xmlns="http://www.w3.org/2000/svg" width="16" height="20" viewBox="0 0 16 20"><path d="M5.2 15.47s-.83.46.58.6a12.8 12.8 0 004.51-.16 7.06 7.06 0 001.14.54c-4.23 1.67-9.57-.09-6.25-1zm-.54-2.17s-.9.63.5.77a18.46 18.46 0 005.78-.26 2.23 2.23 0 00.87.51c-5.1 1.4-10.81.14-7.16-1.05zm10 3.81s.62.46-.68.83c-2.42.66-10.16.86-12.32 0-.76-.3.68-.74 1.14-.8a3.89 3.89 0 01.65-.14c-.83-.54-5.53 1.05-2.38 1.57 8.64 1.35 15.76-.57 13.52-1.47zM5.59 11s-3.94.86-1.41 1.17a34 34 0 005.21 0c1.63-.14 3.25-.4 3.25-.4a9 9 0 00-1 .46c-4 1-11.71.54-9.51-.46a8 8 0 013.42-.74zm7 3.64c4-1.94 2.17-3.81.87-3.57a2.42 2.42 0 00-.47.14.61.61 0 01.36-.26c2.6-.84 4.58 2.5-.82 3.8l.07-.09zM6 19.94c3.9.23 9.86-.14 10-1.83 0 0-.28.66-3.21 1.17a35.2 35.2 0 01-9.86.14s.5.4 3.07.54z" fill="#fff"/><path d="M10.18 0S12.46 2.11 8 5.27c-3.45 2.58-.8 4 0 5.73-2-1.71-3.53-3.17-2.52-4.61C7 4.31 11.08 3.31 10.18 0zM9 9.59a1.38 1.38 0 01-.2 2l-.08.06s2.68-1.28 1.44-2.85-2-2.25 2.7-4.74c0 0-7.4 1.7-3.86 5.48z" fill="#fb670c"/></svg>