<svg data-name="Слой 1" xmlns="http://www.w3.org/2000/svg" width="16" height="18" viewBox="0 0 16 18"><path d="M7.27.19a1.44 1.44 0 011.44 0L15.31 4A1.39 1.39 0 0116 5.18v7.62a1.4 1.4 0 01-.74 1.2L8.7 17.8a1.41 1.41 0 01-1.46 0l-2-1.16a1.18 1.18 0 01-.35-.31c.08-.11.23-.13.35-.18a4.17 4.17 0 00.76-.38.18.18 0 01.2 0l1.68 1c.12.07.24 0 .34-.08L14.67 13a.22.22 0 00.12-.21V5.21a.24.24 0 00-.14-.21L8.12 1.21a.23.23 0 00-.26 0L1.32 5a.24.24 0 00-.14.23v7.54a.22.22 0 00.12.23l1.75 1a1.35 1.35 0 001.09.15.85.85 0 00.54-.8V5.84a.18.18 0 01.17-.19h.87a.2.2 0 01.18.22v7.54a1.93 1.93 0 01-.9 1.74 2.65 2.65 0 01-2.41-.07l-1.88-1A1.38 1.38 0 010 12.81V5.18A1.39 1.39 0 01.71 4zm1.9 5.28a5.15 5.15 0 012.83.45 2.21 2.21 0 011 1.9.2.2 0 01-.22.15H12a.21.21 0 01-.2-.21 1.3 1.3 0 00-.61-.89 3.51 3.51 0 00-1.66-.24 2.22 2.22 0 00-1.19.31.77.77 0 00-.25.86c.09.21.33.29.53.35 1.15.31 2.37.29 3.5.68a1.66 1.66 0 011.08 1 2.14 2.14 0 01-.35 2 2.77 2.77 0 01-1.48.82 7 7 0 01-2.23.09 3.48 3.48 0 01-2-.76 2.12 2.12 0 01-.66-1.66.19.19 0 01.2-.16h.83a.19.19 0 01.2.18 1.28 1.28 0 00.47.9 3.52 3.52 0 001.93.36 2.58 2.58 0 001.64-.43.9.9 0 00.24-.85c-.07-.26-.33-.37-.55-.45-1.14-.42-2.37-.28-3.5-.75a1.71 1.71 0 01-1.07-1 2 2 0 01.38-2 3 3 0 011.92-.72z" fill="#8cc84b"/></svg>