<svg data-name="70b39722-0435-41a8-82fd-15092a62ec2d" xmlns="http://www.w3.org/2000/svg" width="43" height="49" viewBox="0 0 43 49"><path d="M19.54.52a3.83 3.83 0 013.87 0l17.74 10.37A3.79 3.79 0 0143 14.1v20.74a3.82 3.82 0 01-2 3.27L23.38 48.45a3.75 3.75 0 01-3.92 0l-5.37-3.16a3.18 3.18 0 01-.94-.84c.21-.3.62-.35.94-.49a11.15 11.15 0 002-1 .48.48 0 01.54 0l4.51 2.72c.32.19.64 0 .91-.22l17.33-10a.6.6 0 00.32-.57v-20.7a.65.65 0 00-.38-.57L21.82 3.3a.61.61 0 00-.7 0L3.55 13.61a.65.65 0 00-.38.63v20.52a.6.6 0 00.32.63l4.7 2.72a3.59 3.59 0 002.93.41 2.31 2.31 0 001.45-2.18V15.9a.49.49 0 01.46-.52h2.34a.54.54 0 01.48.59V36.5a5.27 5.27 0 01-2.42 4.73A7 7 0 017 41l-5.09-2.68A3.77 3.77 0 010 34.87V14.1a3.79 3.79 0 011.91-3.21zm5.11 14.37a13.69 13.69 0 017.6 1.22 6 6 0 012.69 5.17.54.54 0 01-.59.41h-2.1a.57.57 0 01-.54-.57 3.54 3.54 0 00-1.64-2.42 9.33 9.33 0 00-4.46-.7 5.91 5.91 0 00-3.2.84 2.11 2.11 0 00-.67 2.34 2 2 0 001.42 1c3.09.84 6.37.79 9.41 1.85a4.48 4.48 0 012.9 2.72 5.88 5.88 0 01-.94 5.44 7.42 7.42 0 01-4 2.23 18.58 18.58 0 01-6 .24 9.28 9.28 0 01-5.37-2.07 5.81 5.81 0 01-1.77-4.52.51.51 0 01.54-.44h2.23a.51.51 0 01.54.49 3.5 3.5 0 001.3 2.47 9.36 9.36 0 005.19 1 6.87 6.87 0 004.41-1.17 2.47 2.47 0 00.64-2.31c-.19-.71-.89-1-1.48-1.22-3.06-1.14-6.37-.76-9.41-2a4.62 4.62 0 01-2.88-2.72 5.5 5.5 0 011-5.44 8 8 0 015.16-2z" fill="#8cc84b"/></svg>