<svg xmlns="http://www.w3.org/2000/svg" width="43" height="49" viewBox="0 0 43 49"><path d="M19.5.5c1.2-.7 2.7-.7 3.9 0l17.7 10.4c1.1.7 1.8 1.9 1.8 3.2v20.7c0 1.4-.8 2.6-2 3.3L23.4 48.5c-1.2.7-2.7.7-3.9 0l-5.4-3.2c-.4-.2-.7-.5-.9-.8.2-.3.6-.3.9-.5.7-.3 1.4-.6 2-1 .2-.1.4-.1.5 0l4.5 2.7c.3.2.6 0 .9-.2l17.3-10c.2-.1.3-.3.3-.6V14.2c0-.2-.2-.5-.4-.6L21.8 3.3c-.2-.1-.5-.1-.7 0L3.5 13.6c-.2.1-.4.4-.4.6v20.5c0 .3.1.5.3.6L8.1 38c.9.6 1.9.7 2.9.4.9-.4 1.5-1.2 1.4-2.2V15.9c0-.3.2-.5.5-.5h2.3c.3 0 .5.3.5.6v20.5c.1 1.9-.8 3.7-2.4 4.7-1.9 1-4.3.9-6.3-.2l-5.1-2.7c-1.2-.7-2-2-1.9-3.5V14.1c0-1.3.8-2.5 1.9-3.2L19.5.5zm5.2 14.4c2.6-.3 5.2.1 7.6 1.2 1.7 1.1 2.7 3.1 2.7 5.2-.1.3-.3.4-.6.4h-2.1c-.3 0-.5-.3-.5-.6-.2-1-.8-1.9-1.6-2.4-1.4-.6-2.9-.8-4.5-.7-1.1 0-2.2.3-3.2.8-.7.6-1 1.5-.7 2.3.3.5.8.9 1.4 1 3.1.8 6.4.8 9.4 1.9 1.3.4 2.4 1.4 2.9 2.7.6 1.9.3 3.9-.9 5.4-1.1 1.1-2.5 1.9-4 2.2-2 .4-4 .5-6 .2-2-.1-3.8-.8-5.4-2.1-1.2-1.2-1.9-2.8-1.8-4.5 0-.3.3-.5.5-.4h2.2c.3 0 .5.2.5.5.1 1 .5 1.9 1.3 2.5 1.6.8 3.4 1.2 5.2 1 1.6.1 3.1-.3 4.4-1.2.6-.6.8-1.5.6-2.3-.2-.7-.9-1-1.5-1.2-3.1-1.1-6.4-.8-9.4-2-1.3-.4-2.4-1.4-2.9-2.7-.7-1.9-.3-3.9 1-5.4 1.4-1.3 3.3-2 5.2-2l.2.2z" fill="#9db9c4"/></svg>