<svg data-name="facbef17-e70d-47bd-ad74-79cdb30b9b01" xmlns="http://www.w3.org/2000/svg" width="60" height="43" viewBox="0 0 60 43"><path fill="#00c1ff" d="M57.79 9.82v1.28l-.71.59-1.25-.32-.93-.27-.84-.69v-.4L54 9.69h.93l1.69.13h1.17zm-1.25-2.11l-3.03.51-.38.53.46.43 2.32.51h2.4l.63-.35.41-.64-.19-.67-.69-.19-.92-.18-1.01.05zm.38-1.68l-2.1.8-.11.61h2.43l.41-.21-.08-.64-.55-.56z"/><path d="M60 8.65c0-1.07-1.17-1.44-1.94-1.55a1.57 1.57 0 000-1 1.32 1.32 0 00-1.25-.53 5.48 5.48 0 00-3.65 2.08h-5a13.87 13.87 0 00-3.84-2.89 18.35 18.35 0 00-8.42-1.89H25.46A5.16 5.16 0 0020 .2a6.63 6.63 0 00-1.8.64A3.76 3.76 0 0015.48 0C13.25 0 10.61 2.87 10 3.54A12 12 0 001.86 7.6 10.53 10.53 0 000 14.34v23.53a3.32 3.32 0 00.68 2.48 4 4 0 003 .91 3.87 3.87 0 003.13-1 2.37 2.37 0 00.55-1.63l.85-10.07a4.13 4.13 0 011.55-3.34 4.18 4.18 0 012.54-.56v10a6.43 6.43 0 00.52 2.67 5.44 5.44 0 004.44 3.18l.38.45a8.29 8.29 0 006.27 2 7.42 7.42 0 006.09-2.1 4.32 4.32 0 001-3.13V31a12.37 12.37 0 002 .21V36a4.55 4.55 0 00.65 2.27 5.65 5.65 0 004.74 2.48 8.49 8.49 0 006 1.82 7.65 7.65 0 006.08-2 3.8 3.8 0 00.9-2.67V23.15a.5.5 0 000-.29A15.59 15.59 0 0050.24 10h2.94a4.46 4.46 0 003.38 2c.38 0 1.53 0 1.83-.8a1.23 1.23 0 000-1C59 10 60 9.61 60 8.65z" fill="#00c1ff"/><path d="M57.11 6.56a.76.76 0 010 .48 12.43 12.43 0 00-2.29.19 3.33 3.33 0 011.94-.8s.3.02.35.13zm-4.88 1.95a.5.5 0 000 .37V9H49.4l-.3-.51z" fill="#00c1ff"/><path d="M12.35 24.25a.33.33 0 01-.3 0 .32.32 0 01.22-.4 3.84 3.84 0 001.61-1.15 7.9 7.9 0 001.61-5.34.32.32 0 01.22-.4.33.33 0 01.41.22.31.31 0 010 .18 8.3 8.3 0 01-1.8 5.74 4.38 4.38 0 01-1.88 1.15z" fill="#3a3654"/><path d="M15.62 17.51a2.74 2.74 0 01-1.77-.91.34.34 0 010-.45.3.3 0 01.42 0 2 2 0 001.42.67c.46 0 .87-.4 1.25-1.07a.3.3 0 01.42 0 .34.34 0 010 .45 2.36 2.36 0 01-1.74 1.39zm-5.45-7.98a.24.24 0 00.35-.13c.14-.27-.25-.32-.25-.32a5.31 5.31 0 00-5.58 1.22c-.27.45.3.77.3.77s.33.24.71-.27a4.42 4.42 0 014.47-1.27zm-1.96 3.63s2-1 2.73 1-3.2 3.54-3.8 1.38c-1.53-1.71.35-3.93 2.73-3.9.27.45-1.66 1.52-1.66 1.52z" fill="#3a3654"/><path d="M10.52 14.84a1.59 1.59 0 01-1.44 1.39c-.85 0-1.77-.16-1.77-1.26a1.89 1.89 0 011.77-1.87 1.41 1.41 0 011.49 1.32 1.36 1.36 0 01-.05.42z" fill="#00c1ff"/><path d="M10.52 14.84a1.43 1.43 0 01-1.44 1.39c-.82 0-1.47-.37-1.47-1.15a1.64 1.64 0 011.47-1.52 1.28 1.28 0 011.43 1.08 1.23 1.23 0 01.01.2z" fill="#fcfcfc"/><path d="M10.52 15.06s0-1.31-1.09-1.31-.85.53-.85.53l.63.4-.6.4a1.18 1.18 0 001.53.62 1.38 1.38 0 00.38-.64z" fill="#3a3654"/><ellipse cx="9.96" cy="14.62" rx=".27" ry=".4" transform="rotate(-19.53 9.96 14.607)" fill="#fcfcfc"/><path d="M60 8.65c0-1.07-1.17-1.44-1.94-1.55a1.57 1.57 0 000-1 1.32 1.32 0 00-1.25-.53 5.48 5.48 0 00-3.65 2.08h-5a13.87 13.87 0 00-3.84-2.89 18.35 18.35 0 00-8.42-1.89H25.46A5.16 5.16 0 0020 .2a6.63 6.63 0 00-1.8.64A3.76 3.76 0 0015.48 0C13.25 0 10.61 2.87 10 3.54A12 12 0 001.86 7.6 10.53 10.53 0 000 14.34v23.53a3.32 3.32 0 00.68 2.48 4 4 0 003 .91 3.87 3.87 0 003.13-1 2.37 2.37 0 00.55-1.63l.85-10.07a4.13 4.13 0 011.55-3.34 4.18 4.18 0 012.54-.56v10a6.43 6.43 0 00.52 2.67 5.44 5.44 0 004.44 3.18l.38.45a8.29 8.29 0 006.27 2 7.42 7.42 0 006.09-2.1 4.32 4.32 0 001-3.13V31a12.37 12.37 0 002 .21V36a4.55 4.55 0 00.65 2.27 5.65 5.65 0 004.74 2.48 8.49 8.49 0 006 1.82 7.65 7.65 0 006.08-2 3.8 3.8 0 00.9-2.67V23.15a.5.5 0 000-.29A15.59 15.59 0 0050.24 10h2.94a4.46 4.46 0 003.38 2c.38 0 1.53 0 1.83-.8a1.23 1.23 0 000-1C59 10 60 9.61 60 8.65zm-2.89-2.09a.76.76 0 010 .48 12.43 12.43 0 00-2.29.19 3.33 3.33 0 011.94-.8s.3.02.35.13zM15.48 1.19a3.86 3.86 0 011.8.32c-1.14.61-2.34 1.34-3.19 1.9h-2.53a7.29 7.29 0 013.92-2.22zM13.3 34.77v-10a17.77 17.77 0 013.24.94v12.11a5 5 0 00.19 1.58 4.55 4.55 0 01-3.43-4.63zM33.75 36v-4.75a21 21 0 003.16-.25v6.92a3.81 3.81 0 00.46 1.79A3.86 3.86 0 0133.75 36zM50.1 23a.5.5 0 00.19.61V38a2.64 2.64 0 01-.68 2 6.93 6.93 0 01-5.45 1.68 7.46 7.46 0 01-5.45-1.71 3 3 0 01-.85-2V29.3a.48.48 0 00-.36-.58.49.49 0 00-.59.35.47.47 0 000 .23v.7a15.77 15.77 0 01-6.08 0v-.75a.48.48 0 00-.36-.58.49.49 0 00-.59.35.47.47 0 000 .23v8.6a3.29 3.29 0 01-.74 2.38 6.57 6.57 0 01-5.26 1.74 7.57 7.57 0 01-5.45-1.6 3.3 3.3 0 01-.85-2.46v-13.4h-1a8.69 8.69 0 00-7.28-.27 5.06 5.06 0 00-2 4.09l-.89 10.08a1.32 1.32 0 01-.33.94 3.07 3.07 0 01-2.34.75 3.18 3.18 0 01-2.29-.61A2.47 2.47 0 011 37.68V14.09c0-2.4 0-8.34 9.27-9.67.74 0 1.53-.19 2.37-.21a.5.5 0 000 .43.47.47 0 00.64.14l.93-.61a.49.49 0 00.44-.29 22 22 0 015.45-2.67 4.41 4.41 0 014.8 2.51c1.55 2.51 2.56 10.53 0 13.49a5.76 5.76 0 01-3.11 1.71c-1.31.29-2.73.61-2.73 2.94a.48.48 0 00.36.58.49.49 0 00.59-.35.47.47 0 000-.23c0-1.52.6-1.66 1.91-2a6.62 6.62 0 003.54-1.79 11.85 11.85 0 001.74-7.53 18.38 18.38 0 00-1.39-6.63l9.84-.16a14.74 14.74 0 0113 6.2 14.49 14.49 0 011.39 13zm6.49-12.08a3.33 3.33 0 01-2.18-1h.79c.76 0 1.53.13 2 .16a1.28 1.28 0 01.33.56 1.11 1.11 0 01-.94.25zm1-1.68A15.57 15.57 0 0155.45 9a8.32 8.32 0 01-2-.43 8.88 8.88 0 014.17-.69c.65 0 1.42.29 1.42.61s-.74.69-1.39.77z" fill="#3a3654"/><path d="M52.23 8.51a.5.5 0 000 .37V9H49.4l-.3-.51z" fill="#00c1ff"/></svg>