<svg version="1.1" id="_x39_3f66dd0-8ee1-45ba-a78b-b76141b895c2" xmlns="http://www.w3.org/2000/svg" x="0" y="0" width="60" height="43" viewBox="0 0 60 43" xml:space="preserve"><style>.st0{fill:#00c1ff}.st1{fill:#a7c0ca}.st2{fill:#98b5c1}.st3{fill:#fcfcfc}</style><path class="st0" d="M57.8 9.8v1.3l-.7.6-1.3-.3-.9-.3-.8-.7V10l-.1-.3h.9l1.7.1zm-1.3-2.1l-3 .5-.4.6.5.4 2.3.5h2.4l.6-.4.4-.6-.1-.7-.7-.2-1-.1zm.4-1.7l-2.1.8-.1.6h2.4l.4-.2v-.6z"/><path class="st1" d="M60 8.6c0-1.1-1.2-1.4-1.9-1.6.1-.3.1-.7 0-1-.3-.4-.8-.6-1.2-.5-1.4.2-2.8.9-3.7 2.1h-5c-1.1-1.2-2.4-2.2-3.8-2.9-2.6-1.3-5.5-1.9-8.4-1.9H25.5c-1-2-3.3-3.1-5.5-2.7-.6.1-1.2.3-1.8.6-.8-.6-1.7-.9-2.7-.8-2.2 0-4.9 2.9-5.5 3.5-3.1.4-6.1 1.8-8.1 4.2-1.4 2-2 4.3-1.9 6.7v23.5c-.1.9.1 1.8.7 2.5.8.7 1.9 1 3 .9 1.1.1 2.3-.2 3.1-1 .4-.5.6-1 .6-1.6l.9-10.1c0-1.3.5-2.5 1.6-3.3.8-.5 1.7-.6 2.5-.6v10c0 .9.2 1.8.5 2.7.8 1.8 2.5 3 4.4 3.2l.4.5c1.7 1.5 4 2.2 6.3 2 2.2.3 4.5-.5 6.1-2.1.7-.9 1.1-2 1-3.1V31c.7.1 1.3.2 2 .2V36c0 .8.2 1.6.7 2.3 1.1 1.6 2.8 2.5 4.7 2.5 1.7 1.4 3.8 2 6 1.8 2.2.3 4.4-.5 6.1-2 .6-.7 1-1.7.9-2.7V22.8c1.5-4.2 1.1-8.9-1.1-12.9h2.9c.8 1.2 2 1.9 3.4 2 .4 0 1.5 0 1.8-.8.1-.3.1-.7 0-1C59 10 60 9.6 60 8.6z"/><path class="st1" d="M57.1 6.6c.1.2.1.3 0 .5-.8 0-1.5.1-2.3.2.5-.5 1.2-.7 1.9-.8.1-.1.4-.1.4.1z"/><path class="st0" d="M52.2 8.5V9h-2.8l-.3-.5h3.1z"/><path class="st2" d="M12.4 24.2h-.3c-.1-.2 0-.3.2-.4.6-.2 1.2-.6 1.6-1.1 1.2-1.5 1.7-3.4 1.6-5.3-.1-.2 0-.3.2-.4.2-.1.4 0 .4.2v.2c.1 2.1-.5 4.1-1.8 5.7-.5.5-1.1.9-1.9 1.1z"/><path class="st2" d="M15.6 17.5c-.7-.1-1.3-.4-1.8-.9-.1-.1-.1-.3 0-.5.1-.1.3-.1.4 0 .4.4.9.6 1.4.7.5 0 .9-.4 1.2-1.1.1-.1.3-.1.4 0 .1.1.1.3 0 .5-.2.7-.8 1.2-1.6 1.3zm-5.4-8c.1.1.3 0 .3-.1.1-.3-.2-.3-.2-.3-1.9-.7-4.1-.2-5.6 1.2-.3.5.3.8.3.8s.3.2.7-.3c1.1-1.2 2.9-1.7 4.5-1.3zm-2 3.7s2-1 2.7 1-3.2 3.5-3.8 1.4c-1.5-1.7.3-3.9 2.7-3.9.3.4-1.6 1.5-1.6 1.5z"/><path class="st1" d="M10.5 14.8c-.1.7-.7 1.3-1.4 1.4-.9 0-1.8-.2-1.8-1.3 0-1 .8-1.8 1.8-1.9.8 0 1.4.5 1.5 1.3 0 .3 0 .4-.1.5z"/><path class="st3" d="M10.5 14.8c0 .8-.7 1.4-1.4 1.4-.8 0-1.5-.4-1.5-1.1.1-.8.7-1.4 1.5-1.5.7-.1 1.3.4 1.4 1.1v.1z"/><path class="st2" d="M10.5 15.1s0-1.3-1.1-1.3-.9.5-.9.5l.6.4-.6.4c.3.6.9.9 1.5.6.3-.2.5-.4.5-.6z"/><ellipse transform="rotate(-19.529 9.965 14.62)" class="st3" cx="10" cy="14.6" rx=".3" ry=".4"/><path class="st2" d="M60 8.6c0-1.1-1.2-1.4-1.9-1.6.1-.3.1-.7 0-1-.3-.4-.8-.6-1.2-.5-1.4.2-2.8.9-3.7 2.1h-5c-1.1-1.2-2.4-2.2-3.8-2.9-2.6-1.3-5.5-1.9-8.4-1.9H25.5c-1-2-3.3-3.1-5.5-2.7-.6.1-1.2.3-1.8.6-.8-.6-1.7-.9-2.7-.8-2.2 0-4.9 2.9-5.5 3.5-3.1.4-6.1 1.8-8.1 4.2-1.4 2-2 4.3-1.9 6.7v23.5c-.1.9.1 1.8.7 2.5.8.7 1.9 1 3 .9 1.1.1 2.3-.2 3.1-1 .4-.5.6-1 .6-1.6l.9-10.1c0-1.3.5-2.5 1.6-3.3.8-.5 1.7-.6 2.5-.6v10c0 .9.2 1.8.5 2.7.8 1.8 2.5 3 4.4 3.2l.4.5c1.7 1.5 4 2.2 6.3 2 2.2.3 4.5-.5 6.1-2.1.7-.9 1.1-2 1-3.1V31c.7.1 1.3.2 2 .2V36c0 .8.2 1.6.7 2.3 1.1 1.6 2.8 2.5 4.7 2.5 1.7 1.4 3.8 2 6 1.8 2.2.3 4.4-.5 6.1-2 .6-.7 1-1.7.9-2.7V22.8c1.5-4.2 1.1-8.9-1.1-12.9h2.9c.8 1.2 2 1.9 3.4 2 .4 0 1.5 0 1.8-.8.1-.3.1-.7 0-1C59 10 60 9.6 60 8.6zm-2.9-2c.1.2.1.3 0 .5-.8 0-1.5.1-2.3.2.5-.5 1.2-.7 1.9-.8.1-.1.4-.1.4.1zM15.5 1.2c.6 0 1.2.1 1.8.3-1.1.6-2.3 1.3-3.2 1.9h-2.5c1-1.1 2.4-1.9 3.9-2.2zm-2.2 33.6v-10c1.1.2 2.2.5 3.2.9v12.1c0 .5 0 1.1.2 1.6-2.1-.5-3.5-2.5-3.4-4.6zM33.8 36v-4.8c1.1 0 2.1-.1 3.2-.2v6.9c0 .6.2 1.2.5 1.8-2.1-.1-3.7-1.7-3.7-3.7zm16.3-13c-.1.2 0 .5.2.6V38c.1.7-.2 1.5-.7 2-1.5 1.3-3.5 1.9-5.5 1.7-2 .2-3.9-.4-5.5-1.7-.5-.5-.8-1.3-.8-2v-8.7c.1-.3-.1-.5-.4-.6-.3-.1-.5.1-.6.4v.9c-2 .4-4.1.4-6.1 0v-.8c.1-.3-.1-.5-.4-.6-.3-.1-.5.1-.6.4v8.8c.1.9-.2 1.7-.7 2.4-1.4 1.3-3.3 2-5.3 1.7-2 .2-3.9-.4-5.4-1.6-.6-.7-.9-1.6-.9-2.5V24.5h-1c-2.3-1.2-4.9-1.3-7.3-.3-1.3 1-2 2.5-2 4.1l-.7 10.1c0 .3-.1.7-.3.9-.6.6-1.5.8-2.3.8-.8.1-1.6-.1-2.3-.6-.4-.5-.6-1.2-.5-1.8V14.1c0-2.4 0-8.3 9.3-9.7.7 0 1.5-.2 2.4-.2-.1.1-.1.3 0 .4.1.2.4.3.6.1l.9-.6c.2 0 .4-.1.4-.3 1.7-1.1 3.5-2 5.4-2.7 2-.4 4 .7 4.8 2.5 1.5 2.5 2.6 10.5 0 13.5-.8.9-1.9 1.5-3.1 1.7-1.3.3-2.7.6-2.7 2.9-.1.3.1.5.4.6.3.1.5-.1.6-.4v-.2c0-1.5.6-1.7 1.9-2 1.3-.2 2.6-.8 3.5-1.8 1.4-2.2 2-4.9 1.7-7.5 0-2.3-.5-4.5-1.4-6.6l9.8-.2c5.1-.3 10 2 13 6.2 2.7 4 3.2 8.8 1.6 13.2zm6.5-12.1c-.8-.1-1.6-.4-2.2-1h.8c.8 0 1.5.1 2 .2.2.2.3.3.3.6-.2.2-.6.3-.9.2zm1-1.7c-.7 0-1.4-.1-2.1-.2-.7-.1-1.4-.2-2-.4 1.3-.6 2.7-.8 4.2-.7.7 0 1.4.3 1.4.6s-.8.7-1.5.7z"/><path class="st1" d="M52.2 8.5V9h-2.8l-.3-.5h3.1z"/></svg>