<svg data-name="Слой 1" xmlns="http://www.w3.org/2000/svg" width="22" height="16" viewBox="0 0 22 16"><path fill="#00c1ff" d="M21.19 3.6v.48l-.26.22-.46-.12-.34-.1-.31-.26v-.15l-.02-.12h.34l.62.05h.43zm-.46-.79L19.62 3l-.14.2.17.16.85.19h.88l.23-.13.15-.24-.07-.25-.25-.07-.34-.07-.37.02zm.14-.63l-.77.3-.04.23h.89l.15-.08-.03-.24-.2-.21z"/><path d="M22 3.16c0-.4-.43-.54-.71-.58a.6.6 0 000-.38.48.48 0 00-.46-.2 2 2 0 00-1.34.78h-1.82a5.1 5.1 0 00-1.41-1.08 6.62 6.62 0 00-3.1-.7H9.33a1.88 1.88 0 00-2-1 2.4 2.4 0 00-.66.24 1.36 1.36 0 00-1-.31c-.82 0-1.79 1.07-2 1.32a4.37 4.37 0 00-3 1.52A4 4 0 000 5.29v8.81a1.26 1.26 0 00.25.93 1.43 1.43 0 001.09.34A1.4 1.4 0 002.49 15a.9.9 0 00.2-.61L3 10.62a1.56 1.56 0 01.57-1.25 1.51 1.51 0 01.93-.21v3.75a2.45 2.45 0 00.19 1 2 2 0 001.63 1.19l.14.17a3 3 0 002.3.73 2.69 2.69 0 002.24-.78 1.64 1.64 0 00.35-1.17v-2.52a4.45 4.45 0 00.72.08v1.79a1.73 1.73 0 00.24.85 2.06 2.06 0 001.74.93 3.07 3.07 0 002.21.68 2.77 2.77 0 002.23-.76 1.44 1.44 0 00.33-1V8.59a.19.19 0 000-.11 5.94 5.94 0 00-.4-4.81h1.08a1.63 1.63 0 001.24.74c.14 0 .56 0 .67-.3a.47.47 0 000-.38c.24-.06.59-.21.59-.57z" fill="#00c1ff"/><path d="M20.94 2.38a.29.29 0 010 .18 4.47 4.47 0 00-.84.07 1.21 1.21 0 01.71-.3s.11.01.13.05zm-1.79.73a.19.19 0 000 .14v.05h-1.04L18 3.11z" fill="#00c1ff"/><path d="M4.52 9a.12.12 0 01-.11 0 .12.12 0 01.08-.15 1.41 1.41 0 00.59-.43 3 3 0 00.59-2 .12.12 0 11.23 0 3.15 3.15 0 01-.66 2.15 1.6 1.6 0 01-.69.43z" fill="#3a3654"/><path d="M5.72 6.48a1 1 0 01-.65-.34.13.13 0 010-.17.11.11 0 01.16 0 .71.71 0 00.52.25c.17 0 .32-.15.46-.4a.11.11 0 01.16 0 .13.13 0 010 .17.87.87 0 01-.64.52zm-2-2.99s.08.05.13-.05-.09-.12-.09-.12a1.92 1.92 0 00-2.05.46c-.1.17.11.29.11.29s.12.09.26-.1a1.6 1.6 0 011.64-.48zM3 4.85s.75-.36 1 .36-1.17 1.34-1.39.53c-.56-.64.13-1.47 1-1.46.1.17-.61.57-.61.57z" fill="#3a3654"/><path d="M3.85 5.48a.59.59 0 01-.53.52c-.31 0-.65-.06-.65-.47a.7.7 0 01.65-.7.52.52 0 01.53.65z" fill="#00c1ff"/><path d="M3.85 5.48a.53.53 0 01-.53.52c-.3 0-.54-.14-.54-.43A.61.61 0 013.32 5a.47.47 0 01.53.48z" fill="#fcfcfc"/><path d="M3.85 5.56s0-.49-.4-.49-.31.2-.31.2l.23.15-.22.15a.43.43 0 00.57.23.52.52 0 00.13-.24z" fill="#3a3654"/><ellipse cx="3.64" cy="5.4" rx=".1" ry=".15" transform="rotate(-19.17 3.627 5.394)" fill="#fcfcfc"/><path d="M22 3.16c0-.4-.43-.54-.71-.58a.6.6 0 000-.38.48.48 0 00-.46-.2 2 2 0 00-1.34.78h-1.82a5.1 5.1 0 00-1.41-1.08 6.62 6.62 0 00-3.1-.7H9.33a1.88 1.88 0 00-2-1 2.4 2.4 0 00-.66.24 1.36 1.36 0 00-1-.31c-.82 0-1.79 1.07-2 1.32a4.37 4.37 0 00-3 1.52A4 4 0 000 5.29v8.81a1.26 1.26 0 00.25.93 1.43 1.43 0 001.09.34A1.4 1.4 0 002.49 15a.9.9 0 00.2-.61L3 10.62a1.56 1.56 0 01.57-1.25 1.51 1.51 0 01.93-.21v3.75a2.45 2.45 0 00.19 1 2 2 0 001.63 1.19l.14.17a3 3 0 002.3.73 2.69 2.69 0 002.24-.78 1.64 1.64 0 00.35-1.17v-2.52a4.45 4.45 0 00.72.08v1.79a1.73 1.73 0 00.24.85 2.06 2.06 0 001.74.93 3.07 3.07 0 002.21.68 2.77 2.77 0 002.23-.76 1.44 1.44 0 00.33-1V8.59a.19.19 0 000-.11 5.94 5.94 0 00-.4-4.81h1.08a1.63 1.63 0 001.24.74c.14 0 .56 0 .67-.3a.47.47 0 000-.38c.24-.06.59-.21.59-.57zm-1.06-.78a.29.29 0 010 .18 4.47 4.47 0 00-.84.07 1.21 1.21 0 01.71-.3s.11.01.13.05zM5.67.37a1.39 1.39 0 01.66.12c-.42.23-.86.5-1.17.71h-.93A2.66 2.66 0 015.67.37zm-.8 12.57V9.21a6.42 6.42 0 011.19.35v4.52a1.89 1.89 0 00.07.59 1.7 1.7 0 01-1.26-1.73zm7.5.47v-1.79a7.57 7.57 0 001.16-.11v2.59a1.45 1.45 0 00.17.67 1.43 1.43 0 01-1.33-1.36zm6-4.89a.19.19 0 00.07.23v5.38a1 1 0 01-.25.74 2.51 2.51 0 01-2 .63 2.7 2.7 0 01-2-.64 1.13 1.13 0 01-.31-.74v-3.23a.18.18 0 10-.35 0v.25a5.67 5.67 0 01-2.23 0v-.28a.18.18 0 10-.35 0v3.22a1.25 1.25 0 01-.27.89 2.38 2.38 0 01-1.93.65 2.74 2.74 0 01-2-.6 1.25 1.25 0 01-.31-.92v-5h-.38A3.13 3.13 0 003.39 9a1.91 1.91 0 00-.73 1.53l-.32 3.77a.5.5 0 01-.12.35 1.11 1.11 0 01-.86.28 1.15 1.15 0 01-.84-.23.94.94 0 01-.15-.67V5.2c0-.9 0-3.12 3.4-3.62.27 0 .56-.07.87-.08a.19.19 0 000 .16.17.17 0 00.24.05l.34-.23a.18.18 0 00.16-.11 8 8 0 012-1 1.61 1.61 0 011.76.94c.57.94.94 3.94 0 5.05A2.1 2.1 0 018 7c-.48.11-1 .23-1 1.1a.18.18 0 10.35 0c0-.57.22-.62.7-.74a2.41 2.41 0 001.3-.67 4.51 4.51 0 00.64-2.82 7 7 0 00-.51-2.48l3.61-.06a5.37 5.37 0 014.76 2.32 5.52 5.52 0 01.51 4.87zM20.75 4a1.21 1.21 0 01-.8-.38h.29c.28 0 .56.05.72.06a.48.48 0 01.12.21S21 4 20.75 4zm.38-.63c-.05 0-.41 0-.8-.06a3 3 0 01-.74-.16 3.2 3.2 0 011.53-.26c.24 0 .52.11.52.23s-.27.26-.51.29z" fill="#3a3654"/><path d="M19.15 3.11a.19.19 0 000 .14v.05h-1.04L18 3.11z" fill="#00c1ff"/></svg>