<svg data-name="Слой 1" xmlns="http://www.w3.org/2000/svg" width="18" height="18" viewBox="0 0 18 18"><defs><linearGradient id="a" x1="13.36" y1="-.09" x2="-.04" y2="-.2" gradientTransform="matrix(1 0 0 -1 0 6.5)" gradientUnits="userSpaceOnUse"><stop offset="0" stop-color="#366a96"/><stop offset="1" stop-color="#3679b0"/></linearGradient><linearGradient id="b" x1="18" y1="-4.8" x2="-8.39" y2="-4.8" gradientTransform="matrix(1 0 0 -1 0 6.5)" gradientUnits="userSpaceOnUse"><stop offset="0" stop-color="#ffc836"/><stop offset="1" stop-color="#ffe873"/></linearGradient></defs><path d="M11.16.17a13.57 13.57 0 00-4.34 0C5 .49 4.65 1.18 4.65 2.42v1.67H9v.54H3A2.71 2.71 0 00.31 6.78a8 8 0 000 4.37 2.42 2.42 0 002.3 2.15H4.1v-1.93A2.75 2.75 0 016.82 8.7h4.34a2.17 2.17 0 002.17-2.18v-4.1A2.41 2.41 0 0011.16.17zM6.55 3a.82.82 0 11.81-.82.82.82 0 01-.81.82z" fill="url(#a)"/><path d="M17.67 6.78c-.31-1.25-.91-2.18-2.17-2.18h-1.63v1.9a2.77 2.77 0 01-2.71 2.7H6.82a2.21 2.21 0 00-2.17 2.2v4.09c0 1.17 1 1.85 2.17 2.18a7.34 7.34 0 004.34 0c1.09-.32 2.17-.94 2.17-2.18v-1.63H9v-.56h6.5c1.26 0 1.73-.88 2.17-2.18a7.32 7.32 0 000-4.34zM11.43 15a.82.82 0 11-.81.82.82.82 0 01.81-.81z" fill="url(#b)"/></svg>