<svg data-name="89ae4354-c3f1-4829-b8f8-769147936e6c" xmlns="http://www.w3.org/2000/svg" width="47" height="47" viewBox="0 0 47 47"><defs><linearGradient id="a" x1="34.89" y1="510.72" x2="-.11" y2="511.01" gradientTransform="translate(0 -493.5)" gradientUnits="userSpaceOnUse"><stop offset="0" stop-color="#366a96"/><stop offset="1" stop-color="#3679b0"/></linearGradient><linearGradient id="b" x1="47" y1="523.01" x2="-21.93" y2="523.01" gradientTransform="translate(0 -493.5)" gradientUnits="userSpaceOnUse"><stop offset="0" stop-color="#ffc836"/><stop offset="1" stop-color="#ffe873"/></linearGradient></defs><path d="M29.14.46a35.46 35.46 0 00-11.34 0c-4.75.84-5.67 2.64-5.67 5.87v4.36h11.36v1.41H7.82a7.08 7.08 0 00-7 5.61 20.88 20.88 0 000 11.41 6.32 6.32 0 006 5.61h3.89v-5a7.18 7.18 0 017.1-7h11.33a5.67 5.67 0 005.67-5.67V6.33A6.29 6.29 0 0029.14.46zm-12 7.39a2.14 2.14 0 112.12-2.17 2.14 2.14 0 01-2.17 2.16z" fill="url(#a)"/><path d="M46.14 17.71c-.81-3.26-2.38-5.71-5.67-5.71h-4.26v5a7.23 7.23 0 01-7.08 7H17.8a5.77 5.77 0 00-5.67 5.74v10.71c0 3.05 2.61 4.83 5.67 5.69a19.18 19.18 0 0011.34 0c2.85-.84 5.67-2.45 5.67-5.69V36.2H23.49v-1.47h17c3.29 0 4.52-2.3 5.67-5.69a19.1 19.1 0 00-.02-11.33zm-16.3 21.46a2.14 2.14 0 11-2.12 2.17 2.14 2.14 0 012.12-2.11z" fill="url(#b)"/></svg>