<svg xmlns="http://www.w3.org/2000/svg" width="47" height="47" viewBox="0 0 47 47"><path d="M29.1.5c-3.8-.6-7.6-.6-11.3 0-4.8.8-5.7 2.6-5.7 5.9v4.4h11.4v1.4H7.8c-3.4 0-6.3 2.3-7 5.6-1.1 3.7-1.1 7.7 0 11.4.3 3.1 2.9 5.5 6 5.6h3.9v-5c.1-3.9 3.2-7 7.1-7h11.3c3.1 0 5.7-2.5 5.7-5.7V6.3C34.6 3.2 32.2.8 29.1.5zm-12 7.3C16 7.9 15 6.9 15 5.7c0-1.2.9-2.1 2.1-2.2 1.2 0 2.1.9 2.2 2.1 0 1.3-1 2.2-2.2 2.2z" fill="#97b4c0"/><path d="M46.1 17.7c-.8-3.3-2.4-5.7-5.7-5.7h-4.3v5c-.1 3.8-3.2 6.9-7.1 7H17.8c-3.1.1-5.7 2.6-5.7 5.7v10.7c0 3 2.6 4.8 5.7 5.7 3.7 1.1 7.6 1.1 11.3 0 2.9-.8 5.7-2.5 5.7-5.7v-4.2H23.5v-1.5h17c3.3 0 4.5-2.3 5.7-5.7 1.1-3.7 1.1-7.6-.1-11.3zM29.8 39.2c1.2 0 2.1.9 2.2 2.1s-.9 2.1-2.1 2.2c-1.2 0-2.1-.9-2.2-2.1 0-1.2 1-2.2 2.1-2.2z" fill="#c1d2d9"/></svg>