<svg version="1.1" id="ec587983-0d91-4659-9ab5-5fe508d3b0ae" xmlns="http://www.w3.org/2000/svg" xmlns:xlink="http://www.w3.org/1999/xlink" x="0" y="0" width="42" height="42" viewBox="0 0 42 42" xml:space="preserve"><style>.st2{fill:#a7c0ca}.st4{fill:#98b5c1}.st7{fill:#9fbac5}.st12{fill:#90afbc}.st22{fill:#92b1bd}</style><linearGradient id="SVGID_1_" gradientUnits="userSpaceOnUse" x1="8.59" y1="1009.205" x2="42" y2="1009.205" gradientTransform="translate(0 -984)"><stop offset="0" stop-color="#bd0012"/><stop offset=".07" stop-color="#fff"/><stop offset=".27" stop-color="#c82f1c"/><stop offset=".33" stop-color="#820c01"/><stop offset=".46" stop-color="#a31601"/><stop offset=".72" stop-color="#b31301"/><stop offset=".99" stop-color="#e82609"/><stop offset="1" stop-color="#e82609"/></linearGradient><path fill="url(#SVGID_1_)" d="M8.6 41.9l31-2.1L42 8.5l-9.4 19.2-24 14.2z"/><defs><path id="SVGID_2_" d="M8.6 41.9l31-2.1L42 8.5l-9.4 19.2-24 14.2z"/></defs><use xlink:href="#SVGID_2_" overflow="visible" fill="#a7c0ca"/><clipPath id="SVGID_3_"><use xlink:href="#SVGID_2_" overflow="visible"/></clipPath><g clip-path="url(#SVGID_3_)"><path class="st2" d="M8.6 41.9l31-2.1L42 8.5l-9.4 19.2-24 14.2z"/></g><defs><path id="SVGID_4_" d="M29.7 31l10 8.8L37 21.4 29.7 31z"/></defs><use xlink:href="#SVGID_4_" overflow="visible" fill="#98b5c1"/><clipPath id="SVGID_5_"><use xlink:href="#SVGID_4_" overflow="visible"/></clipPath><g clip-path="url(#SVGID_5_)"><path class="st4" d="M29.7 31l9.9 8.8L37 21.4 29.7 31z"/></g><defs><path id="SVGID_6_" d="M8.7 41.9l31-2.1-19.6-1.6-11.4 3.7z"/></defs><use xlink:href="#SVGID_6_" overflow="visible" fill="#98b5c1"/><clipPath id="SVGID_7_"><use xlink:href="#SVGID_6_" overflow="visible"/></clipPath><g clip-path="url(#SVGID_7_)"><path class="st4" d="M8.7 41.9l31-2.1-19.6-1.5-11.4 3.6z"/></g><defs><path id="SVGID_8_" d="M2.9 28.2l5.8 13.7 4.9-16z"/></defs><use xlink:href="#SVGID_8_" overflow="visible" fill="#9fbac5"/><clipPath id="SVGID_9_"><use xlink:href="#SVGID_8_" overflow="visible"/></clipPath><g clip-path="url(#SVGID_9_)"><path class="st7" d="M2.9 28.2L8.8 42l4.9-16-10.8 2.2z"/></g><defs><path id="SVGID_10_" d="M12.4 25.5L29.7 31l-4.5-17.6z"/></defs><use xlink:href="#SVGID_10_" overflow="visible" fill="#9fbac5"/><clipPath id="SVGID_11_"><use xlink:href="#SVGID_10_" overflow="visible"/></clipPath><g clip-path="url(#SVGID_11_)"><path class="st7" d="M12.4 25.5L29.7 31l-4.5-17.6-12.8 12.1z"/></g><defs><path id="SVGID_12_" d="M25.5 14.6l15.5-1-12.2-9.9-3.3 10.9z"/></defs><use xlink:href="#SVGID_12_" overflow="visible" fill="#9fbac5"/><clipPath id="SVGID_13_"><use xlink:href="#SVGID_12_" overflow="visible"/></clipPath><g clip-path="url(#SVGID_13_)"><path class="st7" d="M25.5 14.6l15.5-1-12.2-9.9-3.3 10.9z"/></g><linearGradient id="SVGID_14_" gradientUnits="userSpaceOnUse" x1="23.66" y1="986.125" x2="35.29" y2="986.125" gradientTransform="translate(0 -984)"><stop offset="0" stop-color="#79130d"/><stop offset=".99" stop-color="#9e120b"/><stop offset="1" stop-color="#9e120b"/></linearGradient><path fill="url(#SVGID_14_)" d="M23.7.1l11.6.1-7.1 3.9-4.5-4z"/><defs><path id="SVGID_15_" d="M23.7.1l11.6.1-7.1 3.9-4.5-4z"/></defs><use xlink:href="#SVGID_15_" overflow="visible" fill="#90afbc"/><clipPath id="SVGID_16_"><use xlink:href="#SVGID_15_" overflow="visible"/></clipPath><g clip-path="url(#SVGID_16_)"><path class="st12" d="M23.7 0h11.7l-7.2 4.1L23.7 0z"/></g><defs><path id="SVGID_17_" d="M.6 21.6L0 33.5l3-5.4z"/></defs><use xlink:href="#SVGID_17_" overflow="visible" fill="#baced6"/><clipPath id="SVGID_18_"><use xlink:href="#SVGID_17_" overflow="visible"/></clipPath><g clip-path="url(#SVGID_18_)"><path d="M.6 21.6L0 33.5 3 28 .6 21.6z" fill="#baced6"/></g><path class="st2" d="M.5 21.4l2.4 6.9 10.6-2.4 12-11.3L29 3.8 23.6 0l-9 3.4-8.8 8.1c-.2.1-3.7 6.7-5.3 9.9z"/><defs><path id="SVGID_19_" d="M9 9c6.2-6.3 14.2-9.9 17.3-6.8s-.2 10.7-6.4 16.9S5.8 29.1 2.7 26 2.8 15 9 9z"/></defs><use xlink:href="#SVGID_19_" overflow="visible" fill="#a7c0ca"/><clipPath id="SVGID_20_"><use xlink:href="#SVGID_19_" overflow="visible"/></clipPath><g clip-path="url(#SVGID_20_)"><path class="st2" d="M9 9c6.2-6.3 14.2-9.9 17.3-6.8s-.2 10.7-6.4 16.9S5.8 29.1 2.7 26 2.8 15 9 9z"/></g><defs><path id="SVGID_21_" d="M8.7 41.9l4.8-16.1L29.6 31c-5.8 5.5-12.3 10.1-21 10.9h.1z"/></defs><use xlink:href="#SVGID_21_" overflow="visible" fill="#a2bcc7"/><clipPath id="SVGID_22_"><use xlink:href="#SVGID_21_" overflow="visible"/></clipPath><g clip-path="url(#SVGID_22_)"><path d="M8.7 41.9l4.8-16.1L29.6 31c-5.8 5.5-12.3 10.1-21 10.9h.1z" fill="#a2bcc7"/></g><defs><path id="SVGID_23_" d="M25.6 14.6L29.7 31c5.1-4.9 9-10.8 11.4-17.4l-15.5 1z"/></defs><use xlink:href="#SVGID_23_" overflow="visible" fill="#98b5c1"/><clipPath id="SVGID_24_"><use xlink:href="#SVGID_23_" overflow="visible"/></clipPath><g clip-path="url(#SVGID_24_)"><path class="st4" d="M25.6 14.6L29.7 31c5.1-4.9 9-10.8 11.4-17.4l-15.5 1z"/></g><defs><path id="SVGID_25_" d="M41 13.7c1.7-5 2-12.2-5.8-13.5l-6.4 3.6L41 13.7z"/></defs><use xlink:href="#SVGID_25_" overflow="visible" fill="#90afbc"/><clipPath id="SVGID_26_"><use xlink:href="#SVGID_25_" overflow="visible"/></clipPath><g clip-path="url(#SVGID_26_)"><path class="st12" d="M41 13.7c1.7-5 2-12.2-5.8-13.5l-6.4 3.6L41 13.7z"/></g><path d="M0 33.5c-.5 4.2 2.6 8 6.8 8.5.6.1 1.2.1 1.9 0L3 28.2l-3 5.3z" fill="#9db9c4"/><defs><path id="SVGID_27_" d="M25.6 14.6l11.4 7c1.8-2.4 3.1-5.1 3.9-8l-15.3 1z"/></defs><use xlink:href="#SVGID_27_" overflow="visible" fill="#92b1bd"/><clipPath id="SVGID_28_"><use xlink:href="#SVGID_27_" overflow="visible"/></clipPath><g clip-path="url(#SVGID_28_)"><path class="st22" d="M25.6 14.6l11.4 7c1.8-2.4 3.1-5.1 3.9-8l-15.3 1z"/></g><defs><path id="SVGID_29_" d="M13.6 25.8L20 38.3c3.5-2 6.8-4.4 9.6-7.3l-16-5.2z"/></defs><use xlink:href="#SVGID_29_" overflow="visible" fill="#92b1bd"/><clipPath id="SVGID_30_"><use xlink:href="#SVGID_29_" overflow="visible"/></clipPath><g clip-path="url(#SVGID_30_)"><path class="st22" d="M13.6 25.8L20 38.3c3.5-2 6.8-4.4 9.6-7.3l-16-5.2z"/></g><defs><path id="SVGID_31_" d="M2.9 28.3L2 39.2c1.6 2 4.1 2.9 6.6 2.4C6.8 37.1 3 28.1 2.9 28.3z"/></defs><use xlink:href="#SVGID_31_" overflow="visible" fill="#98b5c1"/><clipPath id="SVGID_32_"><use xlink:href="#SVGID_31_" overflow="visible"/></clipPath><g clip-path="url(#SVGID_32_)"><path class="st4" d="M2.9 28.3L2 39.2c1.6 2 4.1 2.9 6.6 2.4C6.8 37.1 3 28.1 2.9 28.3z"/></g><defs><path id="SVGID_33_" d="M28.8 3.7l12.9 1.8C41 2.5 38.4.3 35.3.1l-6.5 3.6z"/></defs><use xlink:href="#SVGID_33_" overflow="visible" fill="#a3bdc7"/><clipPath id="SVGID_34_"><use xlink:href="#SVGID_33_" overflow="visible"/></clipPath><g clip-path="url(#SVGID_34_)"><path d="M28.8 3.7l12.9 1.8C41 2.5 38.4.3 35.3.1l-6.5 3.6z" fill="#a3bdc7"/></g></svg>