<svg data-name="ddb0e6ea-63e8-46fc-9d7e-3f0c15ae7442" xmlns="http://www.w3.org/2000/svg" xmlns:xlink="http://www.w3.org/1999/xlink" width="42" height="42" viewBox="0 0 42 42"><defs><linearGradient id="w" x1="-1214.43" y1="-417.96" x2="-1244.64" y2="-425.42" gradientTransform="matrix(32.02 0 0 24.55 43374.59 11142.77)" gradientUnits="userSpaceOnUse"><stop offset="0" stop-color="#8c0c01"/><stop offset=".54" stop-color="#990c00"/><stop offset=".99" stop-color="#a80d0e"/><stop offset="1" stop-color="#a80d0e"/></linearGradient><linearGradient id="r" x1="-1116.01" y1="-672.99" x2="-1113.86" y2="-651.58" gradientTransform="matrix(4.58 0 0 18.31 5004.72 8059.35)" gradientUnits="userSpaceOnUse"><stop offset="0" stop-color="#fff"/><stop offset=".31" stop-color="#de4024"/><stop offset=".99" stop-color="#bf190b"/><stop offset="1" stop-color="#bf190b"/></linearGradient><linearGradient id="G" x1="-1300.49" y1="-582.38" x2="-1311.42" y2="-619.43" gradientTransform="matrix(10.11 0 0 20.45 12741.07 9125.01)" gradientUnits="userSpaceOnUse"><stop offset="0" stop-color="#8b2114"/><stop offset=".43" stop-color="#9e100a"/><stop offset=".99" stop-color="#b3100c"/><stop offset="1" stop-color="#b3100c"/></linearGradient><linearGradient id="c" x1="-1228.33" y1="-405.05" x2="-1263.54" y2="-428.66" gradientTransform="matrix(15.2 0 0 28.17 19897.85 12920.17)" gradientUnits="userSpaceOnUse"><stop offset="0" stop-color="#871101"/><stop offset=".99" stop-color="#911209"/><stop offset="1" stop-color="#911209"/></linearGradient><linearGradient id="A" x1="-1352.25" y1="-469.97" x2="-1365.65" y2="-484.29" gradientTransform="matrix(20.09 0 0 20.61 26721.99 9163.45)" xlink:href="#b"/><linearGradient id="h" x1="-1289.89" y1="-265.04" x2="-1325.13" y2="-288.65" gradientTransform="matrix(47.47 0 0 5.54 64960.69 1798.97)" xlink:href="#c"/><linearGradient id="y" x1="-1322.85" y1="-440.88" x2="-1349.73" y2="-464.97" gradientTransform="matrix(23.7 0 0 26.62 31765.99 12140.13)" gradientUnits="userSpaceOnUse"><stop offset="0" stop-color="#7e110b"/><stop offset=".99" stop-color="#9e0c00"/><stop offset="1" stop-color="#9e0c00"/></linearGradient><linearGradient id="j" x1="-1344.84" y1="-663.75" x2="-1339.36" y2="-628.22" gradientTransform="matrix(16.44 0 0 24.47 21581.79 11102.66)" gradientUnits="userSpaceOnUse"><stop offset="0" stop-color="#fff"/><stop offset=".23" stop-color="#e57252"/><stop offset=".46" stop-color="#de3b20"/><stop offset=".99" stop-color="#a60003"/><stop offset="1" stop-color="#a60003"/></linearGradient><linearGradient id="e" x1="-1388.3" y1="-504.89" x2="-1415.67" y2="-553.2" gradientTransform="matrix(51.14 0 0 51.11 70096.58 24196.3)" xlink:href="#a"/><linearGradient id="l" x1="-1359.58" y1="-718.13" x2="-1357.58" y2="-681.89" gradientTransform="matrix(26.54 0 0 26.92 35718.54 12291.2)" gradientUnits="userSpaceOnUse"><stop offset="0" stop-color="#fff"/><stop offset=".23" stop-color="#e4714e"/><stop offset=".56" stop-color="#be1a0d"/><stop offset=".99" stop-color="#a80d00"/><stop offset="1" stop-color="#a80d00"/></linearGradient><linearGradient id="u" x1="-1191.16" y1="-643.35" x2="-1090.73" y2="-746.61" gradientTransform="matrix(39.86 0 0 39.8 54312.96 18617.53)" xlink:href="#a"/><linearGradient id="n" x1="-1395.05" y1="-674.03" x2="-1389.03" y2="-648.06" gradientTransform="matrix(23.77 0 0 16.74 31864.98 7261.75)" gradientUnits="userSpaceOnUse"><stop offset="0" stop-color="#fff"/><stop offset=".18" stop-color="#e46342"/><stop offset=".4" stop-color="#c82410"/><stop offset=".99" stop-color="#a80d00"/><stop offset="1" stop-color="#a80d00"/></linearGradient><linearGradient id="b" x1="23.66" y1="13.87" x2="35.29" y2="13.87" gradientTransform="matrix(1 0 0 -1 0 16)" gradientUnits="userSpaceOnUse"><stop offset="0" stop-color="#79130d"/><stop offset=".99" stop-color="#9e120b"/><stop offset="1" stop-color="#9e120b"/></linearGradient><linearGradient id="s" x1=".46" y1="1.86" x2="28.96" y2="1.86" gradientTransform="matrix(1 0 0 -1 0 16)" gradientUnits="userSpaceOnUse"><stop offset="0" stop-color="#fb7655"/><stop offset=".41" stop-color="#e42b1e"/><stop offset=".99" stop-color="#900"/><stop offset="1" stop-color="#900"/></linearGradient><linearGradient id="p" x1="-1021.89" y1="-479.37" x2="-995.95" y2="-492.34" gradientTransform="matrix(17.83 0 0 6.13 23563.77 2026.49)" xlink:href="#b"/><linearGradient id="I" x1="-1246.31" y1="-336.13" x2="-1221.89" y2="-325.34" gradientTransform="matrix(19.68 0 0 8.22 26155.36 3059.37)" gradientUnits="userSpaceOnUse"><stop offset="0" stop-color="#b31000"/><stop offset=".44" stop-color="#910f08"/><stop offset=".99" stop-color="#791c12"/><stop offset="1" stop-color="#791c12"/></linearGradient><linearGradient id="a" x1="8.59" y1="-9.2" x2="42" y2="-9.2" gradientTransform="matrix(1 0 0 -1 0 16)" gradientUnits="userSpaceOnUse"><stop offset="0" stop-color="#bd0012"/><stop offset=".07" stop-color="#fff"/><stop offset=".27" stop-color="#c82f1c"/><stop offset=".33" stop-color="#820c01"/><stop offset=".46" stop-color="#a31601"/><stop offset=".72" stop-color="#b31301"/><stop offset=".99" stop-color="#e82609"/><stop offset="1" stop-color="#e82609"/></linearGradient><clipPath id="q"><path fill="none" d="M.61 21.56L.04 33.54l3-5.45-2.43-6.53z"/></clipPath><clipPath id="o"><path fill="none" d="M23.66.12l11.63.03-7.13 3.98-4.5-4.01z"/></clipPath><clipPath id="t"><path d="M9 9c6.2-6.26 14.23-9.91 17.32-6.8s-.18 10.69-6.41 16.89S5.77 29.11 2.68 26 2.77 15 9 9z" fill="none"/></clipPath><clipPath id="m"><path fill="none" d="M25.46 14.65l15.52-1.02-12.14-9.92-3.38 10.94z"/></clipPath><clipPath id="v"><path d="M8.74 41.93l4.82-16.11L29.62 31c-5.81 5.45-12.29 10.09-21 10.9z" fill="none"/></clipPath><clipPath id="k"><path fill="none" d="M12.39 25.46l17.35 5.57-4.49-17.64-12.86 12.07z"/></clipPath><clipPath id="x"><path d="M25.58 14.62L29.71 31a45.64 45.64 0 0011.36-17.43l-15.46 1z" fill="none"/></clipPath><clipPath id="i"><path fill="none" d="M2.86 28.18L8.73 41.9l4.89-16.02-10.76 2.3z"/></clipPath><clipPath id="d"><path fill="none" d="M8.59 41.93l31.01-2.1L42 8.48l-9.44 19.19L8.59 41.93z"/></clipPath><clipPath id="g"><path fill="none" d="M8.71 41.9l30.98-2.1-19.54-1.55L8.71 41.9z"/></clipPath><clipPath id="B"><path d="M25.61 14.65l11.42 7a26.44 26.44 0 003.93-8l-15.31 1z" fill="none"/></clipPath><clipPath id="H"><path d="M28.81 3.74l12.86 1.8A7 7 0 0035.29.15z" fill="none"/></clipPath><clipPath id="D"><path d="M13.56 25.82L20 38.34A42 42 0 0029.59 31z" fill="none"/></clipPath><clipPath id="f"><path fill="none" d="M29.74 30.97l9.92 8.83-2.67-18.44-7.25 9.61z"/></clipPath><clipPath id="F"><path d="M2.86 28.27L2 39.21a6.69 6.69 0 006.59 2.4C6.76 37.08 3 28.09 2.86 28.27z" fill="none"/></clipPath><clipPath id="z"><path d="M41 13.66c1.65-5 2-12.16-5.75-13.51l-6.38 3.56z" fill="none"/></clipPath><radialGradient id="E" cx="-1123.16" cy="-705.95" r="51.16" gradientTransform="matrix(20.99 0 0 16.37 28103.5 7218.12)" gradientUnits="userSpaceOnUse"><stop offset="0" stop-color="#a30c00"/><stop offset=".99" stop-color="#800e08"/><stop offset="1" stop-color="#800e08"/></radialGradient><radialGradient id="C" cx="-1067.4" cy="-727.15" r="38.48" gradientTransform="matrix(20.06 0 0 10.5 26818.28 4307.24)" gradientUnits="userSpaceOnUse"><stop offset="0" stop-color="#a80d00"/><stop offset=".99" stop-color="#7e0e08"/><stop offset="1" stop-color="#7e0e08"/></radialGradient></defs><path fill="url(#a)" d="M8.59 41.93l31.01-2.1L42 8.48l-9.44 19.19L8.59 41.93z"/><g clip-path="url(#d)"><path d="M8.59 41.93l31-2.1L42 8.48l-9.44 19.2z" fill="url(#e)"/></g><g clip-path="url(#f)"><path d="M29.74 31l9.92 8.84L37 21.35z" fill="url(#c)"/></g><g clip-path="url(#g)"><path d="M8.71 41.93l31-2.1-19.56-1.52z" fill="url(#h)"/></g><g clip-path="url(#i)"><path d="M2.86 28.18l5.88 13.75 4.88-16.05z" fill="url(#j)"/></g><g clip-path="url(#k)"><path d="M12.39 25.46L29.71 31l-4.46-17.61z" fill="url(#l)"/></g><g clip-path="url(#m)"><path d="M25.46 14.65l15.52-1-12.14-9.94z" fill="url(#n)"/></g><path fill="url(#b)" d="M23.66.12l11.63.03-7.13 3.98-4.5-4.01z"/><g clip-path="url(#o)"><path d="M23.66 0h11.66l-7.17 4.1z" fill="url(#p)"/></g><g clip-path="url(#q)"><path d="M.61 21.56L0 33.54l3-5.45z" fill="url(#r)"/></g><path d="M.46 21.35l2.43 6.92 10.58-2.37 12-11.26L29 3.8 23.6 0l-9 3.41-8.8 8.09c-.18.12-3.69 6.71-5.34 9.85z" fill="url(#s)"/><g clip-path="url(#t)"><path d="M9 9c6.2-6.26 14.23-9.91 17.32-6.8s-.18 10.69-6.41 16.89S5.77 29.11 2.68 26 2.77 15 9 9z" fill="url(#u)"/></g><g clip-path="url(#v)"><path d="M8.74 41.93l4.82-16.11L29.62 31c-5.81 5.45-12.29 10.09-21 10.9z" fill="url(#w)"/></g><g clip-path="url(#x)"><path d="M25.58 14.62L29.71 31a45.64 45.64 0 0011.36-17.43l-15.46 1z" fill="url(#y)"/></g><g clip-path="url(#z)"><path d="M41 13.66c1.65-5 2-12.16-5.75-13.51l-6.38 3.56z" fill="url(#A)"/></g><path d="M0 33.48a7.7 7.7 0 008.69 8.45L3 28.24z" fill="#9e1209"/><g clip-path="url(#B)"><path d="M25.61 14.65l11.42 7a26.44 26.44 0 003.93-8l-15.31 1z" fill="url(#C)"/></g><g clip-path="url(#D)"><path d="M13.56 25.82L20 38.34A42 42 0 0029.59 31z" fill="url(#E)"/></g><g clip-path="url(#F)"><path d="M2.86 28.27L2 39.21a6.69 6.69 0 006.59 2.4C6.76 37.08 3 28.09 2.86 28.27z" fill="url(#G)"/></g><g clip-path="url(#H)"><path d="M28.81 3.74l12.86 1.8A7 7 0 0035.29.15z" fill="url(#I)"/></g></svg>