<svg data-name="Слой 1" xmlns="http://www.w3.org/2000/svg" xmlns:xlink="http://www.w3.org/1999/xlink" width="14" height="14" viewBox="0 0 14 14"><defs><linearGradient id="j" x1="-955.49" y1="791.71" x2="-953.66" y2="779.85" gradientTransform="matrix(16.44 0 0 -24.47 15529.54 17657.92)" gradientUnits="userSpaceOnUse"><stop offset="0" stop-color="#fff"/><stop offset=".23" stop-color="#e57252"/><stop offset=".46" stop-color="#de3b20"/><stop offset=".99" stop-color="#a60003"/><stop offset="1" stop-color="#a60003"/></linearGradient><linearGradient id="r" x1="-793.89" y1="789.14" x2="-793.17" y2="781.99" gradientTransform="matrix(4.58 0 0 -18.31 3601.41 13025.33)" gradientUnits="userSpaceOnUse"><stop offset="0" stop-color="#fff"/><stop offset=".31" stop-color="#de4024"/><stop offset=".99" stop-color="#bf190b"/><stop offset="1" stop-color="#bf190b"/></linearGradient><linearGradient id="e" x1="-992.19" y1="746.69" x2="-1001.33" y2="762.82" gradientTransform="matrix(51.14 0 0 -51.11 50442.44 37624.68)" xlink:href="#a"/><linearGradient id="A" x1="-965.19" y1="722.67" x2="-969.66" y2="727.45" gradientTransform="matrix(20.09 0 0 -20.61 19238.99 14722.83)" xlink:href="#b"/><linearGradient id="c" x1="-915.87" y1="707.44" x2="-927.62" y2="715.32" gradientTransform="matrix(15.2 0 0 -28.17 14331.66 20430.03)" gradientUnits="userSpaceOnUse"><stop offset="0" stop-color="#871101"/><stop offset=".99" stop-color="#911209"/><stop offset="1" stop-color="#911209"/></linearGradient><linearGradient id="y" x1="-959.03" y1="718.11" x2="-968" y2="726.15" gradientTransform="matrix(23.7 0 0 -26.62 22867.93 19250.09)" gradientUnits="userSpaceOnUse"><stop offset="0" stop-color="#7e110b"/><stop offset=".99" stop-color="#9e0c00"/><stop offset="1" stop-color="#9e0c00"/></linearGradient><linearGradient id="h" x1="-958.74" y1="606.14" x2="-970.5" y2="614.02" gradientTransform="matrix(47.47 0 0 -5.54 46745.14 3470.29)" xlink:href="#c"/><linearGradient id="w" x1="-928.09" y1="709.75" x2="-938.17" y2="712.24" gradientTransform="matrix(32.02 0 0 -24.55 31215.21 17718.67)" gradientUnits="userSpaceOnUse"><stop offset="0" stop-color="#8c0c01"/><stop offset=".54" stop-color="#990c00"/><stop offset=".99" stop-color="#a80d0e"/><stop offset="1" stop-color="#a80d0e"/></linearGradient><linearGradient id="G" x1="-920.04" y1="761.63" x2="-923.69" y2="774" gradientTransform="matrix(10.11 0 0 -20.45 9170.08 14643.11)" gradientUnits="userSpaceOnUse"><stop offset="0" stop-color="#8b2114"/><stop offset=".43" stop-color="#9e100a"/><stop offset=".99" stop-color="#b3100c"/><stop offset="1" stop-color="#b3100c"/></linearGradient><linearGradient id="u" x1="-923.26" y1="790.5" x2="-889.74" y2="824.97" gradientTransform="matrix(39.86 0 0 -39.8 39080.41 29127.93)" xlink:href="#a"/><linearGradient id="l" x1="-973.16" y1="810.9" x2="-972.49" y2="798.8" gradientTransform="matrix(26.54 0 0 -26.92 25707.24 19478.56)" gradientUnits="userSpaceOnUse"><stop offset="0" stop-color="#fff"/><stop offset=".23" stop-color="#e4714e"/><stop offset=".56" stop-color="#be1a0d"/><stop offset=".99" stop-color="#a80d00"/><stop offset="1" stop-color="#a80d00"/></linearGradient><linearGradient id="s" x1=".14" y1="4.72" x2="9.65" y2="4.72" gradientUnits="userSpaceOnUse"><stop offset="0" stop-color="#fb7655"/><stop offset=".41" stop-color="#e42b1e"/><stop offset=".99" stop-color="#900"/><stop offset="1" stop-color="#900"/></linearGradient><linearGradient id="n" x1="-983.28" y1="786.45" x2="-981.27" y2="777.78" gradientTransform="matrix(23.77 0 0 -16.74 22939.48 11822.67)" gradientUnits="userSpaceOnUse"><stop offset="0" stop-color="#fff"/><stop offset=".18" stop-color="#e46342"/><stop offset=".4" stop-color="#c82410"/><stop offset=".99" stop-color="#a80d00"/><stop offset="1" stop-color="#a80d00"/></linearGradient><linearGradient id="b" x1="7.88" y1=".71" x2="11.76" y2=".71" gradientUnits="userSpaceOnUse"><stop offset="0" stop-color="#79130d"/><stop offset=".99" stop-color="#9e120b"/><stop offset="1" stop-color="#9e120b"/></linearGradient><linearGradient id="p" x1="-851.62" y1="677.86" x2="-842.96" y2="682.19" gradientTransform="matrix(17.83 0 0 -6.13 16966.66 3850.03)" xlink:href="#b"/><linearGradient id="I" x1="-929.39" y1="647.53" x2="-921.24" y2="643.93" gradientTransform="matrix(19.68 0 0 -8.22 18833.08 5422.13)" gradientUnits="userSpaceOnUse"><stop offset="0" stop-color="#b31000"/><stop offset=".44" stop-color="#910f08"/><stop offset=".99" stop-color="#791c12"/><stop offset="1" stop-color="#791c12"/></linearGradient><linearGradient id="a" x1="2.85" y1="8.42" x2="14" y2="8.42" gradientUnits="userSpaceOnUse"><stop offset="0" stop-color="#bd0012"/><stop offset=".07" stop-color="#fff"/><stop offset=".27" stop-color="#c82f1c"/><stop offset=".33" stop-color="#820c01"/><stop offset=".46" stop-color="#a31601"/><stop offset=".72" stop-color="#b31301"/><stop offset=".99" stop-color="#e82609"/><stop offset="1" stop-color="#e82609"/></linearGradient><clipPath id="q"><path fill="none" d="M.19 7.2l-.19 4 1-1.82L.19 7.2z"/></clipPath><clipPath id="m"><path fill="none" d="M8.48 4.89l5.18-.34-4.05-3.31-1.13 3.65z"/></clipPath><clipPath id="t"><path d="M3 3C5.07.91 7.75-.31 8.78.73S8.72 4.3 6.64 6.37 1.91 9.72.88 8.68.91 5 3 3z" fill="none"/></clipPath><clipPath id="k"><path fill="none" d="M4.12 8.5l5.79 1.86-1.5-5.89L4.12 8.5z"/></clipPath><clipPath id="v"><path d="M2.9 14l1.61-5.38 5.36 1.73c-1.94 1.82-4.1 3.37-7 3.64z" fill="none"/></clipPath><clipPath id="i"><path fill="none" d="M.94 9.41l1.96 4.58 1.63-5.35-3.59.77z"/></clipPath><clipPath id="x"><path d="M8.52 4.88l1.38 5.47a15.24 15.24 0 003.79-5.82l-5.16.35z" fill="none"/></clipPath><clipPath id="g"><path fill="none" d="M2.89 13.99l10.34-.7-6.52-.52-3.82 1.22z"/></clipPath><clipPath id="o"><path fill="url(#b)" d="M7.88.04l3.88.01-2.38 1.33L7.88.04z"/></clipPath><clipPath id="f"><path fill="none" d="M9.91 10.34l3.31 2.95-.89-6.16-2.42 3.21z"/></clipPath><clipPath id="B"><path d="M8.53 4.89l3.81 2.34a8.83 8.83 0 001.31-2.68l-5.11.34z" fill="none"/></clipPath><clipPath id="H"><path d="M9.6 1.25l4.29.6a2.35 2.35 0 00-2.13-1.8L9.6 1.25z" fill="none"/></clipPath><clipPath id="D"><path d="M4.51 8.62l2.16 4.18a14 14 0 003.19-2.45z" fill="none"/></clipPath><clipPath id="d"><path fill="url(#a)" d="M2.85 14l10.35-.7.8-10.47-3.15 6.41-8 4.76z"/></clipPath><clipPath id="F"><path d="M.94 9.44l-.3 3.65a2.23 2.23 0 002.2.8C2.24 12.38 1 9.38.94 9.44z" fill="none"/></clipPath><clipPath id="z"><path d="M13.67 4.56c.55-1.67.68-4.06-1.92-4.51L9.62 1.24l4.05 3.32z" fill="none"/></clipPath><radialGradient id="E" cx="-893.6" cy="802.14" r="17.07" gradientTransform="matrix(20.99 0 0 -16.38 20267.71 11690.5)" gradientUnits="userSpaceOnUse"><stop offset="0" stop-color="#a30c00"/><stop offset=".99" stop-color="#800e08"/><stop offset="1" stop-color="#800e08"/></radialGradient><radialGradient id="C" cx="-874.53" cy="796.9" r="12.84" gradientTransform="matrix(20.06 0 0 -10.51 19347.04 7263.41)" gradientUnits="userSpaceOnUse"><stop offset="0" stop-color="#a80d00"/><stop offset=".99" stop-color="#7e0e08"/><stop offset="1" stop-color="#7e0e08"/></radialGradient></defs><path fill="url(#a)" d="M2.85 14l10.35-.7.8-10.47-3.15 6.41-8 4.76z"/><g clip-path="url(#d)"><path d="M2.85 14l10.35-.7.8-10.47-3.15 6.41-8 4.76z" fill="url(#e)"/></g><g clip-path="url(#f)"><path d="M9.91 10.34l3.31 2.95-.89-6.16-2.42 3.21z" fill="url(#c)"/></g><g clip-path="url(#g)"><path d="M2.89 14l10.34-.7-6.52-.51L2.89 14z" fill="url(#h)"/></g><g clip-path="url(#i)"><path d="M.94 9.41L2.9 14l1.63-5.36z" fill="url(#j)"/></g><g clip-path="url(#k)"><path d="M4.12 8.5l5.78 1.85-1.49-5.88z" fill="url(#l)"/></g><g clip-path="url(#m)"><path d="M8.48 4.89l5.18-.34-4.05-3.31-1.13 3.65z" fill="url(#n)"/></g><path fill="url(#b)" d="M7.88.04l3.88.01-2.38 1.33L7.88.04z"/><g clip-path="url(#o)"><path d="M7.88 0h3.89L9.38 1.37 7.88 0z" fill="url(#p)"/></g><g clip-path="url(#q)"><path d="M.19 7.2l-.19 4 1-1.82z" fill="url(#r)"/></g><path d="M.14 7.13l.81 2.31 3.53-.79 4-3.76 1.17-3.62L7.86 0l-3 1.14-2.94 2.7C1.86 3.88.69 6.08.14 7.13z" fill="url(#s)"/><g clip-path="url(#t)"><path d="M3 3C5.07.91 7.75-.31 8.78.73S8.72 4.3 6.64 6.37 1.91 9.72.88 8.68.91 5 3 3z" fill="url(#u)"/></g><g clip-path="url(#v)"><path d="M2.9 14l1.61-5.38 5.36 1.73c-1.94 1.82-4.1 3.37-7 3.64z" fill="url(#w)"/></g><g clip-path="url(#x)"><path d="M8.52 4.88l1.38 5.47a15.24 15.24 0 003.79-5.82l-5.16.35z" fill="url(#y)"/></g><g clip-path="url(#z)"><path d="M13.67 4.56c.55-1.67.68-4.06-1.92-4.51L9.62 1.24l4.05 3.32z" fill="url(#A)"/></g><path d="M0 11.18A2.57 2.57 0 002.9 14L1 9.43l-1 1.75z" fill="#9e1209"/><g clip-path="url(#B)"><path d="M8.53 4.89l3.81 2.34a8.83 8.83 0 001.31-2.68l-5.11.34z" fill="url(#C)"/></g><g clip-path="url(#D)"><path d="M4.51 8.62l2.16 4.18a14 14 0 003.19-2.45z" fill="url(#E)"/></g><g clip-path="url(#F)"><path d="M.94 9.44l-.3 3.65a2.23 2.23 0 002.2.8C2.24 12.38 1 9.38.94 9.44z" fill="url(#G)"/></g><g clip-path="url(#H)"><path d="M9.6 1.25l4.29.6a2.35 2.35 0 00-2.13-1.8L9.6 1.25z" fill="url(#I)"/></g></svg>