<?xml version="1.0" encoding="utf-8"?>
<!-- Generator: Adobe Illustrator 21.1.0, SVG Export Plug-In . SVG Version: 6.00 Build 0)  -->
<svg version="1.1" id="_x36_3859583-41e0-4431-a350-890301d6874a"
	 xmlns="http://www.w3.org/2000/svg" xmlns:xlink="http://www.w3.org/1999/xlink" x="0px" y="0px" width="265px" height="55.4px"
	 viewBox="0 0 265 55.4" style="enable-background:new 0 0 265 55.4;" xml:space="preserve">
<style type="text/css">
	.st0{fill:#636778;}
	.st1{fill:#53607C;}
	.st2{fill:#0088FF;}
	.st3{fill:#FFFFFF;}
	.st4{opacity:0.3;}
	.st5{fill:#CDCDCD;}
	.st6{opacity:0.1;}
</style>
<title>hybrid-reserved-cloudlets</title>
<rect y="14.5" class="st0" width="1" height="26.2"/>
<rect x="89" y="14.5" class="st0" width="1" height="29.6"/>
<rect x="3" y="16.5" class="st0" width="82.4" height="1"/>
<path class="st1" d="M6,34.7h253c3.3,0,6,2.7,6,6v1c0,3.3-2.7,6-6,6H6c-3.3,0-6-2.7-6-6v-1C0,37.4,2.7,34.7,6,34.7z"/>
<path class="st2" d="M6,34.7h78c3.3,0,6,2.7,6,6v1c0,3.3-2.7,6-6,6H6c-3.3,0-6-2.7-6-6v-1C0,37.4,2.7,34.7,6,34.7z"/>
<path class="st3" d="M80.4,41.4H7.1c-0.3,0-0.5-0.2-0.5-0.5s0.2-0.5,0.5-0.5h73.3c0.3,0,0.5,0.2,0.5,0.5S80.7,41.4,80.4,41.4z"/>
<g class="st4">
	<path class="st3" d="M105.6,41.4h-2.5c-0.3,0-0.5-0.2-0.5-0.5s0.2-0.5,0.5-0.5h2.5c0.3,0,0.5,0.2,0.5,0.5S105.9,41.4,105.6,41.4z"
		/>
	<path class="st3" d="M157.7,41.4h-5.2c-0.3,0-0.5-0.2-0.5-0.5s0.2-0.5,0.5-0.5h5.2c0.3,0,0.5,0.2,0.5,0.5S158,41.4,157.7,41.4z
		 M147.3,41.4h-5.2c-0.3,0-0.5-0.2-0.5-0.5s0.2-0.5,0.5-0.5h5.2c0.3,0,0.5,0.2,0.5,0.5S147.6,41.4,147.3,41.4z M136.9,41.4h-5.2
		c-0.3,0-0.5-0.2-0.5-0.5s0.2-0.5,0.5-0.5h5.2c0.3,0,0.5,0.2,0.5,0.4c0,0,0,0,0,0.1C137.4,41.2,137.2,41.4,136.9,41.4L136.9,41.4z
		 M126.4,41.4h-5.2c-0.3,0-0.5-0.2-0.5-0.5s0.2-0.5,0.5-0.5h5.2c0.3,0,0.5,0.2,0.5,0.5S126.7,41.4,126.4,41.4z M116,41.4h-5.2
		c-0.3,0-0.5-0.2-0.5-0.5s0.2-0.5,0.5-0.5h5.2c0.3,0,0.5,0.2,0.5,0.5S116.3,41.4,116,41.4z"/>
	<path class="st3" d="M165.4,41.4h-2.5c-0.3,0-0.5-0.2-0.5-0.5s0.2-0.5,0.5-0.5h2.5c0.3,0,0.5,0.2,0.5,0.5S165.7,41.4,165.4,41.4z"
		/>
</g>
<path class="st1" d="M28.4,9.1h-1.5l-2.8-3.5h-1.3v3.5h-1.2V0.4h2.2c0.4,0,0.9,0,1.3,0.1c0.4,0.1,0.7,0.2,1,0.4
	c0.3,0.2,0.5,0.5,0.7,0.8C27,2,27.1,2.4,27.1,2.8c0,0.6-0.2,1.1-0.5,1.6c-0.3,0.5-0.8,0.8-1.3,1L28.4,9.1z M25.9,2.8
	c0-0.2,0-0.5-0.1-0.7c-0.1-0.2-0.2-0.4-0.4-0.5c-0.2-0.1-0.4-0.2-0.6-0.2c-0.3,0-0.5-0.1-0.8-0.1h-1.2v3.3h1c0.3,0,0.6,0,0.9-0.1
	c0.3-0.1,0.5-0.2,0.7-0.4c0.2-0.2,0.3-0.4,0.4-0.6C25.8,3.3,25.9,3,25.9,2.8z"/>
<path class="st1" d="M31.6,9.3c-0.9,0.1-1.8-0.3-2.4-0.9c-0.6-0.7-0.9-1.6-0.9-2.5c0-0.9,0.3-1.8,0.8-2.5c0.6-0.6,1.4-1,2.2-1
	c0.4,0,0.7,0.1,1.1,0.2c0.3,0.1,0.6,0.3,0.8,0.5c0.2,0.3,0.4,0.6,0.5,0.9C33.9,4.4,34,4.9,34,5.4V6h-4.5c0,0.6,0.2,1.2,0.5,1.7
	c0.4,0.4,1,0.6,1.6,0.6c0.2,0,0.5,0,0.7-0.1c0.2,0,0.5-0.1,0.7-0.2c0.2-0.1,0.3-0.2,0.5-0.3s0.2-0.2,0.3-0.2h0.1v1.2l-0.5,0.2
	l-0.5,0.2l-0.6,0.1C32.1,9.2,31.9,9.3,31.6,9.3z M32.9,5.1c0-0.3,0-0.5-0.1-0.8c-0.1-0.2-0.1-0.4-0.3-0.5c-0.1-0.2-0.3-0.3-0.5-0.4
	c-0.5-0.2-1-0.2-1.5,0c-0.2,0.1-0.4,0.2-0.6,0.4c-0.2,0.2-0.3,0.4-0.4,0.6c-0.1,0.2-0.1,0.5-0.2,0.7L32.9,5.1z"/>
<path class="st1" d="M36.9,9.3c-0.4,0-0.8-0.1-1.2-0.2c-0.3-0.1-0.7-0.2-1-0.4V7.5h0.1l0.3,0.2c0.2,0.1,0.3,0.2,0.5,0.3
	c0.2,0.1,0.4,0.2,0.6,0.2c0.2,0.1,0.5,0.1,0.7,0.1c0.2,0,0.4,0,0.6-0.1c0.2,0,0.3-0.1,0.5-0.2c0,0.1,0.1,0,0.2-0.2
	c0.1-0.1,0.1-0.3,0.1-0.5c0-0.2-0.1-0.4-0.2-0.6c-0.2-0.2-0.5-0.3-0.8-0.3l-0.5-0.1l-0.6-0.2c-0.4-0.1-0.8-0.3-1.1-0.7
	c-0.2-0.3-0.4-0.7-0.3-1.1c0-0.6,0.2-1.1,0.7-1.4c0.5-0.4,1.1-0.6,1.8-0.6c0.4,0,0.7,0,1.1,0.1l0.9,0.3v1.2h-0.1
	c-0.3-0.2-0.6-0.4-0.9-0.5c-0.3-0.1-0.7-0.2-1-0.2c-0.3,0-0.6,0.1-0.9,0.2c-0.3,0.2-0.5,0.5-0.5,0.9c0,0.2,0.1,0.4,0.2,0.6
	c0.2,0.2,0.4,0.3,0.7,0.3l0.5,0.1L38,5.5c0.4,0.1,0.8,0.3,1.1,0.6c0.3,0.3,0.4,0.8,0.4,1.2c0,0.3-0.1,0.5-0.2,0.8
	c-0.1,0.3-0.3,0.5-0.5,0.6C38.6,8.9,38.3,9,38,9.1C37.6,9.2,37.3,9.3,36.9,9.3z"/>
<path class="st1" d="M43.3,9.3c-0.9,0.1-1.8-0.3-2.4-0.9C40.3,7.7,40,6.8,40,5.9c0-0.9,0.3-1.8,0.8-2.6c0.5-0.7,1.4-1,2.2-0.9
	c0.4,0,0.7,0.1,1.1,0.2c0.3,0.1,0.6,0.3,0.8,0.5c0.2,0.3,0.4,0.6,0.5,0.9c0.1,0.4,0.2,0.9,0.2,1.3V6h-4.5c0,0.6,0.2,1.3,0.6,1.8
	c0.4,0.4,1,0.6,1.6,0.6c0.2,0,0.5-0.1,0.7-0.1s0.4-0.1,0.6-0.2s0.3-0.2,0.5-0.3s0.2-0.2,0.3-0.2h0.1v1.2L45,9l-0.5,0.2H44
	C43.8,9.3,43.5,9.3,43.3,9.3z M44.6,5.1c0-0.3,0-0.5-0.1-0.8c-0.1-0.2-0.1-0.4-0.3-0.5c-0.1-0.2-0.3-0.3-0.5-0.4
	c-0.5-0.2-1-0.2-1.5,0c-0.2,0.1-0.4,0.2-0.6,0.4c-0.2,0.2-0.3,0.4-0.4,0.6c-0.1,0.2-0.1,0.5-0.2,0.7L44.6,5.1z"/>
<path class="st1" d="M50.2,3.8h-0.6c-0.3,0-0.6,0.1-0.9,0.2c-0.3,0.1-0.6,0.3-0.8,0.6v4.6h-1.1V2.6h1.1v1c0.3-0.3,0.7-0.5,1-0.8
	c0.3-0.1,0.6-0.2,0.9-0.2h0.4V3.8z"/>
<path class="st1" d="M56.2,2.6l-2.5,6.6h-1l-2.4-6.6h1.2l1.8,5.1l1.8-5.1H56.2z"/>
<path class="st1" d="M59.8,9.3c-0.9,0-1.7-0.3-2.4-0.9c-0.6-0.7-0.9-1.6-0.9-2.5c0-0.9,0.3-1.8,0.8-2.5c0.6-0.6,1.4-1,2.2-1
	c0.4,0,0.7,0.1,1.1,0.2c0.3,0.1,0.6,0.3,0.8,0.5C61.7,3.3,61.9,3.7,62,4c0.1,0.4,0.2,0.9,0.2,1.3V6h-4.5c0,0.6,0.2,1.3,0.6,1.8
	c0.4,0.4,1,0.6,1.6,0.6c0.2,0,0.5,0,0.7-0.1L61.2,8c0.2-0.1,0.3-0.2,0.5-0.3s0.2-0.1,0.3-0.2h0.1v1.2l-0.5,0.2l-0.5,0.2l-0.6,0.1
	C60.3,9.3,60,9.3,59.8,9.3z M61.1,5.1c0-0.3,0-0.5-0.1-0.8c-0.1-0.2-0.1-0.4-0.3-0.5c-0.1-0.2-0.3-0.3-0.5-0.4c-0.5-0.2-1-0.2-1.5,0
	c-0.2,0.1-0.4,0.2-0.6,0.4l-0.3,0.6c-0.1,0.2-0.1,0.5-0.2,0.7L61.1,5.1z"/>
<path class="st1" d="M68.3,9.1h-1.1V8.4l-0.4,0.4c-0.1,0.1-0.3,0.2-0.4,0.3s-0.3,0.1-0.5,0.2s-0.4,0.1-0.6,0.1c-0.3,0-0.7-0.1-1-0.2
	C64,9,63.7,8.8,63.5,8.6c-0.2-0.3-0.4-0.7-0.5-1.1c-0.1-0.5-0.2-1-0.2-1.5c0-0.5,0.1-1,0.2-1.5c0.1-0.4,0.3-0.8,0.6-1.1
	c0.2-0.3,0.5-0.6,0.9-0.7c0.3-0.2,0.7-0.2,1.1-0.2c0.3,0,0.6,0,0.9,0.1c0.3,0.1,0.5,0.2,0.8,0.3V0h1.1L68.3,9.1z M67.2,7.5V3.8
	c-0.2-0.1-0.5-0.2-0.7-0.3c-0.2-0.1-0.5-0.1-0.7-0.1c-0.5,0-1,0.2-1.3,0.6C64.1,4.6,64,5.2,64,5.9c0,0.6,0.1,1.2,0.4,1.8
	c0.3,0.4,0.7,0.6,1.2,0.6c0.3,0,0.6-0.1,0.9-0.2C66.7,7.9,67,7.7,67.2,7.5z"/>
<polygon class="st0" points="1.5,17 7.5,20.5 7.5,13.5 "/>
<polygon class="st0" points="88.5,17 82.5,13.5 82.5,20.5 "/>
<path class="st3" d="M81.8,55.4c-0.4,0-0.7-0.2-0.9-0.5l-7.8-13.5c-0.2-0.3-0.2-0.7,0-1l7.8-13.5c0.2-0.3,0.5-0.5,0.9-0.5h15.5
	c0.4,0,0.7,0.2,0.9,0.5l7.7,13.5c0.2,0.3,0.2,0.7,0,1l-7.7,13.5c-0.2,0.3-0.5,0.5-0.9,0.5H81.8z"/>
<path class="st5" d="M96.5,53.1h-14l-7-12.2l7-12.2h14l7,12.2L96.5,53.1z M83.1,52h12.8l6.4-11.1l-6.4-11.2H83.1l-6.4,11.2L83.1,52z
	"/>
<path class="st5" d="M89.5,47.1c-3.4,0-6.2-2.8-6.2-6.2s2.8-6.2,6.2-6.2c3.4,0,6.2,2.8,6.2,6.2c0,0,0,0,0,0l0,0
	C95.7,44.3,92.9,47.1,89.5,47.1z M89.5,35.7c-2.9,0-5.2,2.3-5.2,5.2s2.3,5.2,5.2,5.2c2.9,0,5.2-2.3,5.2-5.2l0,0
	C94.6,38.1,92.3,35.8,89.5,35.7z"/>
<rect x="94.7" y="40.1" class="st5" width="8.2" height="1"/>
<polygon class="st5" points="82.9,51.8 87,45.5 87.9,46.1 83.7,52.3 "/>
<polygon class="st5" points="82.9,29.5 83.7,29 87.9,35.2 87,35.7 "/>
<g class="st6">
	<path class="st3" d="M172.7,52.8c-0.3,0-0.6-0.2-0.7-0.4l-6.4-11.1c-0.2-0.3-0.2-0.6,0-0.9l6.4-11c0.1-0.3,0.4-0.5,0.7-0.5h12.7
		c0.3,0,0.6,0.2,0.7,0.4l6.5,11.1c0.2,0.3,0.2,0.6,0,0.9l-6.4,11c-0.1,0.3-0.4,0.4-0.7,0.4L172.7,52.8z"/>
</g>
<path class="st3" d="M195.5,40.4l-7.8-13.5c-0.2-0.3-0.5-0.5-0.9-0.5h-15.4c-0.4,0-0.7,0.2-0.9,0.5l-7.8,13.5c-0.2,0.3-0.2,0.7,0,1
	l7.7,13.5c0.2,0.3,0.6,0.5,1,0.5h15.5c0.4,0,0.7-0.2,0.9-0.5l7.7-13.5C195.6,41.1,195.6,40.7,195.5,40.4z M185.8,52.5h-13.5
	l-6.7-11.6l6.9-11.8h13.3l6.7,11.5L185.8,52.5z"/>
<path class="st5" d="M186.1,53.1h-14l-7-12.2l7-12.2h14l7,12.2L186.1,53.1z M172.7,52h12.8l6.4-11.1l-6.4-11.2h-12.8l-6.4,11.2
	L172.7,52z"/>
<path class="st5" d="M179.1,47.1c-3.4,0-6.2-2.8-6.2-6.2s2.8-6.2,6.2-6.2c3.4,0,6.2,2.8,6.2,6.2c0,0,0,0,0,0l0,0
	C185.3,44.3,182.6,47.1,179.1,47.1C179.1,47.1,179.1,47.1,179.1,47.1z M179.1,35.7c-2.9,0-5.2,2.3-5.2,5.2s2.3,5.2,5.2,5.2
	c2.9,0,5.2-2.3,5.2-5.2l0,0C184.3,38,182,35.7,179.1,35.7z"/>
<rect x="184.3" y="40.1" class="st5" width="8.2" height="1"/>
<polygon class="st5" points="172.5,51.8 176.6,45.5 177.5,46.1 173.3,52.3 "/>
<polygon class="st5" points="172.5,29.5 173.3,29 177.5,35.2 176.6,35.7 "/>
</svg>
