<?xml version="1.0" encoding="utf-8"?>
<!-- Generator: Adobe Illustrator 21.1.0, SVG Export Plug-In . SVG Version: 6.00 Build 0)  -->
<svg version="1.1" id="_x35_cb5937b-af81-4506-ac20-b80bb2ff011b"
	 xmlns="http://www.w3.org/2000/svg" xmlns:xlink="http://www.w3.org/1999/xlink" x="0px" y="0px" width="265px" height="79.6px"
	 viewBox="0 0 265 79.6" style="enable-background:new 0 0 265 79.6;" xml:space="preserve">
<style type="text/css">
	.st0{fill:#636778;}
	.st1{fill:#53607C;}
	.st2{fill:#0088FF;}
	.st3{fill:#FFFFFF;}
	.st4{fill:#8590A6;}
	.st5{fill:#CDCDCD;}
	.st6{opacity:0.1;}
</style>
<title>hybrid-dynamic-cloudlets 2</title>
<rect y="14.5" class="st0" width="1" height="52"/>
<rect x="89" y="14.5" class="st0" width="1" height="29.6"/>
<rect x="3" y="16.6" class="st0" width="82.4" height="1"/>
<path class="st1" d="M6,34.7h253c3.3,0,6,2.7,6,6v1c0,3.3-2.7,6-6,6H6c-3.3,0-6-2.7-6-6v-1C0,37.4,2.7,34.7,6,34.7z"/>
<path class="st2" d="M6,34.7h78c3.3,0,6,2.7,6,6v1c0,3.3-2.7,6-6,6H6c-3.3,0-6-2.7-6-6v-1C0,37.4,2.7,34.7,6,34.7z"/>
<path class="st3" d="M80.4,41.5H7.1c-0.3,0-0.5-0.2-0.5-0.5s0.2-0.5,0.5-0.5h73.3c0.3,0,0.5,0.2,0.5,0.5S80.7,41.5,80.4,41.5z"/>
<path class="st4" d="M105.6,41.5h-2.5c-0.3,0-0.5-0.2-0.5-0.5s0.2-0.5,0.5-0.5h2.5c0.3,0,0.5,0.2,0.5,0.5S105.9,41.5,105.6,41.5z"/>
<path class="st4" d="M157.7,41.5h-5.2c-0.3,0-0.5-0.2-0.5-0.5s0.2-0.5,0.5-0.5h5.2c0.3,0,0.5,0.2,0.5,0.5S158,41.5,157.7,41.5z
	 M147.3,41.5h-5.2c-0.3,0-0.5-0.2-0.5-0.5s0.2-0.5,0.5-0.5h5.2c0.3,0,0.5,0.2,0.5,0.5S147.6,41.5,147.3,41.5z M136.9,41.5h-5.2
	c-0.3,0-0.5-0.2-0.5-0.5s0.2-0.5,0.5-0.5h5.2c0.3,0,0.5,0.2,0.5,0.4c0,0,0,0,0,0.1C137.4,41.3,137.2,41.5,136.9,41.5L136.9,41.5z
	 M126.4,41.5h-5.2c-0.3,0-0.5-0.2-0.5-0.5s0.2-0.5,0.5-0.5h5.2c0.3,0,0.5,0.2,0.5,0.5S126.7,41.5,126.4,41.5z M116,41.5h-5.2
	c-0.3,0-0.5-0.2-0.5-0.5s0.2-0.5,0.5-0.5h5.2c0.3,0,0.5,0.2,0.5,0.5S116.3,41.5,116,41.5z"/>
<path class="st4" d="M165.4,41.5h-2.5c-0.3,0-0.5-0.2-0.5-0.5s0.2-0.5,0.5-0.5h2.5c0.3,0,0.5,0.2,0.5,0.5S165.7,41.5,165.4,41.5z"/>
<path class="st1" d="M28.4,9.2h-1.5l-2.8-3.5h-1.3v3.5h-1.2V0.4h2.2c0.4,0,0.9,0,1.3,0.1c0.4,0.1,0.7,0.2,1,0.4
	c0.3,0.2,0.5,0.5,0.7,0.8C27,2,27.1,2.4,27.1,2.8c0,0.6-0.2,1.1-0.5,1.6c-0.3,0.5-0.8,0.8-1.3,1L28.4,9.2z M25.9,2.9
	c0-0.2,0-0.5-0.1-0.7c-0.1-0.2-0.2-0.4-0.4-0.5c-0.2-0.1-0.4-0.2-0.6-0.2c-0.3,0-0.5-0.1-0.8-0.1h-1.2v3.3h1c0.3,0,0.6,0,0.9-0.1
	c0.3-0.1,0.5-0.2,0.7-0.4c0.2-0.2,0.3-0.4,0.4-0.6C25.8,3.4,25.9,3.2,25.9,2.9z"/>
<path class="st1" d="M31.6,9.3c-0.9,0.1-1.8-0.3-2.4-0.9c-0.6-0.7-0.9-1.6-0.9-2.5c0-0.9,0.3-1.8,0.8-2.5c0.6-0.6,1.4-1,2.2-1
	c0.4,0,0.7,0.1,1.1,0.2c0.4,0.1,0.7,0.3,0.9,0.6c0.2,0.3,0.4,0.6,0.5,0.9C33.9,4.5,34,5,34,5.4V6h-4.5c0,0.6,0.2,1.2,0.5,1.7
	c0.4,0.4,1,0.6,1.6,0.6c0.2,0,0.5,0,0.7-0.1C32.5,8.1,32.8,8.1,33,8s0.3-0.2,0.5-0.3s0.2-0.2,0.3-0.2h0.1v1.2l-0.5,0.2l-0.5,0.2
	l-0.6,0.1C32.1,9.3,31.8,9.3,31.6,9.3z M32.9,5.2c0-0.3,0-0.5-0.1-0.8c-0.1-0.2-0.1-0.4-0.3-0.5c-0.1-0.2-0.3-0.3-0.5-0.4
	c-0.5-0.2-1-0.2-1.5,0c-0.2,0.1-0.4,0.2-0.5,0.4c-0.2,0.2-0.3,0.4-0.4,0.6c-0.1,0.2-0.1,0.5-0.2,0.7L32.9,5.2z"/>
<path class="st1" d="M36.9,9.3c-0.4,0-0.8-0.1-1.2-0.2c-0.3-0.1-0.7-0.2-1-0.4V7.5h0.1l0.3,0.2c0.2,0.1,0.3,0.2,0.5,0.3
	c0.2,0.1,0.4,0.2,0.6,0.2c0.2,0.1,0.5,0.1,0.7,0.1c0.2,0,0.4,0,0.6-0.1c0.2,0,0.3-0.1,0.5-0.2c0,0.1,0.1,0,0.2-0.1
	c0.1-0.1,0.1-0.3,0.1-0.5c0-0.2-0.1-0.4-0.2-0.6c-0.2-0.2-0.5-0.3-0.8-0.3l-0.5-0.1l-0.6-0.2c-0.4-0.1-0.8-0.3-1.1-0.7
	c-0.2-0.3-0.4-0.7-0.3-1.1c0-0.6,0.2-1.1,0.7-1.4c0.5-0.4,1.1-0.6,1.8-0.6c0.4,0,0.7,0,1.1,0.1l0.9,0.3V4h-0.1
	c-0.3-0.2-0.6-0.4-0.9-0.5c-0.3-0.1-0.7-0.2-1-0.2c-0.3,0-0.6,0.1-0.9,0.2C36.2,3.6,36,3.9,36,4.2c0,0.2,0.1,0.4,0.2,0.6
	c0.2,0.2,0.4,0.3,0.7,0.3l0.5,0.1L38,5.5c0.4,0.1,0.8,0.3,1.1,0.6c0.3,0.3,0.4,0.8,0.4,1.2c0,0.3-0.1,0.5-0.2,0.8
	c-0.1,0.3-0.3,0.5-0.5,0.6c-0.2,0.2-0.5,0.4-0.8,0.5C37.6,9.3,37.3,9.3,36.9,9.3z"/>
<path class="st1" d="M43.3,9.3c-0.9,0.1-1.8-0.3-2.4-0.9c-0.6-0.7-1-1.6-0.9-2.5c0-0.9,0.3-1.8,0.8-2.5c0.5-0.7,1.4-1,2.2-0.9
	c0.4,0,0.7,0.1,1.1,0.2c0.3,0.1,0.6,0.3,0.8,0.5c0.2,0.3,0.4,0.6,0.5,0.9c0.1,0.4,0.2,0.9,0.2,1.3V6h-4.5c0,0.6,0.2,1.3,0.6,1.8
	c0.4,0.4,1,0.6,1.6,0.6c0.2,0,0.5-0.1,0.7-0.1s0.4-0.1,0.6-0.2c0.2-0.1,0.3-0.2,0.5-0.3c0.1-0.1,0.2-0.2,0.3-0.2h0.1v1.2l-0.4,0.1
	l-0.5,0.2L44,9.3H43.3z M44.6,5.2c0-0.3,0-0.5-0.1-0.8c-0.1-0.2-0.1-0.4-0.3-0.5c-0.1-0.2-0.3-0.3-0.5-0.4c-0.5-0.2-1-0.2-1.5,0
	c-0.2,0.1-0.4,0.2-0.5,0.4c-0.2,0.2-0.3,0.4-0.4,0.6c-0.1,0.2-0.1,0.5-0.2,0.7L44.6,5.2z"/>
<path class="st1" d="M50.2,3.8h-0.6c-0.3,0-0.6,0.1-0.9,0.2c-0.3,0.1-0.6,0.3-0.8,0.6v4.6h-1.1V2.6h1.1v1c0.3-0.3,0.7-0.5,1-0.8
	c0.3-0.1,0.6-0.2,0.9-0.2h0.4V3.8z"/>
<path class="st1" d="M56.2,2.6l-2.5,6.5h-1l-2.4-6.5h1.2l1.8,5l1.8-5.1L56.2,2.6z"/>
<path class="st1" d="M59.8,9.3C58.9,9.4,58,9,57.4,8.4c-0.6-0.7-0.9-1.6-0.9-2.5c0-0.9,0.3-1.8,0.8-2.5c0.6-0.6,1.4-1,2.2-1
	c0.4,0,0.7,0.1,1.1,0.2c0.4,0.1,0.7,0.3,0.9,0.6c0.2,0.3,0.4,0.6,0.5,0.9c0.1,0.4,0.2,0.9,0.2,1.3v0.7h-4.5c0,0.6,0.2,1.3,0.6,1.8
	c0.4,0.4,1,0.6,1.6,0.6c0.2,0,0.5,0,0.7-0.1l0.6-0.3c0.2-0.1,0.3-0.2,0.5-0.3s0.2-0.1,0.3-0.2h0.1v1.2l-0.5,0.1l-0.5,0.2l-0.6,0.1
	C60.3,9.3,60,9.3,59.8,9.3z M61.1,5.2c0-0.3,0-0.5-0.1-0.8c-0.1-0.2-0.1-0.4-0.3-0.5c-0.1-0.2-0.3-0.3-0.5-0.4c-0.5-0.2-1-0.2-1.5,0
	c-0.2,0.1-0.4,0.2-0.6,0.4c-0.2,0.2-0.3,0.4-0.4,0.6c-0.1,0.2-0.1,0.5-0.2,0.7L61.1,5.2z"/>
<path class="st1" d="M68.3,9.2h-1.1V8.5l-0.4,0.4c-0.1,0.1-0.3,0.2-0.4,0.3s-0.3,0.1-0.5,0.2s-0.4,0.1-0.6,0.1c-0.3,0-0.7-0.1-1-0.2
	c-0.3-0.2-0.6-0.4-0.8-0.6C63.3,8.4,63.1,8,63,7.6c-0.1-0.5-0.2-1-0.2-1.5c0-0.5,0.1-1,0.2-1.5c0.1-0.4,0.3-0.8,0.6-1.1
	c0.2-0.3,0.5-0.6,0.9-0.7c0.3-0.2,0.7-0.2,1.1-0.2c0.3,0,0.6,0,0.9,0.1c0.3-0.1,0.5,0,0.7,0.2V0h1.1L68.3,9.2z M67.2,7.6V3.8
	c-0.2-0.1-0.5-0.2-0.7-0.3c-0.2-0.1-0.5-0.1-0.7-0.1c-0.5,0-1,0.2-1.3,0.6c-0.4,0.5-0.6,1.2-0.5,1.9c0,0.6,0.1,1.2,0.4,1.8
	c0.3,0.4,0.7,0.6,1.2,0.6c0.3,0,0.6-0.1,0.9-0.2C66.7,7.9,67,7.8,67.2,7.6z"/>
<path class="st1" d="M118.4,4.5c0,0.8-0.2,1.5-0.5,2.2c-0.3,0.6-0.7,1.1-1.3,1.5c-0.4,0.3-0.8,0.5-1.3,0.6c-0.6,0.1-1.1,0.2-1.7,0.1
	h-2V0.1h2c0.6,0,1.3,0,1.9,0.2c0.4,0.1,0.8,0.3,1.2,0.5c0.6,0.4,1,0.9,1.3,1.5C118.3,3,118.4,3.7,118.4,4.5z M117.2,4.5
	c0-0.6-0.1-1.2-0.3-1.7c-0.2-0.5-0.6-0.8-1-1.1c-0.3-0.2-0.6-0.3-1-0.4c-0.4-0.1-0.9-0.1-1.3-0.1h-0.9v6.7h0.9c0.4,0,0.9,0,1.3-0.1
	c0.4-0.1,0.8-0.2,1.1-0.5c0.4-0.3,0.7-0.7,0.9-1.1C117.1,5.7,117.2,5.1,117.2,4.5z"/>
<path class="st1" d="M124.7,2.3l-3.5,9H120l1.2-2.7l-2.4-6.2h1.2l1.8,4.8l1.8-4.8L124.7,2.3z"/>
<path class="st1" d="M130.7,8.8h-1.1V4.3c0-0.2-0.1-0.4-0.2-0.6c-0.1-0.2-0.2-0.3-0.4-0.4c-0.2-0.1-0.5-0.1-0.7-0.1
	c-0.3,0-0.6,0.1-0.8,0.2c-0.3,0.1-0.6,0.3-0.8,0.6v4.9h-1.1V2.3h1.1v0.8c0.3-0.3,0.6-0.5,1-0.7c0.3-0.2,0.7-0.2,1-0.2
	c0.6,0,1.1,0.2,1.5,0.6c0.4,0.5,0.6,1.2,0.5,1.8V8.8z"/>
<path class="st1" d="M135.9,8.1l-0.4,0.3c-0.1,0.1-0.3,0.2-0.4,0.3c-0.2,0.1-0.4,0.2-0.6,0.2C134.2,9,134,9,133.7,9
	c-0.5,0-1-0.2-1.4-0.6c-0.2-0.2-0.3-0.4-0.4-0.7c-0.1-0.3-0.2-0.5-0.2-0.8c0-0.4,0.1-0.8,0.3-1.2c0.2-0.3,0.5-0.6,0.9-0.7
	c0.4-0.2,0.8-0.3,1.3-0.3c0.5-0.1,1.1-0.1,1.6-0.1V4.3c0-0.2,0-0.4-0.1-0.6c-0.1-0.2-0.2-0.3-0.3-0.4c-0.2-0.1-0.3-0.2-0.5-0.2h-0.6
	c-0.3,0-0.6,0-0.9,0.1l-1,0.3h-0.1V2.4c0.3-0.1,0.6-0.2,0.9-0.2c0.4-0.1,0.7-0.1,1.1-0.1c0.4,0,0.7,0,1.1,0.1
	c0.3,0.1,0.6,0.2,0.8,0.4c0.2,0.2,0.4,0.4,0.5,0.7c0.1,0.3,0.2,0.7,0.2,1v4.5h-1.1L135.9,8.1z M135.9,7.2V5.4l-1,0.1
	c-0.3,0-0.7,0.1-1,0.2c-0.3,0.1-0.5,0.2-0.7,0.4c-0.4,0.5-0.4,1.1,0,1.6c0.3,0.2,0.6,0.3,0.9,0.3c0.3,0,0.6-0.1,0.9-0.2
	C135.3,7.6,135.6,7.4,135.9,7.2L135.9,7.2z"/>
<path class="st1" d="M146,8.8V4.2c0-0.2-0.1-0.4-0.1-0.6s-0.2-0.3-0.3-0.3c-0.2-0.1-0.4-0.1-0.6-0.1c-0.2,0-0.5,0.1-0.7,0.2
	c-0.3,0.2-0.6,0.4-0.8,0.6v4.8h-1.1V4.2c0-0.2-0.1-0.4-0.1-0.6s-0.2-0.3-0.3-0.3c-0.2-0.1-0.4-0.1-0.6-0.1c-0.3,0-0.5,0.1-0.8,0.2
	c-0.3,0.2-0.5,0.4-0.8,0.6v4.9h-1.1V2.3h1.1v0.8c0.3-0.3,0.6-0.5,0.9-0.7c0.3-0.2,0.6-0.2,0.9-0.2c0.4,0,0.7,0.1,1,0.3
	c0.3,0.2,0.6,0.5,0.7,0.9c0.3-0.3,0.6-0.6,1-0.8c0.3-0.2,0.6-0.3,1-0.3c0.3,0,0.5,0,0.8,0.1c0.2,0.1,0.4,0.2,0.6,0.4
	c0.2,0.2,0.3,0.4,0.4,0.7c0.1,0.4,0.2,0.7,0.1,1.1v4.3L146,8.8L146,8.8z"/>
<path class="st1" d="M149.8,1.2h-1.2V0h1.2V1.2z M149.7,8.8h-1.1V2.3h1.1V8.8z"/>
<path class="st1" d="M154,9c-0.4,0-0.8-0.1-1.2-0.2c-0.4-0.1-0.7-0.3-1-0.6c-0.3-0.3-0.5-0.7-0.6-1.1c-0.2-0.5-0.2-1-0.2-1.5
	c0-0.5,0.1-1,0.2-1.5c0.1-0.4,0.3-0.7,0.6-1c0.3-0.3,0.6-0.5,1-0.7c0.4-0.2,0.8-0.2,1.2-0.2c0.3,0,0.7,0.1,1,0.2l0.9,0.3v1.2h-0.1
	l-0.3-0.2c-0.1-0.1-0.3-0.2-0.4-0.3c-0.2-0.1-0.3-0.2-0.5-0.2c-0.2-0.1-0.4-0.1-0.6-0.1c-0.6,0-1.1,0.3-1.4,0.7
	c-0.4,0.5-0.6,1.2-0.5,1.8c0,0.6,0.1,1.3,0.5,1.8c0.3,0.4,0.8,0.7,1.4,0.7c0.3,0,0.7-0.1,1-0.2c0.3-0.1,0.7-0.3,0.9-0.6h0.1v1.2
	l-0.4,0.2c-0.1,0.1-0.3,0.1-0.4,0.2h-0.7C154.3,8.9,154.2,9,154,9z"/>
<polygon class="st0" points="1.5,17.1 7.5,20.6 7.5,13.6 "/>
<rect x="3" y="62.1" class="st0" width="172" height="1"/>
<polygon class="st0" points="1.5,62.6 7.5,66.1 7.5,59.1 "/>
<polygon class="st0" points="88.5,17.1 82.5,13.6 82.5,20.6 "/>
<rect x="178.5" y="14.5" class="st0" width="1" height="14.8"/>
<rect x="178.5" y="52.3" class="st0" width="1" height="14.2"/>
<rect x="92.5" y="16.6" class="st0" width="82.4" height="1"/>
<polygon class="st0" points="90.5,17.1 96.5,20.6 96.5,13.6 "/>
<polygon class="st0" points="178,17.1 172,13.6 172,20.6 "/>
<polygon class="st0" points="178,62.6 172,59.1 172,66.1 "/>
<path class="st1" d="M60.3,77.4c-0.5,0-1.1-0.1-1.6-0.2c-0.4-0.1-0.8-0.3-1.2-0.5v-1.5h0.1c0.4,0.4,0.8,0.6,1.3,0.8
	c0.4,0.2,0.9,0.3,1.4,0.3c0.5,0,1-0.1,1.5-0.4c0.3-0.3,0.5-0.7,0.5-1.1c0-0.3-0.1-0.6-0.3-0.8c-0.2-0.2-0.5-0.4-0.8-0.5l-0.7-0.2
	l-0.8-0.2c-0.3-0.1-0.5-0.2-0.8-0.3c-0.2-0.1-0.4-0.3-0.6-0.5c-0.2-0.2-0.3-0.4-0.4-0.7c-0.1-0.3-0.2-0.6-0.2-0.9
	c0-0.7,0.3-1.3,0.8-1.8c0.6-0.5,1.3-0.7,2.1-0.7c0.5,0,1,0,1.4,0.2c0.4,0.1,0.8,0.2,1.2,0.4v1.4h-0.1c-0.3-0.3-0.7-0.5-1.1-0.7
	c-0.4-0.2-0.9-0.3-1.4-0.3c-0.5,0-0.9,0.1-1.3,0.4c-0.3,0.2-0.5,0.6-0.5,1c0,0.3,0.1,0.6,0.3,0.9c0.2,0.2,0.5,0.4,0.8,0.5l0.9,0.2
	l0.9,0.2c0.5,0.1,1,0.4,1.3,0.8c0.3,0.4,0.4,0.9,0.4,1.4c0,0.3-0.1,0.7-0.2,1c-0.1,0.3-0.3,0.6-0.6,0.8c-0.3,0.3-0.6,0.5-1,0.6
	C61.2,77.3,60.8,77.4,60.3,77.4z"/>
<path class="st1" d="M67,77.4c-0.4,0-0.8-0.1-1.2-0.2c-0.4-0.1-0.7-0.3-1-0.6c-0.3-0.3-0.5-0.7-0.6-1.1c-0.1-0.5-0.2-1-0.1-1.5
	c0-0.5,0.1-1,0.2-1.5c0.1-0.4,0.3-0.8,0.6-1.1c0.3-0.3,0.6-0.5,1-0.7c0.3-0.2,0.7-0.2,1.1-0.2c0.3,0,0.7,0.1,1,0.2l0.9,0.3v1.2h-0.1
	L68.5,72c-0.1-0.1-0.3-0.2-0.4-0.3c-0.2-0.1-0.3-0.2-0.5-0.2c-0.2-0.1-0.4-0.1-0.6-0.1c-0.6,0-1.1,0.3-1.4,0.7
	c-0.3,0.5-0.5,1.2-0.4,1.8c0,0.6,0.1,1.3,0.5,1.8c0.3,0.4,0.8,0.7,1.4,0.7c0.3,0,0.7-0.1,1-0.2c0.3-0.1,0.7-0.3,0.9-0.6l0,0v1.3
	l-0.4,0.2c-0.1,0.1-0.3,0.1-0.4,0.2l-0.5,0.1L67,77.4z"/>
<path class="st1" d="M73.6,76.6l-0.3,0.3c-0.1,0.1-0.3,0.2-0.4,0.3c-0.2,0.1-0.4,0.2-0.6,0.2c-0.3,0.1-0.5,0.1-0.8,0.1
	c-0.5,0-1-0.2-1.4-0.6c-0.2-0.2-0.3-0.4-0.4-0.7c-0.3-0.6-0.2-1.4,0.1-2c0.2-0.3,0.5-0.6,0.9-0.8c0.4-0.2,0.8-0.3,1.3-0.3
	c0.5-0.1,1.1-0.1,1.6-0.1v-0.2c0-0.2,0-0.4-0.1-0.6c-0.1-0.2-0.2-0.3-0.3-0.4c-0.2-0.1-0.3-0.2-0.5-0.2h-0.6c-0.3,0-0.6,0-0.9,0.1
	c-0.3,0.1-0.7,0.2-1,0.3h-0.1v-1.1c0.3-0.1,0.6-0.2,0.9-0.2c0.4-0.1,0.7-0.1,1.1-0.1c0.4,0,0.7,0,1.1,0.1c0.3,0.1,0.6,0.2,0.8,0.4
	c0.2,0.2,0.4,0.4,0.5,0.7c0.1,0.3,0.2,0.7,0.2,1v4.5h-1.1V76.6z M73.6,75.7v-1.8l-1,0.1c-0.3,0-0.7,0.1-1,0.2
	c-0.3,0.1-0.5,0.2-0.7,0.4c-0.4,0.5-0.4,1.1,0,1.6c0.3,0.2,0.6,0.3,0.9,0.3c0.3,0,0.6-0.1,0.9-0.2C73,76.1,73.3,75.9,73.6,75.7z"/>
<path class="st1" d="M77.4,77.3h-1.1v-9.1h1.1V77.3z"/>
<path class="st1" d="M80.2,69.6H79v-1.2h1.2V69.6z M80.2,77.3h-1.1v-6.6h1.1V77.3z"/>
<path class="st1" d="M86.9,77.3h-1.1v-4.5c0-0.2-0.1-0.4-0.2-0.6c-0.1-0.2-0.2-0.3-0.4-0.4c-0.2-0.1-0.5-0.1-0.7-0.1
	c-0.3,0-0.6,0.1-0.8,0.2c-0.3,0.1-0.6,0.3-0.8,0.6v4.9h-1.1v-6.5h1.1v0.7c0.3-0.3,0.6-0.5,1-0.7c0.3-0.2,0.7-0.2,1-0.2
	c0.6,0,1.1,0.2,1.5,0.6c0.4,0.5,0.5,1.2,0.5,1.8V77.3z"/>
<path class="st1" d="M88.7,78.3l0.3,0.1l0.5,0.2l0.6,0.1h0.6c0.3,0,0.6,0,0.9-0.1c0.2-0.1,0.4-0.2,0.6-0.4l0.3-0.6
	c0.1-0.2,0.1-0.5,0.1-0.7v-0.6l-0.9,0.6c-0.4,0.1-0.7,0.2-1.1,0.2c-0.7,0-1.3-0.3-1.8-0.8c-0.6-0.7-0.8-1.5-0.8-2.4
	c0-0.5,0.1-0.9,0.2-1.4c0.1-0.4,0.3-0.8,0.6-1.1c0.2-0.3,0.5-0.6,0.9-0.7c0.3-0.1,0.7-0.2,1-0.2c0.3,0,0.6,0,0.9,0.1
	c0.3,0.1,0.5,0.2,0.8,0.3l0.1-0.3h1v5.8c0.1,0.9-0.2,1.7-0.7,2.4c-0.6,0.6-1.4,0.8-2.2,0.8c-0.3,0-0.7,0-1-0.1
	c-0.3,0-0.6-0.1-0.9-0.2C88.7,79.3,88.7,78.3,88.7,78.3z M92.4,75.5v-3.6c-0.3-0.1-0.5-0.2-0.8-0.3c-0.2-0.1-0.5-0.1-0.7-0.1
	c-0.5,0-1,0.2-1.3,0.6c-0.4,0.5-0.6,1.2-0.5,1.8c0,0.6,0.1,1.2,0.4,1.7c0.3,0.4,0.7,0.6,1.2,0.6c0.3,0,0.6-0.1,0.9-0.2
	C91.9,75.9,92.2,75.7,92.4,75.5z"/>
<path class="st1" d="M104,77.3h-5.1v-8.7h1.2v7.7h3.9V77.3z"/>
<path class="st1" d="M106,69.6h-1.2v-1.2h1.2V69.6z M105.9,77.3h-1.1v-6.6h1.1V77.3z"/>
<path class="st1" d="M115,77.3v-4.6c0-0.2-0.1-0.4-0.2-0.6c-0.1-0.1-0.2-0.3-0.3-0.3c-0.2-0.1-0.4-0.1-0.6-0.1
	c-0.2,0-0.5,0.1-0.7,0.2c-0.3,0.2-0.6,0.4-0.8,0.6v4.8h-1.1v-4.6c0-0.2-0.1-0.4-0.2-0.6c-0.1-0.1-0.2-0.3-0.3-0.3
	c-0.2-0.1-0.4-0.1-0.6-0.1c-0.3,0-0.5,0.1-0.8,0.2c-0.3,0.2-0.5,0.4-0.8,0.6v4.9h-1.1v-6.6h1.1v0.7c0.3-0.3,0.6-0.5,0.9-0.7
	c0.3-0.2,0.6-0.2,0.9-0.2c0.4,0,0.7,0.1,1,0.3c0.3,0.2,0.6,0.5,0.7,0.9c0.3-0.3,0.6-0.6,1-0.8c0.3-0.2,0.6-0.3,1-0.3
	c0.3,0,0.5,0,0.8,0.1c0.2,0.1,0.4,0.2,0.6,0.4c0.2,0.2,0.3,0.4,0.4,0.7c0.1,0.4,0.2,0.7,0.1,1.1v4.3H115z"/>
<path class="st1" d="M118.8,69.6h-1.2v-1.2h1.2V69.6z M118.8,77.3h-1.1v-6.6h1.1V77.3z"/>
<path class="st1" d="M122.4,77.4c-0.5,0-1-0.2-1.4-0.5c-0.4-0.4-0.6-1-0.5-1.6v-3.6h-0.7v-0.9h0.7v-1.9h1.1v1.9h2v0.9h-2v3.9
	c0,0.2,0.1,0.3,0.1,0.5l0.3,0.3c0.2,0.1,0.4,0.1,0.6,0.1c0.2,0,0.4,0,0.5-0.1l0.4-0.1h0.1v1c-0.2,0.1-0.4,0.1-0.6,0.1L122.4,77.4z"
	/>
<path class="st3" d="M81.8,55.5c-0.4,0-0.7-0.2-0.9-0.5l-7.8-13.5c-0.2-0.3-0.2-0.7,0-1L80.9,27c0.2-0.3,0.5-0.5,0.9-0.5h15.5
	c0.4,0,0.7,0.2,0.9,0.5l7.7,13.5c0.2,0.3,0.2,0.7,0,1L98.2,55c-0.2,0.3-0.5,0.5-0.9,0.5H81.8z"/>
<path class="st5" d="M96.5,53.2h-14l-7-12.2l7-12.2h14l7,12.2L96.5,53.2z M83.1,52h12.8l6.4-11.1l-6.4-11.2H83.1l-6.4,11.2L83.1,52z
	"/>
<path class="st5" d="M89.5,47.2c-3.4,0-6.2-2.8-6.2-6.2s2.8-6.2,6.2-6.2c3.4,0,6.2,2.8,6.2,6.2c0,0,0,0,0,0l0,0
	C95.6,44.4,92.9,47.1,89.5,47.2z M89.5,35.8c-2.9,0-5.2,2.3-5.2,5.2s2.3,5.2,5.2,5.2c2.9,0,5.2-2.3,5.2-5.2v0
	C94.7,38.1,92.4,35.8,89.5,35.8z"/>
<rect x="94.7" y="40.2" class="st5" width="8.2" height="1"/>
<polygon class="st5" points="82.9,51.9 87,45.6 87.9,46.2 83.7,52.4 "/>
<polygon class="st5" points="82.9,29.6 83.7,29.1 87.9,35.3 87,35.8 "/>
<g class="st6">
	<path class="st3" d="M172.7,52.9c-0.3,0-0.6-0.2-0.7-0.4l-6.4-11.1c-0.2-0.3-0.2-0.6,0-0.9l6.4-11c0.1-0.3,0.4-0.5,0.7-0.5h12.7
		c0.3,0,0.6,0.2,0.7,0.4l6.5,11.1c0.2,0.3,0.2,0.6,0,0.9l-6.4,11c-0.1,0.3-0.4,0.4-0.7,0.4L172.7,52.9z"/>
</g>
<path class="st3" d="M195.5,40.5L187.7,27c-0.2-0.3-0.5-0.5-0.9-0.5h-15.4c-0.4,0-0.7,0.2-0.9,0.5l-7.8,13.5c-0.2,0.3-0.2,0.7,0,1
	l7.7,13.5c0.2,0.3,0.6,0.5,1,0.5h15.5c0.4,0,0.7-0.2,0.9-0.5l7.7-13.5C195.6,41.2,195.6,40.8,195.5,40.5z M185.8,52.6h-13.5
	L165.6,41l6.9-11.8h13.3l6.7,11.5L185.8,52.6z"/>
<path class="st5" d="M186.1,53.2h-14l-7-12.2l7-12.2h14l7,12.2L186.1,53.2z M172.7,52h12.8l6.4-11.1l-6.4-11.2h-12.8l-6.4,11.2
	L172.7,52z"/>
<path class="st5" d="M179.1,47.2c-3.4,0-6.2-2.8-6.2-6.2s2.8-6.2,6.2-6.2c3.4,0,6.2,2.8,6.2,6.2c0,0,0,0,0,0l0,0
	C185.3,44.4,182.5,47.2,179.1,47.2z M179.1,35.8c-2.9,0-5.2,2.3-5.2,5.2s2.3,5.2,5.2,5.2c2.9,0,5.2-2.3,5.2-5.2l0,0
	C184.3,38.2,182,35.8,179.1,35.8C179.2,35.8,179.1,35.8,179.1,35.8z"/>
<rect x="184.3" y="40.2" class="st5" width="8.2" height="1"/>
<polygon class="st5" points="172.5,51.9 176.6,45.6 177.5,46.2 173.3,52.4 "/>
<polygon class="st5" points="172.5,29.6 173.3,29.1 177.5,35.3 176.6,35.8 "/>
</svg>
