<svg enable-background="new 0 0 265 47.7" viewBox="0 0 265 47.7" xmlns="http://www.w3.org/2000/svg"><path d="m0 14.5h1v27h-1z" fill="#636778"/><path d="m132 14.5h1v29.6h-1z" fill="#636778"/><path d="m3 16.5h123.3v1h-123.3z" fill="#636778"/><path d="m6 34.7h253c3.3 0 6 2.7 6 6v1c0 3.3-2.7 6-6 6h-253c-3.3 0-6-2.7-6-6v-1c0-3.3 2.7-6 6-6z" fill="#e5f2ff"/><path d="m6 34.7h123c3.3 0 6 2.7 6 6v1c0 3.3-2.7 6-6 6h-123c-3.3 0-6-2.7-6-6v-1c0-3.3 2.7-6 6-6z" fill="#08f"/><path d="m124.7 41.4h-117.3c-.4 0-.8-.2-.8-.5s.4-.5.8-.5h117.3c.4 0 .8.2.8.5s-.4.5-.8.5z" fill="#fff"/><path d="m48 9.1h-1.5l-2.8-3.5h-1.3v3.5h-1.2v-8.7h2.2c.4 0 .9 0 1.3.1s.7.2 1 .4.5.5.7.8.3.7.3 1.1c0 .6-.2 1.1-.5 1.6s-.8.8-1.3 1zm-2.5-6.3c0-.2 0-.5-.1-.7-.1-.1-.2-.3-.4-.4s-.4-.2-.6-.2c-.3 0-.5-.1-.8-.1h-1.2v3.3h1c.3 0 .6 0 .9-.1.2-.1.5-.2.6-.4.2-.2.3-.4.4-.6.2-.2.2-.5.2-.8z"/><path d="m51.3 9.3c-.9.1-1.8-.3-2.4-.9-.6-.7-.9-1.6-.8-2.5 0-.9.3-1.8.8-2.5.6-.6 1.4-1 2.2-1 .4 0 .7.1 1.1.2.3.1.6.3.8.5.2.3.4.6.5.9.1.5.2.9.2 1.4v.6h-4.6c0 .6.2 1.2.5 1.7.4.4 1 .6 1.6.6.2 0 .5 0 .7-.1s.5-.1.7-.2.3-.2.5-.3.2-.2.3-.2h.1v1.2l-.5.2-.5.2-.5.1c-.2 0-.5.1-.7.1zm1.3-4.2c0-.3 0-.5-.1-.8-.1-.2-.1-.4-.3-.5-.1-.2-.3-.3-.5-.4-.5-.2-1-.2-1.5 0-.2.1-.4.2-.6.4s-.3.4-.4.6-.1.5-.2.7z"/><path d="m56.5 9.3c-.4 0-.8-.1-1.2-.2-.3-.1-.7-.2-1-.4v-1.2h.1l.3.2c.2.1.3.2.5.3s.4.2.6.2c.2.1.5.1.7.1s.4 0 .6-.1c.2 0 .3-.1.5-.2l.3-.3c0-.1.1-.2.1-.3 0-.2-.1-.4-.2-.6-.2-.2-.5-.3-.8-.3l-.5-.1-.6-.2c-.4-.1-.8-.3-1.1-.7-.2-.3-.4-.7-.3-1.1 0-.5.2-1 .6-1.4.5-.4 1.1-.6 1.8-.6.4 0 .7 0 1.1.1l.9.3v1.2h-.1c-.3-.2-.6-.4-.9-.5s-.7-.2-1-.2-.6.1-.9.2c-.2.1-.4.4-.4.7 0 .2.1.4.2.6.2.2.4.3.7.3l.5.2.6.1c.4.1.8.3 1.1.6s.4.8.4 1.2c0 .3 0 .5-.1.8s-.3.5-.5.6c-.2.2-.5.4-.8.5-.4.1-.8.2-1.2.2z"/><path d="m63 9.3c-.9.1-1.8-.3-2.4-.9-.6-.7-.9-1.6-.9-2.5s.3-1.8.8-2.5 1.4-1 2.2-.9c.4 0 .7.1 1.1.2.6.2 1.1.7 1.3 1.3.1.4.2.9.2 1.3v.7h-4.5c0 .6.2 1.3.6 1.8.4.4 1 .6 1.6.6.2 0 .5-.1.7-.1s.4-.1.6-.2.3-.2.5-.3.2-.2.3-.2h.1v1.2l-.5.2-.5.2-.5.1zm1.2-4.2c0-.3 0-.5-.1-.8 0-.2-.1-.3-.2-.5s-.3-.3-.5-.4c-.5-.2-1-.2-1.5 0-.2.1-.4.2-.6.4-.1.2-.3.4-.4.6s-.1.5-.2.7z"/><path d="m69.9 3.8h-.7c-.3 0-.6.1-.9.2s-.6.3-.8.6v4.6h-1.1v-6.6h1.1v1c.3-.3.6-.6 1-.8.3-.1.6-.2.9-.2h.4z"/><path d="m75.9 2.6-2.5 6.6h-1l-2.4-6.6h1.2l1.8 5 1.8-5.1z"/><path d="m79.5 9.3c-.9 0-1.8-.3-2.5-.9-.6-.7-.9-1.6-.9-2.5s.3-1.9.9-2.6c.6-.6 1.4-1 2.2-1 .4 0 .7.1 1.1.2.3.1.6.3.8.5.2.3.4.6.5.9.1.4.2.9.2 1.3v.8h-4.5c0 .6.2 1.3.6 1.8.4.4 1 .6 1.6.6.2 0 .5 0 .7-.1l.6-.3c.2-.1.3-.2.5-.3s.2-.1.3-.2h.1v1.2l-.5.2-.5.2-.6.1c-.2.1-.4.1-.6.1zm1.3-4.2c0-.3 0-.5-.1-.8-.1-.2-.1-.4-.3-.5-.1-.2-.3-.3-.5-.4-.5-.2-1-.2-1.5 0-.2.1-.4.2-.6.4s-.3.4-.4.6-.1.5-.2.7z"/><path d="m88 9.1h-1.1v-.7l-.4.4c-.2.1-.3.2-.5.3s-.3.1-.5.2-.4.1-.6.1c-.3 0-.7-.1-1-.2-.3-.2-.6-.4-.8-.6-.2-.3-.4-.7-.5-1.1-.1-.5-.2-1-.2-1.5s.1-1 .2-1.5c.1-.4.3-.8.6-1.1.2-.3.5-.6.9-.7.3-.2.7-.2 1.1-.2.3 0 .6 0 .9.1s.5.2.8.3v-2.9h1.1zm-1.1-1.6v-3.7c-.2-.1-.5-.2-.7-.3s-.5-.1-.7-.1c-.5 0-1 .2-1.3.6-.4.6-.5 1.2-.5 1.9 0 .6.1 1.2.3 1.8.3.4.7.6 1.2.6.3 0 .6-.1.9-.2.2-.2.5-.4.8-.6z"/><path d="m1.5 17 6 3.5v-7z" fill="#636778"/><path d="m131.5 17-6-3.5v7z" fill="#636778"/><path d="m185.7 41.7h-5.2c-.3 0-.5-.2-.5-.5s.2-.5.5-.5h5.2c.3 0 .5.2.5.5s-.2.5-.5.5zm-10.4 0h-5.2c-.3 0-.5-.2-.5-.5s.2-.5.5-.5h5.2c.3 0 .5.2.5.5s-.2.5-.5.5zm-10.4 0h-5.2c-.3 0-.5-.2-.5-.5s.2-.5.5-.5h5.2c.3 0 .5.2.5.4v.1c0 .3-.2.5-.5.5zm-10.5 0h-5.2c-.3 0-.5-.2-.5-.5s.2-.5.5-.5h5.2c.3 0 .5.2.5.5s-.2.5-.5.5zm-10.4 0h-5.2c-.3 0-.5-.2-.5-.5s.2-.5.5-.5h5.2c.3 0 .5.2.5.5s-.2.5-.5.5z" fill="#8590a6"/><path d="m216.9 41.7h-5.2c-.3 0-.5-.2-.5-.5s.2-.5.5-.5h5.2c.3 0 .5.2.5.4v.1c0 .3-.2.5-.5.5z" fill="#8590a6"/><path d="m206.4 41.7h-5.2c-.3 0-.5-.2-.5-.5s.2-.5.5-.5h5.2c.3 0 .5.2.5.5s-.2.5-.5.5z" fill="#8590a6"/><path d="m196 41.7h-5.2c-.3 0-.5-.2-.5-.5s.2-.5.5-.5h5.2c.3 0 .5.2.5.5s-.2.5-.5.5z" fill="#8590a6"/><path d="m220.1 46.5c-.1 0-.2-.1-.3-.2l-2.9-5c-.1-.1-.1-.3 0-.4l2.9-5c0-.1.2-.2.3-.2h5.7c.1 0 .3.1.3.2l2.9 5c.1.1.1.3 0 .4l-2.9 4.9c-.1.1-.2.2-.3.2z" fill="#fff" opacity=".1"/><path d="m230.3 41-3.5-6.1c-.1-.1-.2-.2-.4-.2h-6.9c-.2 0-.3.1-.4.2l-3.5 6.1c-.1.1-.1.3 0 .4l3.4 6.1c.1.1.3.2.4.2h6.9c.2 0 .3-.1.4-.2l3.4-6.1c.3-.1.3-.3.2-.4zm-4.3 5.4h-6.1l-3-5.2 3.1-5.3h6l3 5.2z" fill="#fff"/><g fill="#636778"><path d="m226.1 46.7h-6.3l-3.1-5.5 3.1-5.5h6.3l3.1 5.5zm-6-.5h5.7l2.9-5-2.9-5h-5.8l-2.9 5z"/><path d="m223 44c-1.5 0-2.8-1.2-2.8-2.8s1.2-2.8 2.8-2.8c1.5 0 2.8 1.2 2.8 2.8 0 1.5-1.3 2.8-2.8 2.8zm0-5.1c-1.3 0-2.3 1-2.3 2.3s1 2.3 2.3 2.3 2.3-1 2.3-2.3-1-2.3-2.3-2.3z"/><path d="m225.3 40.8h3.7v.5h-3.7z"/><path d="m220 46.1 1.9-2.8.3.2-1.8 2.8z"/><path d="m220 36.1.4-.2 1.8 2.8-.3.2z"/></g><path d="m139.6 41.4h-1.1c-.1 0-.2-.1-.2-.2s.1-.2.2-.2h1.1c.1 0 .2.1.2.2s-.1.2-.2.2z" fill="#8590a6"/><path d="m128.9 47.7c-.2 0-.3-.1-.4-.2l-3.5-6.1c-.1-.1-.1-.3 0-.4l3.5-6.1c.1-.1.2-.2.4-.2h7c.2 0 .3.1.4.2l3.4 6.1c.1.1.1.3 0 .4l-3.4 6.1c-.1.1-.2.2-.4.2z" fill="#fff"/><path d="m135.5 46.7h-6.3l-3.1-5.5 3.1-5.5h6.3l3.1 5.5zm-6-.5h5.7l2.9-5-2.9-5h-5.8l-2.9 5z" fill="#636778"/><path d="m132.4 44c-1.5 0-2.8-1.2-2.8-2.8s1.2-2.8 2.8-2.8c1.5 0 2.8 1.2 2.8 2.8-.1 1.6-1.3 2.8-2.8 2.8zm0-5.1c-1.3 0-2.3 1-2.3 2.3s1 2.3 2.3 2.3 2.3-1 2.3-2.3c0-1.3-1.1-2.3-2.3-2.3z" fill="#636778"/><path d="m134.7 40.8h3.7v.5h-3.7z" fill="#636778"/><path d="m129.4 46.1 1.8-2.8.4.2-1.8 2.8z" fill="#636778"/><path d="m129.4 36.1.4-.2 1.8 2.8-.4.2z" fill="#636778"/></svg>