<svg enable-background="new 0 0 265 49.6" viewBox="0 0 265 49.6" xmlns="http://www.w3.org/2000/svg"><path d="m6 36.6h253c3.3 0 6 2.7 6 6v1c0 3.3-2.7 6-6 6h-253c-3.3 0-6-2.7-6-6v-1c0-3.3 2.7-6 6-6z" fill="#e5f2ff"/><g fill="#8590a6"><path d="m141.7 43.6h-5.2c-.3 0-.5-.2-.5-.5s.2-.5.5-.5h5.2c.3 0 .5.2.5.5s-.2.5-.5.5zm-10.4 0h-5.2c-.3 0-.5-.2-.5-.5s.2-.5.5-.5h5.2c.3 0 .5.2.5.5s-.2.5-.5.5zm-10.4 0h-5.2c-.3 0-.5-.2-.5-.5s.2-.5.5-.5h5.2c.3 0 .5.2.5.4v.1c0 .3-.2.5-.5.5zm-10.5 0h-5.2c-.3 0-.5-.2-.5-.5s.2-.5.5-.5h5.2c.3 0 .5.2.5.5s-.2.5-.5.5zm-10.4 0h-5.2c-.3 0-.5-.2-.5-.5s.2-.5.5-.5h5.2c.3 0 .5.2.5.5s-.2.5-.5.5z"/><path d="m172.9 43.6h-5.2c-.3 0-.5-.2-.5-.5s.2-.5.5-.5h5.2c.3 0 .5.2.5.4v.1c0 .3-.2.5-.5.5z"/><path d="m162.4 43.6h-5.2c-.3 0-.5-.2-.5-.5s.2-.5.5-.5h5.2c.3 0 .5.2.5.5s-.2.5-.5.5z"/><path d="m152 43.6h-5.2c-.3 0-.5-.2-.5-.5s.2-.5.5-.5h5.2c.3 0 .5.2.5.5s-.2.5-.5.5z"/></g><path d="m0 16.4h1v26.9h-1z" fill="#636778"/><path d="m6 36.6h78c3.3 0 6 2.7 6 6v1c0 3.3-2.7 6-6 6h-78c-3.3 0-6-2.7-6-6v-1c0-3.3 2.7-6 6-6z" fill="#08f"/><path d="m80.4 43.3h-73.3c-.3 0-.5-.2-.5-.5s.2-.5.5-.5h73.3c.3 0 .5.2.5.5s-.2.5-.5.5z" fill="#fff"/><path d="m3 16.9h172v1h-172z" fill="#636778"/><path d="m1.5 17.4 6 3.5v-7z" fill="#636778"/><path d="m178.5 16.4h1v20.2h-1z" fill="#636778"/><path d="m178 17.4-6-3.5v7z" fill="#636778"/><path d="m60.3 9.3c-.5 0-1.1-.1-1.6-.2-.4-.1-.8-.3-1.2-.5v-1.5h.1c.4.4.8.6 1.3.8.4.2.9.3 1.4.3s1-.1 1.5-.4c.3-.3.5-.7.5-1.1 0-.3-.1-.6-.3-.8s-.5-.4-.8-.5l-.7-.2-.8-.2c-.3-.1-.5-.2-.8-.3-.2-.1-.4-.3-.6-.5s-.3-.4-.4-.7-.2-.6-.2-.9c0-.7.3-1.3.8-1.8.6-.5 1.3-.7 2.1-.7.5 0 1 0 1.4.2.4.1.8.2 1.2.4v1.4h-.1c-.3-.3-.7-.5-1.1-.7s-.9-.3-1.4-.3-.9.1-1.3.4c-.3.2-.5.6-.5 1 0 .3.1.6.3.9.2.2.5.4.8.5l.9.2.9.2c.5.1 1 .4 1.3.8s.4.9.4 1.4c0 .3-.1.7-.2 1s-.3.6-.6.8c-.3.3-.6.5-1 .6-.4.3-.8.4-1.3.4z"/><path d="m67 9.3c-.4 0-.8-.1-1.2-.2s-.7-.3-1-.6-.5-.7-.6-1.1c-.2-.5-.2-1-.2-1.5s.1-1 .2-1.5c.1-.4.3-.8.6-1.1s.6-.5 1-.7c.3-.2.7-.2 1.1-.2.3 0 .7.1 1 .2l.9.3v1.2h-.1l-.3-.2c-.1-.1-.3-.2-.4-.3-.2-.1-.3-.2-.5-.2-.2-.1-.4-.1-.6-.1-.6 0-1.1.3-1.4.7-.3.5-.5 1.2-.4 1.8 0 .6.1 1.3.5 1.8.3.4.8.7 1.4.7.3 0 .7-.1 1-.2s.7-.3.9-.6h.1v1.2l-.4.2c-.1.1-.3.1-.4.2l-.5.1c-.2.1-.5.1-.7.1z"/><path d="m73.6 8.5-.4.3c-.1.1-.3.2-.4.3-.2.1-.4.2-.6.2-.3.1-.5.1-.8.1-.5 0-1-.2-1.4-.6-.2-.2-.3-.4-.4-.7-.3-.6-.2-1.4.1-2 .2-.3.5-.6.9-.8s.8-.3 1.3-.3c.5-.1 1.1-.1 1.6-.1v-.2c0-.2 0-.4-.1-.6s-.2-.3-.3-.4c-.2-.1-.3-.2-.5-.2h-.6c-.3 0-.6 0-.9.1s-.7.2-1 .3h-.1v-1.1c.3-.1.6-.2.9-.2.4-.1.7-.1 1.1-.1s.7 0 1.1.1c.3.1.6.2.8.4s.4.4.5.7.2.7.2 1v4.5h-1.1zm0-1v-1.8l-1 .1c-.3 0-.7.1-1 .2s-.5.2-.7.4c-.4.5-.4 1.1 0 1.6.3.2.6.3.9.3s.6-.1.9-.2.7-.3.9-.6z"/><path d="m77.4 9.1h-1.1v-9.1h1.1z"/><path d="m80.2 1.5h-1.2v-1.2h1.2zm0 7.6h-1.1v-6.6h1.1z"/><path d="m86.9 9.1h-1.1v-4.5c0-.2-.1-.4-.2-.6s-.2-.3-.4-.4-.5-.1-.7-.1c-.3 0-.6.1-.8.2-.3.1-.6.3-.8.6v4.9h-1.1v-6.5h1.1v.7c.3-.3.6-.5 1-.7.3-.2.7-.2 1-.2.6 0 1.1.2 1.5.6.4.5.5 1.2.5 1.8z"/><path d="m88.7 10.2.3.1.5.2.6.1h.6c.3 0 .6 0 .9-.1.2-.1.4-.2.6-.4l.3-.6c.1-.2.1-.5.1-.7v-.6l-.9.6c-.4.1-.7.2-1.1.2-.7 0-1.3-.3-1.8-.8-.5-.7-.7-1.5-.7-2.4 0-.5.1-.9.2-1.4.1-.4.3-.8.6-1.1.2-.3.5-.6.9-.7.3-.1.7-.2 1-.2s.6 0 .9.1.5.2.8.3l.1-.3h1v5.8c.1.9-.2 1.7-.7 2.4-.6.6-1.4.8-2.2.8-.3 0-.7 0-1-.1-.3 0-.6-.1-.9-.2v-1.1zm3.7-2.8v-3.6c-.3-.1-.5-.2-.8-.3-.2-.1-.5-.1-.7-.1-.5 0-1 .2-1.3.6-.4.5-.6 1.2-.5 1.8 0 .6.1 1.2.4 1.7.3.4.7.6 1.2.6.3 0 .6-.1.9-.2s.5-.3.8-.5z"/><path d="m104 9.1h-5.1v-8.7h1.2v7.7h3.9z"/><path d="m106 1.5h-1.2v-1.2h1.2zm-.1 7.6h-1.1v-6.6h1.1z"/><path d="m115 9.1v-4.6c0-.2-.1-.4-.2-.6-.1-.1-.2-.3-.3-.3-.2-.1-.4-.1-.6-.1s-.5.1-.7.2c-.3.2-.6.4-.8.6v4.8h-1.1v-4.6c0-.2-.1-.4-.2-.6-.1-.1-.2-.3-.3-.3-.2-.1-.4-.1-.6-.1-.3 0-.5.1-.8.2-.3.2-.5.4-.8.6v4.9h-1.1v-6.6h1.1v.7c.3-.3.6-.5.9-.7s.6-.2.9-.2c.4 0 .7.1 1 .3s.6.5.7.9c.3-.3.6-.6 1-.8.3-.2.6-.3 1-.3.3 0 .5 0 .8.1.2.1.4.2.6.4s.3.4.4.7c.1.4.2.7.1 1.1v4.3z"/><path d="m118.8 1.5h-1.2v-1.2h1.2zm0 7.6h-1.1v-6.6h1.1z"/><path d="m122.4 9.3c-.5 0-1-.2-1.4-.5-.4-.4-.6-1-.5-1.6v-3.6h-.7v-.9h.7v-1.9h1.1v1.9h2v.9h-2v3.9c0 .2.1.3.1.5l.3.3c.2.1.4.1.6.1s.4 0 .5-.1l.4-.1h.1v1c-.2.1-.4.1-.6.1z"/><path d="m83.9 49.6c-.2 0-.3-.1-.4-.2l-3.5-6.1c-.1-.1-.1-.3 0-.4l3.5-6.1c.1-.1.2-.2.4-.2h7c.2 0 .3.1.4.2l3.4 6.1c.1.1.1.3 0 .4l-3.4 6.1c-.1.1-.2.2-.4.2z" fill="#fff"/><g fill="#636778"><path d="m90.5 48.6h-6.3l-3.1-5.5 3.1-5.5h6.3l3.1 5.5zm-6-.5h5.7l2.9-5-2.9-5h-5.8l-2.9 5z"/><path d="m87.4 45.9c-1.5 0-2.8-1.2-2.8-2.8s1.2-2.8 2.8-2.8c1.5 0 2.8 1.2 2.8 2.8-.1 1.5-1.3 2.8-2.8 2.8zm0-5.1c-1.3 0-2.3 1-2.3 2.3s1 2.3 2.3 2.3 2.3-1 2.3-2.3c-.1-1.3-1.1-2.3-2.3-2.3z"/><path d="m89.7 42.7h3.7v.5h-3.7z"/><path d="m84.4 48 1.8-2.8.5.2-1.9 2.8z"/><path d="m84.4 38 .4-.2 1.9 2.7-.5.3z"/></g><path d="m176.1 48.4c-.1 0-.2-.1-.3-.2l-2.9-5c-.1-.1-.1-.3 0-.4l2.9-4.9c0-.1.2-.2.3-.2h5.7c.1 0 .3.1.3.2l2.9 5c.1.1.1.3 0 .4l-2.9 4.9c-.1.1-.2.2-.3.2z" fill="#fff" opacity=".1"/><path d="m186.3 42.9-3.5-6.1c-.1-.1-.2-.2-.4-.2h-6.9c-.2 0-.3.1-.4.2l-3.5 6.1c-.1.1-.1.3 0 .4l3.4 6.1c.1.1.3.2.4.2h6.9c.2 0 .3-.1.4-.2l3.4-6.1c.3-.1.3-.3.2-.4zm-4.3 5.4h-6.1l-3-5.2 3.1-5.3h6l3 5.2z" fill="#fff"/><g fill="#636778"><path d="m182.1 48.6h-6.3l-3.1-5.5 3.1-5.5h6.3l3.1 5.5zm-6-.5h5.7l2.9-5-2.9-5h-5.8l-2.9 5z"/><path d="m179 45.9c-1.5 0-2.8-1.2-2.8-2.8s1.2-2.8 2.8-2.8c1.5 0 2.8 1.2 2.8 2.8 0 1.5-1.3 2.8-2.8 2.8zm0-5.1c-1.3 0-2.3 1-2.3 2.3s1 2.3 2.3 2.3 2.3-1 2.3-2.3-1-2.3-2.3-2.3z"/><path d="m181.3 42.7h3.7v.5h-3.7z"/><path d="m176 48 1.9-2.8.3.2-1.8 2.8z"/><path d="m176 38 .4-.2 1.8 2.7-.3.3z"/></g></svg>