<svg id="76556725-c5d8-46ba-9ffa-d67b66429325" data-name="Слой 1" xmlns="http://www.w3.org/2000/svg" width="49" height="49" viewBox="0 0 49 49"><title>5</title><path d="M22.88,8.5H26c.09.17.25.11.39.13A16,16,0,0,1,40.18,21.39a4.43,4.43,0,0,0,.32,1.49v3.38c-.24.2-.18.49-.22.75A16,16,0,0,1,27.67,40.16a5.39,5.39,0,0,0-1.55.34H22.75c-.22-.25-.54-.18-.81-.23A16,16,0,0,1,8.86,27.79a4.39,4.39,0,0,0-.36-1.54V22.88c.2-.12.13-.34.15-.51A16,16,0,0,1,21.45,8.81,4.06,4.06,0,0,0,22.88,8.5Zm13.37,11h.08l0,0-.06,0c.14-.23,0-.39-.12-.56a12.72,12.72,0,0,0-8.58-7c-.16,0-.33-.15-.55,0a19.76,19.76,0,0,1,2.4,3.38c.12.22.29.25.51.28a2.66,2.66,0,0,1,2.26,1.9c.06.19.08.41.34.47A23.41,23.41,0,0,1,36.25,19.5ZM24,37.37c.35,0,.68.06,1-.25a19.07,19.07,0,0,0,2.87-3.69.51.51,0,0,0,0-.66,2.27,2.27,0,0,1,0-2.84.54.54,0,0,0,0-.71,17.64,17.64,0,0,0-8.24-6.72.48.48,0,0,0-.64.14,2.23,2.23,0,0,1-2.83.54.52.52,0,0,0-.7.1,18.47,18.47,0,0,0-3.22,3.88.94.94,0,0,0-.11.82A12.91,12.91,0,0,0,24,37.37Zm-.11-25.74a13.52,13.52,0,0,0-3.4.63,12.86,12.86,0,0,0-7.74,6.91c-.21.44-.2.63.37.59a9.71,9.71,0,0,1,1.62.06.73.73,0,0,0,.7-.27A2.22,2.22,0,0,1,18.18,19a.94.94,0,0,0,.92,0,17.72,17.72,0,0,1,7.11-1.73c.71,0,1.24-.08,1.57-.83a.68.68,0,0,0,0-.76A18.62,18.62,0,0,0,24.87,12,1,1,0,0,0,23.92,11.63ZM37.38,24.56a14.28,14.28,0,0,0-.16-2.12,1,1,0,0,0-.5-.8,17.91,17.91,0,0,0-4.38-2.07c-.67-.21-1.13.2-1,.88a19.52,19.52,0,0,1,0,8.36.73.73,0,0,0,.18.77,2.19,2.19,0,0,1,.25,2.81,1.36,1.36,0,0,0-.2,1.47,3.48,3.48,0,0,1,.14.54c.16.67.16.67.68.26A12.83,12.83,0,0,0,37.38,24.56Zm-7.13.05a18,18,0,0,0-.42-3.84.67.67,0,0,0-.57-.62,2.37,2.37,0,0,1-1.49-1.06.69.69,0,0,0-.67-.34,17.59,17.59,0,0,0-7.25,1.6c-.14.06-.35.08-.35.3s.22.23.36.28a19,19,0,0,1,9.37,7.61c.09.13.14.33.36.29s.19-.26.23-.4A17,17,0,0,0,30.25,24.61Zm-18.59.5c.46-.56.83-1,1.2-1.45a16.75,16.75,0,0,1,1.82-1.8c.11-.09.23-.19.18-.36s-.15-.12-.25-.13a12.42,12.42,0,0,0-2.3,0,.37.37,0,0,0-.37.34A11.71,11.71,0,0,0,11.66,25.11ZM27.27,37a3,3,0,0,0,1.44-.32c2.12-.84,1.83-.36,1.31-2.6a1.08,1.08,0,0,0,0-.18c-.15-.35-.36-.34-.53,0A21.5,21.5,0,0,1,27.27,37Z" fill="#359adb"/><path d="M42,2a5,5,0,0,1,5,5V42a5,5,0,0,1-5,5H7a5,5,0,0,1-5-5V7A5,5,0,0,1,7,2H42m0-2H7A7,7,0,0,0,0,7V42a7,7,0,0,0,7,7H42a7,7,0,0,0,7-7V7a7,7,0,0,0-7-7Z" fill="#359adb"/></svg>