<svg id="526c36ce-2477-4c12-b47f-69dbe45f6915" data-name="Слой 1" xmlns="http://www.w3.org/2000/svg" width="49" height="49" viewBox="0 0 49 49"><title>4</title><path d="M42,2a5,5,0,0,1,5,5V42a5,5,0,0,1-5,5H7a5,5,0,0,1-5-5V7A5,5,0,0,1,7,2H42m0-2H7A7,7,0,0,0,0,7V42a7,7,0,0,0,7,7H42a7,7,0,0,0,7-7V7a7,7,0,0,0-7-7Z" fill="#9080cf"/><path d="M16.54,26.85V12.26a1.09,1.09,0,0,1,.32-.79,1,1,0,0,1,.77-.33h8.94q7.08,0,7.08,6.53t-7.08,6.53H21v2.64a1.1,1.1,0,0,1-1.1,1.1h-2.2a1.08,1.08,0,0,1-.79-.32A1.05,1.05,0,0,1,16.54,26.85Zm4.42-6h4.28a5.52,5.52,0,0,0,3-.66,2.83,2.83,0,0,0,1-2.55,2.83,2.83,0,0,0-1-2.55,5.52,5.52,0,0,0-3-.66H21Z" fill="#9080cf"/><path d="M3.53,38.63V34.38a.32.32,0,0,1,.09-.23.3.3,0,0,1,.23-.1H6.46q2.07,0,2.07,1.91T6.46,37.86H4.82v.77A.32.32,0,0,1,4.5,39H3.86a.32.32,0,0,1-.23-.09A.31.31,0,0,1,3.53,38.63ZM4.82,36.9H6.07a1.61,1.61,0,0,0,.87-.19,1.08,1.08,0,0,0,0-1.49A1.61,1.61,0,0,0,6.07,35H4.82Z" fill="#9080cf"/><path d="M9.15,38.64V34.38a.32.32,0,0,1,.1-.24.31.31,0,0,1,.23-.1h.64a.31.31,0,0,1,.23.1.32.32,0,0,1,.09.24V38h3a.31.31,0,0,1,.23.1.32.32,0,0,1,.09.23v.32a.31.31,0,0,1-.09.23.31.31,0,0,1-.23.09H9.48a.32.32,0,0,1-.23-.09A.3.3,0,0,1,9.15,38.64Z" fill="#9080cf"/><path d="M13.9,38.64l.86-3.25q.35-1.33,2.27-1.33h1.84a.27.27,0,0,1,.21.1.33.33,0,0,1,.08.22v4.27a.3.3,0,0,1-.1.22.32.32,0,0,1-.23.09h-.64a.31.31,0,0,1-.32-.32v-.86H15.45l-.23.86a.4.4,0,0,1-.16.23.42.42,0,0,1-.25.09h-.68a.24.24,0,0,1-.2-.09.22.22,0,0,1,0-.14A.46.46,0,0,1,13.9,38.64Zm1.81-1.84h2.16V35h-1a.91.91,0,0,0-.9.69Z" fill="#9080cf"/><path d="M19.72,34.7v-.32a.31.31,0,0,1,.32-.32h4.34a.31.31,0,0,1,.32.32v.32a.31.31,0,0,1-.09.23.32.32,0,0,1-.23.09H22.85v3.62a.3.3,0,0,1-.09.22.32.32,0,0,1-.23.09h-.65a.31.31,0,0,1-.23-.09.3.3,0,0,1-.09-.22V35H20a.32.32,0,0,1-.23-.09A.31.31,0,0,1,19.72,34.7Z" fill="#9080cf"/><path d="M25.26,38.64V34.38a.33.33,0,0,1,.33-.32h.64a.32.32,0,0,1,.33.32v4.26a.3.3,0,0,1-.1.23.32.32,0,0,1-.23.09h-.64a.32.32,0,0,1-.23-.09A.3.3,0,0,1,25.26,38.64Z" fill="#9080cf"/><path d="M27.52,38.63V34.38a.32.32,0,0,1,.09-.23.31.31,0,0,1,.23-.1h1a.45.45,0,0,1,.26.1.84.84,0,0,1,.22.23l2.08,3.18V34.37a.31.31,0,0,1,.09-.23.29.29,0,0,1,.22-.09h.56a.29.29,0,0,1,.22.09.32.32,0,0,1,.09.23v4.26a.31.31,0,0,1-.09.23.31.31,0,0,1-.22.09H31.17a.48.48,0,0,1-.27-.09.74.74,0,0,1-.22-.23L28.81,35.7v2.93a.31.31,0,0,1-.1.23.33.33,0,0,1-.24.09h-.62a.33.33,0,0,1-.24-.09A.3.3,0,0,1,27.52,38.63Z" fill="#9080cf"/><path d="M33.52,37V34.38a.32.32,0,0,1,.09-.23.31.31,0,0,1,.23-.1h.64a.31.31,0,0,1,.23.1.31.31,0,0,1,.09.23V37a1.09,1.09,0,0,0,.22.75.87.87,0,0,0,.68.25h.55a.87.87,0,0,0,.68-.25,1.09,1.09,0,0,0,.22-.75V34.38a.31.31,0,0,1,.09-.23.31.31,0,0,1,.23-.1h.64a.32.32,0,0,1,.24.1.31.31,0,0,1,.1.23V37a1.89,1.89,0,0,1-.55,1.45A2.27,2.27,0,0,1,36.3,39h-.62a2.27,2.27,0,0,1-1.61-.51A1.89,1.89,0,0,1,33.52,37Z" fill="#9080cf"/><path d="M39.36,38.63V34.38a.32.32,0,0,1,.09-.24.3.3,0,0,1,.23-.1h1.4a.4.4,0,0,1,.25.1.47.47,0,0,1,.16.23l1,2.92,1-2.92a.46.46,0,0,1,.16-.23.4.4,0,0,1,.25-.1h1.4a.3.3,0,0,1,.23.1.33.33,0,0,1,.09.24v4.24a.31.31,0,0,1-.1.23.32.32,0,0,1-.23.09h-.63a.32.32,0,0,1-.23-.09.31.31,0,0,1-.1-.23V35.29l-1.21,3.36a.49.49,0,0,1-.17.22.41.41,0,0,1-.25.09h-.49a.4.4,0,0,1-.25-.09.52.52,0,0,1-.17-.22l-1.2-3.36v3.34a.32.32,0,0,1-.1.23.32.32,0,0,1-.23.09h-.63a.32.32,0,0,1-.23-.09A.31.31,0,0,1,39.36,38.63Z" fill="#9080cf"/></svg>