<svg id="1e369378-2512-4e07-b25b-10113db1d13a" data-name="Слой 1" xmlns="http://www.w3.org/2000/svg" width="49" height="49" viewBox="0 0 49 49"><title>14</title><path d="M42,2a5,5,0,0,1,5,5V42a5,5,0,0,1-5,5H7a5,5,0,0,1-5-5V7A5,5,0,0,1,7,2H42m0-2H7A7,7,0,0,0,0,7V42a7,7,0,0,0,7,7H42a7,7,0,0,0,7-7V7a7,7,0,0,0-7-7Z" fill="#0092ff"/><path d="M35.85,19.86h-.06a.55.55,0,0,1-.52-.37,5.23,5.23,0,0,0-5-3.51h-.16a.56.56,0,0,1-.56-.35,7.2,7.2,0,0,0-13.45,0,.55.55,0,0,1-.57.36l-.45,0A6.09,6.09,0,0,0,13.8,28V22a.62.62,0,0,1,.62-.62H34.58a.62.62,0,0,1,.62.62v6.17h.65a4.15,4.15,0,0,0,0-8.3Z" fill="#0092ff"/><path id="88c2ac3a-75bc-44ac-a05a-0ff3ad8f1774" data-name="Shape" d="M14.91,31.91a.55.55,0,0,0,.55.55H33.54a.55.55,0,0,0,.55-.55V28.59a.55.55,0,0,0-.55-.55H15.46a.55.55,0,0,0-.55.55Zm4.43-2.21H32.43a.55.55,0,0,1,0,1.11H19.34a.55.55,0,0,1,0-1.11Zm-2.77,0h.55a.55.55,0,0,1,0,1.11h-.55a.55.55,0,0,1,0-1.11Z" fill="#0092ff"/><path id="2bd7ddee-559a-4956-b4af-4deb9aaeeacf" data-name="Shape" d="M14.91,37.45a.55.55,0,0,0,.55.55H33.54a.55.55,0,0,0,.55-.55V34.12a.55.55,0,0,0-.55-.55H15.46a.55.55,0,0,0-.55.55Zm4.43-2.21H32.43a.55.55,0,0,1,0,1.11H19.34a.55.55,0,0,1,0-1.11Zm-2.77,0h.55a.55.55,0,0,1,0,1.11h-.55a.55.55,0,0,1,0-1.11Z" fill="#0092ff"/><path id="37ae239b-948d-4e1d-85bc-ba78a02b45eb" data-name="Shape" d="M15.46,26.93H33.54a.55.55,0,0,0,.55-.55V23.05a.55.55,0,0,0-.55-.55H15.46a.55.55,0,0,0-.55.55v3.32A.55.55,0,0,0,15.46,26.93Zm3.87-2.77H32.43a.55.55,0,0,1,0,1.11H19.34a.55.55,0,0,1,0-1.11Zm-2.77,0h.55a.55.55,0,0,1,0,1.11h-.55a.55.55,0,0,1,0-1.11Z" fill="#0092ff"/></svg>