<svg id="8a1f4a71-1879-46ae-addd-b4c8c32ae812" data-name="Слой 1" xmlns="http://www.w3.org/2000/svg" width="49" height="49" viewBox="0 0 49 49"><title>1</title><path d="M42,2a5,5,0,0,1,5,5V42a5,5,0,0,1-5,5H7a5,5,0,0,1-5-5V7A5,5,0,0,1,7,2H42m0-2H7A7,7,0,0,0,0,7V42a7,7,0,0,0,7,7H42a7,7,0,0,0,7-7V7a7,7,0,0,0-7-7Z" fill="#00acff"/><path d="M36.32,31.13a3.69,3.69,0,0,0-3.57,2.77H32a.71.71,0,0,1-.71-.71V28.76h2.8a5.87,5.87,0,1,0-.87-11.68,9.13,9.13,0,0,0-17.52,0,5.87,5.87,0,1,0-.87,11.68h2.8v4.43a.71.71,0,0,1-.71.71h-.72a3.68,3.68,0,1,0,0,1.83H17a2.54,2.54,0,0,0,2.54-2.54V28.76h4.08v2.49a3.68,3.68,0,1,0,1.83,0V28.76H29.5v4.43A2.54,2.54,0,0,0,32,35.73h.72a3.68,3.68,0,1,0,3.57-4.59ZM12.68,36.67a1.85,1.85,0,1,1,1.85-1.85A1.86,1.86,0,0,1,12.68,36.67Zm13.67-1.85A1.85,1.85,0,1,1,24.5,33,1.86,1.86,0,0,1,26.35,34.81ZM10.83,22.88A4,4,0,0,1,16.13,19a.91.91,0,0,0,1.18-.71,7.3,7.3,0,0,1,14.37,0,.91.91,0,0,0,1.18.71,4,4,0,1,1,1.26,7.89H14.87A4.05,4.05,0,0,1,10.83,22.88ZM36.32,36.67a1.85,1.85,0,1,1,1.85-1.85A1.86,1.86,0,0,1,36.32,36.67Z" fill="#00acff"/></svg>