<svg id="af4ae5b0-0f36-4387-81a2-92cf68e37003" data-name="Слой 1" xmlns="http://www.w3.org/2000/svg" width="49" height="49" viewBox="0 0 49 49"><title>7</title><path d="M42,2a5,5,0,0,1,5,5V42a5,5,0,0,1-5,5H7a5,5,0,0,1-5-5V7A5,5,0,0,1,7,2H42m0-2H7A7,7,0,0,0,0,7V42a7,7,0,0,0,7,7H42a7,7,0,0,0,7-7V7a7,7,0,0,0-7-7Z" fill="#326ce5"/><path d="M22.86,22.26a.59.59,0,0,0,.62-.56l.2-3.47q-.34,0-.68.11a6.83,6.83,0,0,0-3.29,1.79l2.85,2A.59.59,0,0,0,22.86,22.26Z" fill="#326ce5"/><path d="M21.34,24.59a.59.59,0,0,0-.09-.82l-2.6-2.33h0a6.83,6.83,0,0,0-1,4.32l3.34-1A.59.59,0,0,0,21.34,24.59Z" fill="#326ce5"/><path d="M25.67,22a.59.59,0,0,0,.82.13l2.81-2a6.88,6.88,0,0,0-4-1.91l.23,3.47A.59.59,0,0,0,25.67,22Z" fill="#326ce5"/><polygon points="23.54 25.83 24.5 26.29 25.45 25.83 25.69 24.8 25.03 23.97 23.96 23.97 23.3 24.8 23.54 25.83" fill="#326ce5"/><path d="M21.59,26.8h-.15L18,27.37a6.86,6.86,0,0,0,2.75,3.44l1.33-3.2a.59.59,0,0,0-.51-.81Z" fill="#326ce5"/><path d="M27.38,26.8h0a.59.59,0,0,0-.51.82l1.34,3.23A6.83,6.83,0,0,0,31,27.38l-3.45-.58Z" fill="#326ce5"/><path d="M30.33,21.44l-2.57,2.32a.59.59,0,0,0,.23,1l3.35,1a7,7,0,0,0-1-4.31Z" fill="#326ce5"/><path d="M24.48,28.21h0a.59.59,0,0,0-.53.32l-1.68,3a6.85,6.85,0,0,0,3.74.19,7,7,0,0,0,.67-.19l-1.69-3A.59.59,0,0,0,24.48,28.21Z" fill="#326ce5"/><path d="M40.37,27.85,37.63,16a2.1,2.1,0,0,0-1.15-1.42L25.41,9.25a2.22,2.22,0,0,0-1.83,0L12.51,14.54A2.1,2.1,0,0,0,11.36,16L8.63,27.85a2.09,2.09,0,0,0,.29,1.61l.12.17,7.68,9.52a2.12,2.12,0,0,0,1.65.79H30.66a2.12,2.12,0,0,0,1.65-.79L40,29.62A2.09,2.09,0,0,0,40.37,27.85Zm-4.25-.1a.66.66,0,0,1-.83.44l-.17,0a5.55,5.55,0,0,1-.6-.23,6.19,6.19,0,0,0-1.16-.34.51.51,0,0,0-.37.14l-.28-.05a8.62,8.62,0,0,1-3.82,4.81,2.28,2.28,0,0,0,.11.27.51.51,0,0,0-.05.39,6.17,6.17,0,0,0,.59,1,5.52,5.52,0,0,1,.35.51l.09.18a.67.67,0,1,1-1.2.57l-.08-.17a5.54,5.54,0,0,1-.19-.61,6.17,6.17,0,0,0-.45-1.12.51.51,0,0,0-.34-.21l-.14-.26a8.57,8.57,0,0,1-6.12,0l-.15.27a.51.51,0,0,0-.29.14,4.63,4.63,0,0,0-.51,1.19,5.53,5.53,0,0,1-.19.61l-.1.14,0,.06A.66.66,0,0,1,19,34.86l.09-.18a5.54,5.54,0,0,1,.35-.51,6.48,6.48,0,0,0,.6-1.08.66.66,0,0,0-.06-.38l.12-.29a8.62,8.62,0,0,1-3.82-4.77L16,27.7a.73.73,0,0,0-.38-.13,6.17,6.17,0,0,0-1.15.35,5.54,5.54,0,0,1-.6.23l-.17,0-.09,0a.66.66,0,1,1-.2-1.31l.17,0a5.55,5.55,0,0,1,.64-.05,6.17,6.17,0,0,0,1.19-.2.92.92,0,0,0,.28-.29l.28-.08a8.57,8.57,0,0,1,1.35-6l-.21-.19a.73.73,0,0,0-.13-.38A6.17,6.17,0,0,0,16,19a5.53,5.53,0,0,1-.55-.32l-.14-.11a.7.7,0,0,1-.16-1,.64.64,0,0,1,.51-.23.79.79,0,0,1,.46.17l.15.12a5.52,5.52,0,0,1,.44.46,6.17,6.17,0,0,0,.9.81.51.51,0,0,0,.4,0l.24.17a8.52,8.52,0,0,1,4.32-2.48,8.62,8.62,0,0,1,1.2-.19v-.28a.72.72,0,0,0,.22-.34,6.17,6.17,0,0,0-.07-1.2,5.53,5.53,0,0,1-.09-.63v-.17a.7.7,0,0,1,.66-.73h0a.7.7,0,0,1,.66.73V14a5.53,5.53,0,0,1-.09.63,6.2,6.2,0,0,0-.08,1.2.51.51,0,0,0,.22.33v.3a8.68,8.68,0,0,1,5.5,2.66L31,19a.74.74,0,0,0,.4,0,6.2,6.2,0,0,0,.89-.81,5.55,5.55,0,0,1,.44-.46l.15-.12a.67.67,0,1,1,.83,1l-.14.12A5.54,5.54,0,0,1,33,19a6.17,6.17,0,0,0-1,.69.51.51,0,0,0-.12.38l-.24.21a8.61,8.61,0,0,1,1.39,6l.27.08a.75.75,0,0,0,.29.29,6.17,6.17,0,0,0,1.19.2,5.55,5.55,0,0,1,.64.05l.19,0,.09,0A.66.66,0,0,1,36.12,27.75Z" fill="#326ce5"/></svg>