<svg id="0346cb35-0ba6-42e6-a65d-4dcbafaf4a47" data-name="Слой 1" xmlns="http://www.w3.org/2000/svg" width="49" height="49" viewBox="0 0 49 49"><title>9</title><path d="M25,15.65a1.39,1.39,0,1,0-.93,0l-.84,2.45h2.62Z" fill="#50ba8a"/><path d="M42,2a5,5,0,0,1,5,5V42a5,5,0,0,1-5,5H7a5,5,0,0,1-5-5V7A5,5,0,0,1,7,2H42m0-2H7A7,7,0,0,0,0,7V42a7,7,0,0,0,7,7H42a7,7,0,0,0,7-7V7a7,7,0,0,0-7-7Z" fill="#50ba8a"/><path d="M5.21,26.32a.41.41,0,0,1,0-.18.4.4,0,0,1,.11-.27.57.57,0,0,1,.45-.21H7.45a1,1,0,0,1,.94.75l3,6.79,3-6.79a1,1,0,0,1,.94-.75h1.72a.55.55,0,0,1,.45.21.4.4,0,0,1,.11.27.48.48,0,0,1,0,.18l-4.54,9.83A1.2,1.2,0,0,1,12,37H10.87a1.2,1.2,0,0,1-1.13-.8Z" fill="#50ba8a"/><path d="M19,36.21V26.41a.73.73,0,0,1,.21-.53.7.7,0,0,1,.52-.22h6q4.76,0,4.76,4.39t-4.76,4.39H22v1.77a.74.74,0,0,1-.74.74H19.75a.73.73,0,0,1-.53-.22A.71.71,0,0,1,19,36.21Zm3-4h2.88a3.71,3.71,0,0,0,2-.44A1.9,1.9,0,0,0,27.54,30a1.9,1.9,0,0,0-.68-1.72,3.71,3.71,0,0,0-2-.45H22Z" fill="#50ba8a"/><path d="M32.76,35.62a5.72,5.72,0,0,1-1.46-4.31A5.69,5.69,0,0,1,32.77,27a6.2,6.2,0,0,1,4.42-1.4H39a5.58,5.58,0,0,1,3.19.93,2.91,2.91,0,0,1,1.39,2.54.76.76,0,0,1-.29.67,1,1,0,0,1-.55.2h-1a1.28,1.28,0,0,1-1.16-.87,2,2,0,0,0-1.94-1.24h-1.4a3,3,0,0,0-2.34.74,4.45,4.45,0,0,0-.61,2.74A4.47,4.47,0,0,0,34.89,34a2.94,2.94,0,0,0,2.34.74h1.57a2,2,0,0,0,1.93-1.24,1.25,1.25,0,0,1,1.13-.87h.94a.89.89,0,0,1,.3.06.8.8,0,0,1,.33.27.84.84,0,0,1,.17.54,2.91,2.91,0,0,1-1.37,2.55,5.5,5.5,0,0,1-3.16.93H37.15A6.12,6.12,0,0,1,32.76,35.62Z" fill="#50ba8a"/><path d="M19.65,22.1a4.54,4.54,0,0,1-1.45-8.84,6.31,6.31,0,0,1,12.33,0A4.54,4.54,0,0,1,29.1,22.1Zm4.72-11.8a4.3,4.3,0,0,0-4.29,3.87l-.08.76-.75.13a2.54,2.54,0,0,0,.4,5h9.43a2.54,2.54,0,0,0,.4-5l-.75-.13-.08-.76A4.3,4.3,0,0,0,24.37,10.3Z" fill="#50ba8a"/></svg>