<svg id="472a569b-2488-4713-ad4d-6e8fdbb7fb6a" data-name="Слой 1" xmlns="http://www.w3.org/2000/svg" width="49" height="49" viewBox="0 0 49 49"><title>10</title><path d="M42,2a5,5,0,0,1,5,5V42a5,5,0,0,1-5,5H7a5,5,0,0,1-5-5V7A5,5,0,0,1,7,2H42m0-2H7A7,7,0,0,0,0,7V42a7,7,0,0,0,7,7H42a7,7,0,0,0,7-7V7a7,7,0,0,0-7-7Z" fill="#00749a"/><path d="M11.63,24.5a12.87,12.87,0,0,0,7.25,11.58L12.75,19.26A12.82,12.82,0,0,0,11.63,24.5Z" fill="#00749a"/><path d="M33.19,23.85a6.76,6.76,0,0,0-1.06-3.55,6,6,0,0,1-1.27-3A2.23,2.23,0,0,1,33,15h.17a12.87,12.87,0,0,0-19.44,2.42h.83c1.34,0,3.43-.16,3.43-.16a.53.53,0,0,1,.08,1.06s-.7.08-1.47.12L21.3,32.41,24.12,24l-2-5.49c-.69,0-1.35-.12-1.35-.12a.53.53,0,0,1,.08-1.06s2.12.16,3.39.16,3.43-.16,3.43-.16a.53.53,0,0,1,.08,1.06s-.7.08-1.47.12L30.92,32.3,32.21,28A15.54,15.54,0,0,0,33.19,23.85Z" fill="#00749a"/><path d="M24.73,25.63,20.87,36.84a12.87,12.87,0,0,0,7.91-.21,1.06,1.06,0,0,1-.09-.18Z" fill="#00749a"/><path d="M35.79,18.33a9.89,9.89,0,0,1,.09,1.32,12.13,12.13,0,0,1-1,4.61L31,35.62a12.87,12.87,0,0,0,4.82-17.29Z" fill="#00749a"/><path d="M24.5,9.5a15,15,0,1,0,15,15A15,15,0,0,0,24.5,9.5Zm0,29.31A14.31,14.31,0,1,1,38.81,24.5,14.33,14.33,0,0,1,24.5,38.81Z" fill="#00749a"/></svg>