<svg id="0aba3da1-1b43-4d29-b5c9-3e31076669f0" data-name="Слой 1" xmlns="http://www.w3.org/2000/svg" width="49" height="49" viewBox="0 0 49 49"><title>3</title><path d="M42,2a5,5,0,0,1,5,5V42a5,5,0,0,1-5,5H7a5,5,0,0,1-5-5V7A5,5,0,0,1,7,2H42m0-2H7A7,7,0,0,0,0,7V42a7,7,0,0,0,7,7H42a7,7,0,0,0,7-7V7a7,7,0,0,0-7-7Z" fill="#039bc6"/><g id="470d3422-e31c-438e-8191-4500ab53eb7c" data-name="SVGID"><path d="M14.73,32.42a2,2,0,0,1-2-1.86,2,2,0,0,1,3.91,0A2,2,0,0,1,14.73,32.42Zm24-10.15a5.55,5.55,0,0,0-2.33-3.63L36,18.26l-.37.47a5,5,0,0,0-.09,5.77c-.37.19-.84.37-1.21.56a7.89,7.89,0,0,1-2.51.37H7.65L7.56,26a10.51,10.51,0,0,0,.84,5.31l.37.65V32c2.24,3.72,6.24,5.4,10.62,5.4,8.38,0,15.28-3.63,18.53-11.46,2.14.09,4.29-.47,5.31-2.51L43.5,23,43,22.73a5.67,5.67,0,0,0-4.28-.46Zm-12-1.49H23.11v3.63h3.63Zm0-4.56H23.11v3.63h3.63Zm0-4.66H23.11v3.63h3.63Zm4.47,9.22H27.58v3.63h3.63Zm-13.5,0H14.07v3.63h3.63Zm4.56,0H18.64v3.63h3.63Zm-9,0H9.6v3.63h3.63Zm9-4.56H18.64v3.63h3.63Zm-4.56,0H14.07v3.63h3.63Z" fill="#039bc6"/></g></svg>