<svg id="3895f821-7a61-4605-8a69-c2c6a4c9c947" data-name="Слой 1" xmlns="http://www.w3.org/2000/svg" viewBox="0 0 49 49"><title>LiteSpeed icon</title><path d="M42,2a5,5,0,0,1,5,5V42a5,5,0,0,1-5,5H7a5,5,0,0,1-5-5V7A5,5,0,0,1,7,2H42m0-2H7A7,7,0,0,0,0,7V42a7,7,0,0,0,7,7H42a7,7,0,0,0,7-7V7a7,7,0,0,0-7-7Z" fill="#5e8cda"/><path d="M39.67,23.64,31,15a.19.19,0,0,0-.14-.06h0a.19.19,0,0,0-.14.07L27,19.68a.19.19,0,0,0,0,.25l4,4a.75.75,0,0,1,.22.54A.74.74,0,0,1,31,25l-1.15,1.15a.19.19,0,0,0,0,.24c.29.43.76,1.14.8,1.21a1.22,1.22,0,0,1-.23,1.35l-9.06,7a.19.19,0,0,0-.07.15c0,.77,0,1.81,0,2.86s0,2.13,0,2.93c0,.4,0,.74,0,1s0,.21,0,.27,0,.21.11.27l.09,0c.08,0,.11,0,.19-.11l.15-.15.57-.57,2-2,6.21-6.21,9-9A1.15,1.15,0,0,0,39.67,23.64Z" fill="#5e8cda"/><path d="M28.15,5.09h0A.19.19,0,0,0,28,5h0a.19.19,0,0,0-.14.06L9.78,23.13a1.13,1.13,0,0,0,0,1.61l8.67,8.67a.19.19,0,0,0,.14.06h0a.19.19,0,0,0,.14-.07l3.7-4.69a.19.19,0,0,0,0-.25l-4-4a.75.75,0,0,1,0-1.06l1.15-1.16a.19.19,0,0,0,0-.25l-.79-1.13A1.05,1.05,0,0,1,19,19.44l9.06-7a.19.19,0,0,0,.08-.15V5.2A.19.19,0,0,0,28.15,5.09Z" fill="#093071"/><path d="M29.74,27.47,19.71,21l4.43,6.37a.51.51,0,0,1,0,.54L16.18,37.94c-.14.18-.26.38-.16.58a.4.4,0,0,0,.31.2.72.72,0,0,0,.44-.2l12.76-9.8A1.1,1.1,0,0,0,29.74,27.47Z" fill="#f2c913"/><path d="M33.43,9.85a.38.38,0,0,0-.33-.21.69.69,0,0,0-.42.19l-12.77,9.8a1,1,0,0,0-.2,1.32l10,6.52L25.31,21a.51.51,0,0,1,0-.53l7.94-10.08h0C33.4,10.25,33.53,10.06,33.43,9.85Z" fill="#f4d646"/></svg>