<svg id="aaa336bb-3803-4a0d-aff3-5ffcd9589c21" data-name="Слой 1" xmlns="http://www.w3.org/2000/svg" width="49" height="49" viewBox="0 0 49 49"><path d="M42,2a5,5,0,0,1,5,5V42a5,5,0,0,1-5,5H7a5,5,0,0,1-5-5V7A5,5,0,0,1,7,2H42m0-2H7A7,7,0,0,0,0,7V42a7,7,0,0,0,7,7H42a7,7,0,0,0,7-7V7a7,7,0,0,0-7-7Z" fill="#845af1"/><path d="M12.68,25.5a11.81,11.81,0,0,0,6.66,10.63L13.71,20.69A11.71,11.71,0,0,0,12.68,25.5Z" fill="#845af1"/><path d="M32.48,24.9a6.08,6.08,0,0,0-1-3.25,5.55,5.55,0,0,1-1.16-2.78,2,2,0,0,1,2-2.09h.15a11.81,11.81,0,0,0-16.69.73A11,11,0,0,0,14.63,19h.76c1.23,0,3.15-.15,3.15-.15a.49.49,0,0,1,.07,1s-.64.07-1.35.11l4.3,12.8L24.15,25l-1.84-5c-.64,0-1.24-.11-1.24-.11a.49.49,0,0,1,.07-1s1.95.15,3.12.15,3.14-.15,3.14-.15a.49.49,0,0,1,.08,1s-.64.07-1.35.11l4.27,12.7,1.18-3.94A14.2,14.2,0,0,0,32.48,24.9Z" fill="#845af1"/><path d="M24.71,26.53l-3.55,10.3a11.77,11.77,0,0,0,7.26-.19.8.8,0,0,1-.08-.16Z" fill="#845af1"/><path d="M34.87,19.83A9.87,9.87,0,0,1,35,21.05a11.24,11.24,0,0,1-.9,4.23L30.44,35.71a11.81,11.81,0,0,0,4.43-15.88Z" fill="#845af1"/><path d="M24.5,11.73A13.77,13.77,0,1,0,38.27,25.5,13.79,13.79,0,0,0,24.5,11.73Zm0,26.91A13.14,13.14,0,1,1,37.64,25.5,13.15,13.15,0,0,1,24.5,38.64Z" fill="#845af1"/><path d="M3.89,44l-.15,0,3-3.48-3-3.93.15,0c3.22.42,4.62.54,7.84-.4,0,2.47.59,5.32.59,7.79C9.1,44.91,7.11,44.4,3.89,44Z" fill="#ff8500"/><polygon points="9.36 42.64 12.32 43.96 12.32 42.64 9.36 42.64" fill="#ff8500"/><path d="M45.11,44l.15,0-3-3.48,3-3.93-.15,0c-3.22.42-4.62.54-7.84-.4,0,2.47-.59,5.32-.59,7.79C39.9,44.91,41.89,44.4,45.11,44Z" fill="#ff8500"/><polygon points="36.68 43.96 36.68 42.64 39.16 42.64 36.68 43.96" fill="#ff8500"/><rect x="9.4" y="35.33" width="29.73" height="7.31" fill="#ffa000"/><path d="M13.27,41.12a2,2,0,0,1-.71-.13A1.49,1.49,0,0,1,12,40.6a1.83,1.83,0,0,1-.37-.64,2.69,2.69,0,0,1-.13-.89,2.47,2.47,0,0,1,.13-.86,1.75,1.75,0,0,1,.36-.64,1.54,1.54,0,0,1,.57-.41,1.81,1.81,0,0,1,.72-.14,2.13,2.13,0,0,1,.37,0l.33.07.26.1.26.14V38h0l-.18-.15a2,2,0,0,0-.26-.18,2.33,2.33,0,0,0-.33-.14,1.73,1.73,0,0,0-.42-.05,1.1,1.1,0,0,0-.47.1,1.08,1.08,0,0,0-.4.31,1.36,1.36,0,0,0-.26.51,2.38,2.38,0,0,0-.09.68,2.07,2.07,0,0,0,.1.7,1.48,1.48,0,0,0,.26.5,1,1,0,0,0,.39.29,1.1,1.1,0,0,0,.47.1,1.45,1.45,0,0,0,.43,0,2.18,2.18,0,0,0,.34-.14,1.8,1.8,0,0,0,.25-.17l.17-.15h0v.63l-.24.11L14,41l-.33.09A1.87,1.87,0,0,1,13.27,41.12Z" fill="#fff"/><path d="M15,41.05v-4h2.47v.47H15.52v1.08h1.81v.47H15.52v1.47h1.94v.47Z" fill="#fff"/><path d="M21.1,41.05h-.68l-1.25-1.58h-.6v1.58H18v-4h1a4.22,4.22,0,0,1,.57,0,1.09,1.09,0,0,1,.44.17,1,1,0,0,1,.32.35.93.93,0,0,1,.13.52,1.19,1.19,0,0,1-.22.72,1.35,1.35,0,0,1-.6.44ZM20,38.21a.75.75,0,0,0-.06-.31.67.67,0,0,0-.19-.22,1,1,0,0,0-.26-.11,2,2,0,0,0-.37,0h-.52V39H19a2.59,2.59,0,0,0,.41,0,.69.69,0,0,0,.47-.43A1,1,0,0,0,20,38.21Z" fill="#fff"/><path d="M22.19,41.05V37.56H20.87v-.47h3.18v.47H22.72v3.49Z" fill="#fff"/><path d="M25.83,41.05H24.29v-.41h.51V37.5h-.51v-.41h1.54v.41h-.51v3.14h.51Z" fill="#fff"/><path d="M28.84,37.56H27v1.12h1.76v.46H27v1.91h-.53v-4h2.37Z" fill="#fff"/><path d="M30.69,41.05H29.16v-.41h.5V37.5h-.5v-.41h1.53v.41h-.5v3.14h.5Z" fill="#fff"/><path d="M31.34,41.05v-4h2.47v.47h-2v1.08h1.82v.47H31.86v1.47h2v.47Z" fill="#fff"/><path d="M37.5,39.07a2.24,2.24,0,0,1-.21,1,1.79,1.79,0,0,1-.59.68,1.75,1.75,0,0,1-.61.25,4.2,4.2,0,0,1-.79.07h-.91v-4h.9a3.31,3.31,0,0,1,.87.09,1.66,1.66,0,0,1,.54.23,1.6,1.6,0,0,1,.59.67A2.19,2.19,0,0,1,37.5,39.07Zm-.54,0a1.81,1.81,0,0,0-.15-.78,1.12,1.12,0,0,0-.45-.51,1.77,1.77,0,0,0-.45-.18,2.52,2.52,0,0,0-.6-.06h-.4v3.05h.4a2.88,2.88,0,0,0,.62-.05,1.46,1.46,0,0,0,.48-.21,1.15,1.15,0,0,0,.41-.49A2,2,0,0,0,37,39.07Z" fill="#fff"/><path d="M29.79,5.34a1.05,1.05,0,0,0-1.06,1,1.14,1.14,0,0,0,.05.33l-.85.55A1.33,1.33,0,0,1,26.19,7l-.84-1a1,1,0,0,0,.21-.62,1.06,1.06,0,0,0-2.12,0,1.08,1.08,0,0,0,.21.62l-.84,1a1.32,1.32,0,0,1-1.73.28l-.86-.55a1.14,1.14,0,0,0,.05-.33,1.06,1.06,0,0,0-2.11,0,1.06,1.06,0,0,0,1,1.06l.62,3.68a11.85,11.85,0,0,1,4.76-.79,12.12,12.12,0,0,1,4.77.79l.61-3.68a1.06,1.06,0,0,0-.09-2.11Z" fill="#ffa000"/></svg>