<svg id="de58cc34-9cb8-4d11-8ab3-aedfc6b2b4e7" data-name="Слой 1" xmlns="http://www.w3.org/2000/svg" width="49" height="49" viewBox="0 0 49 49"><title>6</title><path d="M42,2a5,5,0,0,1,5,5V42a5,5,0,0,1-5,5H7a5,5,0,0,1-5-5V7A5,5,0,0,1,7,2H42m0-2H7A7,7,0,0,0,0,7V42a7,7,0,0,0,7,7H42a7,7,0,0,0,7-7V7a7,7,0,0,0-7-7Z" fill="#ffa227"/><path d="M15.28,19.56q0-4.35,2.17-6.43T24,11.06h2.61a9,9,0,0,1,4.67,1.24,3.59,3.59,0,0,1,2.08,3.09,1.14,1.14,0,0,1-.41,1,1.36,1.36,0,0,1-.8.3H30.74a1.75,1.75,0,0,1-1.58-1.1q-.62-1.2-3-1.2H24.1q-2.57,0-3.48,1.1t-.91,4.09a7.22,7.22,0,0,0,.82,4,3.4,3.4,0,0,0,2.93,1.13h2.4a4.09,4.09,0,0,0,2.7-.71,2.62,2.62,0,0,0,.83-2H26.73a1.05,1.05,0,0,1-.78-.33,1.08,1.08,0,0,1-.32-.79V20a1.09,1.09,0,0,1,.32-.79,1.05,1.05,0,0,1,.78-.33h5.88a1.1,1.1,0,0,1,1.1,1.1v1.3a6.42,6.42,0,0,1-2,5.05A8.42,8.42,0,0,1,26,28H23.33a8,8,0,0,1-6-2.09Q15.28,23.86,15.28,19.56Z" fill="#ffa227"/><path d="M12,36.16A2.84,2.84,0,0,1,12.77,34a3,3,0,0,1,2.17-.69h.87a3,3,0,0,1,1.56.41,1.2,1.2,0,0,1,.69,1,.38.38,0,0,1-.14.33.45.45,0,0,1-.27.1h-.46a.58.58,0,0,1-.53-.37q-.21-.4-1-.4H15a1.46,1.46,0,0,0-1.16.37,2.22,2.22,0,0,0-.3,1.36,2.4,2.4,0,0,0,.27,1.35,1.13,1.13,0,0,0,1,.38h.8a1.36,1.36,0,0,0,.9-.24.87.87,0,0,0,.28-.67h-.88a.35.35,0,0,1-.26-.11.36.36,0,0,1-.11-.26v-.31A.36.36,0,0,1,15.6,36a.35.35,0,0,1,.26-.11h2a.37.37,0,0,1,.37.37v.43a2.14,2.14,0,0,1-.66,1.68A2.81,2.81,0,0,1,15.6,39h-.88a2.68,2.68,0,0,1-2-.7A2.91,2.91,0,0,1,12,36.16Z" fill="#ffa227"/><path d="M19.46,38.38a2.8,2.8,0,0,1-.8-2.22,2.8,2.8,0,0,1,.8-2.22,3.47,3.47,0,0,1,2.35-.7,3.46,3.46,0,0,1,2.34.7,2.81,2.81,0,0,1,.8,2.22,2.81,2.81,0,0,1-.8,2.22,3.46,3.46,0,0,1-2.34.7A3.47,3.47,0,0,1,19.46,38.38Zm1.07-3.62a2.66,2.66,0,0,0,0,2.79,1.59,1.59,0,0,0,1.28.47,1.58,1.58,0,0,0,1.28-.47,2.67,2.67,0,0,0,0-2.79,1.58,1.58,0,0,0-1.28-.47A1.58,1.58,0,0,0,20.53,34.76Z" fill="#ffa227"/><path d="M25.75,38.59V33.73a.36.36,0,0,1,.11-.27.36.36,0,0,1,.26-.11h.73a.35.35,0,0,1,.26.11.37.37,0,0,1,.11.27v4.12h3.4a.35.35,0,0,1,.26.11.36.36,0,0,1,.11.26v.37a.37.37,0,0,1-.37.37h-4.5a.37.37,0,0,1-.26-.1A.34.34,0,0,1,25.75,38.59Z" fill="#ffa227"/><path d="M31.63,38.59V33.73a.36.36,0,0,1,.11-.27.36.36,0,0,1,.26-.11h2.18a3.69,3.69,0,0,1,2.47.68,2.68,2.68,0,0,1,.77,2.13,2.68,2.68,0,0,1-.77,2.12,3.7,3.7,0,0,1-2.47.68H32a.37.37,0,0,1-.26-.1A.34.34,0,0,1,31.63,38.59Zm1.47-.75h1a2,2,0,0,0,1.43-.38,1.82,1.82,0,0,0,.38-1.31,1.84,1.84,0,0,0-.38-1.31,2,2,0,0,0-1.43-.38h-1Z" fill="#ffa227"/></svg>