<svg xmlns="http://www.w3.org/2000/svg" xmlns:xlink="http://www.w3.org/1999/xlink" height="375" width="750" version="1.0"><defs><linearGradient id="c"><stop offset="0" stop-color="#d5dfff"/><stop offset="1" stop-color="#fff"/></linearGradient><linearGradient id="a"><stop offset="0" stop-color="#474747"/><stop offset="1" stop-color="#f50"/></linearGradient><linearGradient id="b"><stop offset="0" stop-color="#b50000"/><stop offset="1" stop-color="#ffc500"/></linearGradient><linearGradient id="g" xlink:href="#a" gradientTransform="matrix(.74087 0 0 1.3286 40.513 .006)" x1="215.829" y1="102.987" x2="228.969" y2="102.987" gradientUnits="userSpaceOnUse"/><linearGradient id="d" x1="109.339" x2="110.939" xlink:href="#a" y1="218.473" y2="173.448" gradientTransform="matrix(1.51006 0 0 .65184 40.513 .006)" gradientUnits="userSpaceOnUse"/><linearGradient id="e" x1="125.913" x2="126.024" xlink:href="#b" y1="316.383" y2="337.232" gradientTransform="matrix(1.2315 0 0 .79928 40.513 .006)" gradientUnits="userSpaceOnUse"/><linearGradient id="h" x1="117.597" x2="78.221" xlink:href="#c" y1="1040.396" y2="1003.724" gradientTransform="matrix(2.56272 0 0 .38409 40.513 .006)" gradientUnits="userSpaceOnUse"/><linearGradient id="i" x1="264.717" x2="255.03" xlink:href="#c" y1="245.976" y2="226.378" gradientTransform="matrix(.88634 0 0 1.11054 40.513 .006)" gradientUnits="userSpaceOnUse"/><linearGradient id="f" x1="407.874" x2="456.404" xlink:href="#c" y1="149.375" y2="147.348" gradientTransform="matrix(.55904 0 0 1.76073 40.513 .006)" gradientUnits="userSpaceOnUse"/></defs><g font-size="12"><path fill="#00247d" d="M0 0h750v375H0z"/><path d="M0 0v20.963L333.074 187.5H375v-20.963L41.926 0H0zm375 0v20.963L41.926 187.5H0v-20.964L333.074 0H375z" fill="#fff"/><path d="M156.25 0v187.5h62.5V0h-62.5zM0 62.5V125h375V62.5H0z" fill="#fff"/><path d="M0 75v37.5h375V75H0zM168.75 0v187.5h37.5V0h-37.5zM0 187.5L125 125h27.95l-125 62.5H0zM0 0l125 62.5H97.05L0 13.975V0zm222.05 62.5l125-62.5H375L250 62.5h-27.95zM375 187.5L250 125h27.95L375 173.524V187.5z" fill="#cf142b"/></g><path d="M552.667 265.561s-2.078 5.491-3.265 5.491c-1.187 0-5.491-2.374-5.491-2.374s-3.117 5.046-4.749 5.342c-1.633.297-5.937-.742-5.937-.742s-4.154 0-4.303-.593c-.148-.594.149-1.781.149-1.781s-5.937 4.748-7.272 4.452c-1.335-.297-5.788-5.937-5.788-5.937l-.742 2.969-8.458-.297-7.42-4.749s-4.155 6.827-4.304 6.678c-.149-.149-7.272 1.632-7.272 1.632l-.445-1.335-4.749-2.82s3.71-5.194 3.71-5.342c0-.149-1.78-.742-1.78-.742l-2.672 2.226-5.49 3.561-5.491-2.522 2.374-4.453.297-3.264 4.304-6.53 52.682-51.198 25.97 47.933-3.858 14.395z" fill="#6a4c2d" fill-rule="evenodd" stroke="#000" stroke-width=".828"/><path d="M590.094 268.663l13.714-.492-5.838-2.883 52.251-1.97-7.383-2.812-6.54-8.862-27.076-2.039s-2.04-1.547-5.344-.773c-.141-2.11-2.673-4.853-2.673-4.853l-16.666-1.266-10.408 7.103 7.032 18.003 8.931.845z" fill="#fff" fill-rule="evenodd" stroke="#000" stroke-width=".828"/><path d="M121.319 150.758l2.224-7.562s3.891-6.56 3.891-9.452c0-2.891 2.892-6.338 2.892-6.338s8.896-2.558 10.786 2.891c9.563-14.456 20.794-.667 20.794-.667l3.114-3.67 6.338-7.784s9.007 8.451 9.119 9.897c.11 1.446 1.556.445 1.556.445l9.786-.778s4.644 3.635 3.67 10.563c3.448 2.034 6.56 14.012 6.56 14.012l-80.73-1.557z" fill="url(#d)" fill-rule="evenodd" stroke="#000" stroke-width="1pt" transform="matrix(.621 0 0 .621 461.4 21.482)"/><path d="M590.105 170.972c1.047-.644 4.35-1.691 3.946-6.524-.402-4.832-4.59-5.396-6.926-5.235-2.335.161-4.43 2.175-4.43 2.175l-7.731-4.914s3.865-24.403 7.973-25.934c3.9-2.81 4.59-4.026 4.59-4.671 0-.645-1.45-2.255-1.45-2.255l-25.209-2.98-23.84 2.819s-1.853 2.819-1.61 3.946c.241 1.128.321 2.336 4.59 5.638 4.723 3.633 7.974 24.484 7.974 24.484s-6.685 3.303-7.088 2.9c-.402-.403-2.415-.805-3.463-.644-1.047.161-4.51 1.933-4.51 6.523 0 4.591 3.463 7.25 3.463 7.25s22.793-2.659 26.176 3.624c3.302-7.571 24.968-4.913 27.545-6.202z" fill="#656263" fill-rule="evenodd" stroke="#000" stroke-width=".828"/><path d="M614.657 145.6s.252-2.649 2.144-3.91c1.892-1.261 14.506-1.892 17.533 0s4.163 11.227 4.163 11.227 1.892 3.28 2.018 5.676c.126 2.396.378 4.036.378 4.036s10.091 13.119 10.218 24.975c1.135 8.073.883 29.643-2.27 37.842-.127 10.216-4.416 16.902-4.416 16.902s1.01 1.766.884 3.658c-.127 1.892-1.136 3.658-1.136 3.658l14.758 7.316-5.424-2.018s5.55 4.667 5.424 4.54c-.126-.125-6.18-2.9-6.18-2.9l3.657 3.658c-.126-.127-8.955-4.037-8.955-4.037s4.162 3.91 3.91 3.784a2821.14 2821.14 0 00-6.685-3.154s4.036 4.289 3.91 4.037c-.126-.252-5.803-2.523-5.803-2.523l.253 2.145s-4.541-.252-4.541-3.659c-2.27-1.26-3.785-3.027-3.785-3.027l-10.468-1.765-11.858-35.445 2.775-59.916.757-3.027-1.261-8.072z" fill-rule="evenodd" stroke="#000" stroke-width=".776" stroke-linejoin="round" stroke-opacity=".979"/><path d="M606.733 337.077s-6.073-12.78-9.101-12.958c-2.733-5.208 9.496-47.794 33.15-50.221 13.004 1.071 1.069 14.992-7.482 10.708 1.068 3.748 5.344 9.102 5.344 9.102s-16.923 7.317-21.91 43.37z" font-size="12" fill="#fb0" fill-rule="evenodd" stroke="#000" stroke-width=".822"/><path d="M525.31 338.935s5.026-14.542 8.078-14.721c3.052-.18-8.078-48.471-32.314-48.83-13.105 1.077-1.077 15.08 7.54 10.771-1.077 3.77-5.385 9.156-5.385 9.156s17.054 7.36 22.08 43.624z" fill="#fb0" fill-rule="evenodd" stroke="#000" stroke-width=".828"/><path d="M547.538 248.105c-.059-.116-6.015 1.869-2.16 8.352.291-2.512 2.978-4.03 2.978-4.03s-4.089 4.847.233 8.935c.525-3.854 2.978-5.08 2.978-5.08s-3.036 8.934.059 10.745c.35-3.563 2.628-5.14 2.628-5.14s-2.745 8.001-.292 9.811c.292-3.036 2.335-4.38 2.335-4.38s-1.226 8.293 1.986 8.877c.059-2.92 2.394-5.781 2.394-5.781s-1.05 6.774 3.972 7.066c.058-2.57.993-5.49.993-5.49s2.277 7.183 5.605 6.015c-.057-2.102.059-6.073 0-6.073s2.103 6.833 6.074 5.548c-.584-1.927.234-4.205.234-4.205s2.102 4.263 5.898 2.862c.642-1.285-.176-3.796-.176-3.796s5.548 5.723 7.242 2.277c1.694-3.445-4.438-4.613-4.438-4.613h4.146s-1.343-3.504-6.95-4.263c1.928-.876 3.913-.234 3.913-.234s-1.168-4.38-6.89-4.847c2.219-.76 4.672-.234 4.672-.234s-.76-4.146-7.067-5.314c.993-1.11 3.679-.76 3.679-.76s-2.51-3.911-5.372-3.678c-2.862.234-28.733-2.628-28.674-2.57z" fill="#00713d" fill-rule="evenodd" stroke="#000" stroke-width=".828"/><g fill="none" stroke="#3ec26d" stroke-width=".776" stroke-linecap="round"><path d="M573.058 269.187s2.277 1.11 2.22 2.103m-.876-3.913s2.92 2.044 2.861 3.562m-.292-4.613s2.336 1.46 2.453 3.737m1.46-2.803s1.168 2.511.758 2.978m1.578-1.635c.175 1.986-.176 2.16-.176 2.16"/><path d="M554.429 256.047s2.745 1.752 2.511 4.205m-2.686-2.102s1.285 1.226.993 2.044m2.394-4.088s1.81 2.511 1.226 4.263m1.869-2.628s.818 1.577.058 2.453m1.402-1.694s.993 1.577.116 2.102m-1.225 3.095s2.569.585 2.92 2.512m-1.402-4.263s2.686.175 2.978 3.036m.584-4.029c.058 0 1.81 3.095 1.518 4.088m1.927-3.796s.701 2.978.175 3.912m2.045-2.744l.058 3.446m-3.445-8.118s1.693.643 1.577 2.278m0-3.797s2.16 1.227 1.927 3.563m.583-4.555s1.87 2.219 1.168 4.672m2.103-4.147s-.701 2.745-.41 3.855m2.395-1.986s-1.226.935-.584 2.103m-10.044 8.584s.409 2.103 0 2.453m-2.686-3.679s1.343 2.336.875 3.504m-3.737-3.62s1.518 1.751 1.46 3.153m-3.796-2.803s1.401 1.343 1.285 2.102m-2.512-.059s1.344 1.402 1.285 1.694" font-size="12"/></g><path d="M529.004 173.49l19.315-.345s12.762 0 14.142 4.14c2.414-5.52 13.451-5.174 13.451-5.174l20.005-.69.346 48.288c-3.91 18.74-17.477 31.962-32.423 37.596-17.82-5.75-29.088-20.81-32.767-37.941l-2.07-45.874z" fill="#fff" fill-rule="evenodd" stroke="#000" stroke-width=".828"/><path d="M535.885 173.309l28.136 74.978 25.417-76.612c-7.884.509-24.802-1.24-26.903 5.954-3.252-6.44-21.049-3.844-26.65-4.32z" fill="#006b00" fill-rule="evenodd" stroke="#000" stroke-width=".828"/><path d="M555.037 213.905c1.082.566 1.052-20.349 2.473-20.998.406-1.732.61-2.49 1.117-4.33-1.218-2.165-6.7-2.056-8.73-.216.913 2.922 1.319 3.897 1.319 3.897 2.742 4.437 2.197 22.119 3.82 21.647z" font-size="12" fill="#ffc900" fill-rule="evenodd" stroke="#006b00" stroke-width=".428" stroke-linecap="round"/><path d="M547.499 52.25s1.987-2.258 2.077-2.8c.091-.542 9.035-.903 14.365-10.84 2.982-5.24 0-2.17 0-2.17l-.18-2.529s3.704-3.523 2.349-5.421c-1.355-1.897-.904 2.44-3.072 2.35-2.168-.091-.994-4.699-.994-4.699s-.18-.542-.813-.813c-.903.09-.632 1.717-1.445 1.898-.813.18-1.536-3.795-1.536-3.795s-1.355-1.807-2.53 3.885c.633 6.053 4.517 4.878 4.517 8.854 0 3.974-3.433 7.046-4.426 7.137-.995.09-.633-3.343-.633-3.343s-.542-1.626-.903-1.626 1.987-.362 1.626-4.879c-.813-5.42-1.445 1.265-2.891.994-1.446-.27-.362-4.969.18-5.51.543-.543-.632-2.802-3.794 2.98-.271 2.8-.632-.722-1.265-.542-1.084 2.259-.903 3.885.633 5.963 2.258 2.078 3.704 4.156 3.613 5.24-.09 1.084-1.264 3.524-2.89 3.524s.09-2.982 0-3.976c-.091-.993-2.801-4.608-2.801-4.608s-1.897-3.071-1.717-3.161c.18-.09-.18-.542-1.084 2.62-.904 3.162-1.988-2.078-1.988-2.078s-1.264 3.885 1.446 6.234c-2.078-.271-2.259.542-2.259.542 0 1.084 2.8 1.535 3.162 3.433.362 1.897-2.89 2.981-2.89 2.981s1.355 1.898 5.149-1.807c.09 2.35-1.446 3.975-1.446 3.975 1.265.572 2.259.512 2.44 1.988z" fill="#cdad56" fill-rule="evenodd" stroke="#000" stroke-width=".776" stroke-linejoin="round"/><path d="M535.1 52.25s-1.688-2.506-1.765-2.999c-.077-.493-8.306.623-12.2-9.414-2.532-4.768 0-1.972 0-1.972l.154-2.302s-2.695-3.297-1.544-5.023c1.15-1.726.677 2.22 2.157 2.227 1.841-.082.845-4.275.845-4.275s.152-.493.69-.74c.767.083 1.079 2.556 1.77 2.72.69.165 2.116-2.91 2.569-3.542.632-.09.608-2.548 1.606 2.631-.537 5.508-5.1 4.44-5.1 8.057s2.915 6.412 3.758 6.494c.845.082.537-3.041.537-3.041s.46-1.48.767-1.48c.308 0-2.68.574-2.374-3.536.69-3.848 2.221.248 3.449 0 1.228-.246-.144-4.069.208-4.653.082-.583 1.892-3.09 2.59 2.442.23 2.549 1.621-2.193 2.158-2.029.921 2.056-.407 4.8-1.711 6.691-1.918 1.89-2.785 3.962-2.708 4.949.077.986.532 2.212 1.914 2.212 1.38 0 .465-1.72.542-2.623.076-.904 2.378-3.832 2.378-3.832.452-.722.076-2.072.555-2.696.75.008 1.057-1.035 1.824 1.842.767 2.877 1.688-1.891 1.688-1.891s1.074 3.535-1.228 5.673c1.765-.248 1.918.493 1.918.493 0 .986-.842 1.397-1.15 3.123-.307 1.727.92 2.714.92 2.714s-1.151 1.726-4.373-1.645c-.077 2.137 1.227 3.617 1.227 3.617-1.074.521-1.917.466-2.071 1.81z" font-size="12" fill="#cdad56" fill-rule="evenodd" stroke="#000" stroke-width=".682" stroke-linejoin="round"/><path d="M584.745 184.497c-1.683-1.527-1.883-.193-2.71-.535-.406-.17-.724-.55-1.077-.895-.307-.315-.671-.445-1.077-.616l-.459 1.357c-.153.452.426 1.2.413 1.88-.115 1.009-.526 1.843-1.791 2.19.36-.716.565-.751.455-1.623-.054-.436-1.274-1.21-1.124-1.623.224-.663.605-1.43.323-2.094-.52.355-1.198.17-1.718.385-.436.195-.466 1.007-1.073 1.345-.622.291-1.995.147-3.141-.504.7-.53 1.28-.172 1.98-.704.35-.266.334-1.403.684-1.67.35-.265 1.19-.548 1.54-.814-.315-.359-.299-.927-.613-1.285-.316-.36-1.713-.282-2.028-.64-.63-.718-.51-1.662-1.14-2.38 1.63.585 1.394 1.38 1.803 1.32.773-.37 1.544-.444 1.949-.274.405.17 1.177 1.179 1.582 1.35.153-.453.376-1.027.53-1.48.153-.452-.689-1.236-.535-1.688.306-.904 1.066-1.704 1.372-2.608.11.872.255 1.605.365 2.478.054.436.912.663.967 1.1.055.435-.448 1.447-.393 1.883.468-.093 1.146-.03 1.613-.123.469-.093.78-1.181 1.248-1.275.937-.187 1.61-.13 2.565.05-.7.653-1.244.61-1.683 1.21-.35.266.136 1.142-.876 1.757-.381.22-1.381-.044-1.732.221l.945 1.076c.315.36 1.73.526 2.045.885.63.718.964 1.575.79 2.344zm-43.265.737c1.683-1.527 1.883-.194 2.71-.534.406-.171.724-.551 1.077-.896.307-.315.67-.446 1.076-.617l.46 1.357c.153.452-.427 1.201-.413 1.88.114 1.01.525 1.844 1.79 2.19-.36-.715-.564-.75-.454-1.622.054-.437 1.274-1.21 1.124-1.624-.224-.662-.605-1.43-.323-2.093.52.355 1.198.17 1.718.385.436.195.466 1.007 1.073 1.344.622.292 1.995.148 3.141-.503-.701-.531-1.28-.173-1.98-.704-.35-.266-.334-1.404-.684-1.67-.35-.265-1.19-.549-1.54-.814.315-.359.299-.927.613-1.286.316-.358 1.713-.281 2.027-.64.63-.717.51-1.662 1.14-2.38-1.63.586-1.393 1.38-1.803 1.32-.772-.37-1.543-.444-1.948-.273-.405.17-1.177 1.179-1.582 1.349-.154-.452-.377-1.027-.53-1.479-.153-.452.689-1.235.535-1.688-.306-.904-1.066-1.704-1.372-2.608-.11.872-.255 1.605-.365 2.477-.055.436-.912.664-.968 1.1-.054.436.449 1.448.394 1.884-.468-.093-1.146-.03-1.614-.123-.468-.094-.779-1.181-1.248-1.275-.936-.187-1.61-.13-2.564.05.7.653 1.244.609 1.683 1.21.35.266-.137 1.142.876 1.757.38.22 1.382-.044 1.732.221l-.945 1.077c-.315.358-1.73.525-2.045.884-.63.717-.964 1.574-.79 2.344z" font-size="12" fill="#ffc900" fill-rule="evenodd"/><path d="M583.232 189.323c-1.524 1.19-11.372 3.68-11.473 12.23-.101 8.55 1.727 10.5-.101 10.716-3.554 0-4.061-9.525-3.96-13.746.101-4.222.203-3.572.203-3.572s2.436.649 2.234 2.706c-.203 2.056 2.436-5.087 1.523-7.036 1.624 1.624 3.756.975 3.756.866 0-.108-1.218-1.407-1.726-2.381-.507-.974 1.828.54 1.828.54s.1-1.622-1.93-1.514c-2.64 0 .407-.866.407-.866s1.523 1.407 2.538-.109c-1.117-1.19-2.741-1.84-2.741-1.84s-1.422-2.705-3.35-3.246c-2.234-.542-1.93.973-4.468.757-.507.974-.507 1.083.508 1.407-1.726 1.191-.812 3.572-.812 3.572s2.74-1.19 2.639.758c-.101 1.948-1.625 1.623-2.64.433-.913-.542-1.218.54-1.218.54l1.422 1.516s-2.742-.108-3.452 1.732c1.523-.108 2.335.325 2.335.325s-3.148 1.407-3.452 2.165c-.304.757-.406-.867-.508-.867-.101 0-3.045-1.081-3.045-1.081l-1.017 4.68s2.032 2.03 3.149 1.38c1.117-.649 3.147-2.597 4.365-2.056-3.553 2.706-7.106 6.602-9.035 7.144-.508-.433-2.234-2.165-2.944-1.3-.711.867-.204 1.95.71 1.84.913-.107-2.944.867-2.132 2.49.812 1.624.71 1.516 1.422 1.083.71-.433-.61-.541 2.03-1.299 2.64-.757 2.538-1.516 2.538-1.516s-.508 1.191-1.929 1.516c-1.421.325-2.538.325-2.233.758.304.433.913 1.19.71 1.624-.203.432 2.944-2.274 3.757-.109 2.132-.108 3.553-2.706 2.538-4.22.101 1.622 1.116 2.163.507 2.92-.61.759 4.772-2.489 2.132-4.437.712 1.624.812 2.923.812 2.923s1.219-.108 1.523-.541c.305-.434-.609 1.19-.203 1.515.406.325 2.335 2.165 1.523 3.464-.507-.758-.61-1.949-1.218-1.84-.61.108-3.148 1.948-4.67 2.056-1.523.108 1.827 5.629 1.827 5.629s-2.335-.325-2.639-.109c-.305.217-1.828-1.948-2.132-.649-.508 1.623.507.974.507.974s-1.32-.65-2.03.109c-.71.757-1.422 1.515-.914 1.839.508.325 2.741.325 3.046.217.304-.108-2.538.216-2.741.541-.204.324-.61 1.515 0 1.948.609.433 2.132-.216 2.233-.54.102-.326.203 1.19.203 1.19s2.64.216 2.64-2.49.203 1.948.203 1.948 2.64.433 2.74-2.273c.102-2.705.305 1.84.305 1.84s1.727-.541 1.727-.973c0-.434-.102 5.411-1.32 7.035-1.93-1.299-3.148.866-3.148.866s.102 3.139-.101 3.897c-.203.757 1.32-.434 1.421-.758.102-.325 1.93-1.191 2.031-1.407l.609-1.3s-.407 1.516-1.117 1.733c-.71.216-1.421.974-1.117 1.623.305.65 1.422 1.083 1.827 1.732.407.65 1.828-3.788 1.828-3.788l.101.973s1.828-.432 2.03-1.298c.204-.866-1.928-1.623-.202-3.031 1.726-1.407 0 1.299 0 1.299s.61 2.057 1.015 2.057 1.421-3.897.406-4.871c-1.015-.974 1.523 1.19 1.523 1.19s1.422-4.004-.101-4.546c-1.523-.54-2.234-.757-2.234-.757s.812-1.083.406-1.19c-.406-.109 2.132 2.38 2.538 1.731.406-.65 1.016-2.598-1.928-3.68-2.945-1.082-.102-4.113-.102-4.113s1.828 2.165 3.147.973c1.32-1.19-.101-1.19-.101-1.19s3.756-2.38 3.857-3.571c-.71-.11-1.929.108-1.929.108s2.133-1.407 1.626-3.68c-.813 1.19-1.93 1.19-1.93 1.19s1.828-1.84 1.523-3.571c-1.117.865-1.016 1.514-1.726 1.298-.71-.216-1.929-7.035.914-7.469 2.842-.432 1.32 3.356 1.421 3.356.101 0 4.264-1.732 0-4.546 1.015-.325 3.147 1.624 3.147 1.624s-.913-4.763-5.482-1.84c1.117-1.19 1.828-1.949 2.741-1.732.914.217 4.163-.108 4.163-1.083-.812-.65-2.538.325-3.452 0-.914-.324 6.497-.866 5.889-4.545z" font-size="12" fill="#ffc900" fill-rule="evenodd" stroke="#006b00" stroke-width=".428" stroke-linecap="round" stroke-linejoin="round"/><path d="M481.299 118.544s12.247-6.43 18.37 1.531m4.899 12.247c-.306 0-4.286 3.98-5.205 3.98m13.472 8.879s11.328.918 18.676-10.41" transform="matrix(.3316 0 0 .35353 391.452 150.23)" font-size="12" fill="none" stroke="#006b00" stroke-width="1.25" stroke-linecap="round"/><path d="M525.081 141.813s.919 6.123 2.756 6.123c1.837 0-3.062 1.531-4.899.306 2.143 2.756 3.368 7.655 0 9.492" transform="matrix(.3316 0 0 .35353 391.452 150.23)" font-size="12" fill="none" stroke="#006b00" stroke-width="1.25" stroke-linecap="round"/><path d="M519.264 218.968s-3.98 4.286-8.879 4.592" transform="matrix(.3316 0 0 .35353 391.452 150.23)" font-size="12" fill="#e80000" fill-rule="evenodd" stroke="#006b00" stroke-width="1.25" stroke-linecap="round"/><path d="M523.857 199.373s-2.45-12.247-.919-15.309c.919-3.979 4.899-5.511 7.961-10.716m-8.267 17.146s-3.062 7.348-16.533 4.899m20.207-23.269s.919 9.797-11.328 6.123m-3.674-50.212s-4.899 4.287-3.062 10.104" transform="matrix(.3316 0 0 .35353 391.452 150.23)" font-size="12" fill="none" stroke="#006b00" stroke-width="1.25" stroke-linecap="round"/><path d="M567.09 191.705s2.132-.866 2.538-1.299c.406-.433 1.117-1.299 1.32-1.948.203-.65-1.421-1.624-.61-3.03.508-.65 1.219-.758 2.437 0 1.219.757-1.116-2.382-2.335-2.49-1.218-.109-2.03.866-2.335.65-.304-.217.102.865-.406.865s1.015.866.914 1.407c-.102.541 1.624 2.381 1.523 2.815-.102.432-2.538 2.922-3.046 3.03z" font-size="12" fill="#006b00" fill-rule="evenodd"/><path d="M534.267 97.112c2.794-.636 3.243.07 2.755 2.45-1.309-.66-1.79-1.218-2.755-2.45z" transform="matrix(.3316 0 0 .35353 391.452 150.23)" font-size="12" fill="#ffc900" fill-rule="evenodd" stroke="#ffc900" stroke-width="1.25" stroke-linecap="round" stroke-linejoin="round"/><path d="M514.708 233.517s-1.033 6.409 1.489 6.946c-.124-2.48.538-4.176 1.158-4.837-.538-.249-2.522-2.067-2.647-2.109zm-5.678-7.891c-2.316-.331-6.23 1.591-5.105 3.911 1.881-1.621 3.626.134 4.941-1.519.404-.453.29-1.812.164-2.392zm-.024-4.576s-3.651-.581-4.157 1.948c2.52-.32 3.274-.59 4.109-.06.242-.541.008-1.762.048-1.888z" transform="matrix(.3316 0 0 .35353 391.452 150.23)" font-size="12" fill="#e80000" fill-rule="evenodd" stroke="#006b00" stroke-width="1.25" stroke-linejoin="round"/><path d="M493.54 184.936s2.191.828 2.811 3.06c1.736-1.075 2.564-5.83-2.811-3.06zm-5.417 5.458c.083-.041 4.59-2.77 5.045-.165-.952.95-1.365 1.57-2.109 1.778-.579-.001-1.737-1.778-2.936-1.613zm-.454 8.848c.082-.042 2.894-2.522 3.969-.868 1.075 1.653-.868 1.571-.868 1.571s-.993-.455-3.101-.703zm-3.97-49.284c-.041 0-3.597-1.364-5.085 1.116 2.357.29 3.184 1.117 4.258 1.944-.289-1.034-.785-2.605.827-3.06zm-6.904 18.564s.165-4.176 2.15-5.871c1.116.62 1.446 1.612 2.191 2.853-1.488.33-3.473.413-4.341 3.018zm9.509-2.977s-3.928 1.82-2.646 3.804c1.282-1.364 2.688-.951 2.688-.992 0-.041 0-2.77-.042-2.812z" transform="matrix(.3316 0 0 .35353 391.452 150.23)" font-size="12" fill="#e80000" fill-rule="evenodd" stroke="#006b00" stroke-width="1pt" stroke-linejoin="round"/><path d="M480.64 125.605c-1.406 1.571 1.736 5.003 5.044 4.507.827-3.72-4.217-5.664-5.044-4.507z" transform="matrix(.3316 0 0 .35353 391.452 150.23)" font-size="12" fill="#ffc900" fill-rule="evenodd" stroke="#006b00" stroke-width="1pt" stroke-linejoin="round"/><path d="M550.817 192.091c-.229.619.68 1.486 1.206 1.243.215-.634-.969-1.735-1.206-1.243z" font-size="12" fill="none"/><path d="M484.278 122.753s.62 2.936 3.473 2.15c-.455-2.274-2.439-3.969-2.439-3.969-.124.662.413 1.695-1.034 1.819zm1.902 8.517s1.571 1.695 4.672-1.778c-1.405.413-3.886-.827-3.886-.827s0 2.398-.786 2.605z" transform="matrix(.3316 0 0 .35353 391.452 150.23)" font-size="12" fill="#e80000" fill-rule="evenodd" stroke="#006b00" stroke-width="1pt" stroke-linejoin="round"/><path d="M480.463 118.863c-1.406 1.571.583 3.762 3.891 3.266.827-3.72-3.064-4.423-3.891-3.266z" transform="matrix(.3316 0 0 .35353 391.452 150.23)" font-size="12" fill="#ffc900" fill-rule="evenodd" stroke="#006b00" stroke-width="1pt" stroke-linejoin="round"/><path d="M144.625 266.621s7.037-2.011 10.771 1.005c3.734 3.016 3.734.287 3.734.287s5.457 2.011 7.037 1.58c1.58-.431-1.148.144 1.006-1.149 2.154-1.292-4.309.288-4.883-2.441-1.006-1.724.143-3.878-2.154-3.16-1.58-2.011 1.005-3.446.43-5.601-1.579 1.149-2.441-.431-3.734 2.442-3.015-.575-.431-4.74-3.734-5.171 0 3.016-2.442 3.16-2.585 4.883-1.436 1.006-7.755 4.74-5.888 7.325z" fill="url(#e)" fill-rule="evenodd" transform="matrix(.621 0 0 .621 461.4 21.482)"/><path d="M500.91 329.24c2.836-.684 18.2 3.392 24.123 9.743-1.257-11.31-4.39-19.975-4.39-19.975s-9.156-2.611-10.413-1.354c-1.843 1.94-7.38 7.757-9.32 11.586zM496.228 277c-1.077.18-2.154.898-3.231 2.693-1.257 3.051-2.155 10.77-3.95 12.566-1.794 1.795-3.41 1.975-3.41 3.59 0 1.616.18 5.386 5.026 6.822 4.847.18 12.567-7.72 12.567-7.72s3.95-4.308 5.564-8.975c-9.334 3.232-15.977-5.386-12.566-8.976z" fill="#c01500" fill-rule="evenodd" stroke="#000" stroke-width=".828"/><path d="M631.24 327.44c-2.815-.681-18.355 3.371-24.232 9.685 1.247-11.244 4.357-19.858 4.357-19.858 1.085-.296 8.986-2.596 10.233-1.347 1.829 1.93 7.717 7.713 9.641 11.52zm4.351-51.935c1.07.178 1.447 1.582 2.32 3.367 1.246 3.033 2.531 7.453 4.313 9.238 1.781 1.785 3.384 4.429 3.384 6.035 0 1.605-.375 3.776-5.185 5.203-4.81.18-11.779-5.997-11.779-5.997s-3.92-4.283-5.523-8.923c9.264 3.213 15.263-5.059 12.47-8.923z" font-size="12" fill="#c01500" fill-rule="evenodd" stroke="#000" stroke-width=".822"/><path d="M490.842 319.367s9.693 6.642 9.874 9.694c26.03-38.597 92.453-50.625 130.332-2.693 5.026-6.642 10.233-8.796 10.233-8.796-39.854-52.062-119.203-45.6-150.44 1.795z" fill="#fb0" fill-rule="evenodd" stroke="#000" stroke-width=".828"/><g fill="#1e5aa6" fill-rule="evenodd" stroke="#000"><path d="M589.6 171.687l3.794-.09-6.776 8.582 8.131 9.487-15.991 20.147 15.088 18.159c-1.657 4.066-3.584 7.77-6.144 11.112l-8.673-9.576 15.72-19.605-12.92-14.636 7.77-23.58zm-54.207 1.716l-4.065.091 7.588 8.22-8.041 10.03 16.714 18.159-13.823 18.52c1.657 4.066 4.036 8.583 6.595 11.925l8.222-10.389-16.894-18.792 12.377-15.72-8.673-22.044z" stroke-width=".828"/><path d="M554.184 222.19l-5.963 7.95 21.322 24.664c3.764-1.897 6.716-4.065 9.938-6.685l-11.113-12.83 4.518-13.28 6.505 7.499-20.328 25.929c-3.403-1.446-7.167-3.704-10.57-6.505l10.75-13.642-5.059-13.1zm-6.595-12.377l3.885 4.878-2.53-6.595-1.355 1.717z" font-size="12" stroke-width=".828"/><path d="M575.414 214.127c.085-.09 3.135-4.157 3.135-4.157l-1.187-1.625-1.948 5.782z" font-size="12" stroke-width=".802"/></g><text style="line-height:100%" transform="rotate(-49.556 253.967 -489.034) scale(.621)" x="-328.344" y="362.397" font-size="14" font-weight="700" stroke-width="1pt" font-family="Timmons"><tspan x="-328.344" y="362.397">L</tspan></text><text style="line-height:100%" transform="matrix(.4361 -.44211 .44211 .4361 461.4 21.482)" x="-292.335" y="384.266" font-size="14" font-weight="700" stroke-width="1pt" font-family="Timmons"><tspan x="-292.335" y="384.266">E</tspan></text><text style="line-height:100%" transform="matrix(.4737 -.33822 .35254 .46837 461.4 21.482)" x="-239.78" y="451.681" font-size="14" font-weight="700" stroke-width="1pt" font-family="Timmons"><tspan x="-239.78" y="451.681">O</tspan></text><text style="line-height:100%" transform="matrix(.51447 -.3478 .3478 .51447 461.4 21.482)" x="-188.526" y="429.958" font-size="14" font-weight="700" stroke-width="1pt" font-family="Timmons"><tspan x="-188.526" y="429.958">T</tspan></text><text style="line-height:100%" transform="matrix(.56028 -.26782 .26783 .56028 461.4 21.482)" x="-115.426" y="451.479" font-size="14" font-weight="700" stroke-width="1pt" font-family="Timmons"><tspan x="-115.426" y="451.479">E</tspan></text><text style="line-height:100%" transform="matrix(.56737 -.25246 .25246 .56737 461.4 21.482)" x="-94.111" y="453.046" font-size="14" font-weight="700" stroke-width="1pt" font-family="Timmons"><tspan x="-94.111" y="453.046">R</tspan></text><text style="line-height:100%" transform="rotate(-21.91 286.188 -1181.083) scale(.621)" x="-68.371" y="454.982" font-size="14" font-weight="700" stroke-width="1pt" font-family="Timmons"><tspan x="-68.371" y="454.982">R</tspan></text><text style="line-height:100%" transform="rotate(-4.763 488.986 -5536.796) scale(.621)" x="112.016" y="445.666" font-size="14" font-weight="700" stroke-width="1pt" font-family="Timmons"><tspan x="112.016" y="445.666">R</tspan></text><text style="line-height:100%" transform="rotate(.857 -1206.318 30875.154) scale(.621)" x="180.225" y="430.793" font-size="14" font-weight="700" stroke-width="1pt" font-family="Timmons"><tspan x="180.225" y="430.793">R</tspan></text><text style="line-height:100%" transform="rotate(29.645 190.11 882.512) scale(.621)" x="414.759" y="275.217" font-size="14" font-weight="700" stroke-width="1pt" font-family="Timmons"><tspan x="414.759" y="275.217">R</tspan></text><text style="line-height:100%" transform="rotate(39.801 201.028 648.014) scale(.621)" x="483.878" y="193.05" font-size="14" font-weight="700" stroke-width="1pt" font-family="Timmons"><tspan x="483.878" y="193.05">E</tspan></text><text style="line-height:100%" transform="matrix(.59837 .11248 -.09645 .5911 461.4 21.482)" x="309.116" y="414.028" font-size="14" font-weight="700" stroke-width="1pt" font-family="Timmons"><tspan x="309.116" y="414.028">O</tspan></text><text style="line-height:100%" transform="matrix(.56007 -.08172 .08475 .60548 461.4 21.482)" x="105.058" y="459.272" font-size="14" font-weight="700" stroke-width="1pt" font-family="Timmons"><tspan x="105.058" y="459.272">O</tspan></text><text style="line-height:100%" transform="rotate(-20.292 290.706 -1278.384) scale(.621)" x="-45.708" y="455.835" font-size="14" font-weight="700" stroke-width="1pt" font-family="Timmons"><tspan x="-45.708" y="455.835">A</tspan></text><text style="line-height:100%" transform="rotate(45.196 204.891 565.011) scale(.621)" x="518.35" y="144.724" font-size="14" font-weight="700" stroke-width="1pt" font-family="Timmons"><tspan x="518.35" y="144.724">A</tspan></text><text style="line-height:100%" transform="rotate(11.356 122.669 2331.012) scale(.621)" x="271.188" y="388.298" font-size="14" font-weight="700" stroke-width="1pt" font-family="Timmons"><tspan x="271.188" y="388.298">A</tspan></text><text style="line-height:100%" transform="matrix(.61032 -.11471 .11471 .61032 461.4 21.482)" x="40.322" y="455.168" font-size="14" font-weight="700" stroke-width="1pt" font-family="Timmons"><tspan x="40.322" y="455.168">M</tspan></text><text style="line-height:100%" transform="rotate(-5.94 437.708 -4435.503) scale(.621)" x="94.429" y="448.079" font-size="14" font-weight="700" stroke-width="1pt" font-family="Timmons"><tspan x="94.429" y="448.079">P</tspan></text><text style="line-height:100%" transform="rotate(-1.454 1069.598 -18064.068) scale(.621)" x="155.088" y="437.607" font-size="14" font-weight="700" stroke-width="1pt" font-family="Timmons"><tspan x="155.088" y="437.607">P</tspan></text><text style="line-height:100%" transform="matrix(.5405 .30579 -.30579 .5405 461.4 21.482)" x="405.134" y="276.665" font-size="14" font-weight="700" stroke-width="1pt" font-family="Timmons"><tspan x="405.134" y="276.665">P</tspan></text><text style="line-height:100%" transform="rotate(6.585 43.992 4020.844) scale(.621)" x="232.095" y="409.793" font-size="14" font-weight="700" stroke-width="1pt" font-family="Timmons"><tspan x="232.095" y="409.793">I</tspan></text><text style="line-height:100%" transform="rotate(46.586 205.75 546.592) scale(.621)" x="530.392" y="132.089" font-size="14" font-weight="700" stroke-width="1pt" font-family="Timmons"><tspan x="530.392" y="132.089">T</tspan></text><text style="line-height:100%" transform="rotate(36.816 198.424 703.922) scale(.621)" x="464.158" y="218.519" font-size="14" font-weight="700" stroke-width="1pt" font-family="Timmons"><tspan x="464.158" y="218.519">T</tspan></text><text style="line-height:100%" transform="matrix(.5957 .17546 -.17546 .5957 461.4 21.482)" x="313.725" y="361.961" font-size="14" font-weight="700" stroke-width="1pt" font-family="Timmons"><tspan x="313.725" y="361.961">M</tspan></text><text style="line-height:100%" transform="rotate(47.66 206.38 533.061) scale(.621)" x="513.704" y="123.248" font-size="14" font-weight="700" stroke-width="1pt" font-family="Timmons"><tspan x="513.704" y="123.248">G</tspan></text><path d="M620.341 146.266s3.746-3.211 6.422-3.3m-5.886 2.853c.088-.089 22.387-3.21 23.1-3.924m-23.012 4.103c.09-.09 24.974-2.14 24.974-2.14m-25.062 2.229s26.49-1.249 28.095.09m-28.185-.179s25.955.178 26.401.802m-26.311-.802l24.973 2.051m-25.241-1.873c.089 0 25.42 2.23 27.917 5.44m1.338 4.55c-.09-.09-8.652-10.257-29.345-10.08m.09.18s14.36.98 18.909 5.976m-18.641-6.155s9.275-1.784 18.997 9.9" fill="none" stroke="#fff700" stroke-width=".828" stroke-linecap="round"/><path d="M247.4 217.743s20.718.813 20.718 2.844c0 2.031-15.437 5.89-15.64 14.422-.203 8.531 11.781 9.14 12.593 19.905.813 10.766-9.343 12.39-11.375 15.234-2.031 1.422-6.906 16.656-6.296 25.593.609 8.938 3.249 39.203 7.921 45.296 3.657 2.844 9.141 11.984 15.031 9.14 5.891-2.843 1.828-13.202 1.219-16.046-.609-2.844 2.437-7.516 2.437-11.781 0-4.266-2.234-7.719-2.031-8.734.203-1.016 16.453 3.859 15.437 19.906-1.015 16.046-7.515 11.171-7.515 11.171s2.031 19.703-3.047 22.343c-9.14 4.875-15.843-1.015-15.843-1.015l.859 4.007-6.953-3.601s-8.937-12.797-10.968-18.484c-2.031-5.687-4.469-31.077-3.656-36.561.812-5.485 1.421-37.578 1.015-39.203-.406-1.625-2.031-28.436-1.015-32.499 1.015-4.062 7.312-21.937 7.109-21.937z" fill="url(#f)" fill-rule="evenodd" stroke="#000" stroke-width="1pt" transform="matrix(.621 0 0 .621 461.4 21.482)"/><path d="M601.16 153.42s8.956-8.702 14.128-7.693c2.649 0 .126 1.892.126 1.892s4.54.378 5.171 2.396c.126.883-2.144 1.136-2.144 1.136s1.892.378 2.018 2.018c.126 1.64-19.173.378-19.299.252z" fill="#ff7000" fill-rule="evenodd" stroke="#000" stroke-width=".828"/><path d="M601.665 153.043s9.586-1.262 13.623-5.298m-3.91 2.649s7.063-.253 7.063.757" fill="none" stroke="#000" stroke-width=".828"/><path d="M636.479 253.574s6.054-1.387 7.694-3.532c1.01-.757 6.307 7.947-7.694 3.532z" fill="#fff" fill-rule="evenodd" stroke="#000" stroke-width=".776" stroke-linejoin="round"/><path d="M634.84 203.498s.756 4.667-1.389 7.82c-1.135 1.261-4.54 3.406-4.54 4.92 0 1.513 1.26 3.531 1.009 5.297-.253 1.766-2.145 3.533-2.019 5.046 0 1.513 2.145 9.586 1.892 9.712m-6.054-47.932s-4.793 1.64-5.802 6.433" fill="none" stroke="#fff" stroke-width=".776" stroke-linecap="round"/><path d="M621.72 150.394s1.64 4.54 6.938.252c-3.405-4.667-6.938-.126-6.938-.252z" fill="#c75b00" fill-rule="evenodd" stroke="#000" stroke-width=".828"/><path d="M625.632 150.206c0 .244-.254.441-.567.441-.314 0-.568-.197-.568-.441s.254-.442.568-.442c.313 0 .567.198.567.442z" fill-rule="evenodd"/><path d="M578.403 139.856s10.046 10.873 16.546 10.755c1.183 3.19-2.95 6.159-4.605 7.577-3.31-1.063-6.3.194-13.982-9.26.473-6.028 2.16-8.836 2.041-9.072zm13.592-25.292c1.3-4.018 3.9-7.209 6.145-7.564-.59-3.073 4.728-16.664 20.21-21.864.945 6.973-6.618 13.828-6.618 13.828s22.809-3.9 27.419-9.692c-.473 2.6-5.082 18.792-29.428 18.674 9.218 8.745-2.955 15.718-8.155 13.59 9.573-7.327-2.718-11.699-9.573-6.972z" fill="#fff" fill-rule="evenodd" stroke="#000" stroke-width=".828"/><path d="M599.795 108.891c4.61-2.954 6.264-2.954 10.046-2.364-2.718.355-2.718.474-2.718.474s-.236.354 1.418 1.89c-1.892-.473-3.546-1.536-8.746 0z" fill="#cccccd" fill-rule="evenodd" stroke="#ccc" stroke-width=".828"/><path d="M598.022 107s9.1-4.845 14.182-8.154" fill="none" stroke="#000" stroke-width=".828"/><path d="M590.222 158.175s12.528 3.427 13.946-14.537c-2.718-7.8-6.5-24.583-.71-29.428-5.318-3.664-11.109.118-11.109.118-.354.827-5.082 7.563 1.3 19.382-15.127-4.018-8.982 10.282-8.982 10.282.591-2.245 8.628-4.372 10.637 7.091.828 2.837-5.436 7.21-5.082 7.092z" fill="#00f" fill-rule="evenodd" stroke="#000" stroke-width=".828"/><path d="M604.286 143.756s13.237-7.092 12.882-23.755c-11.228.236-15.246 14.773-15.246 14.773l2.364 8.982z" fill="#00f" fill-rule="evenodd" stroke="#000" stroke-width=".828"/><path d="M544.957 142.928s-9.81 8.51-15.364 5.792c-4.137 2.481-8.982-1.891-8.982-1.891s5.673 20.918 26 5.79c-.354-4.608-1.418-9.336-1.654-9.69z" fill="#fff" fill-rule="evenodd" stroke="#000" stroke-width=".828"/><path d="M529.475 148.365c.827-4.372 4.255-6.5 6.973-2.364 3.664.71 7.328-14.3-5.673-11.818 3.664-19.619-7.328-26.946-7.328-26.946s-3.9 21.746-2.127 25.764c1.773 4.018-2.6-7.446-16.664-10.637-.236 16.428 15.719 24.11 15.719 24.11s4.49 4.136 9.1 1.891z" fill="#00f" fill-rule="evenodd" stroke="#000" stroke-width=".828"/><path d="M530.775 134.065s-6.146 5.2-4.728 12.29m-4.609-13s-1.418 5.082 1.655 12.292m-2.6 1.655s2.836-4.61 8.982 1.3" fill="none" stroke="#000" stroke-width=".828"/><path d="M521.674 115.391c0-.118-9.336 0-3.782 9.455-4.135 1.3-13.354-4.727-6.972-12.764-20.92-.472-29.429-10.518-29.429-19.736 6.146 6.382 20.801 3.781 26.001 7.681-6.382-5.91-5.082-14.063-5.082-14.063s17.847 5.318 21.037 21.155c-1.064 3.072-1.536 8.51-1.773 8.272z" fill="#fff" fill-rule="evenodd" stroke="#000" stroke-width=".828"/><path d="M507.318 99.614c3.444 3.505 12.293 4.552 16.784 8.452" fill="none" stroke="#000" stroke-width=".828"/><path d="M511.392 109.955s7.326-.946 9.45 1.655c-2.867 0-3.823-.71-7.963.827 1.168-.591.849-1.655 1.486-1.655s-2.654-.827-2.973-.827z" font-size="12" fill="#cccccd" fill-rule="evenodd" stroke="#ccc" stroke-width=".589"/><path d="M547.912 52.635s4.017-3.546 8.391-.355c-1.976 5.904-9.1 3.664-9.1 3.664s.236 2.955-.473 4.373c1.426 1.072 2.6 4.61 2.6 4.61s7.328-1.773 8.864 1.418c2.806-.388 4.846 0 4.846 0s5.673-1.418 7.681-1.418c2.01 0 8.391 1.654 8.983 2.836.59 1.181 2.718 9.1 4.135 8.982 1.42-.118-3.426 1.89-4.727-.118-1.3-2.01-.945 2.6-.945 2.6s4.018 4.254 4.491 5.2c.472.945-2.482 8.628-.236 13.946-1.968.182-2.128 2.246-2.128 2.246-.108 2.34-3.073 2.954-3.073 2.954l-.709-3.191-2.009 1.182.828-2.482s2.718-6.618 2.954-8.746c.236-2.127-2.482-5.909-4.609-5.909s-3.664 6.736-3.664 6.736-1.063 5.082-.709 5.555c.355.473-1.418-1.654-1.418-1.654s-.945 3.072-1.655 4.018c-.709.945-2.245 1.3-2.245 1.3s-1.064-3.073-.71-4.255c.355-1.181 5.792-5.791 5.319-9.1-.473-3.31 0-2.482-.118-2.6-.118-.118-2.837-2.482-2.955-3.782-.118-1.3-3.546 1.655-8.036.709-1.375 2.402-1.537 8.391-1.537 8.391s-.473 7.21.472 8.037c.946.827-2.362 2.6-2.362 2.6l-2.365 3.19s-.827-2.008-.827-1.89c0 .118-1.654 1.182-1.654 1.182l.945-2.364c-.058-1.789 2.298-6.676 2.298-10.812 0-4.137.302-8.57.302-8.57s-4.373-.236-4.254 4.254c.118 4.491-1.064 4.728-.827 6.028.236 1.3 1.417 4.963 1.063 6.027-.354 1.064-1.773 1.419-1.773 1.419l-.354.59s-4.373 2.01-4.255 2.837c.118.827-.118-2.364-.118-2.364l-.236-3.428s2.6-1.654 2.6-5.79-.6-4.725-.481-5.67c.118-.946.717-4.376.599-4.73-.118-.355-2.482.945-3.192.945-.709 0 1.3-2.482 1.537-4.255.236-1.773-2.364 1.655-4.491-.354.989-2.182 2.482-2.837 2.719-4.491.235-1.655-1.655 1.418-3.31.236.134-1.586 1.773-2.954 1.773-2.954s-1.347-.166-1.891 0c-1.064-.355 1.182-2.01 1.3-4.373.118-2.364-1.3-3.31-1.3-3.428 0-.118-2.364-2.127-2.719-2.954-.353-.828-.353-1.773-.353-1.773s-3.901 2.836-8.51-3.191c4.22-3.604 8.745-.946 8.745-.946s1.182-3.31 6.62-3.073c5.435.236 6.5 3.31 6.263 2.955z" fill="#923f00" fill-rule="evenodd" stroke="#000" stroke-width=".828"/><path d="M577.642 113.769c.099 0 10.04.295 10.138 5.61.098 5.316-3.051 3.938-3.15 3.938-.098 0-7.284-.886-7.284-.886l.296-8.662z" fill="#00f" fill-rule="evenodd" stroke="#000" stroke-width=".828"/><path d="M567.997 112.293s12.4-.098 11.712 5.315c-.69 5.414-3.838 4.33-3.838 4.33l-6.005-.491-1.87-9.154z" fill="#fffeff" fill-rule="evenodd" stroke="#000" stroke-width=".828"/><path d="M561.008 111.702l7.185.59s4.33.591 4.134 4.725c-.197 4.134-4.43 4.233-4.43 4.233l-6.987-.394.098-9.153z" fill="#00f" fill-rule="evenodd" stroke="#000" stroke-width=".828"/><path d="M544.18 113.769c-.1 0-10.04.295-10.139 5.61-.098 5.316 3.051 3.938 3.15 3.938.098 0 7.283-.886 7.283-.886l-.295-8.662z" fill="#fff" fill-rule="evenodd" stroke="#000" stroke-width=".828"/><path d="M553.825 112.293s-12.402-.098-11.713 5.315c.69 5.414 3.839 4.33 3.839 4.33l6.004-.491 1.87-9.154z" fill="#00f" fill-rule="evenodd" stroke="#000" stroke-width=".828"/><path d="M560.813 111.702l-7.185.59s-4.33.591-4.134 4.725c.197 4.134 4.43 4.233 4.43 4.233l6.988-.394-.099-9.153z" fill="#fff" fill-rule="evenodd" stroke="#000" stroke-width=".828"/><path d="M580.056 171.46s5.166-7.614 7.342-6.798c1.904.634.453 6.526-.454 7.07l-6.888-.272zm-35.416 1.36c-1.631-2.267-3.988-8.521-6.163-6.799-1.904.635-.454 6.527.453 7.07l5.71-.271z" fill="#5e0043" fill-rule="evenodd" stroke="#000" stroke-width=".828"/><path d="M548.062 157.763s10.068 6.202 13.37 6.363c3.302.161 13.772-8.054 13.772-8.054" fill="none" stroke="#000" stroke-width=".828"/><path d="M549.03 133.44l1.932-2.416 9.665 4.913 9.826-4.35 1.933 2.014-10.954 7.732-12.403-7.893z" fill="#5e0043" fill-rule="evenodd" stroke="#000" stroke-width=".828"/><path d="M541.353 133.31c.785.99 7.032 8.587 8.159 14.869 1.128 6.282-.644-8.618-.644-8.618s7.731 3.785 7.973 6.202c.242 2.415 3.697-.164 3.862-.577l-22.386-14.54 3.036 2.664zm38.2-.434s-8.134 10.713-7.167 22.39c-1.678-5.591-.323-14.819-.323-14.819l-1.771 1.128s-1.853 7.893-4.188 9.1c-.394-.94-.323-1.288-.323-1.288s-2.496 3.222-2.98 3.544c-.483.322.162 10.873.162 10.873s.838 7.647 1.804 7.567c-1.099.539-2.449 1.375-2.449 1.375l-1.002-20.42 2.291-2.295s3.06-3.704 3.302-7.329c-1.329 1.127-2.82 1.45-2.82 1.45s-.402 5.154-1.61 5.88c-1.208.724-1.24 2.069-1.24 2.069l-.288-6.737 18.603-12.488z" fill="#474747" fill-rule="evenodd" stroke="#474747" stroke-width=".776" stroke-linejoin="round"/><path d="M560.949 145.28l1.572 32.211" fill="none" stroke="#000" stroke-width=".776" stroke-linecap="round"/><path d="M541.136 160.663s3.705 2.174 5.073 8.78c12.082-.887 15.868 3.382 15.868 3.382s9.906-4.752 14.497-3.867c1.61-3.382 6.202-7.731 6.202-7.731" fill="none" stroke="#000" stroke-width=".828"/><path d="M536.08 129.09l24.869 16.27 22.39-15.061s4.672-2.578 4.27-4.43c-.404-1.852-2.015-1.128-2.82-.805-.805.322-23.437 16.35-23.437 16.35l-24.083-15.223s-1.771-.564-2.093.564c-.323 1.127.663 1.772.905 2.335z" fill="#b4b6b9" fill-rule="evenodd" stroke="#000" stroke-width=".828"/><path d="M580.551 124.863s-6.362-2.701-6.362-.36.18 2.58 1.2 4.082c1.02 1.5-.78 2.46-.78 2.46s-.24-.66-.6-1.68-3.782-1.741-4.082-2.941c-.3-1.2.72-3.122-1.321-3.362-2.04-.24-4.022.84-4.442 3.181-.42 2.342-3.061 7.804-3.061 7.804l.36-12.426c4.482.32 12.805 1.301 19.208 2.042-1.92-.3.72.12.66.78-.18.54-.84.6-.78.42zm-22.51-3.122c-1.14 0-6.843.661-8.283 1.501-1.441.84 2.34 2.161 1.86 3.301-.48 1.141-.54 3.422-2.34 2.942-1.801-.48-7.863-3.482-8.043-4.502-.18-1.02-1.441-1.08-1.441-1.08s17.407-2.342 18.247-2.162z" fill="#474747" fill-rule="evenodd" stroke="#474747" stroke-width=".776" stroke-linejoin="round"/><path d="M560.788 120.312l-.044 15.265m-11.713-33.25s-6.975 11.325-7.113 11.67" fill="none" stroke="#000" stroke-width=".828"/><path d="M161.795 129.741s4.893 6.672 4.337 8.562c2.001 1.557 4.225 7.784 4.225 7.784" fill="url(#g)" fill-rule="evenodd" stroke="#000" stroke-width="1pt" transform="matrix(.621 0 0 .621 461.4 21.482)"/><path d="M573.614 101.36s-6.56 9.254-6.353 9.945" fill="none" stroke="#000" stroke-width=".828"/><path d="M540.011 57.365c-.148.517-.984.717-1.867.447-.882-.27-1.478-.909-1.329-1.426.148-.518.984-.718 1.867-.448.883.27 1.478.91 1.33 1.427zm2.658-.183c.148.517.984.717 1.867.447.883-.27 1.478-.909 1.33-1.426-.15-.518-.985-.718-1.868-.448-.883.27-1.478.91-1.33 1.427z" fill-rule="evenodd"/><path d="M619.438 248.85s-2.432.456-2.356.684c.076.228-7.07.456-7.222.228-.152-.228-1.064 1.216-1.064 1.216l1.14-.684s1.75 1.824 2.281 1.672c.532-.152-.228.684-.076.837.152.151.684-.305.684-.305l11.814-.197-5.2-3.452z" fill="#ff7000" fill-rule="evenodd" stroke="#000" stroke-width=".828" stroke-linejoin="round"/><path d="M623.842 252.523l-9.649.28s-2.432 2.204-2.584 2.736c-.152.532 1.596.684 1.596.684l.533 1.825 1.215-.457s8.205 1.22 15.737-.456c3.8-1.33 4.465-2.926 1.804-3.896-2.66-.969-8.576-.678-8.652-.716z" fill="#ff7000" fill-rule="evenodd" stroke="#000" stroke-width=".776" stroke-linejoin="round"/><path d="M208.37 403.926l27.97-1.246-5.209-4.416 75.648-3.058-2.605-6.002-84.707 3.398 10.192 4.756-22.875.68.68 2.377-6.003-.226s6.682 2.605 6.908 3.737z" fill="url(#h)" fill-rule="evenodd" stroke="#000" stroke-width="1pt" transform="matrix(.621 0 0 .621 461.4 21.482)"/><path d="M239.726 249.424c-2.222-1.11-11.997-2.444-22.884 4.666l.444 25.105s15.997-8.664 23.773-6.665c-.444-7.776-.444-17.774-1.333-23.106z" fill="url(#i)" fill-rule="evenodd" stroke="#000" stroke-width="1pt" transform="matrix(.621 0 0 .621 461.4 21.482)"/><path d="M514.231 223.713l-40.959 40.66m59.212-40.364l-33.242 43.778M531 212.582l-44.372 53.721m-1.336-.742l4.304-5.046m49.862-20.924l-17.214 23.744m-.742 3.117l.446 9.052m25.376-27.602l-18.253 22.853m14.988-1.78l7.42-12.17m-4.6-2.373l-8.904 10.09m6.233-19.589l-6.085 7.42m-1.78-18.253s-18.55 27.158-18.254 29.384m16.324-32.945c-.445.296-16.027 20.924-16.027 20.924m-.891 6.53l-2.82 3.413m-3.56 5.194l-4.304 5.64" fill="none" stroke="#000" stroke-width=".828"/><path d="M512.204 161.208s-1.256 3.95 0 5.925c1.258 1.974 9.156 17.951 9.156 17.951s5.386-6.642 7.36-6.821c1.976-.18 1.078 17.234 1.078 17.234s-3.232 3.052-5.206 2.873c-1.975-.18 4.847 6.821 4.667 12.746-.18 5.924-8.976 35.365-12.207 35.904-3.232.538 1.436-5.386 1.256-7.002-.18-1.615-1.077-.538-1.795-2.334s1.078-4.488.718-6.283c-.359-1.795-1.975-1.436-2.154-2.693-.18-1.256 1.077-1.615.898-3.051-.18-1.437-2.155-1.078-1.975-2.334.18-1.257.359-.718.18-3.052-.18-2.334-.539 1.616-2.514 1.795-1.975.18-3.59 4.668-3.59 4.668s-3.95 5.565-7.9 3.051c2.334 5.027.539 7.182-.358 7.361-.898.18.717 3.95-1.437 4.129-2.154.18 1.616 8.438-.897 9.155 2.692 1.257.538 2.873.538 2.873s-6.222.517-4.847 8.617c-18.311-6.463-27.286-17.593-27.108-28.903.18-11.31 3.77-21.543 12.567-25.313 2.513-9.335 6.822-19.388 6.822-19.388s-.718-4.129-.18-6.822c.539-2.693 3.052-5.385 3.052-5.385s-.359-6.463-.18-9.694c.18-3.232 1.437-4.668 1.616-6.463.18-1.795-.538-10.951 1.257-12.567 1.795-1.615 5.206-1.436 7.001-2.513 1.796-1.077 4.13-3.052 6.463-2.873 2.334.18 4.308 1.796 4.308 1.796s8.798 0 9.336 3.41c.538 3.411-1.795 4.668-1.795 4.668s1.257 4.847-4.13 9.335z" fill="#8a9396" fill-rule="evenodd" stroke="#2b2b2b" stroke-width=".828"/><path d="M69.666 206.453c0 .953-1.594 1.726-3.56 1.726-1.965 0-3.558-.773-3.558-1.726s1.593-1.725 3.559-1.725c1.965 0 3.559.772 3.559 1.725z" transform="matrix(.54613 -.29562 .29562 .54612 405.318 56.618)" fill="#cecfcf" fill-rule="evenodd" stroke="#2b2b2b" stroke-width="1pt"/><path d="M502.906 149.69c0 .328-.299.594-.667.594-.369 0-.667-.266-.667-.594 0-.328.298-.594.667-.594.368 0 .667.266.667.594z" fill-rule="evenodd"/><path d="M516.03 155.618s2.18 9.735-.427 16.459m1.098-20.72s4.254 5.625 3.705 12.624m-3.294-13.86c.138 0 3.568 3.02 3.43 5.077m-2.606-6.312s2.333 1.647 2.881 3.294" fill="none" stroke="#2b2b2b" stroke-width=".388"/><path d="M516.838 147.926s-8.37 13.585-7.273 22.092" fill="none" stroke="#000" stroke-width=".828"/><path d="M517.387 147.514s-11.115 6.587-13.173 28.13" fill="none" stroke="#2b2b2b" stroke-width=".388"/><path d="M516.152 151.493l-4.39 3.293" fill="none" stroke="#000" stroke-width=".828"/><path d="M500.097 176.88s6.175-25.661 17.153-29.366" fill="none" stroke="#2b2b2b" stroke-width=".388"/><path d="M521.503 185.525s5.901-7.41 7.274-7.136c1.372.274.96 17.152.96 17.152s-4.39 3.294-5.351 3.157c-.961-.137 4.94 7.959 4.802 10.978-.137 3.019-.274 3.019-.274 3.019s0-1.784-1.373-4.666-.548-6.175-9.468-13.448c-2.196-4.528 4.391 2.745 5.763 1.647 1.372-1.098-2.47-10.566-2.333-10.703z" fill="#2b2b2b" fill-rule="evenodd" stroke="#2b2b2b" stroke-width=".828"/><path d="M511.014 143.792s-2.48.677-2.82 1.692c-.338 1.015-1.803 2.03-2.592 1.692-.79-.339-2.256-1.58-2.256-1.58" fill="none" stroke="#2b2b2b" stroke-width=".828"/><path d="M496.919 152.475s-3.721 3.721-1.917 4.172c1.804.45 3.721-2.931 3.721-2.931s0 5.75 1.579 4.848c1.579-.902 6.201-4.172 6.201-4.172s1.579-.113 1.917 0c.339.113 4.285 3.496 6.878 2.255-1.465 3.834-3.157 4.285-3.157 4.285s-2.706 3.496-6.201 2.706c-3.496-.79-4.398-2.255-4.398-2.255s-2.931.225-3.834-1.127c-.902-1.354-1.24-2.143-1.24-2.143s-1.691 1.691-2.143.902c-.45-.789 0-5.412 2.594-6.54z" fill="#2b2b2b" fill-rule="evenodd" stroke="#2b2b2b" stroke-width=".776" stroke-linejoin="round"/><path d="M518.005 147.288s-6.878-2.03-9.247 1.354c-2.367 3.382-1.803 5.299-.563 5.637" fill="none" stroke="#2b2b2b" stroke-width=".828"/><path d="M519.067 147.1c0 .81-.58 1.468-1.297 1.468-.716 0-1.297-.658-1.297-1.469 0-.81.581-1.468 1.297-1.468s1.297.657 1.297 1.468z" fill-rule="evenodd"/><path d="M499.048 164.65s2.805 4.315 6.149 5.502c3.344 1.186-2.32 2.21-5.664-.055-2.427-3.29-1.78-5.663-1.78-5.663s.647-.647 1.295.216zm24.002 25.458s-7.875-10.95-10.14-11.543c-2.266-.593 1.726-1.078 4.153 1.24 2.427 2.32-.647-3.775-.647-3.775l6.634 14.078z" fill="#2b2b2b" fill-rule="evenodd" stroke="#2b2b2b" stroke-width=".828"/><path d="M498.293 253.376c3.02-.81 16.18 7.551 19.147 9.655 2.967 2.103 9.17.755 9.17.755s-2.86 1.726-4.64 2.157c-1.779.432 5.286.432 5.286.432s-16.827 4.638-33.925-4.37c-1.565-7.01 3.667-8.575 4.961-8.63z" fill="#2b2b2b" fill-rule="evenodd" stroke="#2b2b2b" stroke-width=".776" stroke-linejoin="round"/><path d="M517.548 192.805s-2.211-.432-3.344-1.727c-1.132-1.294-2.75-4.476-4.423-5.825-1.672-1.347-10.032-5.933-13.053-5.609-3.02.323-3.937-.324-4.315-.701-.377-.378-1.617.162-1.402 1.726.216 1.564-2.32 5.016-1.402 6.634.917 1.619 5.232 8.199 6.095 8.415.863.215.323 3.829.323 3.829s3.83 3.883 4.8 4.099c.972.216 1.942.917 1.835 1.834-.108.917-4.208 5.933-4.208 5.933s-4.422 2.32-4.476 3.614c-.054 1.294 1.078 3.991 4.585 4.854 3.505.863 12.944.161 13.43-.647.485-.81 1.24-5.664.916-6.149-.323-.485-2.643-1.942-3.83-1.726-1.185.216-2.264 1.186-2.157 1.402.108.216-1.671 1.133-1.671.27s3.505-4.747 3.829-4.423c.324.324 5.286.81 6.203 3.29.917 2.482.917 4.261 3.505 3.992 2.59-.27 6.204-2.643 6.527-7.606.323-4.961-2.912-8.305-3.721-8.791s-3.507-2.103-3.722-2.859c-.216-.755-.755-3.236-.324-3.83z" fill="#2b2b2b" fill-rule="evenodd" stroke="#2b2b2b" stroke-width=".828"/><path d="M470.893 214.703s8.36-2.157 10.517-2.103c2.158.054 10.303 3.83 12.675 6.148 2.374 2.32 7.229 7.821 10.41 7.335 3.183-.485 4.1-1.132 4.1-1.132l-1.241 2.373s-2.589.702-3.883.378c-1.295-.324-3.83-1.133-6.365-3.614s-10.356-9.169-16.99-8.684c-6.634.486-10.464 7.012-10.464 7.012s.054-3.182.323-3.883c.27-.702-1.401 1.51-1.401 1.51l2.319-5.34z" fill="#2b2b2b" fill-rule="evenodd" stroke="#2b2b2b" stroke-width=".828"/><path d="M501.69 221.176c.055.054 2.104.593 5.556.593 3.453 0 5.286-1.51 5.286-1.51l-.216-1.349.54-1.888s2.642 2.697 2.589 3.237c-.055.54-1.08.755-1.08.755l-.377-1.295-.916 1.133s-5.017 3.991-7.767 3.398c-2.751-.593-5.286-2.373-4.585-2.805.702-.431 1.079-.27.97-.27zm-12.19 7.065s-3.02-.054-4.368.594c-1.348.647-1.834 1.456-2.75 1.348-.917-.108-1.619-1.294-1.348-1.78.376-.755 2.156-1.726 5.554-1.456s2.913 1.294 2.913 1.294zm10.573 8.198c0-.161-.216-4.422-1.888-6.148s-3.722-1.726-4.639-1.51c-.917.216 3.398 2.103 3.83 3.344.431 1.24 1.834 4.692 1.456 5.555-.378.863-1.079-2.427-3.722-3.344-2.643-.917-6.31-.432-5.555.755.755 1.187 3.722.108 5.232 2.643 1.51 2.535 2.643 5.232 2.643 5.232l.485-1.834 1.348-.377.162-3.507.648-.809z" fill="#2b2b2b" fill-rule="evenodd" stroke="#2b2b2b" stroke-width=".828"/><path d="M497.915 250.247l-2.75-5.501s-.864-3.506-3.183-4.477c-2.319-.97-5.394-.81-5.448.378-.054 1.186 4.962 2.697 5.286 3.344.324.647.162 1.726-.27 1.78-.43.053-2.642-.81-3.775-.54s-1.78 1.727-3.452 1.295c-1.672-.432-3.074-5.771-2.427-6.311.647-.54-1.24.971-1.618-.431-.378-1.403.54-5.772-.108-6.311-.647-.54-3.776-2.427-3.83-2.805-.053-.377.162-21.466 17.8-3.99-7.552-8.954-10.518-7.984-11.92-8.037-1.025 0-7.875.593-9.601 9.33-1.726 8.738-3.776 3.29-3.776 3.29s-.377 3.776 1.457 4.855c1.833 1.079-.864 4.207-.864 4.207s-3.29-8.036-2.804-11.543c-.647 2.806-.594 9.763 3.56 17.368 4.854 5.124 9.439 9.87 21.628 15.21 6.419-9.816 6.095-11.003 6.095-11.11z" fill="#2b2b2b" fill-rule="evenodd" stroke="#2b2b2b" stroke-width=".776" stroke-linejoin="round"/><path d="M486.373 250.302s3.56.43 4.53 2.265c.971 1.833 1.403 4.639 1.403 4.639.593-1.187.863-2.212 2.05-3.075 1.186-.863 2.049-.971 1.995-1.618-.054-.647-3.776-4.585-5.663-4.8-1.888-.216-5.178 2.049-5.178 2.049s-.593.863.863.54z" fill="#8a9396" fill-rule="evenodd" stroke="#2b2b2b" stroke-width=".776" stroke-linejoin="round"/><path d="M494.504 259.578s9.225 4.206 24.42 4.477" fill="none" stroke="#8a9396" stroke-width=".776" stroke-linecap="round"/><path d="M525.303 216.758s-.793 7.74-6.747 23.02" fill="none" stroke="#2b2b2b" stroke-width=".776" stroke-linecap="round"/><path d="M524.113 221.52s-1.786 5.558-6.748 9.725" fill="none" stroke="#2b2b2b" stroke-width=".828"/></svg>